<svg xmlns="http://www.w3.org/2000/svg" viewBox="0 0 347.13 101.5"><defs><style>.cls-1{fill:#464f6a;}.cls-2{font-size:61.7px;fill:#ff735d;stroke:#ff9d8e;stroke-miterlimit:10;stroke-width:3px;font-family:Poppins-BoldItalic, Poppins;font-weight:700;}.cls-3{font-style:italic;}.cls-4{fill:#ff9d8e;stroke:#ff735d;font-family:Poppins-Bold, Poppins;letter-spacing:0em;}</style></defs><title>Logo</title><g id="Layer_2" data-name="Layer 2"><g id="Layer_1-2" data-name="Layer 1"><polygon class="cls-1" points="9.66 9.42 30.85 13.66 36.5 25.43 57.23 14.6 61.47 19.78 68.53 23.55 84.07 19.78 106.68 19.78 118.46 25.91 132.59 19.78 153.78 23.55 159.44 9.42 173.56 9.42 193.82 0 200.88 8.01 204.65 19.31 224.43 20.25 234.79 25.91 250.81 10.36 271.53 18.84 282.84 7.54 300.26 6.59 304.5 17.43 317.22 17.9 329 19.31 338.18 18.61 347.13 34.15 344.77 51.58 339.83 72.53 323.34 72.53 302.15 62.64 301.68 81.48 272.95 85.72 269.88 73.71 261.41 69 256.23 62.41 251.99 62.41 241.15 69.47 227.5 68.06 212.42 68.06 210.54 62.41 203.94 69 180.87 69 166.74 69 148.37 70.42 136.12 66.65 120.58 67.59 112.1 62.41 107.86 76.07 100.32 82.19 80.54 85.49 68.3 80.31 65.47 62.41 56.99 69.47 42.86 69.47 31.56 66.65 12.72 70.42 0 66.18 0.24 47.57 4.47 29.2 9.66 9.42"/><text class="cls-2" transform="translate(4.4 62.61)"><tspan class="cls-3">Legalin</tspan><tspan class="cls-4" x="229.22" y="0">Aja</tspan></text></g></g></svg>