<svg xmlns="http://www.w3.org/2000/svg" xmlns:xlink="http://www.w3.org/1999/xlink" width="1080" zoomAndPan="magnify" viewBox="0 0 810 809.999993" height="1080" preserveAspectRatio="xMidYMid meet" version="1.0"><defs><clipPath id="d64efa322d"><path d="M 48 67.394531 L 762 67.394531 L 762 728.894531 L 48 728.894531 Z M 48 67.394531 " clip-rule="nonzero"/></clipPath><clipPath id="7721059ba7"><path d="M 573 715 L 644 715 L 644 728.894531 L 573 728.894531 Z M 573 715 " clip-rule="nonzero"/></clipPath><clipPath id="cf9b9721e7"><path d="M 48 67.394531 L 689 67.394531 L 689 706 L 48 706 Z M 48 67.394531 " clip-rule="nonzero"/></clipPath><clipPath id="f9332e093d"><path d="M 51 67.394531 L 726 67.394531 L 726 706 L 51 706 Z M 51 67.394531 " clip-rule="nonzero"/></clipPath><clipPath id="adf697cd78"><path d="M 686 694 L 737 694 L 737 728.894531 L 686 728.894531 Z M 686 694 " clip-rule="nonzero"/></clipPath><clipPath id="ba90189cb4"><path d="M 573 715 L 644 715 L 644 728.894531 L 573 728.894531 Z M 573 715 " clip-rule="nonzero"/></clipPath></defs><path fill="#f5f5f5" d="M 51.292969 231.675781 L 225.519531 231.675781 L 225.519531 133.667969 L 51.292969 133.667969 Z M 51.292969 231.675781 " fill-opacity="1" fill-rule="nonzero"/><path fill="#f5f5f5" d="M 353.65625 383.992188 L 546.03125 383.992188 L 546.03125 469.902344 L 353.65625 469.902344 Z M 353.65625 383.992188 " fill-opacity="1" fill-rule="nonzero"/><g clip-path="url(#d64efa322d)"><path fill="#f5f5f5" d="M 761.558594 486.886719 C 761.558594 486.871094 761.566406 486.855469 761.566406 486.84375 C 761.523438 485.78125 761.265625 482.972656 760.914062 479.460938 C 759.992188 470.214844 758.425781 456.101562 758.421875 456.097656 L 750.933594 389.058594 L 748.78125 352.726562 L 729.929688 353.488281 L 751.808594 352.605469 C 751.421875 346.269531 750.964844 339.9375 750.484375 333.609375 C 749.839844 326.140625 749.214844 318.671875 748.28125 311.21875 C 747.40625 304.199219 742.925781 298.523438 736.941406 295.769531 C 736.949219 295.714844 736.953125 295.679688 736.953125 295.679688 C 722.695312 289.523438 708.769531 285.507812 694.964844 283.640625 L 689.992188 253.0625 C 691.742188 251.71875 692.953125 249.875 693.324219 247.695312 C 693.664062 245.691406 693.488281 243.761719 692.921875 242.09375 C 696.457031 232.667969 694.8125 222.027344 688.652344 214.109375 L 688.652344 67.394531 L 260.03125 67.394531 L 260.03125 275.683594 L 213.992188 327.875 L 199.007812 333.148438 L 191.820312 335.542969 L 188.804688 336.429688 C 188.585938 335.695312 188.355469 334.996094 188.117188 334.320312 C 189.015625 331.578125 189.996094 328.601562 188.480469 325.433594 C 193.234375 324.429688 209.011719 318.574219 197.980469 286.15625 C 203.230469 274.511719 192.582031 268.078125 187.070312 267 C 156.210938 260.953125 144.699219 287.335938 145.082031 302.140625 C 145.363281 313.121094 124.9375 309.835938 124.953125 327.457031 C 124.960938 334.433594 124.027344 338.15625 122.660156 340.332031 C 122.171875 340.863281 121.695312 341.417969 121.230469 341.992188 C 119.4375 343.511719 117.289062 343.761719 115.480469 345.125 C 110.152344 349.140625 108.800781 354.6875 110.382812 360.308594 C 89.394531 402.875 80.351562 463.144531 80.351562 463.144531 C 82.421875 464.152344 84.453125 465.035156 86.46875 465.867188 C 86.464844 465.867188 86.464844 465.867188 86.464844 465.863281 C 84.75 477.261719 82.996094 505.164062 103.617188 518.246094 L 48.273438 518.246094 L 48.273438 705.082031 L 220.660156 705.082031 L 220.660156 659.496094 L 220.925781 665.820312 L 226.585938 666.527344 L 226.152344 699.121094 L 298.128906 712.289062 C 298.128906 712.289062 297.433594 702.773438 283.523438 697.101562 C 277.742188 694.742188 268.621094 692.328125 262.175781 680.78125 C 260.660156 678.058594 259.148438 674.289062 257.792969 670.425781 L 266.382812 671.5 L 266.277344 615.714844 L 289.921875 653.640625 L 296.179688 648.980469 L 310.246094 677.808594 L 369.714844 635.171875 C 369.714844 635.171875 362.390625 629.066406 348.648438 635.132812 C 342.933594 637.652344 333.878906 644.457031 323.769531 637.398438 C 322 636.160156 320.328125 634.289062 318.804688 632.144531 L 324.824219 627.667969 L 266.640625 507.652344 L 267.582031 590.578125 L 266.621094 506.253906 C 266.617188 505.886719 266.394531 505.617188 266.066406 505.484375 L 265.976562 457.605469 C 265.976562 457.605469 270.035156 432.441406 236.40625 438.449219 C 225.441406 440.410156 207.210938 443.273438 187.203125 446.296875 L 188.6875 438.589844 C 188.753906 438.589844 188.828125 438.585938 188.882812 438.585938 C 189.355469 438.570312 189.730469 438.171875 189.714844 437.699219 C 189.714844 437.671875 189.703125 437.65625 189.699219 437.628906 L 248.035156 431.042969 L 248.308594 429.8125 L 264.851562 437.667969 C 266.566406 438.484375 268.765625 437.449219 269.757812 435.359375 L 272.105469 430.417969 C 275.757812 430.183594 278.914062 429.753906 279.261719 429.484375 C 281.585938 428.203125 281.796875 425.882812 281.796875 425.882812 C 286.875 422.773438 284.910156 419.886719 284.898438 419.515625 C 289.984375 416.007812 287.722656 412.125 287.722656 412.125 C 287.761719 412.105469 287.796875 412.078125 287.84375 412.058594 C 291.0625 410.09375 290.296875 405.15625 286.660156 404.128906 C 286.648438 404.125 285.78125 404.050781 284.671875 403.949219 L 299.015625 373.75 C 300.007812 371.660156 299.417969 369.304688 297.703125 368.488281 L 260.523438 350.832031 C 258.808594 350.015625 256.609375 351.050781 255.617188 353.140625 L 231.183594 404.59375 L 194.183594 403.648438 C 194.191406 403.179688 193.828125 402.789062 193.363281 402.769531 L 193.355469 402.769531 C 193.449219 399.984375 193.714844 390.558594 193.476562 379.175781 L 202.394531 375.144531 L 206.128906 373.453125 L 228.609375 362.164062 C 230.960938 360.980469 233.03125 359.304688 234.671875 357.246094 L 260.027344 327.339844 L 260.027344 344.371094 L 530.972656 344.371094 C 531.597656 345.171875 532.515625 345.738281 533.589844 345.871094 L 533.835938 345.859375 C 533.835938 345.878906 533.832031 345.898438 533.832031 345.917969 C 532.265625 346.414062 531.222656 347.96875 531.429688 349.664062 C 531.640625 351.402344 533.117188 352.710938 534.867188 352.726562 C 535.355469 352.730469 536.265625 352.648438 537.320312 352.535156 C 543.738281 354.292969 548.421875 355.152344 552.183594 355.25 C 559.472656 371.261719 576.746094 409.101562 576.746094 409.101562 C 580.316406 417.125 590.574219 420.121094 597.484375 414.703125 C 597.785156 414.46875 598.074219 414.21875 598.359375 413.953125 C 599.621094 412.792969 600.617188 411.453125 601.351562 410.007812 L 623.867188 361.960938 C 623.976562 362.175781 624.179688 362.320312 624.410156 362.382812 C 625.414062 374.203125 626.101562 384.496094 626.101562 389.988281 C 626.101562 404.667969 623.875 430.527344 623.875 441.269531 C 623.875 443.117188 624.753906 444.769531 626.132812 445.839844 L 625.699219 457.640625 C 625.746094 457.632812 625.789062 457.613281 625.839844 457.613281 C 625.363281 457.613281 624.980469 457.996094 624.980469 458.472656 C 624.980469 458.945312 625.363281 459.328125 625.839844 459.328125 C 626.492188 459.328125 627.105469 459.269531 627.703125 459.179688 C 627.105469 459.269531 626.492188 459.328125 625.839844 459.328125 C 625.765625 459.328125 625.703125 459.304688 625.636719 459.289062 L 621.828125 563.015625 L 617.589844 662.453125 C 617.199219 662.691406 616.914062 663.09375 616.894531 663.585938 L 616.234375 678.503906 C 616.210938 679.007812 616.46875 679.4375 616.851562 679.707031 L 616.839844 679.980469 L 617.609375 679.980469 C 617.042969 687.085938 616.003906 691.886719 614.417969 695.886719 C 614.417969 695.882812 614.421875 695.878906 614.421875 695.878906 C 609.355469 702.210938 596.082031 710.273438 585.796875 715.269531 L 590.265625 722.25 L 643.878906 722.25 C 644.011719 716.734375 643.691406 708.679688 641.402344 701.640625 C 641.371094 695 642.300781 686.09375 643.058594 679.984375 L 645.984375 679.984375 C 646 679.933594 646.015625 679.878906 646.03125 679.828125 C 646.378906 679.664062 646.65625 679.375 646.773438 678.996094 C 648.035156 674.933594 649.535156 669.84375 651.097656 664.015625 C 651.210938 663.585938 651.105469 663.160156 650.871094 662.832031 C 657.597656 637.539062 665.535156 599.09375 659.871094 569.710938 L 675.585938 463.214844 L 666.230469 462.621094 L 679.476562 463.457031 C 679.496094 463.457031 679.511719 463.457031 679.53125 463.457031 C 679.539062 463.457031 679.546875 463.453125 679.558594 463.453125 L 685.632812 662.484375 C 685.234375 662.746094 684.960938 663.179688 684.976562 663.695312 L 685.453125 678.613281 C 685.46875 679.117188 685.757812 679.535156 686.164062 679.773438 L 686.171875 679.988281 L 687.800781 679.988281 C 687.789062 680.441406 687.765625 680.878906 687.765625 681.351562 C 687.765625 689.65625 687.277344 696.011719 686.875 704.859375 C 686.847656 705.519531 686.816406 706.203125 686.789062 706.894531 C 686.777344 707.152344 686.765625 707.421875 686.757812 707.683594 C 686.742188 708.078125 686.726562 708.46875 686.710938 708.871094 C 686.695312 709.300781 686.679688 709.738281 686.664062 710.179688 C 686.652344 710.433594 686.644531 710.6875 686.636719 710.945312 C 686.621094 711.46875 686.601562 712.007812 686.585938 712.550781 C 686.582031 712.707031 686.578125 712.863281 686.570312 713.019531 C 686.457031 716.875 686.375 721.207031 686.355469 726.265625 C 686.347656 727.699219 687.507812 728.871094 688.941406 728.871094 L 734.351562 728.871094 C 735.933594 728.871094 737.167969 727.460938 736.914062 725.898438 C 735.953125 720.019531 732.175781 715.882812 727.863281 711.953125 C 727.867188 711.953125 727.871094 711.953125 727.871094 711.957031 C 727.71875 711.816406 727.558594 711.675781 727.402344 711.535156 C 726.101562 710.363281 724.769531 709.203125 723.449219 708.019531 C 723.144531 707.742188 722.839844 707.464844 722.535156 707.183594 C 722.210938 706.882812 721.890625 706.585938 721.566406 706.28125 C 721.242188 705.972656 720.925781 705.65625 720.605469 705.34375 C 720.316406 705.054688 720.03125 704.769531 719.746094 704.472656 C 719.421875 704.136719 719.109375 703.789062 718.796875 703.441406 C 718.542969 703.152344 718.28125 702.867188 718.03125 702.570312 C 717.714844 702.195312 717.417969 701.800781 717.117188 701.40625 C 716.902344 701.121094 716.675781 700.84375 716.472656 700.550781 C 716.152344 700.101562 715.867188 699.628906 715.578125 699.152344 C 715.421875 698.894531 715.25 698.648438 715.097656 698.382812 C 714.683594 697.644531 714.308594 696.878906 713.976562 696.074219 C 713.972656 696.0625 713.964844 696.054688 713.960938 696.042969 C 713.824219 695.710938 713.710938 695.378906 713.589844 695.046875 C 711.753906 690.0625 711.457031 685.035156 711.636719 679.988281 L 715.253906 679.988281 C 715.261719 679.929688 715.273438 679.867188 715.28125 679.808594 C 715.660156 679.613281 715.949219 679.265625 716.03125 678.824219 C 716.761719 674.636719 717.65625 669.488281 718.609375 663.894531 C 718.695312 663.386719 718.484375 662.925781 718.132812 662.613281 C 720.402344 648.707031 722.992188 632.339844 724.484375 621.152344 C 727.5625 598.070312 723.003906 564.140625 723.003906 564.140625 L 725.058594 459.332031 C 724.414062 459.332031 723.8125 459.269531 723.222656 459.183594 C 723.816406 459.273438 724.429688 459.335938 725.078125 459.335938 C 725.550781 459.335938 725.933594 458.949219 725.933594 458.476562 C 725.933594 458.003906 725.550781 457.617188 725.078125 457.617188 C 725.082031 457.617188 725.085938 457.621094 725.09375 457.621094 L 725.320312 446.128906 C 726.894531 445.082031 727.921875 443.316406 727.921875 441.324219 C 727.921875 436.460938 727.464844 428.46875 726.964844 419.816406 C 731.136719 434.746094 736.015625 452.128906 737.816406 458.535156 L 737.796875 458.542969 C 737.34375 458.679688 737.089844 459.160156 737.226562 459.613281 C 737.285156 459.8125 737.417969 459.960938 737.578125 460.066406 C 737.472656 460.234375 737.351562 460.402344 737.261719 460.566406 C 734.488281 465.6875 733.9375 469.152344 734.722656 476.449219 C 734.402344 476.609375 734.21875 476.941406 734.261719 477.296875 C 734.171875 477.277344 734.089844 477.234375 733.996094 477.222656 C 732.074219 476.992188 730.402344 478.53125 730.480469 480.464844 L 730.890625 490.5625 C 730.925781 491.5 731.382812 492.371094 732.132812 492.9375 L 738.898438 498.054688 C 739.40625 499.054688 740.03125 499.730469 740.585938 500.167969 C 741.074219 500.550781 741.671875 500.75 742.277344 500.75 C 742.359375 500.75 742.4375 500.71875 742.519531 500.710938 C 743.597656 501.335938 744.949219 501.304688 745.964844 500.539062 L 760.324219 489.699219 C 761.144531 489.082031 761.609375 488.097656 761.570312 487.070312 Z M 161.480469 460.914062 C 161.480469 460.914062 161.449219 460.9375 161.390625 460.980469 C 161.445312 460.9375 161.480469 460.914062 161.480469 460.914062 Z M 186.839844 323.039062 C 186.773438 322.964844 186.714844 322.894531 186.644531 322.820312 C 186.714844 322.894531 186.773438 322.964844 186.839844 323.039062 Z M 187.957031 324.5 C 187.988281 324.550781 188.023438 324.601562 188.054688 324.652344 C 188.019531 324.601562 187.988281 324.546875 187.957031 324.5 Z M 187.351562 323.644531 C 187.40625 323.71875 187.460938 323.789062 187.515625 323.859375 C 187.460938 323.789062 187.40625 323.71875 187.351562 323.644531 Z M 195.542969 290.335938 C 195.589844 290.269531 195.632812 290.203125 195.679688 290.132812 C 195.632812 290.203125 195.59375 290.269531 195.542969 290.335938 Z M 197.320312 287.5 C 197.320312 287.496094 197.320312 287.496094 197.320312 287.496094 C 197.320312 287.496094 197.320312 287.496094 197.320312 287.5 Z M 196.503906 288.898438 C 196.527344 288.867188 196.542969 288.835938 196.5625 288.800781 C 196.542969 288.835938 196.527344 288.867188 196.503906 288.898438 Z M 177.539062 518.246094 L 177.535156 518.246094 C 178.796875 517.855469 180.09375 517.441406 181.402344 517.015625 C 180.097656 517.441406 178.800781 517.855469 177.539062 518.246094 Z M 182.011719 516.816406 C 184.625 515.953125 187.300781 515.015625 189.976562 514.011719 C 187.300781 515.015625 184.625 515.953125 182.011719 516.816406 Z M 190.773438 513.707031 C 193.398438 512.707031 196.007812 511.636719 198.546875 510.5 C 196.007812 511.636719 193.398438 512.707031 190.773438 513.707031 Z M 199.425781 510.105469 C 201.917969 508.96875 204.324219 507.765625 206.589844 506.507812 C 204.324219 507.765625 201.917969 508.96875 199.425781 510.105469 Z M 207.421875 506.035156 C 208.539062 505.398438 209.628906 504.75 210.660156 504.082031 C 209.628906 504.75 208.539062 505.398438 207.421875 506.035156 Z M 174.335938 517.425781 C 175.15625 517.179688 175.992188 516.929688 176.839844 516.667969 C 175.992188 516.929688 175.15625 517.183594 174.335938 517.425781 Z M 177.507812 516.460938 C 178.445312 516.167969 179.398438 515.867188 180.359375 515.558594 C 179.398438 515.867188 178.449219 516.167969 177.507812 516.460938 Z M 171.507812 518.246094 L 171.503906 518.246094 C 172.3125 518.015625 173.136719 517.78125 173.988281 517.527344 C 173.140625 517.777344 172.316406 518.015625 171.507812 518.246094 Z M 207.21875 504.175781 C 208.074219 503.671875 208.921875 503.164062 209.726562 502.640625 C 208.921875 503.164062 208.074219 503.671875 207.21875 504.175781 Z M 180.929688 515.367188 C 181.761719 515.097656 182.597656 514.816406 183.441406 514.53125 C 182.597656 514.816406 181.761719 515.097656 180.929688 515.367188 Z M 184.140625 514.292969 C 185.113281 513.960938 186.09375 513.613281 187.074219 513.257812 C 186.089844 513.613281 185.113281 513.960938 184.140625 514.292969 Z M 187.75 513.011719 C 188.597656 512.703125 189.445312 512.386719 190.289062 512.0625 C 189.445312 512.386719 188.597656 512.699219 187.75 513.011719 Z M 190.929688 511.820312 C 191.910156 511.4375 192.886719 511.046875 193.859375 510.648438 C 192.886719 511.046875 191.910156 511.4375 190.929688 511.820312 Z M 194.570312 510.351562 C 195.429688 509.996094 196.28125 509.632812 197.125 509.261719 C 196.28125 509.632812 195.429688 509.996094 194.570312 510.351562 Z M 197.628906 509.042969 C 198.585938 508.617188 199.527344 508.179688 200.457031 507.734375 C 199.527344 508.179688 198.585938 508.617188 197.628906 509.042969 Z M 201.140625 507.40625 C 202.007812 506.984375 202.863281 506.558594 203.699219 506.121094 C 202.863281 506.558594 202.007812 506.984375 201.140625 507.40625 Z M 203.972656 505.980469 C 204.875 505.507812 205.746094 505.023438 206.601562 504.53125 C 205.746094 505.023438 204.875 505.507812 203.972656 505.980469 Z M 266.386719 431.59375 L 264.007812 430.464844 L 266.386719 431.59375 L 266.867188 430.585938 Z M 259.113281 356.644531 L 294.089844 373.253906 L 259.113281 356.644531 L 245.960938 384.351562 Z M 688.859375 705.261719 C 689 705.265625 689.140625 705.269531 689.28125 705.265625 C 689.136719 705.269531 689 705.265625 688.859375 705.261719 Z M 693.671875 703.320312 C 694 703.035156 694.335938 702.726562 694.675781 702.363281 C 695.105469 701.902344 695.539062 701.46875 695.972656 701.042969 C 695.539062 701.46875 695.105469 701.902344 694.675781 702.363281 C 694.335938 702.726562 694 703.039062 693.671875 703.320312 Z M 689.683594 705.234375 C 689.84375 705.214844 690.011719 705.1875 690.175781 705.152344 C 690.011719 705.1875 689.84375 705.214844 689.683594 705.234375 Z M 690.542969 705.078125 C 690.824219 705.003906 691.109375 704.910156 691.402344 704.785156 C 691.109375 704.910156 690.824219 705.003906 690.542969 705.078125 Z M 691.621094 704.675781 C 691.859375 704.566406 692.101562 704.4375 692.351562 704.289062 C 692.101562 704.4375 691.859375 704.566406 691.621094 704.675781 Z M 692.675781 704.078125 C 692.902344 703.925781 693.132812 703.757812 693.363281 703.570312 C 693.132812 703.757812 692.902344 703.925781 692.675781 704.078125 Z M 708.785156 694.375 C 707.976562 694.417969 707.171875 694.535156 706.367188 694.722656 C 705.90625 694.828125 705.449219 694.964844 704.996094 695.117188 C 707.046875 694.433594 709.117188 694.195312 711.1875 694.476562 C 710.386719 694.367188 709.585938 694.335938 708.785156 694.375 Z M 696.371094 700.667969 C 696.679688 700.375 696.988281 700.09375 697.296875 699.820312 C 696.984375 700.09375 696.679688 700.375 696.371094 700.667969 Z M 697.753906 699.421875 C 698.058594 699.164062 698.371094 698.910156 698.679688 698.667969 C 698.371094 698.910156 698.0625 699.160156 697.753906 699.421875 Z M 699.09375 698.339844 C 699.539062 698.003906 699.980469 697.6875 700.425781 697.390625 C 699.984375 697.6875 699.539062 698.007812 699.09375 698.339844 Z M 700.433594 697.386719 C 700.878906 697.09375 701.328125 696.824219 701.773438 696.570312 C 701.328125 696.824219 700.882812 697.089844 700.433594 697.386719 Z M 702.195312 696.347656 C 702.511719 696.175781 702.828125 696.015625 703.144531 695.867188 C 702.828125 696.015625 702.511719 696.175781 702.195312 696.347656 Z M 703.617188 695.652344 C 703.9375 695.515625 704.257812 695.386719 704.574219 695.273438 C 704.257812 695.386719 703.933594 695.515625 703.617188 695.652344 Z M 711.765625 694.582031 C 711.972656 694.621094 712.183594 694.648438 712.390625 694.695312 C 712.183594 694.648438 711.976562 694.621094 711.765625 694.582031 Z M 607.148438 344.371094 L 622.863281 352.808594 Z M 637.195312 448.207031 C 637.191406 448.207031 637.191406 448.207031 637.191406 448.207031 C 637.191406 448.207031 637.191406 448.207031 637.195312 448.207031 Z M 638.238281 450.089844 C 638.226562 450.121094 638.210938 450.152344 638.199219 450.183594 C 638.214844 450.152344 638.226562 450.121094 638.238281 450.089844 Z M 637.886719 450.835938 C 637.785156 451.039062 637.675781 451.246094 637.566406 451.449219 C 637.675781 451.246094 637.785156 451.039062 637.886719 450.835938 Z M 637.277344 451.984375 C 637.070312 452.351562 636.84375 452.710938 636.605469 453.074219 C 636.84375 452.710938 637.070312 452.351562 637.277344 451.984375 Z M 633.324219 454.445312 C 633.289062 454.484375 633.246094 454.519531 633.207031 454.554688 C 633.246094 454.519531 633.289062 454.484375 633.324219 454.445312 Z M 632.265625 455.382812 C 632.191406 455.441406 632.117188 455.5 632.042969 455.558594 C 632.117188 455.5 632.191406 455.441406 632.265625 455.382812 Z M 630.886719 456.3125 C 630.8125 456.355469 630.734375 456.390625 630.65625 456.429688 C 630.730469 456.390625 630.8125 456.355469 630.886719 456.3125 Z M 629.460938 456.96875 C 629.398438 456.992188 629.332031 457.019531 629.269531 457.042969 C 629.335938 457.019531 629.398438 456.992188 629.460938 456.96875 Z M 637.195312 448.207031 C 637.136719 448.355469 637.074219 448.507812 637.007812 448.660156 C 637.070312 448.507812 637.136719 448.355469 637.195312 448.207031 Z M 636.734375 449.292969 C 636.675781 449.433594 636.613281 449.566406 636.550781 449.707031 C 636.613281 449.570312 636.675781 449.433594 636.734375 449.292969 Z M 636.050781 450.695312 C 635.984375 450.8125 635.921875 450.929688 635.855469 451.046875 C 635.917969 450.929688 635.984375 450.8125 636.050781 450.695312 Z M 635.292969 451.972656 C 635.257812 452.03125 635.222656 452.089844 635.183594 452.148438 C 635.222656 452.09375 635.257812 452.03125 635.292969 451.972656 Z M 634.429688 453.191406 C 634.359375 453.277344 634.289062 453.367188 634.21875 453.453125 C 634.289062 453.363281 634.359375 453.277344 634.429688 453.191406 Z M 634.179688 455.992188 C 633.832031 456.320312 633.472656 456.632812 633.085938 456.921875 C 633.46875 456.632812 633.832031 456.320312 634.179688 455.992188 Z M 636.335938 453.46875 C 636.113281 453.789062 635.878906 454.101562 635.632812 454.414062 C 635.878906 454.105469 636.113281 453.789062 636.335938 453.46875 Z M 635.445312 454.65625 C 635.132812 455.03125 634.792969 455.394531 634.441406 455.742188 C 634.792969 455.394531 635.132812 455.03125 635.445312 454.65625 Z M 647.886719 449.398438 C 647.964844 449.40625 648.046875 449.414062 648.125 449.417969 C 648.046875 449.414062 647.964844 449.40625 647.886719 449.398438 Z M 666.820312 450.570312 C 666.574219 450.558594 666.328125 450.554688 666.082031 450.546875 C 666.328125 450.554688 666.574219 450.5625 666.820312 450.570312 Z M 685.5625 450.597656 C 685.160156 450.609375 684.753906 450.621094 684.347656 450.628906 C 684.753906 450.621094 685.160156 450.609375 685.5625 450.597656 Z M 715.523438 454.699219 C 715.832031 455.066406 716.160156 455.421875 716.507812 455.765625 C 716.160156 455.421875 715.832031 455.066406 715.523438 454.699219 Z M 717.777344 456.867188 C 717.421875 456.59375 717.085938 456.304688 716.765625 456.003906 C 717.082031 456.304688 717.421875 456.59375 717.777344 456.867188 Z M 715.273438 454.382812 C 715.039062 454.085938 714.816406 453.789062 714.601562 453.484375 C 714.8125 453.785156 715.039062 454.085938 715.273438 454.382812 Z M 714.355469 453.132812 C 714.121094 452.773438 713.898438 452.414062 713.691406 452.050781 C 713.902344 452.414062 714.121094 452.773438 714.355469 453.132812 Z M 713.394531 451.515625 C 713.28125 451.300781 713.171875 451.09375 713.066406 450.878906 C 713.171875 451.089844 713.28125 451.300781 713.394531 451.515625 Z M 712.523438 449.71875 C 712.484375 449.628906 712.441406 449.535156 712.40625 449.449219 C 712.441406 449.535156 712.484375 449.625 712.523438 449.71875 Z M 713.816406 448.402344 C 713.816406 448.40625 713.816406 448.40625 713.816406 448.40625 C 713.816406 448.40625 713.816406 448.402344 713.816406 448.402344 Z M 714.253906 449.417969 C 714.300781 449.519531 714.347656 449.621094 714.394531 449.722656 C 714.347656 449.621094 714.300781 449.519531 714.253906 449.417969 Z M 714.9375 450.789062 C 714.972656 450.855469 715.011719 450.921875 715.050781 450.992188 C 715.011719 450.925781 714.972656 450.859375 714.9375 450.789062 Z M 715.632812 451.957031 C 715.679688 452.03125 715.730469 452.109375 715.777344 452.1875 C 715.726562 452.109375 715.679688 452.03125 715.632812 451.957031 Z M 716.539062 453.230469 C 716.597656 453.308594 716.664062 453.382812 716.726562 453.460938 C 716.664062 453.382812 716.597656 453.308594 716.539062 453.230469 Z M 717.605469 454.441406 C 717.621094 454.457031 717.632812 454.472656 717.648438 454.488281 C 717.632812 454.472656 717.621094 454.457031 717.605469 454.441406 Z M 718.355469 447.773438 C 719.941406 447.539062 721.515625 447.296875 723.074219 447.035156 C 721.515625 447.296875 719.941406 447.542969 718.355469 447.773438 Z M 721.683594 457.046875 C 721.605469 457.019531 721.53125 456.988281 721.453125 456.957031 C 721.53125 456.988281 721.605469 457.019531 721.683594 457.046875 Z M 720.265625 456.425781 C 720.203125 456.390625 720.132812 456.359375 720.070312 456.324219 C 720.132812 456.359375 720.203125 456.390625 720.265625 456.425781 Z M 718.917969 455.574219 C 718.835938 455.511719 718.757812 455.449219 718.679688 455.386719 C 718.757812 455.449219 718.835938 455.511719 718.917969 455.574219 Z M 703.878906 449.503906 C 703.390625 449.546875 702.898438 449.589844 702.40625 449.632812 C 702.898438 449.589844 703.390625 449.546875 703.878906 449.503906 Z M 689.210938 237.558594 C 689.589844 237.742188 689.945312 237.960938 690.28125 238.21875 C 689.945312 237.960938 689.589844 237.738281 689.210938 237.558594 Z M 692.921875 242.085938 C 692.785156 241.683594 692.621094 241.300781 692.441406 240.933594 C 692.621094 241.304688 692.789062 241.683594 692.921875 242.085938 Z M 692.1875 240.460938 C 691.980469 240.097656 691.761719 239.746094 691.507812 239.429688 C 691.761719 239.746094 691.980469 240.097656 692.1875 240.460938 Z M 691.285156 239.183594 C 691.050781 238.910156 690.796875 238.65625 690.527344 238.429688 C 690.796875 238.65625 691.050781 238.90625 691.285156 239.183594 Z M 688.949219 237.445312 C 688.855469 237.40625 688.75 237.390625 688.652344 237.355469 L 688.652344 237.316406 C 688.753906 237.355469 688.851562 237.402344 688.949219 237.445312 Z M 587.0625 366.738281 L 572.464844 344.371094 L 596.421875 344.371094 Z M 627.476562 446.605469 C 627.398438 446.574219 627.324219 446.539062 627.246094 446.5 C 627.324219 446.535156 627.398438 446.574219 627.476562 446.605469 Z M 627.824219 457.417969 C 627.710938 457.4375 627.597656 457.453125 627.484375 457.472656 C 627.597656 457.453125 627.710938 457.4375 627.824219 457.417969 Z M 629.800781 458.6875 C 629.273438 458.867188 628.710938 459 628.132812 459.105469 C 628.710938 459 629.273438 458.867188 629.800781 458.6875 Z M 632.976562 457.011719 C 632.558594 457.320312 632.109375 457.597656 631.644531 457.855469 C 632.109375 457.597656 632.558594 457.320312 632.976562 457.011719 Z M 631.324219 458.023438 C 630.859375 458.261719 630.375 458.484375 629.859375 458.660156 C 630.375 458.484375 630.859375 458.265625 631.324219 458.023438 Z M 618.308594 662.226562 C 618.164062 662.226562 618.027344 662.265625 617.894531 662.308594 C 618.023438 662.257812 618.160156 662.226562 618.308594 662.226562 Z M 617.199219 679.882812 C 617.332031 679.929688 617.46875 679.964844 617.617188 679.96875 C 617.46875 679.964844 617.328125 679.933594 617.199219 679.882812 Z M 650.390625 662.390625 C 650.394531 662.394531 650.398438 662.398438 650.402344 662.402344 C 650.398438 662.398438 650.394531 662.394531 650.390625 662.390625 Z M 680.132812 463.207031 C 680.144531 463.199219 680.148438 463.179688 680.160156 463.167969 C 680.148438 463.179688 680.144531 463.199219 680.132812 463.207031 Z M 680.3125 462.957031 C 680.355469 462.863281 680.386719 462.757812 680.394531 462.644531 C 680.386719 462.757812 680.359375 462.863281 680.3125 462.957031 Z M 686.398438 662.226562 C 686.242188 662.226562 686.097656 662.269531 685.957031 662.316406 C 686.09375 662.261719 686.238281 662.226562 686.398438 662.226562 Z M 714.644531 679.976562 L 686.871094 679.976562 C 686.722656 679.976562 686.582031 679.941406 686.453125 679.894531 C 686.585938 679.9375 686.722656 679.976562 686.871094 679.976562 L 714.644531 679.976562 C 714.777344 679.976562 714.902344 679.945312 715.023438 679.910156 C 714.902344 679.949219 714.777344 679.976562 714.644531 679.976562 Z M 717.222656 662.226562 C 717.410156 662.226562 717.582031 662.269531 717.742188 662.34375 C 717.582031 662.277344 717.410156 662.226562 717.222656 662.226562 Z M 717.988281 457.035156 C 718.398438 457.335938 718.835938 457.609375 719.292969 457.863281 C 718.835938 457.609375 718.398438 457.335938 717.988281 457.035156 Z M 721.15625 458.695312 C 721.675781 458.871094 722.226562 459 722.792969 459.105469 C 722.222656 459 721.675781 458.871094 721.15625 458.695312 Z M 719.625 458.035156 C 720.058594 458.253906 720.511719 458.457031 720.984375 458.625 C 720.507812 458.457031 720.058594 458.257812 719.625 458.035156 Z M 723.117188 457.421875 C 723.226562 457.441406 723.335938 457.457031 723.449219 457.472656 C 723.335938 457.453125 723.226562 457.441406 723.117188 457.421875 Z M 724.238281 446.695312 C 724.269531 446.6875 724.292969 446.667969 724.320312 446.660156 C 724.292969 446.671875 724.265625 446.683594 724.238281 446.695312 Z M 725.707031 389.984375 C 725.707031 390.949219 725.714844 391.972656 725.734375 393.023438 C 725.714844 391.972656 725.707031 390.949219 725.707031 389.984375 Z M 725.757812 394.128906 C 725.773438 394.84375 725.789062 395.5625 725.8125 396.3125 C 725.789062 395.5625 725.773438 394.84375 725.757812 394.128906 Z M 725.859375 397.699219 C 725.882812 398.390625 725.90625 399.082031 725.933594 399.789062 C 725.902344 399.078125 725.882812 398.390625 725.859375 397.699219 Z M 725.996094 401.355469 C 726.027344 402.046875 726.054688 402.734375 726.089844 403.4375 C 726.054688 402.734375 726.027344 402.046875 725.996094 401.355469 Z M 726.167969 405.09375 C 726.203125 405.792969 726.234375 406.496094 726.273438 407.203125 C 726.234375 406.496094 726.203125 405.792969 726.167969 405.09375 Z M 726.359375 408.902344 C 726.398438 409.625 726.4375 410.347656 726.476562 411.074219 C 726.4375 410.347656 726.398438 409.625 726.359375 408.902344 Z M 726.796875 416.761719 C 726.84375 417.5625 726.890625 418.359375 726.933594 419.152344 C 726.886719 418.355469 726.84375 417.5625 726.796875 416.761719 Z M 726.570312 412.746094 C 726.613281 413.5 726.652344 414.253906 726.695312 415.003906 C 726.652344 414.25 726.613281 413.5 726.570312 412.746094 Z M 726.570312 412.746094 " fill-opacity="1" fill-rule="nonzero"/></g><g clip-path="url(#7721059ba7)"><path fill="#f5f5f5" d="M 585.800781 715.265625 C 584.238281 716.023438 582.742188 716.714844 581.355469 717.316406 C 575.257812 719.960938 573.714844 723.007812 573.324219 725.941406 C 573.117188 727.488281 574.332031 728.863281 575.894531 728.863281 L 641.105469 728.863281 C 642.460938 728.863281 643.585938 727.824219 643.6875 726.472656 C 643.765625 725.371094 643.847656 723.917969 643.886719 722.246094 L 590.269531 722.246094 Z M 585.800781 715.265625 " fill-opacity="1" fill-rule="nonzero"/></g><g clip-path="url(#cf9b9721e7)"><path fill="#f5f5f5" d="M 540.921875 464.105469 L 356.949219 464.105469 L 356.949219 388.085938 L 540.921875 388.085938 Z M 260.027344 67.394531 L 260.027344 344.371094 L 688.652344 344.371094 L 688.652344 67.394531 Z M 48.273438 705.082031 L 176.597656 705.082031 L 176.597656 518.246094 L 48.273438 518.246094 Z M 51.292969 133.667969 L 51.292969 231.671875 L 225.519531 231.671875 L 225.519531 133.667969 Z M 259.113281 356.644531 L 231.410156 414.988281 L 266.386719 431.59375 L 294.089844 373.253906 Z M 259.113281 356.644531 " fill-opacity="1" fill-rule="nonzero"/></g><g clip-path="url(#f9332e093d)"><path fill="#e0e0e0" d="M 87.46875 175.550781 C 87.46875 179.082031 84.605469 181.941406 81.074219 181.941406 C 77.546875 181.941406 74.683594 179.082031 74.683594 175.550781 C 74.683594 172.019531 77.546875 169.160156 81.074219 169.160156 C 84.605469 169.160156 87.46875 172.019531 87.46875 175.550781 Z M 341.058594 299.40625 L 346.335938 299.40625 L 346.335938 122.386719 L 341.058594 122.386719 Z M 81.074219 195.761719 C 77.546875 195.761719 74.683594 198.625 74.683594 202.152344 C 74.683594 205.683594 77.546875 208.542969 81.074219 208.542969 C 84.605469 208.542969 87.46875 205.683594 87.46875 202.152344 C 87.46875 198.625 84.605469 195.761719 81.074219 195.761719 Z M 314.589844 144.589844 L 289.949219 144.589844 L 289.949219 162.953125 L 314.589844 162.953125 Z M 202.53125 169.160156 L 99.539062 169.160156 L 99.539062 181.941406 L 202.527344 181.941406 L 202.527344 169.160156 Z M 290.191406 233.261719 L 314.832031 233.261719 L 314.832031 214.898438 L 290.191406 214.898438 Z M 290.191406 197.984375 L 314.832031 197.984375 L 314.832031 179.621094 L 290.191406 179.621094 Z M 51.292969 146.976562 L 225.519531 146.976562 L 225.519531 133.667969 L 51.292969 133.667969 Z M 99.539062 208.542969 L 202.527344 208.542969 L 202.527344 195.761719 L 99.539062 195.761719 Z M 290.191406 268.539062 L 314.832031 268.539062 L 314.832031 250.175781 L 290.191406 250.175781 Z M 494.585938 111.003906 C 487.976562 111.003906 482.480469 115.75 481.300781 122.019531 L 372.09375 122.019531 L 372.09375 127.292969 L 481.339844 127.292969 C 482.613281 133.441406 488.0625 138.066406 494.585938 138.066406 C 501.113281 138.066406 506.558594 133.441406 507.835938 127.292969 L 549.101562 127.292969 L 549.101562 122.019531 L 507.875 122.019531 C 506.695312 115.75 501.199219 111.003906 494.585938 111.003906 Z M 353.65625 383.992188 L 546.03125 383.992188 L 546.03125 469.902344 L 353.65625 469.902344 Z M 488.863281 457.496094 L 534.234375 457.496094 L 534.234375 414.542969 L 488.863281 414.542969 Z M 399.328125 410.460938 L 450.144531 410.460938 L 450.144531 405.621094 L 399.328125 405.621094 Z M 369.082031 438.136719 L 453.472656 438.136719 L 453.472656 433.296875 L 369.082031 433.296875 Z M 369.082031 449.027344 L 444.398438 449.027344 L 444.398438 444.1875 L 369.082031 444.1875 Z M 260.03125 67.394531 L 688.652344 67.394531 L 688.652344 100.535156 L 260.03125 100.535156 Z M 309.167969 85.109375 C 309.167969 87.933594 311.457031 90.21875 314.277344 90.21875 C 317.097656 90.21875 319.386719 87.929688 319.386719 85.109375 C 319.386719 82.289062 317.097656 80 314.277344 80 C 311.457031 80 309.167969 82.289062 309.167969 85.109375 Z M 292.136719 85.109375 C 292.136719 87.933594 294.421875 90.21875 297.242188 90.21875 C 300.066406 90.21875 302.351562 87.929688 302.351562 85.109375 C 302.351562 82.289062 300.066406 80 297.242188 80 C 294.421875 80 292.136719 82.289062 292.136719 85.109375 Z M 275.101562 85.109375 C 275.101562 87.933594 277.390625 90.21875 280.210938 90.21875 C 283.03125 90.21875 285.320312 87.929688 285.320312 85.109375 C 285.320312 82.289062 283.03125 80 280.210938 80 C 277.390625 80 275.101562 82.289062 275.101562 85.109375 Z M 571.898438 311.394531 L 653.558594 311.394531 L 653.558594 124.292969 L 571.898438 124.292969 Z M 543.878906 224.566406 L 543.878906 303.816406 L 376.609375 303.816406 L 376.609375 224.566406 Z M 526.136719 274.273438 L 394.355469 274.273438 L 394.355469 290.21875 L 526.136719 290.21875 Z M 526.136719 239.480469 L 394.355469 239.480469 L 394.355469 255.425781 L 526.136719 255.425781 Z M 467.527344 179.140625 C 460.917969 179.140625 455.421875 183.886719 454.242188 190.152344 L 372.09375 190.152344 L 372.09375 195.429688 L 454.28125 195.429688 C 455.554688 201.578125 461 206.203125 467.527344 206.203125 C 474.054688 206.203125 479.5 201.578125 480.773438 195.429688 L 549.101562 195.429688 L 549.101562 190.152344 L 480.8125 190.152344 C 479.636719 183.886719 474.140625 179.140625 467.527344 179.140625 Z M 372.09375 161.121094 L 549.101562 161.121094 L 549.101562 155.84375 L 372.09375 155.84375 Z M 725.085938 457.609375 C 714.859375 457.609375 712.527344 444.136719 712.503906 444 C 712.429688 443.535156 711.972656 443.207031 711.519531 443.292969 C 711.050781 443.371094 710.734375 443.8125 710.8125 444.277344 C 710.835938 444.429688 713.398438 459.324219 725.085938 459.324219 C 725.558594 459.324219 725.945312 458.941406 725.945312 458.464844 C 725.945312 457.992188 725.558594 457.609375 725.085938 457.609375 Z M 679.589844 461.734375 L 666.34375 460.898438 C 665.808594 460.863281 665.464844 461.230469 665.433594 461.703125 C 665.402344 462.175781 665.765625 462.585938 666.238281 462.613281 L 679.484375 463.449219 C 679.503906 463.449219 679.519531 463.449219 679.539062 463.449219 C 679.988281 463.449219 680.367188 463.101562 680.394531 462.644531 C 680.425781 462.171875 680.0625 461.765625 679.589844 461.734375 Z M 639.410156 443.292969 C 638.949219 443.207031 638.503906 443.53125 638.425781 444.003906 C 638.402344 444.140625 636.089844 457.609375 625.84375 457.609375 C 625.371094 457.609375 624.984375 457.992188 624.984375 458.464844 C 624.984375 458.941406 625.371094 459.324219 625.84375 459.324219 C 637.535156 459.324219 640.097656 444.429688 640.117188 444.277344 C 640.195312 443.8125 639.875 443.371094 639.410156 443.292969 Z M 265.75 505.410156 C 265.277344 505.414062 264.898438 505.800781 264.902344 506.277344 L 265.863281 590.601562 C 265.867188 591.074219 266.25 591.449219 266.71875 591.449219 C 266.722656 591.449219 266.726562 591.449219 266.730469 591.449219 C 267.203125 591.445312 267.582031 591.058594 267.578125 590.582031 L 266.621094 506.257812 C 266.613281 505.785156 266.25 505.460938 265.75 505.410156 Z M 210.660156 504.082031 C 211.054688 503.824219 211.167969 503.292969 210.910156 502.894531 C 210.65625 502.496094 210.121094 502.386719 209.722656 502.640625 C 190.921875 514.832031 156.222656 522.128906 155.875 522.199219 C 155.410156 522.296875 155.113281 522.75 155.207031 523.214844 C 155.292969 523.621094 155.648438 523.898438 156.046875 523.898438 C 156.105469 523.898438 156.164062 523.894531 156.222656 523.878906 C 156.398438 523.84375 165.109375 522.011719 176.171875 518.667969 L 176.171875 705.082031 L 220.65625 705.082031 L 220.65625 518.246094 L 177.535156 518.246094 C 188.492188 514.867188 201.433594 510.0625 210.660156 504.082031 Z M 299.015625 373.75 L 269.757812 435.363281 C 268.765625 437.453125 266.566406 438.488281 264.851562 437.671875 L 227.671875 420.015625 C 225.957031 419.199219 225.367188 416.84375 226.359375 414.753906 L 255.617188 353.144531 C 256.609375 351.054688 258.808594 350.019531 260.523438 350.835938 L 297.703125 368.492188 C 299.417969 369.308594 300.007812 371.664062 299.015625 373.75 Z M 294.089844 373.253906 L 259.113281 356.644531 L 231.410156 414.988281 L 266.386719 431.59375 Z M 294.089844 373.253906 " fill-opacity="1" fill-rule="nonzero"/></g><path fill="#f5c0a2" d="M 287.84375 412.0625 C 287.796875 412.082031 287.761719 412.109375 287.722656 412.125 C 287.722656 412.125 289.984375 416.011719 284.898438 419.519531 C 284.90625 419.886719 286.875 422.777344 281.796875 425.886719 C 281.796875 425.886719 281.585938 428.203125 279.261719 429.488281 C 278.515625 430.070312 264.742188 431.398438 260.984375 429.894531 L 256.785156 428.898438 L 253.464844 428.101562 L 248.511719 428.910156 L 253.199219 407.808594 L 255.816406 407.761719 L 256.785156 407.449219 L 270.113281 403.148438 L 282.621094 391.800781 C 282.621094 391.800781 287.523438 393.976562 279.898438 403.511719 C 280.582031 403.59375 286.625 404.125 286.660156 404.132812 C 290.300781 405.15625 291.066406 410.09375 287.84375 412.0625 Z M 314.667969 230.925781 C 317.972656 227.121094 316.363281 222.628906 316.363281 222.628906 L 303.523438 233.339844 L 294.558594 243.351562 C 298.710938 235.40625 294.742188 233.332031 294.742188 233.332031 L 288.410156 242.46875 C 283.808594 250.101562 281.976562 257.621094 281.976562 257.621094 L 281.164062 258.796875 L 278.148438 263.140625 L 276.5 265.515625 L 291.488281 279.984375 L 294.28125 275.953125 L 295.738281 273.851562 L 296.023438 273.433594 C 299.6875 271.863281 305.765625 265.679688 308.449219 262.820312 C 308.511719 262.757812 308.5625 262.699219 308.617188 262.644531 C 309.105469 262.121094 310.644531 258.894531 310.835938 258.683594 C 311.832031 256.140625 313.363281 252.328125 313.363281 252.328125 C 313.929688 246.632812 309.917969 246.554688 309.917969 246.554688 C 310.652344 239.761719 304.667969 242.648438 304.441406 242.761719 L 309.011719 237.136719 Z M 197.980469 286.15625 C 197.1875 287.917969 196.039062 289.792969 194.441406 291.792969 C 194.441406 291.792969 196.015625 298.808594 191.417969 301.910156 C 191.417969 301.910156 190.722656 299.800781 189.378906 298.640625 C 187.957031 297.421875 185.292969 296.433594 183.296875 299.144531 C 180.632812 302.761719 183.363281 306.507812 185.3125 307.996094 C 188.390625 310.347656 179.71875 316.429688 185.828125 322.007812 C 187.101562 323.171875 187.945312 324.316406 188.480469 325.433594 C 193.234375 324.429688 209.011719 318.570312 197.980469 286.15625 Z M 598.386719 339.664062 L 587.0625 366.738281 L 566.179688 334.742188 C 565.058594 326.222656 554.660156 316.097656 549.878906 311.183594 C 547.480469 308.71875 546.59375 308.230469 545.5 309.464844 C 544.042969 311.105469 544.363281 314 545.582031 317.152344 C 546.675781 319.96875 548.347656 322.65625 548.8125 324.183594 C 544.269531 323.257812 539.039062 322.910156 536.078125 322.484375 C 536.070312 322.484375 536.054688 322.480469 536.042969 322.476562 C 536.023438 322.476562 536.007812 322.476562 535.992188 322.472656 C 535.925781 322.464844 535.855469 322.453125 535.792969 322.445312 C 535.734375 322.433594 535.691406 322.4375 535.636719 322.433594 C 533.886719 322.28125 532.199219 323.199219 531.421875 324.8125 L 531.371094 324.921875 C 530.246094 327.253906 532.027344 329.804688 534.332031 330.148438 C 533.929688 330.101562 533.582031 330.074219 533.296875 330.0625 C 531.121094 329.992188 529.277344 331.636719 529.105469 333.808594 L 529.097656 333.914062 C 528.929688 336.09375 530.515625 338.015625 532.679688 338.273438 C 532.964844 338.308594 533.417969 338.335938 533.964844 338.359375 L 533.941406 338.359375 C 531.75 338.34375 530.125 339.816406 530.140625 342.007812 C 530.15625 343.976562 531.636719 345.628906 533.59375 345.871094 L 533.835938 345.855469 C 533.835938 345.875 533.835938 345.894531 533.835938 345.917969 C 532.265625 346.414062 531.222656 347.964844 531.429688 349.660156 C 531.644531 351.398438 533.117188 352.710938 534.871094 352.726562 C 535.355469 352.730469 536.265625 352.644531 537.324219 352.53125 C 543.738281 354.292969 548.425781 355.152344 552.1875 355.25 C 559.472656 371.257812 576.746094 409.101562 576.746094 409.101562 C 580.316406 417.125 590.574219 420.121094 597.484375 414.699219 C 597.785156 414.464844 598.078125 414.21875 598.363281 413.953125 C 599.621094 412.789062 600.617188 411.449219 601.351562 410.007812 L 627.089844 355.082031 Z M 617.652344 679.976562 C 617.640625 679.976562 617.628906 679.96875 617.617188 679.96875 C 617.046875 687.078125 616.011719 691.882812 614.421875 695.878906 C 614.425781 695.878906 614.429688 695.875 614.429688 695.871094 C 623.121094 707.339844 634.824219 704.992188 641.410156 701.628906 C 641.410156 701.628906 641.410156 701.632812 641.410156 701.632812 C 641.375 694.992188 642.308594 686.089844 643.0625 679.976562 Z M 711.648438 679.976562 L 687.804688 679.976562 C 687.796875 680.429688 687.773438 680.871094 687.773438 681.339844 C 687.773438 689.644531 687.285156 696 686.882812 704.847656 C 688.964844 705.671875 691.683594 705.558594 694.675781 702.363281 C 700.6875 695.945312 707.160156 692.894531 713.597656 695.035156 C 711.761719 690.050781 711.464844 685.027344 711.648438 679.976562 Z M 761.558594 486.886719 C 761.558594 486.871094 761.566406 486.855469 761.566406 486.84375 C 761.523438 485.78125 761.265625 482.972656 760.914062 479.460938 C 759.992188 470.214844 758.425781 456.101562 758.421875 456.097656 L 750.933594 389.058594 L 748.78125 352.726562 L 729.058594 353.523438 C 727.179688 368.917969 725.707031 383.160156 725.707031 389.988281 C 725.707031 398.019531 726.371094 409.390625 726.972656 419.808594 C 731.328125 435.378906 736.457031 453.652344 738.046875 459.324219 C 737.75 459.738281 737.488281 460.152344 737.269531 460.558594 C 734.371094 465.910156 733.894531 469.445312 734.839844 477.449219 C 734.578125 477.335938 734.300781 477.25 734.003906 477.21875 C 732.082031 476.984375 730.410156 478.527344 730.488281 480.457031 L 730.898438 490.554688 C 730.9375 491.492188 731.390625 492.363281 732.140625 492.929688 L 740.117188 498.960938 L 742.191406 500.527344 C 743.308594 501.375 744.855469 501.375 745.972656 500.53125 L 760.332031 489.695312 C 761.152344 489.074219 761.617188 488.089844 761.578125 487.0625 Z M 695.128906 284.625 L 689.992188 253.058594 C 691.746094 251.714844 692.953125 249.871094 693.324219 247.691406 C 694.207031 242.496094 691.679688 237.734375 687.675781 237.050781 C 683.671875 236.371094 682.753906 240.148438 682.308594 242.753906 L 682.199219 243.398438 C 680.398438 243.320312 678.878906 243.355469 678.878906 243.355469 C 676.871094 237.417969 679.625 227.976562 678.570312 220.855469 C 658.105469 216.804688 650.625 225.394531 641.851562 221.828125 C 641.144531 224.292969 640.792969 226.902344 640.894531 229.601562 L 641.84375 255.503906 C 642.167969 263.945312 647.738281 271.675781 656.273438 274.292969 C 656.738281 274.4375 657.203125 274.539062 657.667969 274.648438 L 658.664062 287.519531 C 659.464844 297.199219 667.652344 304.617188 677.945312 303.742188 C 688.242188 302.867188 695.933594 294.304688 695.128906 284.625 Z M 695.128906 284.625 " fill-opacity="1" fill-rule="nonzero"/><path fill="#ec5d67" d="M 287.582031 631.371094 L 310.371094 615.035156 C 310.371094 615.035156 316.140625 632.078125 323.769531 637.402344 C 333.875 644.460938 342.933594 637.65625 348.644531 635.132812 C 362.386719 629.070312 369.710938 635.175781 369.710938 635.175781 L 310.242188 677.8125 Z M 226.148438 699.121094 L 298.125 712.289062 C 298.125 712.289062 297.433594 702.777344 283.523438 697.105469 C 277.742188 694.746094 268.621094 692.332031 262.175781 680.78125 C 257.453125 672.3125 252.773438 653.679688 252.773438 653.679688 L 226.8125 649.449219 Z M 193.476562 379.179688 L 202.394531 375.148438 L 206.132812 373.453125 L 228.609375 362.164062 C 230.964844 360.984375 233.035156 359.304688 234.675781 357.246094 L 296.261719 284.597656 L 272.445312 261.601562 L 213.992188 327.875 L 199.007812 333.148438 L 191.820312 335.542969 L 188.800781 336.429688 C 188.183594 334.34375 187.492188 332.476562 186.710938 330.910156 C 183.832031 325.15625 177.613281 325.824219 166.929688 326.945312 C 157.09375 327.980469 132.09375 325.160156 119.15625 344.804688 C 91.886719 386.21875 80.351562 463.148438 80.351562 463.148438 C 128.191406 486.40625 161.476562 460.914062 161.476562 460.914062 L 187.179688 446.410156 L 188.851562 437.730469 L 248.03125 431.046875 L 253.78125 405.175781 L 193.320312 403.628906 C 193.324219 403.628906 193.761719 392.78125 193.476562 379.179688 Z M 751.808594 352.601562 C 751.421875 346.265625 750.964844 339.933594 750.488281 333.605469 C 749.839844 326.136719 749.214844 318.667969 748.285156 311.214844 C 747.40625 304.195312 742.925781 298.519531 736.941406 295.765625 C 736.949219 295.710938 736.953125 295.675781 736.953125 295.675781 C 722.699219 289.519531 708.773438 285.503906 694.96875 283.636719 L 695.128906 284.625 C 695.933594 294.308594 688.242188 302.867188 677.945312 303.742188 C 667.652344 304.617188 659.464844 297.199219 658.664062 287.519531 L 658.375 283.789062 C 646.335938 285.535156 634.25 288.953125 621.972656 294.078125 C 621.953125 294.089844 621.933594 294.101562 621.914062 294.109375 C 617.222656 295.738281 613.175781 299.183594 610.933594 304.0625 L 594.121094 337.375 L 623.601562 353.210938 C 625.027344 368.722656 626.105469 383.113281 626.105469 389.988281 C 626.105469 404.667969 623.878906 430.523438 623.878906 441.269531 C 623.878906 444.125 625.960938 446.539062 628.777344 446.996094 C 659.121094 451.90625 693.53125 452.054688 723.070312 447.035156 C 725.871094 446.558594 727.929688 444.152344 727.929688 441.3125 C 727.929688 430.597656 725.703125 404.6875 725.703125 389.988281 C 725.703125 383.160156 727.179688 368.917969 729.058594 353.523438 Z M 651.105469 664.007812 C 651.34375 663.109375 650.664062 662.222656 649.734375 662.222656 L 618.3125 662.222656 C 617.558594 662.222656 616.933594 662.820312 616.898438 663.578125 L 616.238281 678.5 C 616.203125 679.304688 616.84375 679.976562 617.652344 679.976562 L 645.429688 679.976562 C 646.050781 679.976562 646.597656 679.578125 646.78125 678.988281 C 648.042969 674.925781 649.542969 669.839844 651.105469 664.007812 M 718.617188 663.882812 C 718.765625 663.019531 718.101562 662.226562 717.222656 662.226562 L 686.398438 662.226562 C 685.597656 662.226562 684.957031 662.886719 684.980469 663.6875 L 685.457031 678.609375 C 685.480469 679.371094 686.109375 679.976562 686.871094 679.976562 L 714.644531 679.976562 C 715.332031 679.976562 715.917969 679.492188 716.035156 678.8125 C 716.769531 674.625 717.664062 669.476562 718.617188 663.882812 M 432.253906 158.363281 C 432.253906 165.835938 426.195312 171.890625 418.722656 171.890625 C 411.25 171.890625 405.191406 165.835938 405.191406 158.363281 C 405.191406 150.886719 411.25 144.832031 418.722656 144.832031 C 426.195312 144.832031 432.253906 150.886719 432.253906 158.363281 Z M 369.082031 397.453125 L 369.082031 418.625 L 392.070312 418.625 L 392.070312 397.453125 Z M 456.828125 272.140625 L 426.738281 272.140625 L 426.738281 292.261719 L 456.828125 292.261719 Z M 456.828125 272.140625 " fill-opacity="1" fill-rule="nonzero"/><path fill="#293237" d="M 138.679688 391.082031 C 138.214844 390.964844 137.757812 391.261719 137.648438 391.71875 C 137.300781 393.1875 129.234375 427.765625 137.917969 435.367188 C 141.21875 438.257812 158.910156 438.835938 172.625 438.835938 C 180.5625 438.835938 187.171875 438.644531 188.882812 438.585938 C 189.355469 438.570312 189.726562 438.175781 189.710938 437.699219 C 189.695312 437.234375 189.316406 436.871094 188.851562 436.871094 C 188.84375 436.871094 188.835938 436.871094 188.824219 436.871094 C 170.773438 437.460938 142.609375 437.1875 139.046875 434.074219 C 131.132812 427.148438 139.234375 392.464844 139.316406 392.113281 C 139.425781 391.65625 139.140625 391.191406 138.679688 391.082031 Z M 138.679688 391.082031 " fill-opacity="1" fill-rule="nonzero"/><path fill="#293237" d="M 303.925781 259.375 C 303.960938 259.378906 303.992188 259.378906 304.027344 259.378906 C 304.21875 259.378906 304.390625 259.308594 304.535156 259.199219 C 304.511719 260.410156 304.726562 261.480469 305.347656 262.226562 C 306.089844 263.117188 306.808594 263.367188 307.382812 263.367188 C 307.566406 263.367188 307.734375 263.339844 307.882812 263.304688 C 310.410156 262.65625 311.726562 256.9375 312.066406 255.199219 C 312.160156 254.734375 311.855469 254.285156 311.390625 254.191406 C 310.933594 254.089844 310.476562 254.402344 310.382812 254.867188 C 309.78125 257.929688 308.460938 261.382812 307.457031 261.640625 C 307.199219 261.691406 306.847656 261.347656 306.664062 261.125 C 305.1875 259.355469 307.558594 253.082031 309.398438 249.542969 C 309.621094 249.125 309.457031 248.605469 309.035156 248.386719 C 308.621094 248.171875 308.097656 248.328125 307.878906 248.75 C 307.503906 249.46875 305.164062 254.082031 304.632812 257.929688 C 304.5 257.792969 304.328125 257.691406 304.121094 257.664062 C 303.203125 257.558594 302.609375 257.199219 302.253906 256.542969 C 300.910156 254.042969 303.316406 248.160156 304.355469 246.101562 C 304.570312 245.679688 304.398438 245.164062 303.976562 244.949219 C 303.558594 244.738281 303.035156 244.902344 302.824219 245.328125 C 302.398438 246.164062 298.734375 253.621094 300.742188 257.355469 C 301.359375 258.503906 302.460938 259.203125 303.925781 259.375 Z M 303.925781 259.375 " fill-opacity="1" fill-rule="nonzero"/><path fill="#293237" d="M 624.625 362.417969 C 624.65625 362.417969 624.683594 362.414062 624.714844 362.410156 C 625.1875 362.363281 625.53125 361.941406 625.480469 361.472656 L 622.464844 332.121094 C 622.417969 331.648438 621.960938 331.292969 621.523438 331.355469 C 621.050781 331.402344 620.707031 331.824219 620.757812 332.296875 L 623.773438 361.644531 C 623.816406 362.089844 624.191406 362.417969 624.625 362.417969 Z M 624.625 362.417969 " fill-opacity="1" fill-rule="nonzero"/><path fill="#293237" d="M 293.476562 263.742188 C 293.292969 264.179688 293.5 264.683594 293.9375 264.863281 C 294.046875 264.910156 294.160156 264.929688 294.269531 264.929688 C 294.605469 264.929688 294.921875 264.734375 295.058594 264.402344 C 298.332031 256.601562 293.703125 250.617188 293.503906 250.363281 C 293.214844 249.992188 292.675781 249.929688 292.304688 250.222656 C 291.929688 250.515625 291.867188 251.054688 292.160156 251.429688 C 292.332031 251.648438 296.347656 256.894531 293.476562 263.742188 Z M 293.476562 263.742188 " fill-opacity="1" fill-rule="nonzero"/><path fill="#293237" d="M 122.304688 375.496094 C 129.386719 380.417969 144.90625 384.113281 155.171875 383.867188 C 181.253906 383.230469 189.546875 377.34375 193.710938 364.722656 C 196.535156 356.148438 192.375 346.886719 188.195312 341.683594 C 184.011719 336.480469 194.269531 329.71875 185.828125 322.007812 C 179.722656 316.429688 188.394531 310.347656 185.3125 308 C 183.363281 306.511719 180.636719 302.761719 183.300781 299.144531 C 185.292969 296.4375 187.960938 297.421875 189.378906 298.644531 C 190.726562 299.800781 191.421875 301.910156 191.421875 301.910156 C 196.015625 298.808594 194.445312 291.796875 194.445312 291.796875 C 206.582031 276.578125 193.417969 268.246094 187.074219 267 C 156.210938 260.957031 144.703125 287.335938 145.082031 302.144531 C 145.363281 313.125 124.9375 309.839844 124.953125 327.460938 C 124.96875 344.484375 119.414062 342.164062 115.480469 345.128906 C 105.011719 353.015625 109.828125 366.824219 122.304688 375.496094 Z M 122.304688 375.496094 " fill-opacity="1" fill-rule="nonzero"/><path fill="#293237" d="M 637.195312 448.207031 C 634.363281 447.835938 631.550781 447.441406 628.78125 446.992188 C 627.785156 446.832031 626.890625 446.417969 626.136719 445.832031 L 625.703125 457.636719 C 625.75 457.625 625.792969 457.609375 625.84375 457.609375 C 632.335938 457.609375 635.636719 452.203125 637.195312 448.207031 Z M 637.195312 448.207031 " fill-opacity="1" fill-rule="nonzero"/><path fill="#293237" d="M 678.570312 220.859375 C 679.625 227.980469 676.871094 237.417969 678.878906 243.355469 C 678.878906 243.355469 680.398438 243.324219 682.199219 243.402344 L 682.3125 242.757812 C 682.753906 240.152344 683.675781 236.375 687.675781 237.054688 C 690.136719 237.472656 692.03125 239.441406 692.925781 242.09375 C 697.414062 230.113281 693.582031 216.164062 682.695312 208.34375 C 669.671875 198.988281 647.6875 202.953125 640.878906 221.421875 C 650.09375 226.089844 657.347656 216.65625 678.570312 220.859375 Z M 678.570312 220.859375 " fill-opacity="1" fill-rule="nonzero"/><path fill="#293237" d="M 728.953125 354.289062 C 728.992188 354.292969 729.03125 354.296875 729.070312 354.296875 C 729.492188 354.296875 729.863281 353.984375 729.917969 353.554688 L 733.964844 324.046875 C 734.03125 323.578125 733.703125 323.144531 733.230469 323.082031 C 732.765625 323.011719 732.328125 323.339844 732.265625 323.8125 L 728.21875 353.320312 C 728.15625 353.789062 728.484375 354.222656 728.953125 354.289062 Z M 728.953125 354.289062 " fill-opacity="1" fill-rule="nonzero"/><path fill="#293237" d="M 738.058594 460.210938 C 738.140625 460.210938 738.226562 460.199219 738.308594 460.175781 L 741.203125 459.289062 C 741.65625 459.148438 741.910156 458.671875 741.773438 458.214844 C 741.636719 457.765625 741.160156 457.507812 740.699219 457.644531 L 737.804688 458.53125 C 737.351562 458.671875 737.097656 459.148438 737.234375 459.605469 C 737.347656 459.972656 737.691406 460.210938 738.058594 460.210938 Z M 738.058594 460.210938 " fill-opacity="1" fill-rule="nonzero"/><path fill="#293237" d="M 725.085938 457.609375 C 725.09375 457.609375 725.09375 457.609375 725.101562 457.609375 L 725.328125 446.121094 C 724.660156 446.566406 723.90625 446.894531 723.074219 447.035156 C 720.039062 447.546875 716.941406 447.996094 713.816406 448.402344 C 715.40625 452.378906 718.710938 457.609375 725.085938 457.609375 Z M 725.085938 457.609375 " fill-opacity="1" fill-rule="nonzero"/><g clip-path="url(#adf697cd78)"><path fill="#293237" d="M 727.871094 711.945312 C 727.871094 711.945312 727.875 711.945312 727.875 711.945312 C 727.722656 711.804688 727.5625 711.667969 727.40625 711.523438 C 726.105469 710.355469 724.777344 709.191406 723.457031 708.007812 C 723.148438 707.730469 722.84375 707.453125 722.539062 707.171875 C 722.214844 706.875 721.894531 706.574219 721.574219 706.269531 C 721.25 705.960938 720.929688 705.648438 720.613281 705.332031 C 720.320312 705.046875 720.035156 704.757812 719.75 704.464844 C 719.425781 704.125 719.113281 703.777344 718.804688 703.429688 C 718.546875 703.144531 718.289062 702.855469 718.039062 702.5625 C 717.71875 702.183594 717.421875 701.789062 717.125 701.394531 C 716.90625 701.109375 716.683594 700.832031 716.476562 700.539062 C 716.160156 700.089844 715.871094 699.617188 715.582031 699.144531 C 715.425781 698.882812 715.253906 698.636719 715.105469 698.371094 C 714.691406 697.632812 714.3125 696.867188 713.980469 696.066406 C 713.976562 696.054688 713.96875 696.042969 713.964844 696.03125 C 713.828125 695.699219 713.71875 695.371094 713.59375 695.035156 C 711.988281 694.503906 710.386719 694.292969 708.78125 694.375 C 707.972656 694.417969 707.167969 694.535156 706.363281 694.722656 C 702.367188 695.65625 698.425781 698.351562 694.671875 702.363281 C 692.386719 704.800781 690.265625 705.4375 688.464844 705.242188 C 687.902344 705.179688 687.371094 705.042969 686.878906 704.847656 C 686.851562 705.511719 686.820312 706.191406 686.792969 706.882812 C 686.78125 707.140625 686.769531 707.410156 686.761719 707.675781 C 686.746094 708.066406 686.730469 708.457031 686.714844 708.863281 C 686.699219 709.289062 686.683594 709.730469 686.667969 710.167969 C 686.65625 710.421875 686.648438 710.675781 686.640625 710.933594 C 686.625 711.460938 686.605469 711.996094 686.589844 712.542969 C 686.582031 712.695312 686.582031 712.855469 686.574219 713.011719 C 686.460938 716.863281 686.378906 721.195312 686.359375 726.253906 C 686.351562 727.6875 687.511719 728.863281 688.945312 728.863281 L 734.355469 728.863281 C 735.933594 728.863281 737.171875 727.449219 736.917969 725.886719 C 735.960938 720.007812 732.179688 715.871094 727.871094 711.945312 Z M 727.871094 711.945312 " fill-opacity="1" fill-rule="nonzero"/></g><path fill="#293237" d="M 645.429688 679.976562 L 617.652344 679.976562 C 617.347656 679.976562 617.089844 679.859375 616.859375 679.699219 L 616.847656 679.976562 L 645.992188 679.976562 C 646.007812 679.925781 646.023438 679.871094 646.039062 679.820312 C 645.851562 679.914062 645.648438 679.976562 645.429688 679.976562 Z M 645.429688 679.976562 " fill-opacity="1" fill-rule="nonzero"/><path fill="#293237" d="M 614.429688 695.871094 C 609.363281 702.203125 596.089844 710.269531 585.800781 715.265625 L 590.269531 722.246094 L 643.886719 722.246094 C 644.019531 716.730469 643.699219 708.671875 641.410156 701.628906 C 634.824219 704.988281 623.121094 707.339844 614.429688 695.871094 Z M 614.429688 695.871094 " fill-opacity="1" fill-rule="nonzero"/><path fill="#293237" d="M 750.285156 470.652344 C 749.8125 470.636719 749.394531 470.960938 749.355469 471.433594 L 748.550781 480.734375 L 743.347656 498.222656 C 743.242188 498.578125 742.96875 498.859375 742.613281 498.972656 C 742.273438 499.082031 741.925781 499.019531 741.652344 498.804688 C 740.515625 497.914062 739.863281 496.441406 739.703125 494.421875 C 739.257812 488.714844 739.546875 481.933594 739.550781 481.863281 C 739.566406 481.511719 739.359375 481.183594 739.039062 481.039062 C 738.949219 481 736.824219 480.003906 735.929688 476.949219 C 735.796875 476.496094 735.324219 476.226562 734.863281 476.367188 C 734.410156 476.496094 734.148438 476.976562 734.28125 477.429688 C 735.125 480.320312 736.914062 481.757812 737.816406 482.316406 C 737.757812 484.046875 737.613281 489.679688 737.992188 494.558594 C 738.238281 497.691406 739.542969 499.332031 740.59375 500.15625 C 741.082031 500.539062 741.679688 500.738281 742.285156 500.738281 C 742.570312 500.738281 742.855469 500.695312 743.136719 500.609375 C 744.03125 500.320312 744.726562 499.613281 744.992188 498.714844 L 750.222656 481.136719 C 750.238281 481.082031 750.25 481.027344 750.253906 480.96875 L 751.066406 471.578125 C 751.105469 471.105469 750.757812 470.691406 750.285156 470.652344 Z M 750.285156 470.652344 " fill-opacity="1" fill-rule="nonzero"/><g clip-path="url(#ba90189cb4)"><path fill="#293237" d="M 585.800781 715.265625 C 584.238281 716.023438 582.742188 716.714844 581.355469 717.316406 C 575.257812 719.960938 573.714844 723.007812 573.324219 725.941406 C 573.117188 727.488281 574.332031 728.863281 575.894531 728.863281 L 641.105469 728.863281 C 642.460938 728.863281 643.585938 727.824219 643.6875 726.472656 C 643.765625 725.371094 643.847656 723.917969 643.886719 722.246094 L 590.269531 722.246094 Z M 585.800781 715.265625 " fill-opacity="1" fill-rule="nonzero"/></g><path fill="#293237" d="M 267.578125 590.582031 C 267.582031 591.054688 267.203125 591.445312 266.730469 591.449219 C 266.726562 591.449219 266.722656 591.449219 266.71875 591.449219 C 266.25 591.449219 265.867188 591.074219 265.863281 590.601562 L 264.902344 506.277344 C 264.898438 505.804688 265.277344 505.414062 265.75 505.410156 C 265.863281 505.421875 265.96875 505.449219 266.0625 505.488281 L 265.972656 457.609375 C 265.972656 457.609375 270.03125 432.445312 236.40625 438.453125 C 225.4375 440.414062 207.210938 443.273438 187.203125 446.300781 L 187.179688 446.410156 L 161.480469 460.914062 C 161.480469 460.914062 131 484.21875 86.464844 465.867188 C 84.09375 481.640625 81.613281 529.050781 138.535156 524.984375 C 138.535156 524.984375 147.214844 524.058594 160.328125 520.984375 L 161.074219 521 C 171.515625 518.464844 195.292969 511.996094 209.722656 502.640625 C 210.121094 502.386719 210.65625 502.496094 210.910156 502.894531 C 211.167969 503.292969 211.054688 503.824219 210.660156 504.082031 C 198.34375 512.066406 179.390625 517.957031 167.410156 521.152344 L 207.9375 522.140625 L 215.394531 534.105469 L 220.925781 665.820312 L 266.378906 671.503906 L 266.273438 615.71875 L 289.917969 653.644531 L 324.820312 627.667969 L 266.636719 507.65625 Z M 267.578125 590.582031 " fill-opacity="1" fill-rule="nonzero"/><path fill="#293237" d="M 193.328125 404.488281 C 193.789062 404.488281 194.164062 404.125 194.1875 403.664062 C 194.203125 403.191406 193.835938 402.789062 193.363281 402.769531 L 172.375 401.921875 C 171.90625 401.933594 171.5 402.273438 171.480469 402.742188 C 171.460938 403.21875 171.832031 403.617188 172.300781 403.636719 L 193.292969 404.488281 C 193.304688 404.488281 193.316406 404.488281 193.328125 404.488281 Z M 193.328125 404.488281 " fill-opacity="1" fill-rule="nonzero"/><path fill="#293237" d="M 547.960938 331.902344 C 547.972656 331.894531 547.988281 331.886719 548.003906 331.878906 C 548.886719 331.238281 549.445312 330.269531 549.621094 329.078125 C 549.8125 327.800781 549.582031 325.480469 545.898438 324.273438 C 545.449219 324.132812 544.960938 324.375 544.816406 324.824219 C 544.667969 325.273438 544.914062 325.757812 545.363281 325.90625 C 548.21875 326.839844 547.996094 328.335938 547.921875 328.824219 C 547.8125 329.558594 547.5 330.121094 546.992188 330.488281 C 546.523438 330.828125 545.902344 330.972656 545.269531 330.902344 C 545.253906 330.902344 545.242188 330.894531 545.226562 330.894531 C 545.21875 330.894531 545.214844 330.898438 545.207031 330.898438 C 545.164062 330.890625 545.121094 330.894531 545.078125 330.886719 C 543.9375 330.695312 542.175781 330.425781 540.386719 330.160156 C 539.921875 330.117188 539.480469 330.414062 539.410156 330.886719 C 539.339844 331.355469 539.664062 331.789062 540.136719 331.859375 C 541.910156 332.121094 543.660156 332.386719 544.789062 332.578125 C 544.902344 332.597656 545.007812 332.597656 545.117188 332.609375 C 545.121094 332.609375 545.121094 332.609375 545.121094 332.609375 C 546.199219 332.675781 547.15625 333.203125 547.683594 334.019531 C 548.164062 334.765625 548.242188 335.652344 547.910156 336.527344 C 547.472656 337.667969 546.40625 338.136719 544.710938 337.921875 C 544.660156 337.914062 544.585938 337.910156 544.53125 337.90625 C 544.523438 337.90625 544.515625 337.902344 544.507812 337.902344 C 544.503906 337.902344 544.503906 337.902344 544.5 337.902344 C 543.671875 337.8125 542.371094 337.742188 540.28125 337.683594 C 539.777344 337.726562 539.410156 338.042969 539.398438 338.515625 C 539.382812 338.988281 539.757812 339.386719 540.230469 339.398438 C 541.570312 339.4375 543.441406 339.503906 544.433594 339.621094 C 545.273438 339.6875 546 340.074219 546.433594 340.691406 C 546.824219 341.253906 546.925781 341.953125 546.714844 342.664062 C 546.394531 343.738281 545.410156 344.441406 544.1875 344.421875 L 540.210938 344.644531 C 539.738281 344.671875 539.375 345.074219 539.398438 345.546875 C 539.425781 346.003906 539.804688 346.359375 540.257812 346.359375 C 540.273438 346.359375 540.289062 346.359375 540.304688 346.359375 L 541.835938 346.273438 C 541.898438 346.28125 541.960938 346.296875 542.027344 346.292969 C 542.800781 346.207031 543.535156 346.480469 544.0625 347.042969 C 544.589844 347.605469 544.816406 348.363281 544.683594 349.117188 C 544.492188 350.207031 543.585938 351.027344 542.488281 351.113281 C 542.015625 351.148438 541.660156 351.5625 541.695312 352.035156 C 541.730469 352.484375 542.105469 352.828125 542.550781 352.828125 C 542.574219 352.828125 542.59375 352.828125 542.617188 352.824219 C 544.503906 352.679688 546.046875 351.28125 546.375 349.414062 C 546.589844 348.167969 546.230469 346.9375 545.402344 345.992188 C 546.796875 345.625 547.9375 344.585938 548.359375 343.152344 C 548.71875 341.933594 548.535156 340.710938 547.835938 339.707031 C 547.722656 339.546875 547.582031 339.414062 547.445312 339.269531 C 548.390625 338.863281 549.117188 338.171875 549.507812 337.140625 C 550.035156 335.761719 549.890625 334.289062 549.121094 333.09375 C 548.824219 332.621094 548.414062 332.238281 547.960938 331.902344 Z M 547.960938 331.902344 " fill-opacity="1" fill-rule="nonzero"/><path fill="#293237" d="M 565.03125 345.363281 C 564.5625 345.234375 564.097656 345.5 563.96875 345.957031 C 562.675781 350.519531 560.46875 353.199219 557.414062 353.925781 C 556.953125 354.035156 556.667969 354.496094 556.777344 354.960938 C 556.875 355.355469 557.226562 355.621094 557.613281 355.621094 C 557.679688 355.621094 557.746094 355.613281 557.808594 355.597656 C 561.515625 354.714844 564.140625 351.628906 565.621094 346.425781 C 565.75 345.96875 565.484375 345.492188 565.03125 345.363281 Z M 565.03125 345.363281 " fill-opacity="1" fill-rule="nonzero"/><path fill="#293237" d="M 714.644531 679.976562 L 686.871094 679.976562 C 686.609375 679.976562 686.378906 679.886719 686.167969 679.761719 L 686.175781 679.976562 L 715.261719 679.976562 C 715.269531 679.917969 715.28125 679.855469 715.292969 679.800781 C 715.09375 679.902344 714.882812 679.976562 714.644531 679.976562 Z M 714.644531 679.976562 " fill-opacity="1" fill-rule="nonzero"/><path fill="#293237" d="M 723.011719 564.128906 L 725.066406 459.324219 C 717.503906 459.3125 713.777344 453.074219 712.078125 448.632812 C 688.570312 451.527344 662.839844 451.394531 638.925781 448.429688 C 637.261719 452.882812 633.535156 459.324219 625.839844 459.324219 C 625.769531 459.324219 625.707031 459.300781 625.640625 459.285156 L 621.828125 563.007812 L 617.589844 662.449219 C 617.804688 662.320312 618.042969 662.226562 618.308594 662.226562 L 649.730469 662.226562 C 650.210938 662.226562 650.617188 662.46875 650.871094 662.824219 C 657.597656 637.53125 665.535156 599.085938 659.871094 569.703125 L 675.585938 463.207031 L 666.230469 462.617188 C 665.757812 462.585938 665.398438 462.175781 665.429688 461.707031 C 665.460938 461.234375 665.804688 460.863281 666.339844 460.902344 L 679.585938 461.738281 C 680.058594 461.765625 680.417969 462.175781 680.386719 462.644531 C 680.359375 463.089844 679.996094 463.433594 679.558594 463.445312 L 685.632812 662.476562 C 685.855469 662.332031 686.105469 662.226562 686.390625 662.226562 L 717.21875 662.226562 C 717.578125 662.226562 717.886719 662.382812 718.132812 662.605469 C 720.40625 648.699219 722.996094 632.332031 724.484375 621.144531 C 727.570312 598.058594 723.011719 564.128906 723.011719 564.128906 Z M 723.011719 564.128906 " fill-opacity="1" fill-rule="nonzero"/></svg>