<svg xmlns="http://www.w3.org/2000/svg" viewBox="0 0 321.35 300"><defs><style>.cls-1{fill:#e0e0e0;}.cls-2{fill:#fafafa;}.cls-3{fill:#263238;}.cls-4{fill:#455a64;}.cls-5{opacity:0.2;}.cls-6{fill:#ff725e;}.cls-7{opacity:0.3;}.cls-8{fill:#fff;}.cls-9{fill:#ebebeb;}.cls-10{fill:#f5f5f5;}.cls-11{fill:#ae7461;}.cls-12{fill:#6f4439;}</style></defs><title>FAQ</title><g id="Layer_2" data-name="Layer 2"><g id="Character"><path class="cls-1" d="M278.79,275.85c0,3-34,5.53-76,5.53s-76-2.48-76-5.53,34-5.52,76-5.52S278.79,272.8,278.79,275.85Z"/><path class="cls-1" d="M98.51,293.38c0,1-15,1.8-33.54,1.8s-33.53-.81-33.53-1.8,15-1.81,33.53-1.81S98.51,292.38,98.51,293.38Z"/><path class="cls-1" d="M274.57,143a14.67,14.67,0,0,0-6.25-2.15,4.14,4.14,0,0,0-3,.54.61.61,0,0,0-.3.54.64.64,0,0,0,.28.37,8.94,8.94,0,0,0,9.23.7"/><path class="cls-1" d="M274.41,142.79a29.68,29.68,0,0,1-4-3.55,10.23,10.23,0,0,1-2.53-4.68A1.89,1.89,0,0,1,268,133c3.22,2.52,5.75,5.77,6.37,9.8"/><path class="cls-1" d="M274.54,143a14.58,14.58,0,0,1,.07-5.31,7.19,7.19,0,0,1,2.83-4.37,6.32,6.32,0,0,1-.08,4.16,19.82,19.82,0,0,1-2.8,5.89"/><path class="cls-1" d="M277.69,148.6a9.2,9.2,0,0,0-5,2.54,9.46,9.46,0,0,0-2.87,4.92,6.76,6.76,0,0,0,4.63-2.92c1.16-1.49,2-3.12,3.23-4.51"/><path class="cls-1" d="M278.38,149.51a12.36,12.36,0,0,1,1.43-11.7,14.9,14.9,0,0,1-1.43,11.7"/><path class="cls-1" d="M282.55,154.47a9,9,0,0,0-8.55,4.92.66.66,0,0,0-.06.67.63.63,0,0,0,.57.17,7.42,7.42,0,0,0,4.41-2.28,40.18,40.18,0,0,1,3.67-3.48"/><path class="cls-1" d="M282.42,154.2a15.85,15.85,0,0,1-.16-8.9,4.33,4.33,0,0,1,1.89-2.88.36.36,0,0,1,.3,0,.35.35,0,0,1,.18.21,5.31,5.31,0,0,1,.45,2.55,16.09,16.09,0,0,1-.4,2.58,13.79,13.79,0,0,1-1.38,4.64,8.38,8.38,0,0,0-.55,1c-.17.35-.17.47-.32.74"/><path class="cls-1" d="M293.45,155.85a11.51,11.51,0,0,1,2-9.44c.15-.18.34-.39.57-.36s.46.51.44.87a17.06,17.06,0,0,1-3,8.93"/><path class="cls-1" d="M294.45,156.53a13.77,13.77,0,0,0,11.26-2.29,9.07,9.07,0,0,0-6.1-.75,8.69,8.69,0,0,0-5.16,3"/><path class="cls-1" d="M295.29,154.45a13,13,0,0,1,10.21-5.9,6.25,6.25,0,0,1-3.34,3.69,18.69,18.69,0,0,1-4.9,1.44,3.42,3.42,0,0,0-2,.77"/><path class="cls-1" d="M293.66,144.4a29.31,29.31,0,0,0,1.31-6,9.93,9.93,0,0,0-1.19-5.92,13,13,0,0,0-.18,12.11"/><path class="cls-1" d="M300.32,141a16,16,0,0,1,11.8-8,13.13,13.13,0,0,1-11.8,8"/><path class="cls-1" d="M298.87,141.86c3.44.53,6.38,2.73,9.6,4.07a4.36,4.36,0,0,0,2.18.41,1.7,1.7,0,0,0,1.06-3,4.54,4.54,0,0,0-1.58-1,17.51,17.51,0,0,0-11-.61"/><path class="cls-1" d="M296.87,144.28a4.14,4.14,0,0,1,1.67,1.16,18.06,18.06,0,0,0,7.28,3.74c.28.07.64.1.78-.16s0-.48-.19-.68a10,10,0,0,0-4.39-3c-1.69-.63-3.14-1.38-5.15-1.22"/><path class="cls-1" d="M294.62,129.68a13.78,13.78,0,0,0,10.57,3.59.69.69,0,0,0,.48-.17c.27-.29-.05-.74-.36-1a12.17,12.17,0,0,0-10.69-2.44"/><path class="cls-1" d="M297.29,128.7a14.73,14.73,0,0,1,13.19-2.18,10.45,10.45,0,0,1-6.29,2.76,19.83,19.83,0,0,1-6.9-.58"/><path class="cls-1" d="M296.23,122c-.31-3.11-.11-5.55-.33-8.67,0-.25-.07-.55-.3-.64s-.59.27-.7.6a10,10,0,0,0,1.32,8.64"/><path class="cls-1" d="M296,122.33a18.13,18.13,0,0,0,5.14-5,6.79,6.79,0,0,0,1.64-4.75,4.91,4.91,0,0,0-3.7,1.84,10.28,10.28,0,0,0-1.89,3.8c-.42,1.37-.7,2.77-1.19,4.11"/><path class="cls-1" d="M301.05,120.93a41.55,41.55,0,0,0,12.65-7.46,6.44,6.44,0,0,0-4.75.36,15,15,0,0,0-8,7.06"/><path class="cls-1" d="M297.42,124a25.86,25.86,0,0,0,7,0,29.65,29.65,0,0,0,6.55-2.18.74.74,0,0,0,.45-.34.53.53,0,0,0-.16-.56,1.44,1.44,0,0,0-.56-.26,12.19,12.19,0,0,0-7.09.42,32.82,32.82,0,0,0-6.22,2.89"/><path class="cls-1" d="M284.09,129.78A12.42,12.42,0,0,1,284,119.5a7.83,7.83,0,0,1,.91,5.11c-.18,1.76-.71,3.57-.75,5.33"/><path class="cls-1" d="M277.73,126.57a14.37,14.37,0,0,0-10.66,4.54,10,10,0,0,0,5.84-1.08,29.69,29.69,0,0,0,5-3.35"/><path class="cls-1" d="M273.45,125.14a14.7,14.7,0,0,0-5.69.18,6.8,6.8,0,0,0-4.33,3.67,10.18,10.18,0,0,0,5.33-1,29.88,29.88,0,0,0,4.69-2.84"/><path class="cls-1" d="M279.79,125.21a17.77,17.77,0,0,0-5.59-2.79,6.06,6.06,0,0,0-5.82,1.41,10.86,10.86,0,0,0,5.56,1.08,19.18,19.18,0,0,1,6.06.62"/><path class="cls-1" d="M279.8,125.3c-3-2.94-4.13-8.22-2.93-12.23a18.6,18.6,0,0,1,2.93,12.23"/><path class="cls-1" d="M288,117c.57-1.31,1-2.68,1.47-4a11.81,11.81,0,0,1,2.09-3.71,5.52,5.52,0,0,1,3.71-1.92A14.94,14.94,0,0,1,288.1,117"/><path class="cls-1" d="M286.53,118.71a19.19,19.19,0,0,0-3.27-4,5.5,5.5,0,0,0-4.47-1.17,10.42,10.42,0,0,0,7.74,5.16"/><path class="cls-1" d="M286.83,117.08a21.84,21.84,0,0,1-1.47-4.78,7.47,7.47,0,0,1,.74-4.86c1.65,3.11,2.18,6.44.82,9.68"/><path class="cls-1" d="M288,107.44c.93-3.08,3.75-5.34,6.79-6.38a2.57,2.57,0,0,1,1.19-.18,1,1,0,0,1,.88.73c.11.53-.32,1-.73,1.34a22.94,22.94,0,0,1-8.13,4.49"/><path class="cls-1" d="M288.07,104.92a21.9,21.9,0,0,1,.89-5.87,7.41,7.41,0,0,1,3.7-4.47c.31,2-.58,4-1.64,5.72a26.37,26.37,0,0,0-3,5.28"/><path class="cls-1" d="M288,106.29c-.77-2.24-.85-5.09-2.19-7.05-.94-1.36-2.44-2.29-3.25-3.74a5.69,5.69,0,0,0,.19,4.25,12.33,12.33,0,0,0,2.48,3.56c1,1.06,1.85,1.86,2.77,3"/><path class="cls-1" d="M288,172.34c-.06,0-.11-15-.12-33.41s0-33.42.1-33.42.11,15,.12,33.42S288.1,172.34,288,172.34Z"/><path class="cls-1" d="M301.11,127.52a2.29,2.29,0,0,1-.56.21l-1.55.53c-1.3.44-3.1,1.09-5,1.88a20.3,20.3,0,0,0-4.78,2.4,3.38,3.38,0,0,0-1,1.27c-.15.35-.18.56-.2.56s0-.05,0-.16a2.25,2.25,0,0,1,.11-.43,3.4,3.4,0,0,1,.94-1.36,8.25,8.25,0,0,1,2.07-1.28c.83-.39,1.75-.8,2.73-1.2,1.95-.8,3.76-1.42,5.08-1.83.66-.2,1.19-.36,1.57-.46Z"/><path class="cls-1" d="M305.4,117a1.83,1.83,0,0,1-.16.16l-.48.46L303,119.24l-6,5.32c-2.32,2.07-4.34,4.05-5.73,5.54-.7.75-1.25,1.36-1.63,1.79l-.43.5c-.1.11-.16.17-.16.16a.89.89,0,0,1,.13-.19c.09-.12.22-.3.4-.52.36-.45.89-1.08,1.58-1.84a75.06,75.06,0,0,1,5.7-5.61c2.34-2.06,4.46-3.92,6-5.26l1.84-1.58.5-.42A.89.89,0,0,1,305.4,117Z"/><path class="cls-1" d="M294.49,126.66c-.06,0,.43-1.15.91-2.57s.72-2.62.78-2.61a8.54,8.54,0,0,1-.58,2.68,17.14,17.14,0,0,1-.72,1.8A2.36,2.36,0,0,1,294.49,126.66Z"/><path class="cls-1" d="M288.05,135.72a2.68,2.68,0,0,1-.36-.42l-.92-1.18c-.77-1-1.84-2.37-3-3.88s-2.3-2.86-3.1-3.84l-.94-1.16a2.54,2.54,0,0,1-.32-.45,2.76,2.76,0,0,1,.39.39c.24.26.58.65,1,1.12.83,1,1.95,2.3,3.15,3.81s2.24,2.9,3,3.92c.37.51.66.93.86,1.22A3,3,0,0,1,288.05,135.72Z"/><path class="cls-1" d="M285.19,132a5.15,5.15,0,0,1-1.21-2.25,6.71,6.71,0,0,1-.27-2.27h.1a.91.91,0,0,1-.09.26s0-.1,0-.27h.1a9.83,9.83,0,0,0,.38,2.21A15.66,15.66,0,0,0,285.19,132Z"/><path class="cls-1" d="M281.48,127.38a3.43,3.43,0,0,0-.83-.48,5.57,5.57,0,0,0-2.33-.19,14.06,14.06,0,0,0-2.35.38,6.43,6.43,0,0,1-1,.23,3.61,3.61,0,0,1,.92-.38,10.58,10.58,0,0,1,2.37-.44,5.06,5.06,0,0,1,2.4.25A1.48,1.48,0,0,1,281.48,127.38Z"/><path class="cls-1" d="M280.61,126.25s-.49-.19-1.29-.46a13,13,0,0,0-6.47-.5c-.83.15-1.33.31-1.34.27a1.26,1.26,0,0,1,.34-.14,7.26,7.26,0,0,1,1-.28,11.34,11.34,0,0,1,3.31-.23,11.54,11.54,0,0,1,3.24.73,7.87,7.87,0,0,1,.92.42A1.71,1.71,0,0,1,280.61,126.25Z"/><path class="cls-1" d="M288,121.48a28.87,28.87,0,0,1-.93-3.25,26,26,0,0,1-.73-3.31,26,26,0,0,1,.94,3.26A25.35,25.35,0,0,1,288,121.48Z"/><path class="cls-1" d="M288.08,121.48a14.52,14.52,0,0,0-1-2,8.85,8.85,0,0,0-1.52-1.57s.25.06.59.3a5.11,5.11,0,0,1,1.11,1.15A4.25,4.25,0,0,1,288.08,121.48Z"/><path class="cls-1" d="M288,164.37s-.07-.36-.24-1a13.94,13.94,0,0,0-1-2.59,35.65,35.65,0,0,0-5.3-7.47c-1.19-1.35-2.34-2.63-3.31-3.85a27.09,27.09,0,0,1-2.37-3.42,15.56,15.56,0,0,1-1.19-2.53q-.17-.47-.24-.72a1.71,1.71,0,0,1-.06-.26s.13.34.38.95A17.6,17.6,0,0,0,276,146a29.15,29.15,0,0,0,2.39,3.36c1,1.21,2.13,2.48,3.32,3.84a33.92,33.92,0,0,1,5.28,7.55,12.55,12.55,0,0,1,.94,2.63c.07.33.12.58.14.75A1.1,1.1,0,0,1,288,164.37Z"/><path class="cls-1" d="M299.85,151a4,4,0,0,1-.62.35,13.85,13.85,0,0,0-1.6,1.06,17.73,17.73,0,0,0-2.11,1.93c-.74.78-1.5,1.69-2.28,2.66-1.56,1.95-3,3.68-3.89,5.06-.44.68-.76,1.26-1,1.66a7.05,7.05,0,0,1-.34.63s0-.07.06-.18a4.24,4.24,0,0,1,.2-.48,16.09,16.09,0,0,1,.93-1.71,54.12,54.12,0,0,1,3.84-5.12c.78-1,1.55-1.88,2.31-2.66a16.1,16.1,0,0,1,2.16-1.91,10.06,10.06,0,0,1,1.66-1c.2-.11.37-.17.48-.22Z"/><path class="cls-1" d="M300.09,155.35a9.81,9.81,0,0,1-1.31.19,18.06,18.06,0,0,0-3.11.61,9.53,9.53,0,0,0-2.78,1.46c-.64.5-.94.91-1,.88a.92.92,0,0,1,.19-.3,4.86,4.86,0,0,1,.69-.7,8.41,8.41,0,0,1,2.81-1.54,14.29,14.29,0,0,1,3.15-.56A7.13,7.13,0,0,1,300.09,155.35Z"/><path class="cls-1" d="M292.3,158c-.07,0,.52-.94,1-2.15s.53-2.3.61-2.29a1.93,1.93,0,0,1,0,.7,7.43,7.43,0,0,1-.39,1.66,7.67,7.67,0,0,1-.75,1.52A2.28,2.28,0,0,1,292.3,158Z"/><path class="cls-1" d="M303.68,139.4l-.21.11-.61.28c-.27.12-.6.26-1,.46s-.8.38-1.25.65l-.71.41c-.25.14-.5.31-.76.47-.52.32-1.05.72-1.61,1.12a29.71,29.71,0,0,0-3.38,3,30.68,30.68,0,0,0-2.85,3.47c-.38.58-.76,1.12-1.06,1.65-.15.27-.31.52-.45.77s-.26.5-.38.73c-.25.46-.43.9-.61,1.27s-.32.71-.42,1l-.26.63a.72.72,0,0,1-.11.21s0-.08.07-.23.13-.38.22-.64.22-.61.39-1,.34-.82.59-1.29l.37-.74c.13-.25.29-.51.44-.78.29-.54.67-1.09,1.05-1.67a26.84,26.84,0,0,1,6.27-6.49c.57-.4,1.1-.79,1.64-1.11.26-.16.51-.33.76-.46l.73-.4c.45-.26.89-.45,1.27-.63s.71-.32,1-.43l.64-.24A.92.92,0,0,1,303.68,139.4Z"/><path class="cls-1" d="M294.33,145.66a1.47,1.47,0,0,1,.51-.76,3.28,3.28,0,0,1,2.08-.8,5.8,5.8,0,0,1,2.18.43,3.13,3.13,0,0,1,.82.4,5.09,5.09,0,0,1-.87-.26,6.85,6.85,0,0,0-2.13-.35,3.47,3.47,0,0,0-2,.69A6.58,6.58,0,0,0,294.33,145.66Z"/><path class="cls-1" d="M292.93,147.11a8,8,0,0,0,.59-1.92,8.06,8.06,0,0,0-.13-2,1.38,1.38,0,0,1,.24.56,3.91,3.91,0,0,1,.1,1.47,3.86,3.86,0,0,1-.43,1.4A1.46,1.46,0,0,1,292.93,147.11Z"/><path class="cls-1" d="M277.7,166.51a49.73,49.73,0,0,0,4.7,17.42h11.53a50.17,50.17,0,0,0,4.41-17.42Z"/><path class="cls-2" d="M296.47,175.76c0,.06-3.79.11-8.47.11s-8.48-.05-8.48-.11,3.8-.1,8.48-.1S296.47,175.71,296.47,175.76Z"/><path class="cls-2" d="M296.22,177.84c0,.06-3.56.1-8,.1s-7.94,0-7.94-.1,3.55-.11,7.94-.11S296.22,177.78,296.22,177.84Z"/><path class="cls-2" d="M282.59,170.27a16.85,16.85,0,0,1,.1,2.65,17,17,0,0,1-.1,2.66,16.27,16.27,0,0,1-.11-2.66A16.09,16.09,0,0,1,282.59,170.27Z"/><path class="cls-2" d="M288.76,170.27a34.31,34.31,0,0,1,0,5.49,34.31,34.31,0,0,1,0-5.49Z"/><path class="cls-2" d="M294.56,170.22a35.82,35.82,0,0,1,0,5.61,35.82,35.82,0,0,1,0-5.61Z"/><path class="cls-2" d="M298,170.27c0,.06-4.45.1-9.94.1s-9.94,0-9.94-.1,4.45-.11,9.94-.11S298,170.21,298,170.27Z"/><path class="cls-1" d="M21.81,143a14.71,14.71,0,0,0-6.26-2.15,4.12,4.12,0,0,0-3,.54.6.6,0,0,0-.31.54.66.66,0,0,0,.29.37,8.94,8.94,0,0,0,9.23.7"/><path class="cls-1" d="M21.65,142.79a29.68,29.68,0,0,1-4-3.55,10.13,10.13,0,0,1-2.53-4.68,1.86,1.86,0,0,1,.2-1.57c3.22,2.52,5.74,5.77,6.37,9.8"/><path class="cls-1" d="M21.77,143a14.58,14.58,0,0,1,.08-5.31,7.18,7.18,0,0,1,2.82-4.37,6.26,6.26,0,0,1-.07,4.16,20.33,20.33,0,0,1-2.8,5.89"/><path class="cls-1" d="M24.93,148.6a9.16,9.16,0,0,0-5,2.54,9.46,9.46,0,0,0-2.87,4.92,6.76,6.76,0,0,0,4.63-2.92c1.15-1.49,1.95-3.12,3.22-4.51"/><path class="cls-1" d="M25.62,149.51A12.36,12.36,0,0,1,27,137.81a14.9,14.9,0,0,1-1.42,11.7"/><path class="cls-1" d="M29.79,154.47a9,9,0,0,0-8.56,4.92c-.1.22-.2.48-.05.67a.62.62,0,0,0,.56.17A7.45,7.45,0,0,0,26.16,158a41.4,41.4,0,0,1,3.66-3.48"/><path class="cls-1" d="M29.65,154.2a16,16,0,0,1-.16-8.9,4.34,4.34,0,0,1,1.9-2.88.34.34,0,0,1,.29,0c.09,0,.14.12.19.21a5.42,5.42,0,0,1,.44,2.55,15,15,0,0,1-.4,2.58,13.78,13.78,0,0,1-1.37,4.64,8.38,8.38,0,0,0-.55,1c-.17.35-.17.47-.32.74"/><path class="cls-1" d="M40.69,155.85a11.47,11.47,0,0,1,2-9.44c.15-.18.34-.39.57-.36s.46.51.44.87a17.06,17.06,0,0,1-3,8.93"/><path class="cls-1" d="M41.69,156.53a13.74,13.74,0,0,0,11.25-2.29,9,9,0,0,0-6.09-.75,8.63,8.63,0,0,0-5.16,3"/><path class="cls-1" d="M42.52,154.45a13,13,0,0,1,10.22-5.9,6.28,6.28,0,0,1-3.34,3.69,18.81,18.81,0,0,1-4.9,1.44,3.45,3.45,0,0,0-2,.77"/><path class="cls-1" d="M40.9,144.4a30,30,0,0,0,1.31-6A10.08,10.08,0,0,0,41,132.5a13,13,0,0,0-.18,12.11"/><path class="cls-1" d="M47.56,141a16,16,0,0,1,11.8-8,13.13,13.13,0,0,1-11.8,8"/><path class="cls-1" d="M46.1,141.86c3.45.53,6.39,2.73,9.61,4.07a4.32,4.32,0,0,0,2.17.41,1.7,1.7,0,0,0,1.07-3,4.63,4.63,0,0,0-1.58-1,17.51,17.51,0,0,0-11-.61"/><path class="cls-1" d="M44.11,144.28a4.11,4.11,0,0,1,1.66,1.16,18.17,18.17,0,0,0,7.29,3.74c.28.07.64.1.78-.16s0-.48-.19-.68a10,10,0,0,0-4.4-3c-1.68-.63-3.14-1.38-5.14-1.22"/><path class="cls-1" d="M41.86,129.68a13.78,13.78,0,0,0,10.57,3.59.69.69,0,0,0,.48-.17c.26-.29-.06-.74-.37-1a12.14,12.14,0,0,0-10.68-2.44"/><path class="cls-1" d="M44.52,128.7a14.75,14.75,0,0,1,13.2-2.18,10.45,10.45,0,0,1-6.29,2.76,19.91,19.91,0,0,1-6.91-.58"/><path class="cls-1" d="M43.46,122c-.3-3.11-.1-5.55-.32-8.67,0-.25-.07-.55-.3-.64s-.6.27-.7.6a9.93,9.93,0,0,0,1.32,8.64"/><path class="cls-1" d="M43.24,122.33a18.26,18.26,0,0,0,5.14-5A6.83,6.83,0,0,0,50,112.58a4.93,4.93,0,0,0-3.71,1.84,10.44,10.44,0,0,0-1.89,3.8c-.41,1.37-.7,2.77-1.18,4.11"/><path class="cls-1" d="M48.29,120.93a41.66,41.66,0,0,0,12.65-7.46,6.44,6.44,0,0,0-4.75.36,15.07,15.07,0,0,0-8,7.06"/><path class="cls-1" d="M44.66,124a25.79,25.79,0,0,0,7,0,29.56,29.56,0,0,0,6.56-2.18.72.72,0,0,0,.44-.34.49.49,0,0,0-.16-.56,1.32,1.32,0,0,0-.56-.26,12.16,12.16,0,0,0-7.08.42A32.53,32.53,0,0,0,44.66,124"/><path class="cls-1" d="M31.33,129.78a12.42,12.42,0,0,1-.11-10.28,7.9,7.9,0,0,1,.91,5.11c-.18,1.76-.72,3.57-.75,5.33"/><path class="cls-1" d="M25,126.57a14.37,14.37,0,0,0-10.66,4.54A10,10,0,0,0,20.15,130a29.69,29.69,0,0,0,5-3.35"/><path class="cls-1" d="M20.69,125.14a14.69,14.69,0,0,0-5.69.18A6.8,6.8,0,0,0,10.67,129,10.18,10.18,0,0,0,16,128a30.34,30.34,0,0,0,4.69-2.84"/><path class="cls-1" d="M27,125.21a17.72,17.72,0,0,0-5.58-2.79,6.06,6.06,0,0,0-5.82,1.41,10.86,10.86,0,0,0,5.56,1.08,19.21,19.21,0,0,1,6.06.62"/><path class="cls-1" d="M27,125.3c-3-2.94-4.12-8.22-2.92-12.23A18.59,18.59,0,0,1,27,125.3"/><path class="cls-1" d="M35.26,117c.56-1.31,1-2.68,1.47-4a11.43,11.43,0,0,1,2.09-3.71,5.52,5.52,0,0,1,3.71-1.92,15,15,0,0,1-7.2,9.68"/><path class="cls-1" d="M33.77,118.71a18.92,18.92,0,0,0-3.28-4A5.47,5.47,0,0,0,26,113.55a10.38,10.38,0,0,0,7.74,5.16"/><path class="cls-1" d="M34.07,117.08a22.42,22.42,0,0,1-1.48-4.78,7.54,7.54,0,0,1,.75-4.86c1.64,3.11,2.17,6.44.81,9.68"/><path class="cls-1" d="M35.28,107.44c.93-3.08,3.74-5.34,6.79-6.38a2.57,2.57,0,0,1,1.19-.18,1,1,0,0,1,.87.73c.12.53-.32,1-.72,1.34a23,23,0,0,1-8.13,4.49"/><path class="cls-1" d="M35.31,104.92a21.9,21.9,0,0,1,.89-5.87,7.41,7.41,0,0,1,3.7-4.47,8.73,8.73,0,0,1-1.65,5.72,26.82,26.82,0,0,0-3,5.28"/><path class="cls-1" d="M35.26,106.29c-.77-2.24-.85-5.09-2.19-7.05-.94-1.36-2.44-2.29-3.25-3.74A5.65,5.65,0,0,0,30,99.75a12.33,12.33,0,0,0,2.48,3.56c1,1.06,1.85,1.86,2.77,3"/><path class="cls-1" d="M35.28,172.34c-.06,0-.12-15-.12-33.41s0-33.42.1-33.42.11,15,.12,33.42S35.34,172.34,35.28,172.34Z"/><path class="cls-1" d="M48.35,127.52a2.54,2.54,0,0,1-.56.21l-1.55.53c-1.3.44-3.1,1.09-5,1.88a20.3,20.3,0,0,0-4.78,2.4,3.38,3.38,0,0,0-1,1.27c-.15.35-.18.56-.2.56s0-.05,0-.16a1.68,1.68,0,0,1,.11-.43,3.36,3.36,0,0,1,.93-1.36,8.32,8.32,0,0,1,2.08-1.28c.83-.39,1.75-.8,2.72-1.2,2-.8,3.76-1.42,5.08-1.83l1.57-.46Z"/><path class="cls-1" d="M52.64,117a1.83,1.83,0,0,1-.16.16l-.48.46-1.79,1.62-6,5.32c-2.33,2.07-4.34,4.05-5.73,5.54-.7.75-1.25,1.36-1.63,1.79l-.43.5-.16.16s0-.07.12-.19l.41-.52c.35-.45.89-1.08,1.57-1.84a75.45,75.45,0,0,1,5.71-5.61c2.33-2.06,4.46-3.92,6-5.26l1.83-1.58.51-.42C52.57,117,52.63,117,52.64,117Z"/><path class="cls-1" d="M41.73,126.66c-.06,0,.42-1.15.91-2.57s.72-2.62.78-2.61a8.54,8.54,0,0,1-.58,2.68,17.14,17.14,0,0,1-.72,1.8A2.67,2.67,0,0,1,41.73,126.66Z"/><path class="cls-1" d="M35.29,135.72a2.68,2.68,0,0,1-.36-.42L34,134.12c-.77-1-1.84-2.37-3-3.88s-2.29-2.86-3.09-3.84l-.94-1.16a2.54,2.54,0,0,1-.32-.45,2.76,2.76,0,0,1,.39.39l1,1.12c.83,1,1.95,2.3,3.14,3.81s2.25,2.9,3,3.92l.87,1.22A3,3,0,0,1,35.29,135.72Z"/><path class="cls-1" d="M32.42,132a5.32,5.32,0,0,1-1.2-2.25,6.46,6.46,0,0,1-.27-2.27H31c0,.17-.07.27-.09.26a1,1,0,0,1,0-.27H31a10.64,10.64,0,0,0,.39,2.21A17.82,17.82,0,0,0,32.42,132Z"/><path class="cls-1" d="M28.72,127.38a3.66,3.66,0,0,0-.84-.48,5.53,5.53,0,0,0-2.33-.19,14.09,14.09,0,0,0-2.34.38,6.08,6.08,0,0,1-1,.23,3.82,3.82,0,0,1,.93-.38,10.58,10.58,0,0,1,2.37-.44,5.08,5.08,0,0,1,2.4.25A1.48,1.48,0,0,1,28.72,127.38Z"/><path class="cls-1" d="M27.84,126.25s-.48-.19-1.28-.46a13,13,0,0,0-6.48-.5c-.82.15-1.33.31-1.34.27a1.85,1.85,0,0,1,.34-.14,8.29,8.29,0,0,1,1-.28,11.42,11.42,0,0,1,3.32-.23,11.54,11.54,0,0,1,3.24.73,7.87,7.87,0,0,1,.92.42A1.13,1.13,0,0,1,27.84,126.25Z"/><path class="cls-1" d="M35.26,121.48a25.48,25.48,0,0,1-.94-3.25,24.92,24.92,0,0,1-.72-3.31,29.48,29.48,0,0,1,.93,3.26A26.53,26.53,0,0,1,35.26,121.48Z"/><path class="cls-1" d="M35.32,121.48a14.52,14.52,0,0,0-1-2A8.33,8.33,0,0,0,32.75,118s.26.06.59.3a4.92,4.92,0,0,1,1.12,1.15A4.37,4.37,0,0,1,35.32,121.48Z"/><path class="cls-1" d="M35.28,164.37s-.07-.36-.24-1a14.7,14.7,0,0,0-1-2.59,35.75,35.75,0,0,0-5.31-7.47c-1.18-1.35-2.33-2.63-3.3-3.85A27.09,27.09,0,0,1,23.06,146a15.56,15.56,0,0,1-1.19-2.53q-.16-.47-.24-.72a.88.88,0,0,1-.06-.26s.13.34.37.95A19.06,19.06,0,0,0,23.19,146a29.15,29.15,0,0,0,2.39,3.36c1,1.21,2.13,2.48,3.32,3.84a34.25,34.25,0,0,1,5.28,7.55,13.15,13.15,0,0,1,.94,2.63,5.91,5.91,0,0,1,.13.75A1.85,1.85,0,0,1,35.28,164.37Z"/><path class="cls-1" d="M47.09,151a4.76,4.76,0,0,1-.62.35,13,13,0,0,0-1.6,1.06,17.73,17.73,0,0,0-2.11,1.93c-.74.78-1.51,1.69-2.29,2.66-1.55,1.95-3,3.68-3.88,5.06-.44.68-.76,1.26-1,1.66s-.33.63-.34.63,0-.07,0-.18.11-.28.21-.48a15.68,15.68,0,0,1,.92-1.71,54.45,54.45,0,0,1,3.85-5.12c.78-1,1.55-1.88,2.3-2.66a17.43,17.43,0,0,1,2.16-1.91,11,11,0,0,1,1.66-1c.21-.11.38-.17.49-.22Z"/><path class="cls-1" d="M47.32,155.35a9.46,9.46,0,0,1-1.31.19,18.16,18.16,0,0,0-3.1.61,9.4,9.4,0,0,0-2.78,1.46c-.64.5-.94.91-1,.88a.92.92,0,0,1,.19-.3,5.27,5.27,0,0,1,.68-.7A8.61,8.61,0,0,1,42.84,156a14.47,14.47,0,0,1,3.16-.56A7,7,0,0,1,47.32,155.35Z"/><path class="cls-1" d="M39.54,158c-.07,0,.52-.94,1-2.15s.53-2.3.61-2.29a2.52,2.52,0,0,1,0,.7,7.33,7.33,0,0,1-.38,1.66,8.21,8.21,0,0,1-.76,1.52A2.42,2.42,0,0,1,39.54,158Z"/><path class="cls-1" d="M50.92,139.4l-.21.11-.62.28c-.27.12-.59.26-1,.46s-.8.38-1.25.65l-.72.41c-.24.14-.49.31-.75.47-.53.32-1,.72-1.62,1.12a28.82,28.82,0,0,0-3.37,3,30.68,30.68,0,0,0-2.85,3.47c-.38.58-.76,1.12-1.06,1.65-.15.27-.31.52-.45.77s-.26.5-.38.73c-.25.46-.44.9-.61,1.27s-.32.71-.43,1-.19.46-.26.63a.93.93,0,0,1-.1.21,1.35,1.35,0,0,1,.06-.23l.22-.64c.1-.28.22-.61.4-1s.34-.82.58-1.29l.37-.74.45-.78c.29-.54.66-1.09,1-1.67a29.21,29.21,0,0,1,2.86-3.51,28.32,28.32,0,0,1,3.42-3c.57-.4,1.1-.79,1.63-1.11.27-.16.52-.33.77-.46l.72-.4c.46-.26.9-.45,1.28-.63a10.23,10.23,0,0,1,1-.43l.63-.24A1.05,1.05,0,0,1,50.92,139.4Z"/><path class="cls-1" d="M41.57,145.66a1.47,1.47,0,0,1,.51-.76,3.25,3.25,0,0,1,2.07-.8,5.71,5.71,0,0,1,2.18.43,3.11,3.11,0,0,1,.83.4,5,5,0,0,1-.88-.26,6.73,6.73,0,0,0-2.12-.35,3.45,3.45,0,0,0-2,.69A6.58,6.58,0,0,0,41.57,145.66Z"/><path class="cls-1" d="M40.17,147.11a8,8,0,0,0,.59-1.92,8.06,8.06,0,0,0-.13-2,1.38,1.38,0,0,1,.24.56,3.91,3.91,0,0,1,.1,1.47,3.85,3.85,0,0,1-.44,1.4A1.37,1.37,0,0,1,40.17,147.11Z"/><path class="cls-1" d="M24.94,166.51a49.51,49.51,0,0,0,4.7,17.42H41.16a50.19,50.19,0,0,0,4.42-17.42Z"/><path class="cls-2" d="M43.71,175.76c0,.06-3.79.11-8.47.11s-8.48-.05-8.48-.11,3.8-.1,8.48-.1S43.71,175.71,43.71,175.76Z"/><path class="cls-2" d="M43.45,177.84c0,.06-3.55.1-7.94.1s-7.95,0-7.95-.1,3.56-.11,8-.11S43.45,177.78,43.45,177.84Z"/><path class="cls-2" d="M29.82,170.27a16.09,16.09,0,0,1,.11,2.65,16.27,16.27,0,0,1-.11,2.66,17,17,0,0,1-.1-2.66A16.85,16.85,0,0,1,29.82,170.27Z"/><path class="cls-2" d="M36,170.27a34.31,34.31,0,0,1,0,5.49,34.31,34.31,0,0,1,0-5.49Z"/><path class="cls-2" d="M41.8,170.22a39.39,39.39,0,0,1,0,5.61,35.82,35.82,0,0,1,0-5.61Z"/><path class="cls-2" d="M45.21,170.27c0,.06-4.45.1-9.94.1s-9.94,0-9.94-.1,4.45-.11,9.94-.11S45.21,170.21,45.21,170.27Z"/><path class="cls-3" d="M321.35,184c0,.11-71.94.19-160.67.19S0,184.14,0,184s71.93-.18,160.68-.18S321.35,183.93,321.35,184Z"/><text></text><rect class="cls-1" x="93.28" y="42.03" width="167.36" height="137.45"/><rect class="cls-1" x="89.96" y="57.95" width="175.63" height="4.66" rx="2.33" ry="2.33"/><rect class="cls-2" x="103.43" y="72.58" width="81.85" height="58.69"/><path class="cls-3" d="M185.28,131.27s0-.37,0-1.08,0-1.75,0-3.11c0-2.73,0-6.73,0-11.84,0-10.22-.05-24.87-.08-42.66l.15.15-81.85,0h0l.18-.18c0,21,0,41,0,58.69l-.17-.17,59,.09,16.81,0,4.47,0h0l-4.44,0-16.77.05-59.13.08h-.17v-.17c0-17.72,0-37.67,0-58.69v-.19h.19l81.85,0h.15v.15c0,17.83-.06,32.52-.08,42.75,0,5.1,0,9.09,0,11.81,0,1.35,0,2.38,0,3.09S185.28,131.27,185.28,131.27Z"/><rect class="cls-4" x="197.89" y="67.91" width="55.81" height="106.45"/><rect class="cls-2" x="205.08" y="75.06" width="41.95" height="43.99"/><rect class="cls-2" x="205.08" y="132.04" width="41.95" height="35.26"/><circle class="cls-1" cx="203.68" cy="125.55" r="2.47"/><g class="cls-5"><path d="M108,42.11c0,7.65-7,15.36-14.69,15.36l-.52-15.36H108"/><path d="M149.94,58.11c7.72,0,14-7.17,14-16H136C136,50.94,142.21,58.11,149.94,58.11Z"/><path d="M205.89,58.11c7.73,0,14-7.17,14-16h-28C191.91,50.94,198.17,58.11,205.89,58.11Z"/><path d="M122,58.11c7.72,0,14-7.17,14-16H108C108,50.94,114.23,58.11,122,58.11Z"/><path d="M177.92,58.11c7.72,0,14-7.17,14-16h-28C163.93,50.94,170.19,58.11,177.92,58.11Z"/><path d="M233.93,58.11c7.75,0,14-7.17,14-16H219.88C219.88,50.94,226.17,58.11,233.93,58.11Z"/><path d="M248,42.11c0,8.83,4.95,15.68,12.57,15.68l.3-15.68Z"/></g><polygon class="cls-6" points="101.2 9.57 79.43 42.03 275.01 42.03 253.86 9.57 101.2 9.57"/><path class="cls-6" d="M79.43,42a14,14,0,0,0,28,0Z"/><path class="cls-6" d="M107.41,42a14,14,0,0,0,28,0Z"/><path class="cls-6" d="M135.39,42a14,14,0,0,0,28,0Z"/><path class="cls-6" d="M163.37,42a14,14,0,0,0,28,0Z"/><path class="cls-6" d="M191.35,42a14,14,0,0,0,28,0Z"/><path class="cls-6" d="M219.33,42a14,14,0,0,0,28.09,0Z"/><g class="cls-7"><path class="cls-8" d="M107.41,42a14,14,0,0,0,28,0Z"/></g><g class="cls-7"><path class="cls-8" d="M163.37,42a14,14,0,0,0,28,0Z"/></g><g class="cls-7"><path class="cls-8" d="M219.33,42a14,14,0,0,0,28.09,0Z"/></g><path class="cls-6" d="M247.42,42A13.8,13.8,0,1,0,275,42Z"/><g class="cls-7"><polygon class="cls-8" points="107.41 42.11 122.18 9.57 142.14 9.57 135.39 42.11 107.41 42.11"/></g><g class="cls-7"><polygon class="cls-8" points="163.09 9.57 163.37 42.11 191.35 42.11 188.24 9.57 163.09 9.57"/></g><g class="cls-7"><polygon class="cls-8" points="219.33 42.11 211.9 9.57 233.18 9.57 247.31 42.11 219.33 42.11"/></g><rect class="cls-6" x="93.28" width="167.36" height="9.57" rx="4.79" ry="4.79"/><path class="cls-3" d="M275,42.11c0,.1-43.79.18-97.78.18s-97.8-.08-97.8-.18,43.78-.19,97.8-.19S275,42,275,42.11Z"/><path class="cls-3" d="M260.84,173.4s0-.18,0-.53,0-.86,0-1.54c0-1.37,0-3.38,0-6,0-5.26,0-12.94-.05-22.68,0-19.49,0-47.19-.07-80l.17.17-84.23,0-83.28,0,.17-.17c0,33.11,0,61.05-.07,80.72,0,9.83,0,17.59-.05,22.9,0,2.64,0,4.68,0,6.06,0,.68,0,1.2,0,1.56s0,.53,0,.53,0-.18,0-.53,0-.88,0-1.56c0-1.38,0-3.42,0-6.06,0-5.31,0-13.07,0-22.9,0-19.67,0-47.61-.07-80.72v-.16h.17l83.28,0,84.23,0H261v.16c0,32.85-.05,60.55-.07,80,0,9.74,0,17.42-.05,22.68,0,2.63,0,4.64,0,6,0,.68,0,1.19,0,1.54S260.84,173.4,260.84,173.4Z"/><path class="cls-3" d="M261.39,58c0,.1-37.62.18-84,.18s-84-.08-84-.18,37.62-.19,84-.19S261.39,57.84,261.39,58Z"/><path class="cls-3" d="M256.75,9.57c0,.11-35.46.19-79.19.19s-79.19-.08-79.19-.19,35.45-.18,79.19-.18S256.75,9.47,256.75,9.57Z"/><path class="cls-1" d="M128.77,131c-.1,0-.18-13-.18-29s.08-29.05.18-29.05.19,13,.19,29.05S128.88,131,128.77,131Z"/><path class="cls-1" d="M158.15,131c-.1,0-.18-13-.18-29s.08-29.05.18-29.05.19,13,.19,29.05S158.25,131,158.15,131Z"/><path class="cls-1" d="M185.24,102.79c0,.1-18.37.19-41,.19s-41-.09-41-.19,18.37-.18,41-.18S185.24,102.69,185.24,102.79Z"/><path class="cls-3" d="M252.72,67.91a3.22,3.22,0,0,1-.36.52l-1.11,1.45-4.12,5.26,0,0H247l-21.47.06-20.48,0H205l0,0-5.21-5.27-1.41-1.45-.36-.39c-.08-.09-.12-.13-.11-.14L198,68l.39.36,1.45,1.4,5.3,5.18-.09,0,20.48,0,21.47.05-.1,0,4.21-5.19,1.16-1.41A5.2,5.2,0,0,1,252.72,67.91Z"/><path class="cls-3" d="M253.8,174.17s-.05,0-.13-.11l-.37-.34c-.34-.33-.81-.77-1.39-1.34l-5.07-5,.09,0-21.16.05L205,167.44l.09,0-5.3,5.12-1.45,1.38-.39.36-.14.11a.61.61,0,0,1,.11-.14l.36-.38,1.41-1.43,5.21-5.22,0,0H205l20.79,0,21.16,0H247l0,0,5,5.07,1.34,1.39.34.37C253.77,174.12,253.81,174.17,253.8,174.17Z"/><path class="cls-3" d="M247,76.56a.67.67,0,0,1,0,.21c0,.15,0,.35,0,.6q0,.82,0,2.34c0,2.06,0,5,0,8.79,0,7.54,0,18.15.06,30.55v.18H204.9v-.18c0-12.8,0-23.79.07-31.6,0-3.88,0-7,.05-9.12,0-1,0-1.86,0-2.43v-.63a.85.85,0,0,1,0-.21,1.66,1.66,0,0,1,0,.21c0,.16,0,.37,0,.63,0,.57,0,1.39,0,2.43,0,2.14,0,5.24.06,9.12,0,7.81,0,18.8.06,31.6l-.17-.17H247l-.17.17c0-12.4,0-23,.06-30.55,0-3.75,0-6.73.05-8.79q0-1.51,0-2.34l0-.6A.67.67,0,0,1,247,76.56Z"/><path class="cls-3" d="M247,167.3a1,1,0,0,1,0-.17l0-.49c0-.46,0-1.11,0-1.94,0-1.71,0-4.17,0-7.27,0-6.25,0-15.06-.07-25.39l.17.17-21,0-21,0,.17-.17c0,10.33-.05,19.14-.07,25.39,0,3.1,0,5.56-.05,7.27,0,.83,0,1.48,0,1.94l0,.49a1,1,0,0,1,0,.17s0-.05,0-.17,0-.29,0-.49c0-.46,0-1.11,0-1.94,0-1.71,0-4.17,0-7.27,0-6.25,0-15.06-.06-25.39v-.17H247.2V132c0,10.33,0,19.14-.07,25.39,0,3.1,0,5.56,0,7.27,0,.83,0,1.48,0,1.94l0,.49A1,1,0,0,1,247,167.3Z"/><path class="cls-3" d="M232,90.75c-.17-.17-.33-.34-.56-.56l-1.52-1.53-5-5.09h.27c-1.76,2.15-3.37,4.09-4.55,5.48-.59.69-1.07,1.25-1.41,1.63s-.53.58-.55.56a3.85,3.85,0,0,1,.44-.65l1.32-1.71c1.13-1.43,2.7-3.39,4.46-5.54l.13-.16.15.15h0c1.93,2,3.67,3.82,4.9,5.16A12.23,12.23,0,0,1,232,90.75Z"/><rect class="cls-4" x="210.45" y="90.97" width="31.11" height="12.18" transform="translate(-3.35 8.2) rotate(-2.06)"/><path class="cls-8" d="M218.62,99.21a2.15,2.15,0,0,1-.84-.74,2.22,2.22,0,0,1-.33-1.09,2.06,2.06,0,0,1,1-1.91,2.56,2.56,0,0,1,1.15-.32,2.51,2.51,0,0,1,1.17.24,2,2,0,0,1,.84.74,2.17,2.17,0,0,1,.08,2.2,2,2,0,0,1-.78.79,2.33,2.33,0,0,1-1.15.32A2.45,2.45,0,0,1,218.62,99.21Zm1.81-.78a1.16,1.16,0,0,0,.44-.49,1.3,1.3,0,0,0,.15-.69,1.39,1.39,0,0,0-.2-.68,1.15,1.15,0,0,0-.48-.45,1.25,1.25,0,0,0-.67-.15,1.37,1.37,0,0,0-.66.19,1.22,1.22,0,0,0-.44.49,1.34,1.34,0,0,0-.15.69,1.43,1.43,0,0,0,.2.69,1.22,1.22,0,0,0,.48.45,1.35,1.35,0,0,0,.67.15A1.38,1.38,0,0,0,220.43,98.43Z"/><path class="cls-8" d="M225.4,95.2a1.4,1.4,0,0,1,.64.5,1.38,1.38,0,0,1,.25.79,1.45,1.45,0,0,1-.19.81,1.4,1.4,0,0,1-.61.54,2.42,2.42,0,0,1-1,.22l-.83,0,0,1.14-1,0-.15-4.14,1.79-.07A2.44,2.44,0,0,1,225.4,95.2Zm-.29,1.87a.64.64,0,0,0,.21-.54.65.65,0,0,0-.25-.53,1,1,0,0,0-.66-.16l-.78,0,.05,1.44.78,0A1,1,0,0,0,225.11,97.07Z"/><path class="cls-8" d="M230.25,98.23l0,.77-3.21.11L226.92,95l3.13-.11,0,.77-2.18.08,0,.9,1.93-.07,0,.75-1.92.07,0,1Z"/><path class="cls-8" d="M234.7,94.68l.15,4.15-.79,0-2.16-2.45.09,2.52-1,0-.15-4.15.8,0,2.15,2.44-.09-2.51Z"/><rect class="cls-1" x="87.29" y="173.86" width="177.38" height="9.49"/><path class="cls-3" d="M264.67,173.9c0,.1-39.78.18-88.84.18S87,174,87,173.9s39.78-.19,88.86-.19S264.67,173.8,264.67,173.9Z"/><rect class="cls-9" x="163.62" y="138.38" width="22.85" height="7.12"/><rect class="cls-9" x="104.28" y="137.61" width="22.85" height="7.12"/><rect class="cls-10" x="151.44" y="145.71" width="22.85" height="7.12"/><path class="cls-3" d="M144.58,163.9s0-.18,0-.51,0-.82,0-1.41c0-1.24,0-3-.07-5.2l.12.12-22.84.06.18-.18h0v7.11l-.19-.18,16.29.08,4.8,0,1.3,0,.46,0a3.14,3.14,0,0,1-.42,0l-1.26,0-4.76.05-16.41.09h-.18v-7.29h0l.19-.19,22.84.07h.12v.12c0,2.23,0,4-.07,5.27l0,1.39A2.49,2.49,0,0,1,144.58,163.9Z"/><path class="cls-6" d="M158.6,180.42v9.89q-13,.45-26,1.15v15.67q10-.54,19.94-.93v9.71q-10,.39-19.94.93v25.82q-6.26.34-12.51.73V182.3Q139.32,181.09,158.6,180.42Z"/><path class="cls-6" d="M205.76,229q-12.44,0-24.88.25L176.77,241q-6.59.15-13.16.35,11.23-30.94,22.46-61.7,7.31-.1,14.59-.14Q211.9,210,223.13,240.76q-6.63-.07-13.25-.09Q207.83,234.84,205.76,229Zm-3.4-9.79q-4.52-12.76-9-25.5l-9,25.68Q193.33,219.26,202.36,219.23Z"/><path class="cls-6" d="M278.05,253.27q-4.74-5.81-9.47-11.57a35.43,35.43,0,0,1-24.16-3.94,31.61,31.61,0,0,1-11.63-11.42,31.15,31.15,0,0,1-4.3-16.23,30.14,30.14,0,0,1,4.3-16,29.17,29.17,0,0,1,11.63-10.89,31.56,31.56,0,0,1,16.11-3.5,33.26,33.26,0,0,1,16.14,4.75,32.47,32.47,0,0,1,15.78,28.11,30.09,30.09,0,0,1-3.53,14.62,28,28,0,0,1-9.61,10.36q7.14,8.25,14.3,16.58Q285.83,253.67,278.05,253.27ZM243.8,221.2a17.93,17.93,0,0,0,6.75,7.33,20.41,20.41,0,0,0,10,2.85,19.06,19.06,0,0,0,9.92-2.07,16.1,16.1,0,0,0,6.71-6.81,22.25,22.25,0,0,0,2.41-10.64A23.52,23.52,0,0,0,277.16,201a18.21,18.21,0,0,0-6.71-7.37,20.14,20.14,0,0,0-9.92-2.87,19.23,19.23,0,0,0-10,2.1,16.17,16.17,0,0,0-6.75,6.85,22.33,22.33,0,0,0-2.42,10.66A23.34,23.34,0,0,0,243.8,221.2Z"/><path class="cls-8" d="M51.81,82.36l-6.18-1.14A17.51,17.51,0,1,1,50.25,77h0Z"/><path class="cls-3" d="M51.81,82.36a3.45,3.45,0,0,0-.09-.34l-.28-1c-.25-.93-.63-2.29-1.11-4a.08.08,0,0,0-.09,0h0l.1.1a17.61,17.61,0,0,0,3.4-8A17.79,17.79,0,0,0,51.4,57.36,17.74,17.74,0,0,0,39.62,49.1a18,18,0,0,0-8.1.37,16.1,16.1,0,0,0-2,.68,9.42,9.42,0,0,0-1,.45c-.31.16-.64.3-.95.48a21.37,21.37,0,0,0-1.79,1.19l-.87.66-.79.74A17.6,17.6,0,0,0,37.38,84a17.39,17.39,0,0,0,8.29-2.7h-.05l4.63.81,1.17.2.39.06-.41-.09L50.21,82l-4.56-.89h0A17.36,17.36,0,0,1,24.37,53.9l.79-.73.84-.65a18.57,18.57,0,0,1,1.77-1.16c.3-.18.62-.32.93-.48a9,9,0,0,1,.95-.44,16.76,16.76,0,0,1,2-.67,17.78,17.78,0,0,1,8-.37,17.45,17.45,0,0,1,11.6,8.1A17.46,17.46,0,0,1,53.5,69a17.54,17.54,0,0,1-3.3,7.93.06.06,0,0,0,0,.09.06.06,0,0,0,.08,0h0l-.1,0c.51,1.73.91,3.06,1.18,4,.14.45.24.79.32,1Z"/><polygon class="cls-6" points="28.17 66.9 30.61 64.2 35.8 68.36 43.49 59.52 46.01 61.97 35.68 73.33 28.17 66.9"/><path class="cls-3" d="M49.27,130.6a53.61,53.61,0,0,0,3.26-12.77c.6-4.78.56-9.69,2-14.28s4.84-9,9.57-9.85l4.07,1.49a227.23,227.23,0,0,1-3.74,43.09,2.67,2.67,0,0,1-.63,1.5,2.58,2.58,0,0,1-2,.38,41.17,41.17,0,0,1-10.27-2.41A5.29,5.29,0,0,1,48.87,136C47.82,134.45,48.58,132.36,49.27,130.6Z"/><path class="cls-3" d="M63,76.4A17.11,17.11,0,0,1,76,69.23c3-.18,4.28.39,6.47.88A9.53,9.53,0,0,1,88,73.44a16,16,0,0,1,3.43,7.12,44.88,44.88,0,0,1,.75,8.16A14.87,14.87,0,0,1,90,96.52L83.09,98a43.67,43.67,0,0,1-11.48-.11c-3.77-.71-7.48-2.56-9.62-5.74C59,87.76,59.85,80.67,63,76.4Z"/><path class="cls-11" d="M69.21,76.08,78.29,72l2.43.17c5.44-.22,9.45,5.61,9.68,10,.26,4.89.38,10.87-.24,14.5-1.24,7.32-7.4,8.2-7.4,8.2l.13,6.1L86,112.6l-.51,17-11.32,1.74-5.65-20.67-.08-5.23L66.88,78.67A2.57,2.57,0,0,1,69.21,76.08Z"/><path class="cls-12" d="M79.21,95.47a1.54,1.54,0,0,1,.49-1,1.57,1.57,0,0,1,1.91-.19,2.1,2.1,0,0,1,.89,2h0a1.92,1.92,0,0,1-1.34.85,1.1,1.1,0,0,1-.26,0,1.69,1.69,0,0,1-1.18-.41A1.54,1.54,0,0,1,79.21,95.47Z"/><path class="cls-3" d="M87.43,88.22a.93.93,0,0,1-.91.94.9.9,0,0,1-1-.86,1,1,0,0,1,.91-.94A.9.9,0,0,1,87.43,88.22Z"/><path class="cls-3" d="M88.85,84.7c-.12.12-.82-.42-1.83-.43s-1.76.49-1.87.37.07-.28.39-.51a2.59,2.59,0,0,1,1.5-.44,2.48,2.48,0,0,1,1.46.49C88.81,84.42,88.91,84.64,88.85,84.7Z"/><path class="cls-3" d="M82.72,92.9a6.39,6.39,0,0,1,1.64-.28c.26,0,.51-.08.55-.25a1.34,1.34,0,0,0-.16-.77l-.75-2a34.25,34.25,0,0,1-1.66-5.17,32.74,32.74,0,0,1,2.08,5c.24.69.48,1.36.71,2a1.48,1.48,0,0,1,.12,1,.65.65,0,0,1-.43.38,1.8,1.8,0,0,1-.44,0A6.85,6.85,0,0,1,82.72,92.9Z"/><path class="cls-12" d="M82.77,104.87A18.72,18.72,0,0,1,73,102.15s2.56,5.1,9.9,4.5Z"/><path class="cls-3" d="M79.73,93.56c.17,0,.16,1.09,1.09,1.88s2.1.69,2.11.84-.27.21-.76.22a2.72,2.72,0,0,1-1.76-.64,2.34,2.34,0,0,1-.84-1.57C79.53,93.83,79.66,93.56,79.73,93.56Z"/><path class="cls-3" d="M88.35,81.18c-.17.24-.94.07-1.85.13s-1.66.3-1.85.08,0-.35.33-.6a2.89,2.89,0,0,1,3-.17C88.3,80.83,88.43,81.06,88.35,81.18Z"/><path class="cls-3" d="M76.53,88.24a.93.93,0,0,0,.93.92.9.9,0,0,0,1-.87,1,1,0,0,0-.93-.93A.9.9,0,0,0,76.53,88.24Z"/><path class="cls-3" d="M75.18,84.91c.12.12.82-.43,1.83-.45s1.76.46,1.87.33-.07-.27-.4-.5a2.62,2.62,0,0,0-1.5-.42,2.55,2.55,0,0,0-1.46.51C75.22,84.63,75.12,84.86,75.18,84.91Z"/><path class="cls-3" d="M75.64,81.65c.21.22,1,0,1.92-.07s1.74.11,1.91-.14,0-.34-.4-.55a3.05,3.05,0,0,0-3.09.16C75.65,81.3,75.55,81.54,75.64,81.65Z"/><path class="cls-11" d="M68.67,90.9c0-.54-.61-1.84-1.15-1.93-1.43-.24-4-.15-4.09,3.51-.09,5,4.95,4,5,3.91S68.66,92.79,68.67,90.9Z"/><path class="cls-12" d="M67,94.54s-.09.06-.24.12a.89.89,0,0,1-.65,0,2.16,2.16,0,0,1-1-2,3.09,3.09,0,0,1,.26-1.24,1,1,0,0,1,.67-.66.45.45,0,0,1,.51.25c.07.14,0,.24.06.25s.11-.08.07-.29a.55.55,0,0,0-.19-.32.68.68,0,0,0-.48-.13,1.21,1.21,0,0,0-.92.76,3,3,0,0,0-.33,1.39,2.3,2.3,0,0,0,1.23,2.18,1,1,0,0,0,.8-.12C67,94.66,67.06,94.55,67,94.54Z"/><path class="cls-3" d="M67.32,89l1.33,1.25C73.88,84.78,84,71.2,83.43,72a15.86,15.86,0,0,0-7.85-.5c-4,.87-11.66,3.24-11.33,8A25.1,25.1,0,0,0,67.32,89Z"/><path class="cls-3" d="M95.94,161.68c.39.4,6.81,14.71,6.4,24.64s-6.4,44.52-6.4,44.52l-9.58,53.49H72.46s0-34.19,1.25-43.56,2.69-14.52,3.11-21.39.53-21.35,1-20.77-32.08,83.81-32.08,83.81L32,281.52s4.95-28.57,6-34,5.18-22,8.3-30.45,4.2-29.37,8.5-38.39,4.34-11.85,4.34-11.85Z"/><path class="cls-3" d="M85.55,272.3l-.73,13.29s13.27,5.2,13.37,7.67l-25.82-.49L72.66,272Z"/><path class="cls-4" d="M72.37,292.77l0-2,24.8,1.17s1.14.52,1,1.33Z"/><path class="cls-8" d="M85.24,285.46c0,.13-.64.17-1.26.57s-1,.92-1.09.86.09-.77.86-1.24S85.27,285.35,85.24,285.46Z"/><path class="cls-8" d="M87.93,286.63c0,.13-.52.33-1,.86s-.57,1.08-.7,1.08-.19-.73.37-1.37S87.93,286.51,87.93,286.63Z"/><path class="cls-8" d="M89.41,289.9c-.12,0-.28-.6.06-1.29s.93-.95,1-.84-.32.47-.59,1S89.53,289.89,89.41,289.9Z"/><path class="cls-3" d="M36.54,270.68,32.2,286.19l-7,11.27a1.66,1.66,0,0,0,.63,2.33h0a1.61,1.61,0,0,0,1.51,0c3-1.53,14.19-7.25,14.44-8.4.29-1.34,5.66-16.06,5.66-16.06Z"/><path class="cls-4" d="M25.86,299.79l16.27-9.43-.2.65a2.49,2.49,0,0,1-1,1.37c-1.33.85-5,3.12-13.48,7.44a1.66,1.66,0,0,1-1.56,0Z"/><path class="cls-8" d="M31.43,294.13a5,5,0,0,0-1-1.61,5.24,5.24,0,0,0-1.67-.88s.23-.1.6,0a2.5,2.5,0,0,1,1.31.66,2.54,2.54,0,0,1,.75,1.26C31.52,293.9,31.48,294.13,31.43,294.13Z"/><path class="cls-8" d="M29.71,295.86c-.1,0-.44-.61-1.17-1.08a11.22,11.22,0,0,0-1.44-.65,1.84,1.84,0,0,1,1.64.36C29.57,295,29.8,295.84,29.71,295.86Z"/><path class="cls-8" d="M34.28,292.11a16,16,0,0,0-1.68-1.79,16.34,16.34,0,0,0-2.12-1.22,3.62,3.62,0,0,1,2.34.95A3.62,3.62,0,0,1,34.28,292.11Z"/><path class="cls-8" d="M36,287.51c-.07.07-.81-.54-1.9-.92s-2.06-.38-2.06-.48a3.15,3.15,0,0,1,2.17.15A3.16,3.16,0,0,1,36,287.51Z"/><path class="cls-8" d="M37.4,283.88a8,8,0,0,0-2-1,8,8,0,0,0-2.2-.11s.21-.18.63-.28a3.6,3.6,0,0,1,3.12.84C37.31,283.62,37.43,283.86,37.4,283.88Z"/><path class="cls-11" d="M109.27,129.8,98.91,142l-.19-3.36-11.47,2.46s2.86,16.55,5.24,17.78,4.1,1.72,9.67-5.49,11.73-19.34,11.73-19.34Z"/><path class="cls-11" d="M109.6,129.47s.63-1.65,3.38-2.12,8.24.73,8.83.91,4.84-.66,5.83.41.7,1.39.7,1.39l-11.55,2Z"/><path class="cls-11" d="M109.27,129.8s1.87-2.34,5.94-1.76c2,.29,6.05,1.36,6.64,1.36s4.1-.88,5-.44a1.27,1.27,0,0,1,.79,1.22s3.25-1.59,3.94-.54l.18.27s1.95-.77,2.06.77l-2.92,1.62s2.77-.92,2.92,1A49,49,0,0,1,128,135a10.27,10.27,0,0,1-2.24-.58,29.31,29.31,0,0,1-3.86.29c-1.23-.07-7.65-.66-8-.62S109.27,129.8,109.27,129.8Z"/><path class="cls-12" d="M127.28,130.27s.47-.18,1.28-.45a9,9,0,0,1,1.48-.35,2.66,2.66,0,0,1,.89,0,.83.83,0,0,1,.67.48v0l0,0a.29.29,0,0,1,0,.42,2.24,2.24,0,0,1-.6.31l-1.42.57-2.85,1.11c-.43.17-.86.34-1.23.47a10.22,10.22,0,0,1-1.12.2,22,22,0,0,0-2.28.33,2.71,2.71,0,0,0,.62,0c.4,0,1-.05,1.68-.11a9.44,9.44,0,0,0,1.17-.17c.42-.13.82-.29,1.27-.45.88-.33,1.85-.69,2.86-1.09.49-.19,1-.38,1.43-.58a2.85,2.85,0,0,0,.68-.37.63.63,0,0,0,.21-.41.65.65,0,0,0-.14-.43l0,.06a1.07,1.07,0,0,0-.91-.68,2.9,2.9,0,0,0-1,0,9.18,9.18,0,0,0-1.5.43A4.46,4.46,0,0,0,127.28,130.27Z"/><path class="cls-12" d="M125.41,134.43a2.24,2.24,0,0,0,1.38-.05,27.31,27.31,0,0,0,3-1.4c1.14-.59,2.15-1.15,2.88-1.56a5.73,5.73,0,0,0,1.15-.74,5.64,5.64,0,0,0-1.25.54c-.76.36-1.79.89-2.93,1.47s-2.16,1.16-2.9,1.47A7.75,7.75,0,0,1,125.41,134.43Z"/><path class="cls-12" d="M110.51,129s.32-.2.93-.48a6.15,6.15,0,0,1,2.74-.58,24.73,24.73,0,0,1,4.16.76l2.43.61a6.91,6.91,0,0,0,1.34.27,6.31,6.31,0,0,0,1.39-.23,10,10,0,0,1,2.56-.35,2.16,2.16,0,0,1,1.13.22.59.59,0,0,1,.14.85l.08-.06a40.49,40.49,0,0,1-5.77,1.49c-.72.14-1.29.23-1.68.29a2.28,2.28,0,0,0-.6.12,3.51,3.51,0,0,0,.61,0c.4,0,1-.1,1.7-.21a36.61,36.61,0,0,0,5.84-1.39l0,0,0,0a1.18,1.18,0,0,0,.15-.67.82.82,0,0,0-.38-.6,2.59,2.59,0,0,0-1.3-.28,10.55,10.55,0,0,0-2.64.36,6.31,6.31,0,0,1-1.3.22,7.49,7.49,0,0,1-1.27-.25l-2.44-.6a23.4,23.4,0,0,0-4.22-.7,6,6,0,0,0-2.8.7,5.16,5.16,0,0,0-.68.41C110.57,128.92,110.5,129,110.51,129Z"/><path class="cls-4" d="M101,138.58s.43-16.82-1.13-20.47a8.71,8.71,0,0,0-5.75-5.34c-2-.78-10.69-3.5-10.69-3.5S80.9,113.1,77.28,113a10,10,0,0,1-8.39-5.3s-9.87,1.2-13.58,3l-2.84,21.23s5,32.06,7.14,34.8,18.22,8.9,26.13,6.42,13.91-8.45,11.58-10.72c-3.2-3.1-4-15.85-2.7-20C94.74,141.83,101,138.58,101,138.58Z"/><path class="cls-3" d="M97.24,125.37a3.47,3.47,0,0,0-.07.69q0,.78-.09,1.89c-.08,1.6-.22,3.8-.57,6.2a54.3,54.3,0,0,1-1.27,6.1c-.42,1.54-.73,2.48-.68,2.5a3.16,3.16,0,0,0,.28-.64c.16-.42.37-1,.61-1.8a40,40,0,0,0,1.37-6.11,47.1,47.1,0,0,0,.49-6.24c0-.8,0-1.45,0-1.9A3.15,3.15,0,0,0,97.24,125.37Z"/><path class="cls-6" d="M95.21,162.46l-4.46-35.93-28.84,1.59,2.45,35.75-5.65,1.07L57,173.53l.58.19h0s-8.08,63.21-7.17,65.08,49.67.57,49.67.57,3.37-48.52,2.81-58.26a39.78,39.78,0,0,0-4.58-16.52Z"/><path class="cls-6" d="M92.24,112.1s.12,17.54-2.18,18.38c-3,1.11-2.81-2.37-2.81-5.11s1-14.71,1-14.71A6.38,6.38,0,0,1,92.24,112.1Z"/><path class="cls-6" d="M65.12,108.25s2.66,20.07,1.9,21.6-3.19,1.66-3.64,0-2.8-20.75-2.8-20.75S63.67,107.86,65.12,108.25Z"/><path class="cls-3" d="M67.07,126.78a2.74,2.74,0,0,1,.28,1.42,9.77,9.77,0,0,1,0,1.59,2,2,0,0,1-1.25,1.57,2.07,2.07,0,0,1-1.93-.57,3.19,3.19,0,0,1-.79-1.42,3.72,3.72,0,0,1-.18-1.44,10.84,10.84,0,0,1,.43,1.36,3.09,3.09,0,0,0,.78,1.25A1.75,1.75,0,0,0,66,131a1.64,1.64,0,0,0,1-1.27,12.65,12.65,0,0,0,.12-1.52C67.13,127.32,67,126.8,67.07,126.78Z"/><path class="cls-3" d="M91.41,127.36a2.12,2.12,0,0,1-.46,1.1,2.7,2.7,0,0,1-1,.9,2.08,2.08,0,0,1-1.64.18,2,2,0,0,1-1.18-1.15,3.34,3.34,0,0,1-.24-1.3,2.84,2.84,0,0,1,.18-1.18,5.44,5.44,0,0,1,.08,1.17,3.7,3.7,0,0,0,.29,1.17,1.73,1.73,0,0,0,1,.94,1.85,1.85,0,0,0,1.37-.13,2.72,2.72,0,0,0,.92-.76C91.18,127.75,91.36,127.34,91.41,127.36Z"/><path class="cls-3" d="M65.58,173.91a4.2,4.2,0,0,1-.31-1.36,20,20,0,0,1-.2-3.36,20.47,20.47,0,0,1,.32-3.36,4.87,4.87,0,0,1,.36-1.35c.11,0-.27,2.11-.31,4.71S65.69,173.89,65.58,173.91Z"/><path class="cls-3" d="M71.41,179.35c-.1,0-1-3.63-2-8.16S67.73,163,67.83,163s1,3.63,2,8.15S71.51,179.33,71.41,179.35Z"/><path class="cls-3" d="M90.4,146a.68.68,0,0,1,0,.17c0,.11.06.28.09.51a4,4,0,0,1-.16,2,2.57,2.57,0,0,1-.92,1.13,5.09,5.09,0,0,1-1.57.75,34.93,34.93,0,0,1-4.1.85,48,48,0,0,1-5,.52c-.91.05-1.86.07-2.83.06a14.89,14.89,0,0,1-3-.24A5.47,5.47,0,0,1,70,150.35a5.83,5.83,0,0,1-1.43-3c-.22-1.12-.3-2.25-.41-3.39s-.21-2.31-.32-3.49l-.08-.88a3.16,3.16,0,0,1,0-.92,2.72,2.72,0,0,1,.9-1.59,2.9,2.9,0,0,1,1.66-.68l1.67-.21c2.21-.27,4.34-.55,6.38-.76s4-.38,5.81-.45c.91,0,1.79,0,2.64,0a4,4,0,0,1,1.27.17,1.42,1.42,0,0,1,.82,1,8.31,8.31,0,0,1,.22,1.13c0,.36.1.72.15,1.06.1.69.2,1.34.29,1.95.17,1.21.32,2.26.44,3.13l.27,2,.06.52c0,.11,0,.17,0,.18s0-.06-.05-.18l-.09-.51c-.09-.47-.2-1.13-.34-2s-.31-1.91-.51-3.11c-.1-.61-.2-1.26-.31-1.95s-.19-1.44-.39-2.15a1.16,1.16,0,0,0-.67-.79,3.69,3.69,0,0,0-1.18-.13c-.84,0-1.71,0-2.62,0-1.82.08-3.75.25-5.78.48s-4.16.5-6.37.78l-1.68.21a2.51,2.51,0,0,0-1.46.6,2.43,2.43,0,0,0-.78,1.37,7.68,7.68,0,0,0,.07,1.71c.11,1.17.21,2.34.32,3.48a32,32,0,0,0,.4,3.35,5.55,5.55,0,0,0,1.32,2.84A5.22,5.22,0,0,0,73,151.44a16.37,16.37,0,0,0,2.94.25c1,0,1.91,0,2.81,0a48.07,48.07,0,0,0,5-.48,37.07,37.07,0,0,0,4.08-.79,3.5,3.5,0,0,0,2.42-1.74,3.9,3.9,0,0,0,.21-1.93A4.44,4.44,0,0,1,90.4,146Z"/><path class="cls-11" d="M54.59,121.21s-.78-10.76-2.9-8.33-16.19,20.57-18.8,25.9a8.2,8.2,0,0,0,1.51,9.3l21,17.93,4.6-5L42.91,142.44l14-14.56Z"/><path class="cls-12" d="M36.29,142.57a33,33,0,0,1,3.59-.33c2,0,3.56.46,3.59.36a3.36,3.36,0,0,0-1-.35,10.85,10.85,0,0,0-2.57-.31,11.11,11.11,0,0,0-2.57.28A3.06,3.06,0,0,0,36.29,142.57Z"/><path class="cls-11" d="M59.41,161.26c1.86-.44,6.93-5.88,8.67-7s5,0,5,0c-.1,2.08-1.45,1.08-2.61,1.26a8,8,0,0,0-2.71,1.36l2.22.27,4.36,2a2.55,2.55,0,0,1-1.26,2c-1.26.82-4.64-.42-4.64-.42l-1.94.6,2,.37s2.71.45,3.39,1.08a.88.88,0,0,1,.1,1.27l-4.07-1-2.41.46s-3.92,3.54-5.9,4.07-4.45-1.78-4.45-1.78Z"/><path class="cls-12" d="M65.28,159.2a3.43,3.43,0,0,0,1.3-.24,7.38,7.38,0,0,1,1.35-.29,6.4,6.4,0,0,1,1.67.22,26.72,26.72,0,0,1,3,1,6.61,6.61,0,0,0,1.23.43,5.4,5.4,0,0,0-1.15-.62,17,17,0,0,0-3-1.1,5.76,5.76,0,0,0-1.76-.21,6.17,6.17,0,0,0-1.4.36C65.76,159.06,65.28,159.16,65.28,159.2Z"/><path class="cls-4" d="M55.31,110.66s-1.28,0-4,2S39.19,126.7,39.19,126.7l11.34,10.56,6.84-8.09s3.57-15.48,3.18-15.44S55.31,110.66,55.31,110.66Z"/><path class="cls-3" d="M57.36,129.1a5.7,5.7,0,0,1-.78,1.32c-.54.78-1.31,1.83-2.23,3s-1.8,2.07-2.47,2.74a5.74,5.74,0,0,1-1.14,1c-.08-.07,1.5-1.79,3.33-4S57.27,129,57.36,129.1Z"/></g></g></svg>