<svg xmlns="http://www.w3.org/2000/svg" viewBox="0 0 259.2 42.44"><defs><style>.cls-1{fill:#fff;}</style></defs><title>fitur kami</title><g id="Layer_2" data-name="Layer 2"><g id="OBJECTS"><path class="cls-1" d="M22.85,6.61v6.85q-7.16-.29-14.3-.71v7.4c3.57.22,7.13.4,10.7.56v6.65c-3.57-.16-7.13-.34-10.7-.56V41Q4.28,40.74,0,40.42V5.32Q11.43,6.17,22.85,6.61Z"/><path class="cls-1" d="M28,9.76a4.43,4.43,0,0,1-1.42-3.32A4.22,4.22,0,0,1,28,3.16,5.1,5.1,0,0,1,31.65,2a5.17,5.17,0,0,1,3.62,1.41A4.44,4.44,0,0,1,36.7,6.71,4.21,4.21,0,0,1,35.27,10a5,5,0,0,1-3.62,1.24A5.29,5.29,0,0,1,28,9.76ZM35.9,14.2V42.1q-4.28-.09-8.55-.23V14Q31.63,14.11,35.9,14.2Z"/><path class="cls-1" d="M57.65,35v7.25H53.3q-4.65,0-7.25-2.31c-1.73-1.54-2.6-4-2.6-7.46V21.42l-3.4,0V14.27l3.4.05V7.52q4.27.06,8.55.07v6.8h5.6v7.1H52v11.2a2.35,2.35,0,0,0,.6,1.8,2.92,2.92,0,0,0,2,.55Z"/><path class="cls-1" d="M90,13.87v27.9q-4.28.12-8.55.21v-3.8a9.67,9.67,0,0,1-3.53,3,11.54,11.54,0,0,1-10.57-.14A9.43,9.43,0,0,1,63.5,37a13.94,13.94,0,0,1-1.35-6.34V14.36c2.83,0,5.67,0,8.5-.09V29.42a6,6,0,0,0,1.45,4.33A5,5,0,0,0,76,35.24a5.25,5.25,0,0,0,4-1.63,6.23,6.23,0,0,0,1.45-4.38V14.08Z"/><path class="cls-1" d="M108.4,14.32a10,10,0,0,1,5-1.5v9.05l-2.35.08a7.48,7.48,0,0,0-4.8,1.54c-1.07,1-1.6,2.58-1.6,4.88v13l-8.55.27V13.69l8.55-.27v4.65A12,12,0,0,1,108.4,14.32Z"/><path class="cls-1" d="M148.45,39.73l-11.8-15.07v15.5l-8.55.32V5.38l8.55-.32v15.4l11.7-15.83L158.4,4.3Q151.59,13.11,144.8,22q7,8.7,14.1,17.42Z"/><path class="cls-1" d="M162.87,17.71a12.66,12.66,0,0,1,4.43-5.13,11.65,11.65,0,0,1,6.25-1.91,10.47,10.47,0,0,1,5.17,1.08,8.51,8.51,0,0,1,3.43,3.08V10.88c2.85-.06,5.7-.1,8.55-.14v27.9c-2.85,0-5.7.08-8.55.14v-4a9.58,9.58,0,0,1-3.48,3.22,11,11,0,0,1-5.17,1.32,11.14,11.14,0,0,1-6.2-1.62,11.8,11.8,0,0,1-4.43-4.92,16.56,16.56,0,0,1-1.62-7.52A17,17,0,0,1,162.87,17.71Zm17.5,2.1a5.6,5.6,0,0,0-4.32-1.75A6,6,0,0,0,171.72,20,7.05,7.05,0,0,0,170,25.06a6.94,6.94,0,0,0,1.77,5,5.62,5.62,0,0,0,4.33,1.77,5.9,5.9,0,0,0,4.32-1.95,7.07,7.07,0,0,0,1.78-5.08A6.84,6.84,0,0,0,180.37,19.81Z"/><path class="cls-1" d="M240.77,14.27q3.07,3.3,3.08,8.9v16.3c-2.84-.14-5.67-.27-8.5-.37V24a6,6,0,0,0-1.43-4.23,5.37,5.37,0,0,0-3.92-1.6,5.06,5.06,0,0,0-3.93,1.37,5.64,5.64,0,0,0-1.42,4.14V38.78q-4.26-.11-8.5-.15V23.48a5.86,5.86,0,0,0-1.43-4.2,5.23,5.23,0,0,0-3.92-1.5,5.13,5.13,0,0,0-3.93,1.45,5.74,5.74,0,0,0-1.42,4.17V38.55l-8.55,0V10.68l8.55,0v3.5a9.1,9.1,0,0,1,3.4-2.76,10.45,10.45,0,0,1,4.75-1,11.46,11.46,0,0,1,5.62,1.42,10,10,0,0,1,3.88,3.92,10.7,10.7,0,0,1,4-3.65,10.2,10.2,0,0,1,5.45-1.29A11.33,11.33,0,0,1,240.77,14.27Z"/><path class="cls-1" d="M250.47,7.71a4.56,4.56,0,0,1-1.42-3.36,4.08,4.08,0,0,1,1.42-3.24A4.87,4.87,0,0,1,254.15,0a5.42,5.42,0,0,1,3.62,1.57A4.69,4.69,0,0,1,259.2,5a4,4,0,0,1-1.43,3.17,4.86,4.86,0,0,1-3.62,1.08A5.57,5.57,0,0,1,250.47,7.71Zm7.93,4.75v27.9q-4.27-.31-8.55-.56V11.9Q254.13,12.14,258.4,12.46Z"/></g></g></svg>