<svg xmlns="http://www.w3.org/2000/svg" viewBox="0 0 342.71 300"><defs><style>.cls-1{fill:#ffbf9d;}.cls-2{fill:#ff725e;}.cls-3{opacity:0.6;}.cls-4{fill:#fff;}.cls-5{fill:#263238;}.cls-6{fill:#455a64;}.cls-7{fill:#ff9a6c;}.cls-8{fill:#e0e0e0;}.cls-9{opacity:0.3;}.cls-10{fill:#bf654e;}.cls-11{fill:#7f473d;}.cls-12{opacity:0.4;}.cls-13{fill:#fafafa;}.cls-14{fill:#ff9b6a;}</style></defs><title>keunggulan</title><g id="Layer_2" data-name="Layer 2"><g id="Vegetables"><polygon class="cls-1" points="167.41 276.92 169.25 295.83 178.7 294.67 179.34 285.2 167.41 276.92"/><path class="cls-1" d="M201.28,292.43c-.19-.3-1.81-6.65-1.81-6.65l11-2.68,1.35,9.13Z"/><path class="cls-2" d="M211.73,290.44v.73s11.9,5.05,12,7.39L200,298.22l.45-8.13A13.23,13.23,0,0,0,211.73,290.44Z"/><g class="cls-3"><path class="cls-4" d="M202.81,292.72a1,1,0,0,0-.69,1.13.93.93,0,0,0,1.08.71,1,1,0,0,0,.72-1.2,1,1,0,0,0-1.2-.61"/></g><g class="cls-3"><path class="cls-4" d="M200,298.22l.11-2,22.71,1s1.05.49.92,1.26Z"/></g><path class="cls-5" d="M211.81,291.23c0,.12-.58.17-1.16.55s-.89.87-1,.82.07-.74.78-1.18S211.84,291.13,211.81,291.23Z"/><path class="cls-5" d="M214.29,292.33c0,.12-.48.31-.89.81s-.52,1-.64,1-.17-.68.34-1.3S214.28,292.22,214.29,292.33Z"/><path class="cls-5" d="M215.65,295.42c-.1,0-.26-.57,0-1.22s.86-.91.9-.81-.29.45-.53,1S215.77,295.41,215.65,295.42Z"/><path class="cls-2" d="M168.35,291.88v.73s-11.91,5.05-12,7.39l23.74-.33-.45-8.14A13.22,13.22,0,0,1,168.35,291.88Z"/><g class="cls-3"><path class="cls-4" d="M177.27,294.17a1,1,0,0,1,.69,1.13.93.93,0,0,1-1.08.71,1.07,1.07,0,0,1-.72-1.2,1,1,0,0,1,1.2-.61"/></g><g class="cls-3"><path class="cls-4" d="M180.09,299.67l-.11-2-22.71,1s-1.05.48-.92,1.25Z"/></g><path class="cls-5" d="M168.27,292.68c0,.12.59.16,1.17.54s.88.87,1,.82-.08-.73-.78-1.18S168.25,292.57,168.27,292.68Z"/><path class="cls-5" d="M165.8,293.77c0,.12.48.32.88.82s.52,1,.64,1,.18-.68-.33-1.29S165.8,293.66,165.8,293.77Z"/><path class="cls-5" d="M164.43,296.86c.11,0,.26-.57-.05-1.22s-.85-.9-.9-.8.29.44.54,1S164.32,296.85,164.43,296.86Z"/><path class="cls-5" d="M197.93,181.41c.51.34,3.92,23.39,8.33,54,3.64,25.21,5.52,50.68,5.52,50.68l-11.8,2s-10.37-31.36-15.73-53.88C179.31,213.48,177,199,177,199l.33-15.12Z"/><path class="cls-5" d="M162.5,172.2S151.37,186.31,152,201.3c.34,9,16.23,84.93,16.23,84.93l11.63-.07-1.25-83.1,1.67-19.55Z"/><path class="cls-6" d="M180,199a16.09,16.09,0,0,1,.52-1.56,30.35,30.35,0,0,0,1-3.83,29.11,29.11,0,0,0,.47-3.93c.06-1,.06-1.65.1-1.65a1.37,1.37,0,0,1,.06.44,10.56,10.56,0,0,1,0,1.21,22.68,22.68,0,0,1-1.49,7.82,10.88,10.88,0,0,1-.47,1.11C180.1,198.9,180,199,180,199Z"/><path class="cls-6" d="M202.4,287.48a4.91,4.91,0,0,1-.82-3.05A7.85,7.85,0,0,1,202,286,8.17,8.17,0,0,1,202.4,287.48Z"/><path class="cls-6" d="M206.43,286.79s-.05,0-.09-.12v0c0-.25-.07-.81-.18-1.45a13.09,13.09,0,0,1-.29-1.59,3.07,3.07,0,0,1,.56,1.54,4.4,4.4,0,0,1,0,1.5v0C206.45,286.73,206.45,286.78,206.43,286.79Z"/><path class="cls-6" d="M210.28,286.21c-.08,0,0-.82-.17-1.8s-.41-1.73-.33-1.77a3.51,3.51,0,0,1,.6,1.73A3.56,3.56,0,0,1,210.28,286.21Z"/><path class="cls-6" d="M177.72,286.34c-.07,0,.17-.74.25-1.64s0-1.63,0-1.65a2.83,2.83,0,0,1,.24,1.68A2.87,2.87,0,0,1,177.72,286.34Z"/><path class="cls-6" d="M173.8,286.3a5.14,5.14,0,0,1-.21-1.62,5,5,0,0,1,0-1.63,9.52,9.52,0,0,1,.16,3.25Z"/><path class="cls-6" d="M170.73,286.19a3.59,3.59,0,0,1-.56-1.56,3.85,3.85,0,0,1-.07-1.66,8.1,8.1,0,0,1,.34,1.61A8.76,8.76,0,0,1,170.73,286.19Z"/><path class="cls-1" d="M218.93,157.09s.93-1.34-.55-5.08-18.64-24.79-18.64-24.79-6.39,5.13-6,11.08l2.79,3.13,10.81,13.79Z"/><path class="cls-5" d="M173.23,83.67c-1.59-1.94-5.82-1.89-6.89-.74a3.25,3.25,0,0,0-4.28,1.14l-4.53.71a4.79,4.79,0,0,0-2.2.73,1.56,1.56,0,0,0-.49,2,2.37,2.37,0,0,0-1.25,3.76,1.65,1.65,0,0,0,.11,2.42,16.53,16.53,0,0,0-3.16,4.73,3.28,3.28,0,0,0-.36,2.3,1.39,1.39,0,0,0,1.88.9,1.9,1.9,0,0,0-.21,2.09c-.76,0-1,1.11-.56,1.68a2.78,2.78,0,0,0,2.09.7,3.74,3.74,0,0,1,2.18.49.68.68,0,0,1-.28.46,3,3,0,0,0-.93,4.12c.08.13.16.25.22.36a6.86,6.86,0,0,0,2.12,1.63c1.66,1,2.69.87,4.58,1.24-.59,1.18,2.36,4,6.07,1.6a70,70,0,0,0,19.39,3.68c1.05.06,2.31,0,2.83-.9a2.63,2.63,0,0,0,2.44-.64,7.56,7.56,0,0,0,1.53-2.09,4.52,4.52,0,0,0,3.52-3.85,5.5,5.5,0,0,0,2.35-3.81,3.24,3.24,0,0,0,2.15-4.28A19.16,19.16,0,0,0,199.72,98c1.22-.19,1.76-1.75,1.33-2.88a6.28,6.28,0,0,0-2.48-2.61c.89.29,1.73-.78,1.57-1.67a3.48,3.48,0,0,0-1.71-2.07,17.44,17.44,0,0,0-3.63-1.84c-.33-1.57-2.25-3.45-3.69-4.22-5.81-3.1-10-4-17.88,1"/><path class="cls-1" d="M189.21,95.75c-.24-4.06-3-9-7.08-8.63l-12.88,3.13a2.39,2.39,0,0,0-2.18,2.4l1.48,27.07c0,3.52,1.43,6.5,5,7.17h0a7.53,7.53,0,0,0,9-6.93c.09-1.86.17-3.25.17-3.24s5.28-.84,6.41-7.59C189.63,105.77,189.48,100.26,189.21,95.75Z"/><path class="cls-5" d="M186.57,101.12a.87.87,0,0,1-.86.87.84.84,0,0,1-.9-.79.87.87,0,0,1,.85-.87A.84.84,0,0,1,186.57,101.12Z"/><path class="cls-5" d="M188,98.61c-.11.11-.78-.37-1.73-.38s-1.65.47-1.75.35.06-.25.36-.47a2.56,2.56,0,0,1,1.41-.42,2.36,2.36,0,0,1,1.37.45C187.94,98.36,188,98.56,188,98.61Z"/><path class="cls-5" d="M177.77,101.12a.87.87,0,0,1-.86.87.85.85,0,0,1-.91-.79.89.89,0,0,1,.86-.87A.85.85,0,0,1,177.77,101.12Z"/><path class="cls-5" d="M178.63,98.75c-.11.11-.78-.38-1.73-.38s-1.65.46-1.76.35.07-.26.37-.47a2.39,2.39,0,0,1,1.41-.42,2.3,2.3,0,0,1,1.37.44C178.58,98.49,178.68,98.7,178.63,98.75Z"/><path class="cls-5" d="M182.05,105.68a6.69,6.69,0,0,1,1.55-.27c.24,0,.47-.07.51-.23a1.17,1.17,0,0,0-.16-.71l-.71-1.81a29.62,29.62,0,0,1-1.59-4.76,32.74,32.74,0,0,1,2,4.62c.23.64.46,1.25.68,1.83a1.38,1.38,0,0,1,.12.93.62.62,0,0,1-.4.35,1.3,1.3,0,0,1-.42.05A6.41,6.41,0,0,1,182.05,105.68Z"/><path class="cls-7" d="M182.66,116.72a17.75,17.75,0,0,1-9.22-2.45s2.21,4.65,9.12,4Z"/><path class="cls-5" d="M179.06,94.91c-.09.25-1,.13-2.16.25s-2,.42-2.16.2.09-.35.45-.59a3.58,3.58,0,0,1,1.61-.55,3.74,3.74,0,0,1,1.69.2C178.9,94.59,179.11,94.79,179.06,94.91Z"/><path class="cls-5" d="M187.66,95.4c-.17.21-.82,0-1.61,0s-1.46.14-1.61-.08,0-.32.33-.52a2.37,2.37,0,0,1,2.59.09C187.64,95.08,187.73,95.3,187.66,95.4Z"/><path class="cls-5" d="M192.14,99.14a4.57,4.57,0,0,0-1-3c-.38-.44-.87-.79-1.21-1.27-.72-1-.55-2.41-.81-3.64a5.14,5.14,0,0,0-3.05-3.58c-1.27-.52-2.74-.53-3.91-1.22-.88-.5-1.52-1.35-2.42-1.8-1.75-.89-3.88-.09-5.63.82-.4,1.3.4,2.49,1.16,3.62a4.81,4.81,0,0,0,3.45,2.06c1.07.12,2.34-.06,3.05.73s.38,2.21,1,3.15c.87,1.34,3,1,4.38,1.81,1,.68,1.43,2,1.92,3.09s1.37,2.33,2.62,2.33A13.38,13.38,0,0,0,192.14,99.14Z"/><path class="cls-5" d="M176.68,88a24.83,24.83,0,0,0-9.3,1.19A4.48,4.48,0,0,0,165,90.63a4.23,4.23,0,0,0-.59,2.32,23.24,23.24,0,0,0,1.65,8.06l3.12,2c2.51-.45,1.58-4.71,1.57-6.81A5,5,0,0,0,174,92,5.48,5.48,0,0,0,176.68,88Z"/><path class="cls-1" d="M169.21,102.14c0-1.45-1.82-1.82-3.12-1.13a2.7,2.7,0,0,0-1.27,2.7c0,4.1,4.23,3.22,4.24,3.1S169.24,103.84,169.21,102.14Z"/><path class="cls-7" d="M167.77,105.27s-.08,0-.2.1a.7.7,0,0,1-.54,0,1.74,1.74,0,0,1-.85-1.58,2.31,2.31,0,0,1,.19-1,.83.83,0,0,1,.55-.55.38.38,0,0,1,.43.19c.06.12,0,.2.05.21s.09-.07.06-.24a.49.49,0,0,0-.17-.26.54.54,0,0,0-.4-.1,1,1,0,0,0-.76.64,2.4,2.4,0,0,0-.24,1.15,1.84,1.84,0,0,0,1.07,1.76.81.81,0,0,0,.67-.11C167.76,105.37,167.78,105.27,167.77,105.27Z"/><path class="cls-6" d="M165.59,107.73a3.25,3.25,0,0,1-.67-.07,2.69,2.69,0,0,1-.72-.25l.05,0a2.08,2.08,0,0,1-1.17,1.43,2.15,2.15,0,0,1-2.2-.3H161a.86.86,0,0,1-.57.33,1.19,1.19,0,0,1-.67-.08,1,1,0,0,1-.52-.46,1.39,1.39,0,0,1-.18-.69,2,2,0,0,1,.52-1.34,6.5,6.5,0,0,1,1.15-1v.1a1.46,1.46,0,0,1-.61-1,2.12,2.12,0,0,1,.18-1.21,3.19,3.19,0,0,1,.78-1,8.63,8.63,0,0,1,1-.77v.09a1.48,1.48,0,0,1-.35-1.21,2.18,2.18,0,0,1,.53-1.19,5.64,5.64,0,0,1,2.1-1.3l0,.07a2.73,2.73,0,0,1,.78-2.47,2.85,2.85,0,0,1,2.39-.74l-.07.07A2.46,2.46,0,0,1,169.88,92l0,0a2.41,2.41,0,0,1,2.8-2.13l0,0a2.33,2.33,0,0,1,.39-1,3.32,3.32,0,0,1,.67-.72,2.43,2.43,0,0,1,1.46-.53h.16l.15,0,.26,0c.15.06.29.08.39.13l.23.11.07,0-.08,0-.23-.1a3.33,3.33,0,0,0-.39-.11l-.26,0h-.3a2.41,2.41,0,0,0-1.42.54A2.75,2.75,0,0,0,173,89a2.06,2.06,0,0,0-.37,1V90h0a2.26,2.26,0,0,0-1.7.38,2.23,2.23,0,0,0-1,1.67v0h-.05a2.3,2.3,0,0,0-1.72.74,2.2,2.2,0,0,0-.63,1.87l0,.08-.09,0a2.8,2.8,0,0,0-2.29.71,2.64,2.64,0,0,0-.74,2.37v.05l-.05,0a5.49,5.49,0,0,0-2.06,1.26,2.19,2.19,0,0,0-.5,1.12,1.43,1.43,0,0,0,.32,1.12l0,0-.06,0a4.85,4.85,0,0,0-1.77,1.71,1.92,1.92,0,0,0-.17,1.13,1.34,1.34,0,0,0,.56.92l.07,0-.07.05a6.27,6.27,0,0,0-1.13,1,1.91,1.91,0,0,0-.5,1.27,1.08,1.08,0,0,0,.63,1,.93.93,0,0,0,1.12-.2l0,0,0,0a2.06,2.06,0,0,0,2.09.29,2,2,0,0,0,1.15-1.37v0l0,0a2.35,2.35,0,0,0,.7.25,3.11,3.11,0,0,0,.65.08,2.59,2.59,0,0,0,1-.14,1,1,0,0,0,.5-.38c.07-.12.09-.2.1-.2l0,.06a.51.51,0,0,1-.06.15,1,1,0,0,1-.51.4"/><path class="cls-6" d="M151.54,101.82a1.11,1.11,0,0,1-.15-.26,2.27,2.27,0,0,1-.18-.82,2.07,2.07,0,0,1,.41-1.27,2.27,2.27,0,0,1,1.56-.87l0,.05a2.78,2.78,0,0,1,.48-2,2.58,2.58,0,0,1,.86-.81,7.17,7.17,0,0,1,1.17-.48,2.13,2.13,0,0,0,.56-.29,1.36,1.36,0,0,0,.41-.48,13.25,13.25,0,0,1,.54-1.26,2.55,2.55,0,0,1,2.6-1.11l-.07.06a3.29,3.29,0,0,1,1-2.66,3.42,3.42,0,0,1,2.88-.87l-.08.06A3,3,0,0,1,165.21,86a3.06,3.06,0,0,1,3,.31h-.07a4.13,4.13,0,0,1,1.5-.8,6,6,0,0,1,1.51-.26,7.27,7.27,0,0,1,2.47.28,5.14,5.14,0,0,1,1.44.67,3.18,3.18,0,0,1,.33.26l.1.09s-.15-.12-.45-.32a5,5,0,0,0-1.44-.64,6.92,6.92,0,0,0-2.44-.26,6.25,6.25,0,0,0-1.49.27,3.87,3.87,0,0,0-1.46.79l0,0,0,0a3,3,0,0,0-2.88-.29,2.82,2.82,0,0,0-1.63,2.67v.08h-.07a3.32,3.32,0,0,0-2.77.84,3.17,3.17,0,0,0-1,2.56v.09l-.08,0a2.44,2.44,0,0,0-2.48,1c-.24.39-.33.85-.54,1.25a1.59,1.59,0,0,1-.44.52,2.57,2.57,0,0,1-.59.31,7.18,7.18,0,0,0-1.16.45,2.82,2.82,0,0,0-.83.78,2.72,2.72,0,0,0-.48,1.94v0h0a2.17,2.17,0,0,0-1.52.83,2,2,0,0,0-.41,1.23,2,2,0,0,0,.16.81C151.49,101.73,151.54,101.81,151.54,101.82Z"/><path class="cls-6" d="M199.82,98.92s0,0,0-.08l-.11-.23-.38-.91c-.17-.4-.36-.89-.64-1.43a3.58,3.58,0,0,0-1.32-1.53c-.33-.2-.71-.34-1.1-.53a2.32,2.32,0,0,1-.55-.35,1.51,1.51,0,0,1-.4-.56c-.17-.43-.16-.91-.29-1.36a1.23,1.23,0,0,0-.37-.58A2.42,2.42,0,0,0,194,91a4.12,4.12,0,0,1-.72-.31,1.39,1.39,0,0,1-.55-.6,5.9,5.9,0,0,1-.27-1.61,1.94,1.94,0,0,0-.24-.76,1.07,1.07,0,0,0-.64-.46c-.54-.14-1.14,0-1.75-.11a1.47,1.47,0,0,1-.78-.45,4.24,4.24,0,0,1-.49-.73,6.58,6.58,0,0,0-.42-.73,1.56,1.56,0,0,0-.59-.55,2.55,2.55,0,0,0-1.57-.06,3.93,3.93,0,0,1-1.6.06A4.34,4.34,0,0,1,183,84a7.27,7.27,0,0,0-1.2-.73,4.43,4.43,0,0,0-2.47-.2,4.72,4.72,0,0,0-1.88.84,5,5,0,0,0-1.07,1.12,5.46,5.46,0,0,0-.48.86c-.05.1-.08.18-.11.23a.22.22,0,0,1,0,.08l0-.08.1-.24a4.43,4.43,0,0,1,.46-.87,4.85,4.85,0,0,1,1.07-1.16,4.77,4.77,0,0,1,1.9-.87,4.54,4.54,0,0,1,2.53.19,7,7,0,0,1,1.22.74,4.36,4.36,0,0,0,1.31.66,3.67,3.67,0,0,0,1.54-.07,7.35,7.35,0,0,1,.82-.1,1.77,1.77,0,0,1,.84.18,1.67,1.67,0,0,1,.63.58,6.87,6.87,0,0,1,.44.74,3.26,3.26,0,0,0,.46.7,1.36,1.36,0,0,0,.72.42c.56.12,1.16,0,1.75.11a1.17,1.17,0,0,1,.72.51,2.18,2.18,0,0,1,.25.81,6.14,6.14,0,0,0,.27,1.58,1.14,1.14,0,0,0,.49.55,4.38,4.38,0,0,0,.7.31,2.27,2.27,0,0,1,.69.36,1.26,1.26,0,0,1,.41.63c.13.47.12,1,.28,1.36a1.72,1.72,0,0,0,.9.86c.37.19.76.33,1.1.53a3.8,3.8,0,0,1,1.34,1.58c.27.55.45,1,.61,1.44l.37.92.09.24Z"/><path class="cls-6" d="M195.59,94.42h.08a.61.61,0,0,1,.22.06.9.9,0,0,1,.37.75,1.69,1.69,0,0,1-.12.6,2.63,2.63,0,0,0-.14.71,1.61,1.61,0,0,0,.26.77c.15.25.34.5.49.81a1.13,1.13,0,0,1,.05,1c-.15.34-.42.62-.56,1a1.48,1.48,0,0,0,0,1.13c.15.38.36.76.5,1.18a1.88,1.88,0,0,1,.1.67,1.61,1.61,0,0,1-.19.67,7.77,7.77,0,0,1-.85,1.13,1.82,1.82,0,0,0-.51,1.27,6.33,6.33,0,0,0,.43,1.41,2,2,0,0,1,.12.76,1.69,1.69,0,0,1-.23.73,6.44,6.44,0,0,1-1,1.11,3.42,3.42,0,0,0-.79,1.12,11.32,11.32,0,0,1-.49,1.26,1.63,1.63,0,0,1-.45.49,1.88,1.88,0,0,1-.61.25,5.76,5.76,0,0,0-.59.18,2.29,2.29,0,0,0-.5.3,3.82,3.82,0,0,0-.72.84c-.21.3-.4.59-.62.85a2.85,2.85,0,0,1-1.5,1,3.28,3.28,0,0,1-1.37.07,2.82,2.82,0,0,1-.82-.28,2.53,2.53,0,0,1-.26-.16,3.48,3.48,0,0,0,1.08.39,3.2,3.2,0,0,0,1.35-.08,2.79,2.79,0,0,0,1.45-1c.21-.26.4-.55.61-.84a4,4,0,0,1,.74-.87,2,2,0,0,1,.52-.32,4.56,4.56,0,0,1,.6-.18,1.92,1.92,0,0,0,.57-.24,1.3,1.3,0,0,0,.41-.46,8.65,8.65,0,0,0,.49-1.24,3.43,3.43,0,0,1,.81-1.16,6.45,6.45,0,0,0,.94-1.09,1.65,1.65,0,0,0,.22-.68,1.93,1.93,0,0,0-.12-.71,6.33,6.33,0,0,1-.44-1.44,1.58,1.58,0,0,1,.14-.74,3.21,3.21,0,0,1,.4-.61,8.31,8.31,0,0,0,.84-1.11,1.57,1.57,0,0,0,.18-.62,1.66,1.66,0,0,0-.09-.63c-.13-.41-.34-.79-.49-1.18a1.59,1.59,0,0,1-.05-1.21c.16-.37.43-.65.57-1a1,1,0,0,0,0-1c-.14-.29-.33-.54-.48-.8a1.68,1.68,0,0,1-.26-.81,2.24,2.24,0,0,1,.16-.72,3,3,0,0,0,.13-.59.87.87,0,0,0-.35-.73A.47.47,0,0,0,195.59,94.42Z"/><path class="cls-5" d="M151.65,101.69a1.59,1.59,0,0,1-.33,0,2.32,2.32,0,0,1-.86-.41,2.19,2.19,0,0,1-.82-1.25,2.24,2.24,0,0,1,.44-1.92,6.12,6.12,0,0,1,.87-.8,2.75,2.75,0,0,0,.83-.93,1.79,1.79,0,0,0,0-1.31c-.14-.44-.36-.88-.49-1.38a4,4,0,0,1,.47-3.08,4.15,4.15,0,0,1,2.86-1.88l0,.09a2,2,0,0,1-.32-.91,2.66,2.66,0,0,1,.11-1,2.77,2.77,0,0,1,.47-.88,3.23,3.23,0,0,1,.74-.69,6.68,6.68,0,0,1,2.8-1,9.78,9.78,0,0,1,2.81,0l-.07.05a2.93,2.93,0,0,1,1.8-2.44,3.15,3.15,0,0,1,1.48-.2,4.73,4.73,0,0,1,1.35.41,2.56,2.56,0,0,0,.64.18,1.9,1.9,0,0,0,.63,0,5.19,5.19,0,0,0,1.13-.48,4.64,4.64,0,0,1,1.08-.42,3.51,3.51,0,0,1,1.06-.09,3.6,3.6,0,0,1,1.71.54,3.66,3.66,0,0,1,1,.92,3.45,3.45,0,0,1,.4.72,2.11,2.11,0,0,1,.09.27,2.69,2.69,0,0,0-.11-.26,3.73,3.73,0,0,0-.42-.71,3.55,3.55,0,0,0-1-.89,3.66,3.66,0,0,0-1.68-.52,3.74,3.74,0,0,0-1,.1,4.68,4.68,0,0,0-1.06.42,5,5,0,0,1-1.15.49,1.83,1.83,0,0,1-.66,0,2.93,2.93,0,0,1-.66-.18,5.13,5.13,0,0,0-1.33-.41,3,3,0,0,0-1.42.21,2.8,2.8,0,0,0-1.73,2.34v.07h-.07a9.51,9.51,0,0,0-2.77,0,6.47,6.47,0,0,0-2.75.93,3.44,3.44,0,0,0-.71.66,2.9,2.9,0,0,0-.45.85,2.39,2.39,0,0,0-.1.92,1.91,1.91,0,0,0,.29.85l.06.08-.1,0a4,4,0,0,0-2.78,1.82,3.92,3.92,0,0,0-.47,3c.13.48.35.92.49,1.37a1.9,1.9,0,0,1,0,1.37,2.89,2.89,0,0,1-.86,1,6.08,6.08,0,0,0-.87.78,2.24,2.24,0,0,0-.44,1.86,2.11,2.11,0,0,0,.79,1.22,2.29,2.29,0,0,0,.84.43Z"/><path class="cls-5" d="M197.2,91.68a.28.28,0,0,1,0-.08v-.23c0-.21,0-.51,0-.89s0-.86-.13-1.4a7.68,7.68,0,0,0-.47-1.79,5.23,5.23,0,0,0-1.24-1.86,3.85,3.85,0,0,0-1-.69,10.66,10.66,0,0,0-1.28-.43,3.85,3.85,0,0,1-1.28-.64,5.88,5.88,0,0,1-1-1.09c-.3-.39-.59-.81-.93-1.2a4.21,4.21,0,0,0-1.21-1,7.54,7.54,0,0,0-3-.78,21.83,21.83,0,0,0-2.91,0,15.27,15.27,0,0,0-4.78,1.07,10.46,10.46,0,0,0-2.82,1.7l-.39.34-.26.27-.17.17-.06,0,.05-.06.16-.17.26-.28a4.62,4.62,0,0,1,.38-.35,10.15,10.15,0,0,1,2.81-1.75,15,15,0,0,1,4.81-1.1,20.5,20.5,0,0,1,2.93,0,7.75,7.75,0,0,1,3,.79,4.3,4.3,0,0,1,1.24,1c.35.39.64.81.94,1.21a6,6,0,0,0,1,1.07,3.75,3.75,0,0,0,1.25.62,10.87,10.87,0,0,1,1.29.44,3.81,3.81,0,0,1,1.06.72,5.21,5.21,0,0,1,1.26,1.9,8.37,8.37,0,0,1,.45,1.81,14,14,0,0,1,.11,1.41c0,.38,0,.68,0,.89v.31Z"/><path class="cls-7" d="M177.83,107.56a1.53,1.53,0,0,1,1-1.23,1.38,1.38,0,0,1,1.52.42,1.2,1.2,0,0,1,0,1.46,1.34,1.34,0,0,1-.62.48,1.87,1.87,0,0,1-1,0,1.15,1.15,0,0,1-.7-.44A1,1,0,0,1,177.83,107.56Z"/><path class="cls-5" d="M178.49,105.61c.16,0,0,1,.78,1.88s1.9.91,1.88,1.05-.27.16-.74.11a2.67,2.67,0,0,1-1.58-.82,2.17,2.17,0,0,1-.59-1.57C178.26,105.83,178.42,105.59,178.49,105.61Z"/><path class="cls-8" d="M168.41,109.32a10.41,10.41,0,0,0-1.45-3.07l-.27-.14a6.87,6.87,0,0,0-1.42,2.5,2.34,2.34,0,0,0,.85,2.56,1.9,1.9,0,0,0,1.3.26,1.37,1.37,0,0,0,.89-.47A1.81,1.81,0,0,0,168.41,109.32Z"/><path class="cls-2" d="M170.81,87.09c-3.94,2.3-4.56,3.43-5.52,7.87a9.47,9.47,0,0,0,.64,6.18c.6-.16,1.22-.3,1.84-.43,0,0-1.56-4.52.87-8.39,2.75-4.4,8-4.3,8-4.3.8-.91,1.22-1.64,2.25-2C178.93,86,174.26,85.08,170.81,87.09Z"/><path class="cls-2" d="M190.42,90.52s1.31,1,1.72,4.92c.69,6.54-2.69,10-2.69,10l-.72-13.22Z"/><path class="cls-5" d="M176.33,88.35c1-1.43,2.38-2.72,4.14-2.7a4.54,4.54,0,0,1,4.07,2.8,4.41,4.41,0,0,1,5.14.88,4.18,4.18,0,0,1,.31,5.11A3.79,3.79,0,0,1,192.18,99c-.18.54-.5,1-.72,1.56a2.31,2.31,0,0,0-.15,1.67,1.17,1.17,0,0,0,1.36.78,2.71,2.71,0,0,1-3.42.48l-.19-3.56s-1-2.44-1.92-3.09-3.73-.09-4.8-2.43.09-2.85-1.77-3.05S174.73,90.69,176.33,88.35Z"/><path class="cls-6" d="M176.33,88.35l-.2.31a1.29,1.29,0,0,0-.14,1.06,2.1,2.1,0,0,0,1.35,1.09,11.1,11.1,0,0,0,2.3.55c.43.07.91.1,1.37.19a.73.73,0,0,1,.54.28,2.43,2.43,0,0,1,.13.71,5.83,5.83,0,0,0,.4,1.58,3.35,3.35,0,0,0,1,1.47,4.26,4.26,0,0,0,1.71.83c.63.16,1.3.21,1.91.39a1.42,1.42,0,0,1,.74.52,7.07,7.07,0,0,1,.58.82,17,17,0,0,1,.93,1.86l0-.05c.06,1.13.13,2.33.19,3.56v.08l.06,0a2.88,2.88,0,0,0,3.63-.5l.39-.44-.56.18a1,1,0,0,1-1-.36,1.43,1.43,0,0,1-.25-1.13,7.28,7.28,0,0,1,.76-1.88,3.6,3.6,0,0,0,.32-2.09,4,4,0,0,0-2.43-3.13l.07.24a4.3,4.3,0,0,0-.61-5.57,4.54,4.54,0,0,0-5-.61l.18.06a4.65,4.65,0,0,0-3.25-2.74,4,4,0,0,0-1.82,0,4.29,4.29,0,0,0-1.38.63,7,7,0,0,0-1.48,1.45l-.31.44-.09.16a5.81,5.81,0,0,0,.46-.55,7,7,0,0,1,1.5-1.38,3.8,3.8,0,0,1,3.07-.56,4.43,4.43,0,0,1,3.06,2.64l.05.13.13-.07a4.3,4.3,0,0,1,4.71.61,4,4,0,0,1,.55,5.18l-.11.16.18.08a3.64,3.64,0,0,1,2.22,2.88,3.3,3.3,0,0,1-.29,1.9,7.59,7.59,0,0,0-.79,2,1.73,1.73,0,0,0,.32,1.37,1.3,1.3,0,0,0,1.33.47l-.18-.26a2.57,2.57,0,0,1-3.2.45l.08.12c-.07-1.23-.14-2.42-.2-3.56v0a16.08,16.08,0,0,0-1-1.9,6.38,6.38,0,0,0-.61-.86,2.3,2.3,0,0,0-.39-.37,1.68,1.68,0,0,0-.49-.23c-.68-.19-1.32-.24-1.93-.39a3.94,3.94,0,0,1-1.6-.75,3.23,3.23,0,0,1-.92-1.37,5.8,5.8,0,0,1-.4-1.52,2.52,2.52,0,0,0-.16-.78,1,1,0,0,0-.7-.39c-.49-.08-1-.11-1.38-.17a10.3,10.3,0,0,1-2.28-.5,2,2,0,0,1-1.3-1,1.24,1.24,0,0,1,.08-1A1.28,1.28,0,0,0,176.33,88.35Z"/><path class="cls-2" d="M160.81,122.9l7.73-2.91h0a8.16,8.16,0,0,0,7.3,4.49c3.29,0,5.06-1.79,6.66-4.67L184,120l9.26,1.36-.24,44.59H160.59l-3.65-41.61Z"/><path class="cls-2" d="M192.77,121.35s2.88-.43,7.5,4.79c2.08,2.36,9.53,11.76,9.53,11.76l-12.39,6.28-3-2.72L193.12,155l0-19.76Z"/><path class="cls-2" d="M157.65,124.59l-.71-.26s-4.89,2.37-7.45,10.72-4.07,13.83-4.07,13.83l12.06,2.6,2.93-14.78Z"/><path class="cls-5" d="M157.58,130.74a2.64,2.64,0,0,1,.08.64c0,.46.08,1,.14,1.73.11,1.53.26,3.52.42,5.72l.49,5.72c0,.69.1,1.27.14,1.74a2.74,2.74,0,0,1,0,.63,2.29,2.29,0,0,1-.13-.62c-.06-.41-.14-1-.23-1.73-.17-1.46-.38-3.48-.56-5.71s-.29-4.27-.35-5.74c0-.73,0-1.32,0-1.74A2.53,2.53,0,0,1,157.58,130.74Z"/><path class="cls-8" d="M162.45,122.26s-.67,11-1.31,14.39-2.27,10.78-2.27,10.78v21.2s-6.41,15.28-7.63,24.16,0,60.55,0,60.55l58.37.11S205.68,216.22,205,209s-2.72-18-4.11-24.69a60.61,60.61,0,0,0-3.62-11.54l-2.38-5.58-1-23.94s-3.19-18-4.85-22.54l-1.9-.28,1.42,17.15-24.21.87.5-17.18Z"/><path class="cls-5" d="M162.45,122.26l.62-.25,1.86-.74,0,0v0c-.08,3.11-.23,9-.45,17.19l-.09-.09,24.22-.91-.12.13c-.43-5.2-.92-11-1.44-17.15v-.18l.17,0,1.9.28h.09l0,.08a53.3,53.3,0,0,1,1.42,5.26q.62,2.72,1.2,5.55c.77,3.78,1.53,7.71,2.26,11.76h0c.31,7.59.63,15.59,1,23.93v-.06l1.87,4.39c.64,1.47,1.27,3,1.82,4.51a64.14,64.14,0,0,1,2.6,9.59C202.71,192.23,204,199,204.9,206c1.46,14.06,3,28.75,4.54,43.84.12,1.19.25,2.38.37,3.56l0,.21h-.21l-58.37-.12h-.17v-.18c-.35-17-.59-32.94-.48-47.4.06-3.62.08-7.14.29-10.56,0-.86.15-1.71.22-2.55s.25-1.67.44-2.48c.32-1.64.76-3.22,1.19-4.78a168.29,168.29,0,0,1,6-17v0c0-8.23,0-15.24,0-21.2h0c.85-4,1.62-7.61,2.27-10.7.29-1.55.43-3,.57-4.32s.22-2.53.32-3.6c.17-2.14.3-3.77.38-4.87s.13-1.66.13-1.66,0,.56-.08,1.66-.17,2.73-.33,4.88q-.12,1.6-.3,3.6c-.14,1.32-.27,2.78-.55,4.34q-1,4.65-2.23,10.71v0c0,6,0,13,0,21.2v0a167.6,167.6,0,0,0-6,17c-.43,1.55-.86,3.13-1.18,4.75-.18.81-.29,1.64-.43,2.47s-.17,1.67-.21,2.53c-.2,3.41-.23,6.93-.28,10.54-.09,14.45.16,30.38.53,47.39l-.18-.17,58.37.1-.19.21c-.12-1.18-.24-2.37-.37-3.56-1.56-15.09-3.07-29.78-4.52-43.83-.89-7-2.19-13.79-3.51-20.36a62.13,62.13,0,0,0-2.59-9.55c-.54-1.54-1.16-3-1.8-4.5s-1.25-2.93-1.86-4.39l0,0v0c-.32-8.33-.64-16.33-.93-23.93v0c-.73-4-1.47-8-2.24-11.75-.39-1.89-.78-3.74-1.19-5.55s-.84-3.57-1.4-5.23l.11.09-1.9-.28.16-.14c.5,6.16,1,12,1.4,17.15v.12h-.13l-24.21.84h-.09v-.09c.27-8.22.46-14.08.56-17.18l0,0-1.86.7Z"/><path class="cls-5" d="M195,197.55l-.24.14-.73.38c-.63.33-1.55.78-2.7,1.31-2.31,1.07-5.55,2.44-9.22,3.71s-7.07,2.19-9.55,2.77c-1.24.29-2.25.5-3,.64l-.81.15a1,1,0,0,1-.28,0l.27-.08.8-.19c.69-.15,1.69-.39,2.93-.7,2.46-.62,5.85-1.56,9.52-2.83s6.9-2.6,9.22-3.64c1.16-.51,2.09-.94,2.73-1.25l.75-.34A1.42,1.42,0,0,1,195,197.55Z"/><path class="cls-5" d="M189,213.32s-.06,0-.2.07l-.57.16c-.5.14-1.22.32-2.12.54-1.79.44-4.28,1-7,1.55s-5.28,1-7.11,1.26l-2.16.31-.59.07H169l.2-.06.59-.11,2.15-.38c1.82-.31,4.32-.77,7.09-1.31s5.25-1.09,7.05-1.49l2.13-.47.58-.12Z"/><path class="cls-5" d="M188.75,152.12a.45.45,0,0,0,0-.08v-.23c0-.21,0-.5,0-.86,0-.77,0-1.86,0-3.24l.06.06-22.07,0h0l.11-.11h0v4.39l-.11-.1,15.7,0,4.66,0,1.26,0h-1.21l-4.63,0-15.78,0h-.11v-4.5h0l.11-.11h0l22.07.05h.06v.06c0,1.39,0,2.5,0,3.27l0,.86v.21A.69.69,0,0,0,188.75,152.12Z"/><path class="cls-5" d="M183.64,166.68a5.45,5.45,0,0,0,1.18-.22,3.71,3.71,0,0,0,2.32-2.27,6.54,6.54,0,0,0,.21-2.36c0-.87,0-1.81,0-2.82,0-2,0-4.29,0-6.76l.1.1H168l.11-.11c0,4,0,7.74,0,11.11a3.65,3.65,0,0,0,1,2.14,3.8,3.8,0,0,0,2,1,6.89,6.89,0,0,0,1.11.06h3.11l6.09,0,1.64,0h0l-1.64,0-6.09,0h-3.11a6.34,6.34,0,0,1-1.14,0,3.85,3.85,0,0,1-2.11-1.09,3.78,3.78,0,0,1-1.09-2.24c0-3.41,0-7.15,0-11.13v-.11h3.89l15.67,0h.1v.09c0,2.47,0,4.74,0,6.76,0,1,0,2,0,2.82,0,.44,0,.86,0,1.26a3.5,3.5,0,0,1-.23,1.14,3.78,3.78,0,0,1-1.13,1.59,3.53,3.53,0,0,1-1.28.69,3.6,3.6,0,0,1-.89.17h-.31Z"/><g class="cls-9"><path d="M184.87,166.48a15.94,15.94,0,0,1-13.74.17Z"/></g><path class="cls-5" d="M193.41,129.26a7.77,7.77,0,0,1,.43,1.82c.21,1.14.44,2.73.58,4.49s.17,3.36.15,4.52a8,8,0,0,1-.14,1.87,10.46,10.46,0,0,1-.13-1.87c0-1.15-.12-2.74-.26-4.49s-.32-3.33-.46-4.48A9.55,9.55,0,0,1,193.41,129.26Z"/><path class="cls-1" d="M141.66,139.64s-4.75,14.37-5.14,17.06c-.6,4.12.76,6,2.86,6.74a8.91,8.91,0,0,0,7.16-.78c2.33-1.61,5.14-7,6.24-9.6l1.07-2.36L148,149.42l-6.35-9.78"/><path class="cls-1" d="M198.77,169.88l10.17-17.65s9.77,4.69,10,4.86-10.23,12.53-17.25,17.63l-2.52-1.29Z"/><path class="cls-1" d="M186.6,165.71s4.28-1.13,4.71-.89,3.62,1.89,3.62,1.89a17,17,0,0,0,1.51,1.6,4.19,4.19,0,0,0,1.86,1.06,3.49,3.49,0,0,0,1.2-.13l2.53,5.08S200.7,176,199.77,176s-6.08-2.15-6.08-2.15l-1.25-.26s-4.68.66-5.06-.72l0-.39,4.6-.89,1.75.1-3.1-.78s-4.38.21-4.79.14-.94-.64-.81-1l.91-.21s-1.07-.56-1.1-1.18l4.05-1.08S186.23,166.61,186.6,165.71Z"/><path class="cls-7" d="M185.41,169.81l.37-.09,1-.27c.85-.22,2-.49,3.34-.78l.48-.09a1.71,1.71,0,0,1,.45,0c.29.08.59.18.86.27.55.19,1,.37,1.44.54s.71.33.93.45.32.19.33.17a1.37,1.37,0,0,0-.29-.24,9.43,9.43,0,0,0-.92-.5,14,14,0,0,0-1.43-.58,9.11,9.11,0,0,0-.88-.28,1.43,1.43,0,0,0-.51,0,4.37,4.37,0,0,0-.5.09c-1.31.29-2.49.58-3.33.83-.43.13-.77.24-1,.33A1.19,1.19,0,0,0,185.41,169.81Z"/><path class="cls-7" d="M188.74,167.75s.33-.14.87-.3a5,5,0,0,1,2.16-.17,4.93,4.93,0,0,1,2,.77c.47.31.72.56.74.54a2.21,2.21,0,0,0-.66-.65,4.61,4.61,0,0,0-4.31-.62A2.59,2.59,0,0,0,188.74,167.75Z"/><path class="cls-1" d="M157.24,122a3.86,3.86,0,0,0-1.6,2.69L154.27,126l-.12-1.72,1.79-5.17s1.37-3.69.64-3.65-1.47.93-2.06,2.52l-1.35,3.62s-.27.61-.25-.66,1.83-5.65,1.94-6.31.89-2.15,0-2.56-1.49,1.72-1.49,1.72l-2.75,6.42s.65-2.85.74-3.34.64-1.94.79-2.81-.06-1.49-.46-1.66a.82.82,0,0,0-1.07.3l-1.79,5.81s-.7,2.72-.83,2.84-.34-1.5-.34-1.5l.31-2s.85-2.66.25-3.1-.91,0-.91,0l-1.5,4.88-1,6-.36,4.72-.24.76-1.11,3.52-1.51,5-4.18,13.84,9.09,4.24,3-17.11,1.47-7.65s3.88-2.08,4.58-3.28l3.18-7.46S158.62,121.24,157.24,122Z"/><path class="cls-7" d="M147.62,127.85a9.89,9.89,0,0,0,1.16-.78,4.53,4.53,0,0,1,3.08-.89,2.37,2.37,0,0,1,1.39.67l.13.13.13-.14c.59-.62,1.2-1.14,1.58-1.53s.59-.65.55-.67a4.18,4.18,0,0,0-.69.52,21.39,21.39,0,0,0-1.71,1.48l.26,0a2.71,2.71,0,0,0-1.59-.79,3.81,3.81,0,0,0-1.93.25,6.32,6.32,0,0,0-1.34.79A3.85,3.85,0,0,0,147.62,127.85Z"/><path class="cls-7" d="M151.07,133.1a5.62,5.62,0,0,1-.16,1c-.14.72-.32,1.64-.53,2.74-.46,2.31-1.06,5.52-1.65,9.07s-1,6.78-1.36,9.11c-.15,1.12-.27,2.05-.37,2.77a4.87,4.87,0,0,1-.19,1,6,6,0,0,1,0-1c.05-.66.13-1.61.26-2.79.24-2.35.66-5.59,1.25-9.14s1.23-6.76,1.76-9.07c.26-1.15.48-2.08.65-2.72A4.77,4.77,0,0,1,151.07,133.1Z"/><rect class="cls-10" x="273.22" y="107.33" width="5.36" height="83.88"/><rect class="cls-10" x="224.2" y="107.33" width="5.36" height="83.88"/><path class="cls-2" d="M227.29,128.19s-.35-11,2.65-14.58h9.29s1.92,9.52,1.71,14.58Z"/><g class="cls-9"><path d="M239.23,113.61s-1.94,10-1.69,14.58h3.4s0-1.91-.18-4.37C240.46,120.24,239.58,115.5,239.23,113.61Z"/></g><rect class="cls-5" x="228.89" y="112.59" width="11.23" height="1.02"/><path class="cls-5" d="M231.9,119.77a.85.85,0,0,0-.34,1.1l.26.56a.9.9,0,0,0,1.09.46Z"/><path class="cls-5" d="M232.08,119.69l1,2.12a.86.86,0,0,0,.34-1.11l-.27-.56A.89.89,0,0,0,232.08,119.69Z"/><path class="cls-5" d="M235.08,120.05a7.52,7.52,0,0,0-.55-.79,2.64,2.64,0,0,0-2.06-.84,2.6,2.6,0,0,0-1.95,1,6.32,6.32,0,0,0-.46.85,1.56,1.56,0,0,1,.32-.94,2.63,2.63,0,0,1,2.08-1.19,2.61,2.61,0,0,1,2.2,1A1.64,1.64,0,0,1,235.08,120.05Z"/><path class="cls-5" d="M230.1,121.54s.13.34.48.78a2.63,2.63,0,0,0,1.89,1,2.59,2.59,0,0,0,2-.75c.4-.4.53-.74.57-.72a1.6,1.6,0,0,1-.44.84,2.7,2.7,0,0,1-2.13.87,2.67,2.67,0,0,1-2-1.11A1.49,1.49,0,0,1,230.1,121.54Z"/><path class="cls-6" d="M243.72,128.19s-.35-11,2.66-14.58h9.28s1.92,9.52,1.71,14.58Z"/><g class="cls-9"><path d="M255.66,113.61s-1.93,10-1.69,14.58h3.4s0-1.91-.18-4.37C256.89,120.24,256,115.5,255.66,113.61Z"/></g><rect class="cls-5" x="245.32" y="112.59" width="11.23" height="1.02"/><path class="cls-5" d="M248.33,119.77a.85.85,0,0,0-.34,1.1l.27.56a.88.88,0,0,0,1.08.46Z"/><path class="cls-5" d="M248.51,119.69l1,2.12a.86.86,0,0,0,.34-1.11l-.26-.56A.9.9,0,0,0,248.51,119.69Z"/><path class="cls-5" d="M251.51,120.05a7.52,7.52,0,0,0-.55-.79,2.6,2.6,0,0,0-2.05-.84,2.64,2.64,0,0,0-2,1,8.16,8.16,0,0,0-.46.85,1.65,1.65,0,0,1,.32-.94,2.63,2.63,0,0,1,2.08-1.19,2.66,2.66,0,0,1,1.34.27,2.58,2.58,0,0,1,.86.69A1.64,1.64,0,0,1,251.51,120.05Z"/><path class="cls-5" d="M246.53,121.54s.13.34.48.78a2.63,2.63,0,0,0,1.89,1,2.59,2.59,0,0,0,2-.75c.4-.4.53-.74.57-.72a1.6,1.6,0,0,1-.44.84,2.68,2.68,0,0,1-2.13.87,2.63,2.63,0,0,1-2-1.11A1.55,1.55,0,0,1,246.53,121.54Z"/><path class="cls-8" d="M261,128.12s-.35-11,2.66-14.59H273s1.92,9.52,1.71,14.59Z"/><g class="cls-9"><path d="M273,113.53s-1.93,10-1.69,14.59h3.4s0-1.91-.17-4.37C274.21,120.17,273.34,115.43,273,113.53Z"/></g><rect class="cls-5" x="262.64" y="112.51" width="11.23" height="1.02"/><path class="cls-5" d="M265.66,119.69a.86.86,0,0,0-.35,1.11l.27.56a.88.88,0,0,0,1.08.46Z"/><path class="cls-5" d="M265.83,119.61l1,2.13a.87.87,0,0,0,.34-1.11l-.26-.56A.89.89,0,0,0,265.83,119.61Z"/><path class="cls-5" d="M268.83,120a6.06,6.06,0,0,0-.55-.8,2.61,2.61,0,0,0-4,.22,7.56,7.56,0,0,0-.46.84,1.67,1.67,0,0,1,.32-.94,2.67,2.67,0,0,1,3.42-.91,2.46,2.46,0,0,1,.86.69A1.55,1.55,0,0,1,268.83,120Z"/><path class="cls-5" d="M263.85,121.46a8,8,0,0,0,.48.78,2.6,2.6,0,0,0,1.89,1,2.67,2.67,0,0,0,2-.75,7.58,7.58,0,0,0,.57-.72,1.59,1.59,0,0,1-.44.83,2.65,2.65,0,0,1-2.12.87,2.6,2.6,0,0,1-2-1.1A1.59,1.59,0,0,1,263.85,121.46Z"/><path class="cls-8" d="M241,88.24H230.31s-.22,5.34,2.05,7.46H239C241.24,93.59,241,88.24,241,88.24Z"/><path class="cls-5" d="M241,88.24a2.49,2.49,0,0,1,0,.57,14.31,14.31,0,0,1,0,1.62,13.28,13.28,0,0,1-.4,2.48,6.39,6.39,0,0,1-1.54,2.92l-.05,0H239l-4,0h-.18v-.19h0l.18.18h-2.67l-.06-.05a5.47,5.47,0,0,1-1.17-1.76,11.72,11.72,0,0,1-.78-3,17.66,17.66,0,0,1-.15-2.87v-.17h.18l4.31,0,3.43,0,2.21.06a5.22,5.22,0,0,1,.76,0,6.12,6.12,0,0,1-.83.05l-2.22.06-3.35.05-4.31,0,.17-.17a14.83,14.83,0,0,0,.93,5.69,5,5,0,0,0,1.08,1.63l-.13,0h2.78v.18h0l-.18-.18,4,0-.11,0a6.13,6.13,0,0,0,1.51-2.75,15.64,15.64,0,0,0,.48-2.43c.08-.69.11-1.23.13-1.6A2.71,2.71,0,0,1,241,88.24Z"/><path class="cls-2" d="M242,88.5H229.32a.45.45,0,0,1-.45-.44h0a.44.44,0,0,1,.45-.44H242a.44.44,0,0,1,.44.44h0A.44.44,0,0,1,242,88.5Z"/><path class="cls-2" d="M237.12,91.5a1.29,1.29,0,1,1-1.29-1.26A1.28,1.28,0,0,1,237.12,91.5Z"/><path class="cls-8" d="M256.4,88.24H245.7s-.22,5.34,2.05,7.46h6.6C256.63,93.59,256.4,88.24,256.4,88.24Z"/><path class="cls-5" d="M256.4,88.24a1.68,1.68,0,0,1,.06.57,14.31,14.31,0,0,1,0,1.62,13.28,13.28,0,0,1-.4,2.48,6.33,6.33,0,0,1-1.55,2.92l0,0h-.07l-4,0h-.18v-.19h0l.18.18h-2.67l-.06-.05a5.47,5.47,0,0,1-1.17-1.76,11.72,11.72,0,0,1-.78-3,17.66,17.66,0,0,1-.15-2.87v-.17h.18l4.31,0,3.43,0,2.21.06a5,5,0,0,1,.75,0,5.69,5.69,0,0,1-.82.05l-2.22.06L250,88.4l-4.31,0,.17-.17a14.83,14.83,0,0,0,.93,5.69,5,5,0,0,0,1.08,1.63l-.13,0h2.78v.18h0l-.18-.18,4,0-.11,0a6.13,6.13,0,0,0,1.51-2.75,15.64,15.64,0,0,0,.48-2.43c.08-.69.11-1.23.13-1.6A5.56,5.56,0,0,1,256.4,88.24Z"/><path class="cls-2" d="M257.38,88.5H244.7a.44.44,0,0,1-.44-.44h0a.44.44,0,0,1,.44-.44h12.68a.44.44,0,0,1,.45.44h0A.45.45,0,0,1,257.38,88.5Z"/><path class="cls-2" d="M252.51,91.5a1.29,1.29,0,1,1-1.29-1.26A1.28,1.28,0,0,1,252.51,91.5Z"/><path class="cls-8" d="M271.79,88.24H261.08s-.21,5.34,2.06,7.46h6.6C272,93.59,271.79,88.24,271.79,88.24Z"/><path class="cls-5" d="M271.79,88.24a1.68,1.68,0,0,1,.06.57,14.31,14.31,0,0,1-.05,1.62,13.39,13.39,0,0,1-.41,2.48,6.3,6.3,0,0,1-1.54,2.92l0,0h-.07l-4,0h-.18v-.19h0l.19.18h-2.67l-.06-.05a5.47,5.47,0,0,1-1.17-1.76,11.32,11.32,0,0,1-.78-3,17.66,17.66,0,0,1-.15-2.87v-.17h.17l4.32,0,3.43,0,2.21.06a5,5,0,0,1,.75,0,5.69,5.69,0,0,1-.82.05l-2.22.06-3.35.05-4.32,0,.18-.17a14.83,14.83,0,0,0,.93,5.69,5,5,0,0,0,1.08,1.63l-.13,0h2.78v.18h0l-.18-.18,4,0-.11,0a6.13,6.13,0,0,0,1.51-2.75,15.64,15.64,0,0,0,.48-2.43c.08-.69.11-1.23.13-1.6A5.56,5.56,0,0,1,271.79,88.24Z"/><path class="cls-2" d="M272.77,88.5H260.09a.44.44,0,0,1-.44-.44h0a.44.44,0,0,1,.44-.44h12.68a.44.44,0,0,1,.45.44h0A.45.45,0,0,1,272.77,88.5Z"/><path class="cls-2" d="M267.9,91.5a1.29,1.29,0,1,1-1.29-1.26A1.28,1.28,0,0,1,267.9,91.5Z"/><path class="cls-8" d="M241,96.12H230.31s-.22,5.34,2.05,7.47H239C241.24,101.46,241,96.12,241,96.12Z"/><path class="cls-5" d="M241,96.12a2.49,2.49,0,0,1,0,.57,14.09,14.09,0,0,1,0,1.61,13.37,13.37,0,0,1-.4,2.49,6.39,6.39,0,0,1-1.54,2.92l-.05,0H239l-4,0h-.18v-.18h0l.18.18h-2.67l-.06,0a5.47,5.47,0,0,1-1.17-1.76,11.8,11.8,0,0,1-.78-3,17.6,17.6,0,0,1-.15-2.87v-.17h.18l4.31,0,3.43,0,2.21,0a4.2,4.2,0,0,1,.76.05,7.63,7.63,0,0,1-.83,0l-2.22.06-3.35,0-4.31,0,.17-.17a14.81,14.81,0,0,0,.93,5.68,5,5,0,0,0,1.08,1.64l-.13,0h2.78v.18h0l-.18-.18h4l-.11,0a6.18,6.18,0,0,0,1.51-2.75,15.52,15.52,0,0,0,.48-2.44c.08-.68.11-1.22.13-1.59A2.6,2.6,0,0,1,241,96.12Z"/><path class="cls-2" d="M242,96.37H229.32a.44.44,0,0,1-.45-.44h0a.45.45,0,0,1,.45-.44H242a.44.44,0,0,1,.44.44h0A.44.44,0,0,1,242,96.37Z"/><ellipse class="cls-2" cx="235.83" cy="99.38" rx="1.29" ry="1.27"/><path class="cls-8" d="M256.41,96.12H245.7s-.21,5.34,2.06,7.47h6.6C256.63,101.46,256.41,96.12,256.41,96.12Z"/><path class="cls-5" d="M256.41,96.12a1.68,1.68,0,0,1,.06.57,14.09,14.09,0,0,1-.05,1.61,13.48,13.48,0,0,1-.41,2.49,6.3,6.3,0,0,1-1.54,2.92l0,0h-.07l-4,0h-.18v-.18h0l.19.18h-2.67l-.06,0a5.47,5.47,0,0,1-1.17-1.76,11.39,11.39,0,0,1-.78-3,17.6,17.6,0,0,1-.15-2.87v-.17h.17L250,96l3.43,0,2.21,0a4,4,0,0,1,.75.05,7.09,7.09,0,0,1-.82,0l-2.22.06-3.35,0-4.32,0,.18-.17a14.81,14.81,0,0,0,.93,5.68,5,5,0,0,0,1.08,1.64l-.13,0h2.78v.18h0l-.18-.18h4l-.11,0a6.18,6.18,0,0,0,1.51-2.75,15.52,15.52,0,0,0,.48-2.44c.08-.68.11-1.22.13-1.59A5.23,5.23,0,0,1,256.41,96.12Z"/><path class="cls-2" d="M257.39,96.37H244.71a.44.44,0,0,1-.44-.44h0a.44.44,0,0,1,.44-.44h12.68a.44.44,0,0,1,.44.44h0A.43.43,0,0,1,257.39,96.37Z"/><ellipse class="cls-2" cx="251.23" cy="99.38" rx="1.29" ry="1.27"/><path class="cls-8" d="M271.81,96.12H261.1s-.21,5.34,2.06,7.47h6.6C272,101.46,271.81,96.12,271.81,96.12Z"/><path class="cls-5" d="M271.81,96.12a2.09,2.09,0,0,1,.06.57,14.09,14.09,0,0,1-.05,1.61,13.48,13.48,0,0,1-.41,2.49,6.39,6.39,0,0,1-1.54,2.92l0,0h-.07l-4,0h-.19v-.18h0l.19.18h-2.68l-.05,0a5.47,5.47,0,0,1-1.17-1.76,11.39,11.39,0,0,1-.78-3,17.6,17.6,0,0,1-.15-2.87v-.17h.17l4.32,0,3.43,0,2.21,0a4,4,0,0,1,.75.05,7.18,7.18,0,0,1-.83,0l-2.21.06-3.35,0-4.32,0,.18-.17a14.62,14.62,0,0,0,.93,5.68,5,5,0,0,0,1.08,1.64l-.13,0h2.78v.18h0l-.18-.18h4l-.11,0a6.18,6.18,0,0,0,1.51-2.75,15.38,15.38,0,0,0,.47-2.44c.08-.68.12-1.22.14-1.59A5.23,5.23,0,0,1,271.81,96.12Z"/><path class="cls-2" d="M272.79,96.37H260.11a.44.44,0,0,1-.44-.44h0a.44.44,0,0,1,.44-.44h12.68a.44.44,0,0,1,.44.44h0A.43.43,0,0,1,272.79,96.37Z"/><ellipse class="cls-2" cx="266.63" cy="99.38" rx="1.29" ry="1.27"/><rect class="cls-10" x="221.93" y="103.11" width="58.22" height="4.39"/><path class="cls-5" d="M280.16,107.5a1.64,1.64,0,0,1,0-.29c0-.21,0-.48,0-.84,0-.75,0-1.84,0-3.26l.07.07c-9,.07-31.66.12-58.22.12h0c-.17.17.23-.23.18-.19h0v4.36l-.19-.19,41.26.08,12.4.06,3.37,0h1.2a1.29,1.29,0,0,1-.29,0l-.85,0-3.33,0-12.36.06-41.4.08h-.19v-4.55h0s.36-.36.2-.19h0c26.56,0,49.25,0,58.22.12h.06v.07c0,1.44,0,2.54,0,3.3v.82C280.16,107.42,280.16,107.51,280.16,107.5Z"/><rect class="cls-10" x="221.93" y="128.18" width="58.22" height="4.39"/><path class="cls-5" d="M280.16,132.57a1.64,1.64,0,0,1,0-.29c0-.2,0-.48,0-.84,0-.75,0-1.84,0-3.26l.07.07c-9,.07-31.66.12-58.22.12h0c-.17.17.23-.23.18-.19h0v4.36l-.19-.19,41.26.08,12.4.06,3.37,0h1.2a1.64,1.64,0,0,1-.29,0H279l-3.33,0-12.36.05-41.4.08h-.19v-4.55h0s.36-.36.2-.19h0c26.56,0,49.25,0,58.22.12h.06v.07c0,1.44,0,2.54,0,3.3v.83C280.16,132.49,280.16,132.58,280.16,132.57Z"/><rect class="cls-10" x="221.93" y="157.51" width="58.22" height="4.39"/><path class="cls-5" d="M280.16,161.9a1.64,1.64,0,0,1,0-.29c0-.21,0-.48,0-.84,0-.75,0-1.84,0-3.26l.07.07c-9,.07-31.66.12-58.22.12h0c-.17.17.23-.23.18-.19h0v4.38l-.19-.19,41.26.08,12.4.06,3.37,0h.91l-.85,0-3.33,0-12.36.06-41.4.08h-.19v-4.57h0s.36-.36.2-.19h0c26.56,0,49.25.05,58.22.12h.06v.07c0,1.44,0,2.54,0,3.3v.82C280.16,161.82,280.16,161.91,280.16,161.9Z"/><rect class="cls-2" x="85.55" y="67.12" width="7.75" height="42.44" rx="3.88" ry="3.88"/><path class="cls-2" d="M87.91,113.16c.11-.1,1.39-2.45,1.1-3.59l1,0a5.11,5.11,0,0,0,1,3.63Z"/><path class="cls-2" d="M89,67.15s-1.49-2.69-1.49-2.69h3.69a3,3,0,0,0-1.34,2.81Z"/><rect class="cls-8" x="85.55" y="82.59" width="7.75" height="9.96"/><path class="cls-4" d="M85.56,103a13.8,13.8,0,0,1,1.29-1.42A38.25,38.25,0,0,0,89.78,98c2.1-2.91,3.41-5.54,3.53-5.48a9.27,9.27,0,0,1-.79,1.75,30.25,30.25,0,0,1-2.44,4,25.37,25.37,0,0,1-3,3.51A7.13,7.13,0,0,1,85.56,103Z"/><path class="cls-4" d="M93.31,101.69a3.74,3.74,0,0,1-.34,1.39,11.23,11.23,0,0,1-1.76,3,11.4,11.4,0,0,1-2.54,2.33,3.67,3.67,0,0,1-1.27.64,10.22,10.22,0,0,1,1.12-.86,15.21,15.21,0,0,0,2.4-2.35,14.66,14.66,0,0,0,1.8-2.83A11.5,11.5,0,0,1,93.31,101.69Z"/><path class="cls-4" d="M92.77,107.7a5.38,5.38,0,0,1-1.59-.84,13.13,13.13,0,0,1-3.11-3A15.53,15.53,0,0,1,86,100a6.27,6.27,0,0,1-.47-1.73,30.11,30.11,0,0,0,2.82,5.33A19.19,19.19,0,0,0,92.77,107.7Z"/><path class="cls-4" d="M93.31,97.8c0,.06-.45,0-1-.34a4,4,0,0,1-1-.68,12.74,12.74,0,0,1-1-1,8.89,8.89,0,0,1-1.91-3.16c.09-.06.89,1.38,2.2,2.91A8.76,8.76,0,0,0,93.31,97.8Z"/><path class="cls-4" d="M93.1,69.71a7.27,7.27,0,0,1-.7,1.76A27,27,0,0,1,90,75.39a24.24,24.24,0,0,1-3,3.44A7.51,7.51,0,0,1,85.55,80a12.71,12.71,0,0,1,1.29-1.38,34.79,34.79,0,0,0,2.9-3.47,41.2,41.2,0,0,0,2.42-3.83A12.85,12.85,0,0,1,93.1,69.71Z"/><path class="cls-4" d="M93.31,82.59A10.15,10.15,0,0,1,91.77,81a33.08,33.08,0,0,1-3.11-4.41,26.51,26.51,0,0,1-2.28-4.91,14.51,14.51,0,0,1-.45-1.57c-.08-.38-.11-.59-.08-.6s.28.81.78,2.08A34.62,34.62,0,0,0,89,76.35a47.59,47.59,0,0,0,3,4.45A18.19,18.19,0,0,1,93.31,82.59Z"/><path class="cls-4" d="M93.29,79.2a5.47,5.47,0,0,1-1,1.92c-.67,1-1.41,1.67-1.49,1.58A12.16,12.16,0,0,1,92,80.9,7.82,7.82,0,0,1,93.29,79.2Z"/><polygon class="cls-6" points="88.98 67.15 89.83 67.12 89.87 66.46 88.65 66.54 88.98 67.15"/><path class="cls-6" d="M89,109.53a2.25,2.25,0,0,1,0,.79H90v-.79Z"/><path class="cls-5" d="M92.72,87.47a11.66,11.66,0,0,1-3,.19,11.66,11.66,0,0,1-3-.19,12.22,12.22,0,0,1,3-.19A12.22,12.22,0,0,1,92.72,87.47Z"/><path class="cls-6" d="M115,109.57h0a3.88,3.88,0,0,1-3.88-3.88V71A3.88,3.88,0,0,1,115,67.12h0A3.88,3.88,0,0,1,118.84,71v34.69A3.88,3.88,0,0,1,115,109.57Z"/><path class="cls-6" d="M113.45,113.16c.11-.1,1.39-2.45,1.1-3.59l1,0a5.11,5.11,0,0,0,1,3.63Z"/><path class="cls-6" d="M114.52,67.15S113,64.46,113,64.46h3.69a3,3,0,0,0-1.34,2.81Z"/><rect class="cls-8" x="111.09" y="82.59" width="7.75" height="9.96"/><path class="cls-4" d="M111.1,103a12.85,12.85,0,0,1,1.28-1.42A35.29,35.29,0,0,0,115.31,98c2.11-2.91,3.42-5.54,3.53-5.48a8.08,8.08,0,0,1-.78,1.75,31.39,31.39,0,0,1-2.44,4,25.37,25.37,0,0,1-3,3.51A7.45,7.45,0,0,1,111.1,103Z"/><path class="cls-4" d="M118.84,101.69a3.3,3.3,0,0,1-.34,1.39,10.89,10.89,0,0,1-1.75,3,11.63,11.63,0,0,1-2.54,2.33,3.58,3.58,0,0,1-1.28.64,10.22,10.22,0,0,1,1.12-.86,14.84,14.84,0,0,0,4.21-5.18A10.61,10.61,0,0,1,118.84,101.69Z"/><path class="cls-4" d="M118.3,107.7a5.41,5.41,0,0,1-1.58-.84,13,13,0,0,1-3.11-3,15.53,15.53,0,0,1-2-3.82,6.27,6.27,0,0,1-.47-1.73,29.64,29.64,0,0,0,2.81,5.33A19.42,19.42,0,0,0,118.3,107.7Z"/><path class="cls-4" d="M118.84,97.8c0,.06-.45,0-1-.34a4,4,0,0,1-1-.68c-.32-.3-.65-.66-1-1a9.08,9.08,0,0,1-1.91-3.16c.1-.06.9,1.38,2.21,2.91A8.79,8.79,0,0,0,118.84,97.8Z"/><path class="cls-4" d="M118.64,69.71a7.64,7.64,0,0,1-.71,1.76,26.81,26.81,0,0,1-2.35,3.92,24.89,24.89,0,0,1-3,3.44A7.51,7.51,0,0,1,111.09,80a12.71,12.71,0,0,1,1.29-1.38,33.55,33.55,0,0,0,2.89-3.47,37.36,37.36,0,0,0,2.42-3.83A13.54,13.54,0,0,1,118.64,69.71Z"/><path class="cls-4" d="M118.84,82.59A10.71,10.71,0,0,1,117.3,81a34.09,34.09,0,0,1-3.1-4.41,26.51,26.51,0,0,1-2.28-4.91,14.51,14.51,0,0,1-.45-1.57,2.18,2.18,0,0,1-.09-.6c.06,0,.29.81.79,2.08a33.52,33.52,0,0,0,2.36,4.8,47.59,47.59,0,0,0,3,4.45A16.92,16.92,0,0,1,118.84,82.59Z"/><path class="cls-4" d="M118.82,79.2a5.15,5.15,0,0,1-1,1.92c-.68,1-1.41,1.67-1.5,1.58a13.94,13.94,0,0,1,1.19-1.8A8,8,0,0,1,118.82,79.2Z"/><polygon class="cls-6" points="114.52 67.15 115.37 67.12 115.41 66.46 114.19 66.54 114.52 67.15"/><path class="cls-6" d="M114.55,109.53a2.12,2.12,0,0,1,0,.79h1v-.79Z"/><path class="cls-5" d="M118.26,87.47a11.66,11.66,0,0,1-3,.19,11.66,11.66,0,0,1-3-.19,12.22,12.22,0,0,1,3-.19A12.22,12.22,0,0,1,118.26,87.47Z"/><path class="cls-11" d="M102.25,109.57h0a3.88,3.88,0,0,1-3.88-3.88V71a3.88,3.88,0,0,1,3.88-3.88h0A3.88,3.88,0,0,1,106.12,71v34.69A3.88,3.88,0,0,1,102.25,109.57Z"/><path class="cls-11" d="M100.73,113.16c.11-.1,1.39-2.45,1.1-3.59l1,0a5.11,5.11,0,0,0,1,3.63Z"/><path class="cls-11" d="M101.8,67.15s-1.49-2.69-1.49-2.69H104a3,3,0,0,0-1.34,2.81Z"/><rect class="cls-8" x="98.37" y="82.59" width="7.75" height="9.96"/><path class="cls-4" d="M98.38,103a13.8,13.8,0,0,1,1.29-1.42A36.8,36.8,0,0,0,102.59,98c2.11-2.91,3.42-5.54,3.53-5.48a8.08,8.08,0,0,1-.78,1.75,31.39,31.39,0,0,1-2.44,4,25.37,25.37,0,0,1-3,3.51A7.13,7.13,0,0,1,98.38,103Z"/><path class="cls-4" d="M106.13,101.69a3.74,3.74,0,0,1-.34,1.39,11.23,11.23,0,0,1-1.76,3,11.4,11.4,0,0,1-2.54,2.33,3.58,3.58,0,0,1-1.28.64,12.82,12.82,0,0,1,1.13-.86,14.79,14.79,0,0,0,2.39-2.35,14.29,14.29,0,0,0,1.81-2.83A11.5,11.5,0,0,1,106.13,101.69Z"/><path class="cls-4" d="M105.59,107.7a5.38,5.38,0,0,1-1.59-.84,13.13,13.13,0,0,1-3.11-3,15.53,15.53,0,0,1-2-3.82,6.27,6.27,0,0,1-.47-1.73,30.11,30.11,0,0,0,2.82,5.33A19.19,19.19,0,0,0,105.59,107.7Z"/><path class="cls-4" d="M106.13,97.8c0,.06-.45,0-1-.34a4,4,0,0,1-1-.68,12.74,12.74,0,0,1-1-1,9,9,0,0,1-1.92-3.16c.1-.06.9,1.38,2.21,2.91A8.64,8.64,0,0,0,106.13,97.8Z"/><path class="cls-4" d="M105.92,69.71a7.1,7.1,0,0,1-.71,1.76,26,26,0,0,1-2.35,3.92,24.24,24.24,0,0,1-3,3.44A7.51,7.51,0,0,1,98.37,80a12.71,12.71,0,0,1,1.29-1.38,34.79,34.79,0,0,0,2.9-3.47A41.2,41.2,0,0,0,105,71.34,12.85,12.85,0,0,1,105.92,69.71Z"/><path class="cls-4" d="M106.12,82.59A10.42,10.42,0,0,1,104.59,81a33.08,33.08,0,0,1-3.11-4.41,26.51,26.51,0,0,1-2.28-4.91,14.51,14.51,0,0,1-.45-1.57c-.08-.38-.11-.59-.08-.6s.28.81.78,2.08a34.62,34.62,0,0,0,2.36,4.8,47.59,47.59,0,0,0,3,4.45A15.29,15.29,0,0,1,106.12,82.59Z"/><path class="cls-4" d="M106.11,79.2a5.47,5.47,0,0,1-1,1.92c-.67,1-1.41,1.67-1.49,1.58a12.16,12.16,0,0,1,1.18-1.8A7.82,7.82,0,0,1,106.11,79.2Z"/><polygon class="cls-6" points="101.8 67.15 102.65 67.12 102.69 66.46 101.47 66.54 101.8 67.15"/><path class="cls-6" d="M101.83,109.53a2.25,2.25,0,0,1,0,.79h.94v-.79Z"/><path class="cls-5" d="M105.54,87.47a11.66,11.66,0,0,1-3,.19,11.66,11.66,0,0,1-3-.19,12.22,12.22,0,0,1,3-.19A12.22,12.22,0,0,1,105.54,87.47Z"/><rect class="cls-2" x="4.28" y="212.57" width="79.56" height="87.06"/><g class="cls-12"><rect x="4.28" y="212.57" width="79.56" height="87.06"/></g><path class="cls-5" d="M84,230.52c0,.11-17.86.19-39.88.19s-39.88-.08-39.88-.19,17.85-.19,39.88-.19S84,230.42,84,230.52Z"/><path class="cls-5" d="M84,251.82c0,.11-17.86.19-39.88.19s-39.88-.08-39.88-.19,17.85-.19,39.88-.19S84,251.72,84,251.82Z"/><path class="cls-5" d="M84,273.12c0,.1-17.86.19-39.88.19s-39.88-.09-39.88-.19,17.85-.19,39.88-.19S84,273,84,273.12Z"/><path class="cls-5" d="M84,295.32c0,.1-17.86.19-39.88.19s-39.88-.09-39.88-.19,17.85-.19,39.88-.19S84,295.21,84,295.32Z"/><rect class="cls-2" x="72.18" y="62.58" width="5.28" height="118.16"/><g class="cls-12"><rect x="72.18" y="62.58" width="5.28" height="118.16"/></g><rect class="cls-2" x="289.06" y="62.58" width="5.28" height="118.16"/><g class="cls-12"><rect x="289.06" y="62.58" width="5.28" height="118.16"/></g><polygon class="cls-2" points="306.39 65.97 134.81 65.97 116.51 64.9 104.03 65.97 76.51 65.97 52.66 67.9 52.66 21.13 306.39 21.13 306.39 65.97"/><g class="cls-9"><rect class="cls-4" x="77.47" y="21.13" width="26.07" height="44.84"/></g><g class="cls-9"><rect class="cls-4" x="135.72" y="21.13" width="26.07" height="44.84"/></g><g class="cls-9"><rect class="cls-4" x="193.98" y="21.13" width="26.07" height="44.84"/></g><g class="cls-9"><rect class="cls-4" x="252.23" y="21.13" width="26.07" height="44.84"/></g><path class="cls-5" d="M241.68,51.24l-.44.07-1.29.18-4.95.63-3.59.45c-1.31.14-2.74.27-4.28.42-3.07.27-6.56.67-10.44.88l-6.08.4c-2.11.13-4.32.18-6.6.27-4.56.23-9.44.23-14.57.28-10.27-.06-21.55-.48-33.36-1.5s-23-2.65-33.11-4.41c-5-.95-9.85-1.81-14.3-2.84-2.22-.49-4.39-.93-6.44-1.43l-5.92-1.47c-3.78-.89-7.15-1.89-10.12-2.71-1.48-.42-2.87-.79-4.14-1.17l-3.44-1.07-4.77-1.5-1.24-.4-.42-.15.43.11,1.25.37,4.79,1.43,3.46,1,4.14,1.13c3,.8,6.34,1.79,10.13,2.66l5.91,1.44c2.06.5,4.22.92,6.45,1.41,4.45,1,9.25,1.86,14.29,2.81,10.11,1.73,21.29,3.3,33.08,4.38s23.07,1.44,33.33,1.52c5.13,0,10,0,14.56-.24,2.28-.09,4.48-.13,6.6-.25l6.07-.38c3.88-.19,7.37-.57,10.44-.82,1.54-.15,3-.26,4.28-.39L235,52l5-.56,1.3-.13Z"/><path class="cls-5" d="M294.34,36l-.18.1-.53.29-2.08,1c-.9.46-2,1-3.31,1.61s-2.77,1.32-4.43,2c-3.29,1.49-7.26,3.14-11.72,4.87s-9.41,3.46-14.67,5.11-10.34,3-15,4.16-8.85,2-12.41,2.68c-1.77.36-3.38.61-4.8.85s-2.63.43-3.63.57l-2.31.32-.6.08h-.2s.06,0,.2-.05l.59-.11,2.29-.39c1-.17,2.22-.37,3.63-.64s3-.53,4.78-.9c3.54-.69,7.74-1.62,12.38-2.76s9.68-2.54,14.94-4.18,10.2-3.4,14.67-5.08,8.43-3.33,11.73-4.79c1.66-.7,3.14-1.39,4.45-2s2.43-1.11,3.34-1.55l2.1-1,.56-.25Z"/><rect class="cls-2" x="67.16" y="180.74" width="230.5" height="6.26"/><rect class="cls-2" x="72.38" y="186.99" width="219.48" height="112.58"/><g class="cls-9"><rect x="72.38" y="186.99" width="219.48" height="112.58"/></g><path class="cls-5" d="M72.38,206.49c0-.1,49-.19,109.42-.19s109.44.09,109.44.19-49,.19-109.44.19S72.38,206.6,72.38,206.49Z"/><path class="cls-5" d="M72.38,229.13c0-.11,49-.19,109.42-.19s109.44.08,109.44.19-49,.19-109.44.19S72.38,229.23,72.38,229.13Z"/><path class="cls-5" d="M72.38,251.76c0-.1,49-.19,109.42-.19s109.44.09,109.44.19-49,.19-109.44.19S72.38,251.87,72.38,251.76Z"/><path class="cls-5" d="M72.38,274.4c0-.1,49-.19,109.42-.19s109.44.09,109.44.19-49,.19-109.44.19S72.38,274.51,72.38,274.4Z"/><path class="cls-5" d="M298,187c0,.11-51.61.19-115.26.19S67.49,187.15,67.49,187s51.59-.19,115.27-.19S298,186.94,298,187Z"/><path class="cls-5" d="M72.59,299.31c-.11,0-.19-25.05-.19-55.95s.08-56,.19-56,.19,25,.19,56S72.69,299.31,72.59,299.31Z"/><g class="cls-12"><rect x="67.16" y="180.74" width="230.5" height="6.26"/></g><polygon class="cls-11" points="243.71 40.39 116.36 42.01 116.87 2.12 130.68 2.12 134.27 7.15 134.49 2.12 243.71 2.12 243.71 18.59 237.34 20.61 243.71 23.5 243.71 40.39"/><polygon class="cls-10" points="243.71 38.42 116.36 40.04 116.87 0.15 130.68 0.15 134.27 5.18 134.49 0.15 243.71 0.15 243.71 16.62 237.34 18.64 243.71 21.52 243.71 38.42"/><path class="cls-11" d="M200.45,0a1,1,0,0,1-.16.16l-.49.43-.81.68c-.33.26-.72.55-1.15.87a33.2,33.2,0,0,1-8.14,4.29,35.31,35.31,0,0,1-6.16,1.64,35.09,35.09,0,0,1-7.3.46,38.13,38.13,0,0,1-8-1.27,77.63,77.63,0,0,0-8.41-1.89,33.2,33.2,0,0,0-8.58.13c-2.77.34-5.43.82-8,1.1a65.88,65.88,0,0,1-13.65.1,64.2,64.2,0,0,1-9.08-1.53c-1-.27-1.87-.49-2.42-.66l-.62-.19a.61.61,0,0,1-.21-.08l.22,0,.63.16c.56.15,1.38.34,2.43.59a70,70,0,0,0,9.07,1.4,66.53,66.53,0,0,0,13.59-.18c2.55-.28,5.2-.77,8-1.12A33.07,33.07,0,0,1,159.9,5a76.45,76.45,0,0,1,8.46,1.9,38.21,38.21,0,0,0,7.9,1.28,34.54,34.54,0,0,0,7.23-.42,36.35,36.35,0,0,0,6.12-1.58A34.21,34.21,0,0,0,197.75,2l1.17-.84.83-.65.52-.4A.91.91,0,0,1,200.45,0Z"/><path class="cls-11" d="M243.43,9.61l-.34-.07a5.53,5.53,0,0,0-1-.21,9.68,9.68,0,0,0-3.77.18,23.67,23.67,0,0,0-5.56,2.3,77,77,0,0,1-7.17,3.59,54.27,54.27,0,0,1-20.37,4.16A52.55,52.55,0,0,1,193,18.25c-1-.25-2.09-.49-3.13-.82s-2.1-.64-3.14-1c-2.08-.75-4.15-1.6-6.25-2.44s-4.19-1.65-6.3-2.29a37.54,37.54,0,0,0-6.33-1.38A68.7,68.7,0,0,0,155.57,10a201.12,201.12,0,0,0-20.74,2,117.5,117.5,0,0,0-13.72,3c-1.59.46-2.83.84-3.65,1.12l-.95.3a3,3,0,0,1-.33.09l.32-.12.93-.34c.82-.31,2-.71,3.64-1.19a108.88,108.88,0,0,1,13.72-3.11,194.07,194.07,0,0,1,20.77-2.09,68.46,68.46,0,0,1,12.33.29,37.06,37.06,0,0,1,6.39,1.39c2.12.64,4.22,1.45,6.33,2.29s4.17,1.7,6.24,2.44c1,.39,2.07.72,3.11,1s2.08.58,3.12.82a52.24,52.24,0,0,0,12.17,1.33,54.52,54.52,0,0,0,20.27-4.05c2.76-1.11,5.08-2.46,7.18-3.54a23.59,23.59,0,0,1,5.62-2.25,9.5,9.5,0,0,1,3.82-.12,6,6,0,0,1,1,.25Z"/><path class="cls-11" d="M243.71,4.24l-.25,0-.75.08c-.65.08-1.62.13-2.86.33A79.47,79.47,0,0,0,229.5,6.83c-4.33,1.13-9.39,2.77-15.09,4.38-2.85.8-5.85,1.59-9,2.19-.79.17-1.6.27-2.41.41s-1.63.24-2.46.33-1.65.21-2.51.24a6.2,6.2,0,0,1-2.58-.37,3.1,3.1,0,0,1-1.86-1.85,2.48,2.48,0,0,1,0-1.35,2.7,2.7,0,0,1,.68-1.14c1.28-1.24,3-1.6,4.5-2.06,3.09-.92,6.08-1.77,9-2.42A57.1,57.1,0,0,1,216,3.87c.34,0,.64-.06,1-.06a1.35,1.35,0,0,1,1,.44,1.37,1.37,0,0,1-.07,1.9,2.83,2.83,0,0,1-.83.45l-.82.35c-.54.22-1.08.43-1.61.62a41.13,41.13,0,0,1-10.34,2.29c-1.24.12-2.22.14-2.88.15h-.75a.72.72,0,0,1-.25,0l.25,0,.75,0c.66,0,1.63-.08,2.87-.22a42,42,0,0,0,10.26-2.4c.52-.19,1.05-.4,1.59-.62l.81-.35a2.43,2.43,0,0,0,.75-.41,1.07,1.07,0,0,0,0-1.48,1.08,1.08,0,0,0-.75-.33c-.29,0-.63,0-.95.07a57.78,57.78,0,0,0-8.26,1.34c-2.88.66-5.86,1.51-8.94,2.43-.77.24-1.56.44-2.31.74a5.76,5.76,0,0,0-2,1.23,2.09,2.09,0,0,0-.55,2.12,2.7,2.7,0,0,0,1.64,1.61c1.53.61,3.27.27,4.9.11.82-.09,1.64-.19,2.44-.33s1.61-.24,2.4-.41c3.15-.58,6.15-1.37,9-2.16,5.69-1.59,10.77-3.2,15.11-4.3a76.56,76.56,0,0,1,10.4-2c1.24-.18,2.22-.2,2.87-.26l.75,0Z"/><path class="cls-11" d="M159,20.15a1.63,1.63,0,0,1-.36,0l-1.06,0a39.78,39.78,0,0,0-4,.09,36.2,36.2,0,0,0-13.75,3.86l.08-.11A2.14,2.14,0,0,0,141,26a5,5,0,0,0,2.59.49,57.29,57.29,0,0,0,5.83-.49,58.22,58.22,0,0,0,12.33-3.11,14.3,14.3,0,0,0,4-1.93,2.17,2.17,0,0,0,.86-1.75,2.15,2.15,0,0,0-1.07-1.6,11.12,11.12,0,0,0-3.92-1.25c-.67-.13-1.34-.22-2-.33l-2-.21a49.61,49.61,0,0,0-13.84,1,76.65,76.65,0,0,0-9.06,2.5c-1.05.35-1.86.64-2.41.84l-.63.22-.22.06.2-.1.62-.25c.54-.22,1.35-.54,2.39-.91a68.78,68.78,0,0,1,9.06-2.62,49,49,0,0,1,13.92-1.09l2,.21c.67.11,1.35.2,2,.32s1.36.28,2.05.45a6.54,6.54,0,0,1,2,.85A2.51,2.51,0,0,1,167,19.13a2.52,2.52,0,0,1-1,2.06,7.44,7.44,0,0,1-2,1.17c-.69.28-1.4.57-2.11.83a57.09,57.09,0,0,1-12.42,3.12,57.78,57.78,0,0,1-5.86.48,5.41,5.41,0,0,1-2.77-.55,2.43,2.43,0,0,1-1.31-2.34v-.08l.07,0A35.42,35.42,0,0,1,153.51,20,27.94,27.94,0,0,1,159,20.15Z"/><path class="cls-11" d="M193.9,21.71h-.2l-.58-.08c-.51-.06-1.26-.21-2.24-.26a37.18,37.18,0,0,0-8.27.25c-1.73.21-3.61.59-5.62,1s-4.14,1-6.37,1.65c-4.46,1.26-9.33,2.81-14.59,3.87a99.62,99.62,0,0,1-15,1.92A100.58,100.58,0,0,1,128.71,30c-3.51-.25-6.33-.65-8.26-1-1-.15-1.72-.31-2.23-.4l-.57-.12-.2,0a.76.76,0,0,1,.2,0l.59.08,2.23.34c1.94.26,4.76.61,8.25.84a106.07,106.07,0,0,0,12.3,0A102.87,102.87,0,0,0,156,27.79c5.24-1.06,10.1-2.59,14.58-3.83,2.23-.62,4.37-1.18,6.39-1.63s3.91-.8,5.66-1a35.08,35.08,0,0,1,8.31-.13,20.79,20.79,0,0,1,2.24.34l.58.11Z"/><path class="cls-11" d="M241.55,27.83a1.54,1.54,0,0,1-.44-.09l-1.22-.33c-1.06-.3-2.6-.7-4.51-1.17s-4.2-1-6.76-1.43-5.38-.89-8.37-1.22a119.67,119.67,0,0,0-15.34-.67c-2,0-3.56.11-4.65.17l-1.27.06a1.47,1.47,0,0,1-.45,0,3.16,3.16,0,0,1,.44-.07l1.27-.12c1.09-.12,2.68-.22,4.65-.3s4.32-.09,6.93,0,5.47.26,8.47.58,5.82.77,8.39,1.25,4.85,1,6.75,1.52,3.44.95,4.49,1.29l1.2.4Z"/><path class="cls-11" d="M222.18,26.69a2.11,2.11,0,0,1-.23.16l-.68.46a22.83,22.83,0,0,1-2.77,1.5,35.33,35.33,0,0,1-11.23,2.78,79.53,79.53,0,0,1-8,.34c-2.88,0-6-.08-9.18,0a56.13,56.13,0,0,0-10.05,1c-3.44.66-6.93,1.74-10.52,2.74a57.45,57.45,0,0,1-10.7,2.14,46.46,46.46,0,0,1-10.16-.45c-3.21-.45-6.22-1.07-9-1.62s-5.46-1-7.88-1.33a41.85,41.85,0,0,0-11.52-.1,29.59,29.59,0,0,0-3.08.62l-.79.21a.91.91,0,0,1-.27.06,20.4,20.4,0,0,1,4.12-1,40.58,40.58,0,0,1,11.57,0c2.44.29,5.08.75,7.91,1.29s5.83,1.14,9,1.58a46.44,46.44,0,0,0,10.08.43,57.24,57.24,0,0,0,10.63-2.14c3.59-1,7.08-2.07,10.55-2.74a56,56,0,0,1,10.12-.94c3.23,0,6.31,0,9.18.05s5.55-.05,8-.28a36,36,0,0,0,11.19-2.66,25.47,25.47,0,0,0,2.79-1.42l.7-.43C222.09,26.73,222.17,26.68,222.18,26.69Z"/><path class="cls-11" d="M227.88,32.69l.22,0,.64-.11a16.53,16.53,0,0,1,2.47-.15,18.38,18.38,0,0,1,8.57,2.2l.25.13-.25.15a22.14,22.14,0,0,1-15,2.43,19.91,19.91,0,0,1-2.75-.74,4.16,4.16,0,0,1-2.26-1.68,1.92,1.92,0,0,1-.15-1.43,2.37,2.37,0,0,1,.81-1.14,6.65,6.65,0,0,1,2.35-1.08,34.92,34.92,0,0,1,8.69-1.33,34,34,0,0,1,5.91.36c.69.12,1.22.21,1.58.3a3.09,3.09,0,0,1,.54.14,3.23,3.23,0,0,1-.55-.07l-1.59-.22a37.3,37.3,0,0,0-5.89-.24,35,35,0,0,0-8.59,1.4,6.24,6.24,0,0,0-2.22,1,2,2,0,0,0-.69,1,1.57,1.57,0,0,0,.13,1.16,3.85,3.85,0,0,0,2.06,1.5,19.43,19.43,0,0,0,2.7.71,21.91,21.91,0,0,0,14.75-2.33v.28a18.82,18.82,0,0,0-8.42-2.3,21.41,21.41,0,0,0-2.46.06A5.65,5.65,0,0,1,227.88,32.69Z"/><path class="cls-11" d="M215.63,38a1.62,1.62,0,0,1-.39-.07l-1.11-.25c-.48-.12-1.07-.26-1.76-.4s-1.46-.31-2.34-.45c-1.73-.31-3.82-.58-6.14-.77a63.72,63.72,0,0,0-15.11.62c-2.3.39-4.36.83-6.06,1.29-.86.2-1.62.45-2.29.64s-1.25.38-1.72.53l-1.08.35a1.64,1.64,0,0,1-.39.1,1.57,1.57,0,0,1,.36-.17l1.06-.42c.46-.18,1-.39,1.7-.59s1.43-.48,2.29-.7a55.45,55.45,0,0,1,6.07-1.37,59.84,59.84,0,0,1,15.2-.63,58,58,0,0,1,6.16.86c.88.15,1.65.35,2.34.51s1.27.31,1.74.45l1.1.33C215.51,37.93,215.63,38,215.63,38Z"/><path class="cls-11" d="M144.28,25.28l0-5.63-2.82,4.64h-1l-2.8-4.52v5.51h-2.09V15.89h1.84L141,21.73l3.53-5.84h1.82l0,9.39Z"/><path class="cls-11" d="M154.08,18.75a3,3,0,0,1,.91,2.41v4.12h-2v-.89a2.41,2.41,0,0,1-2.25,1,3.47,3.47,0,0,1-1.47-.28,2.18,2.18,0,0,1-.95-.78A2,2,0,0,1,148,23.2a1.87,1.87,0,0,1,.77-1.58,4,4,0,0,1,2.39-.58h1.7a1.3,1.3,0,0,0-.43-1.05,1.85,1.85,0,0,0-1.27-.37,3.85,3.85,0,0,0-1.16.18,3,3,0,0,0-1,.49l-.77-1.46a4.83,4.83,0,0,1,1.45-.65,6.68,6.68,0,0,1,1.73-.23A3.9,3.9,0,0,1,154.08,18.75Zm-1.82,5a1.36,1.36,0,0,0,.6-.73v-.74h-1.47c-.87,0-1.31.29-1.31.85a.76.76,0,0,0,.32.64,1.53,1.53,0,0,0,.88.23A1.88,1.88,0,0,0,152.26,23.73Z"/><path class="cls-11" d="M160,18.22a3.86,3.86,0,0,1,1.5-.27v1.94l-.48,0a1.79,1.79,0,0,0-2,2v3.41h-2.13V18.06h2v1A2.39,2.39,0,0,1,160,18.22Z"/><path class="cls-11" d="M165.93,22.45l-1,1v1.83h-2.14v-10h2.14V21l3.12-2.9h2.54l-3.06,3.06,3.34,4.16h-2.59Z"/><path class="cls-11" d="M178.67,22.26h-5.58a1.66,1.66,0,0,0,.72,1.06,2.35,2.35,0,0,0,1.39.39,2.88,2.88,0,0,0,1-.16,2.66,2.66,0,0,0,.83-.53l1.14,1.2a3.87,3.87,0,0,1-3,1.17,5,5,0,0,1-2.21-.47,3.55,3.55,0,0,1-1.48-1.33,3.63,3.63,0,0,1-.52-1.92,3.67,3.67,0,0,1,.52-1.91,3.54,3.54,0,0,1,1.41-1.33,4.16,4.16,0,0,1,2-.48,4.23,4.23,0,0,1,2,.46,3.48,3.48,0,0,1,1.38,1.31,3.88,3.88,0,0,1,.5,2S178.69,21.91,178.67,22.26Zm-5-2.32a1.7,1.7,0,0,0-.6,1.1h3.62a1.7,1.7,0,0,0-.6-1.09,2,2,0,0,0-2.42,0Z"/><path class="cls-11" d="M184.88,24.94a2.37,2.37,0,0,1-.77.34,4.37,4.37,0,0,1-1,.11,2.9,2.9,0,0,1-2-.66,2.47,2.47,0,0,1-.72-1.93v-3h-1.14V18.22h1.14V16.46h2.14v1.76h1.83v1.61h-1.83v2.94a1,1,0,0,0,.24.71.91.91,0,0,0,.67.25,1.41,1.41,0,0,0,.87-.27Z"/><path class="cls-11" d="M192.31,18.42a3.37,3.37,0,0,1,1.32,1.3,4.22,4.22,0,0,1,0,3.91,3.37,3.37,0,0,1-1.32,1.3,3.81,3.81,0,0,1-1.87.46,2.88,2.88,0,0,1-2.22-.87v3.37h-2.13V18.06h2v.83a2.86,2.86,0,0,1,2.31-.94A3.82,3.82,0,0,1,192.31,18.42Zm-.89,4.71a2,2,0,0,0,.53-1.46,2,2,0,0,0-.53-1.45,1.93,1.93,0,0,0-2.7,0,2,2,0,0,0-.53,1.45,2,2,0,0,0,.53,1.46,2,2,0,0,0,2.7,0Z"/><path class="cls-11" d="M195.53,15.32h2.14v10h-2.14Z"/><path class="cls-11" d="M205.25,18.75a3,3,0,0,1,.92,2.41v4.12h-2v-.89a2.39,2.39,0,0,1-2.24,1,3.55,3.55,0,0,1-1.48-.28,2.24,2.24,0,0,1-.95-.78,2,2,0,0,1-.33-1.13,1.85,1.85,0,0,1,.78-1.58,4,4,0,0,1,2.39-.58H204a1.32,1.32,0,0,0-.42-1.05,1.87,1.87,0,0,0-1.27-.37,3.8,3.8,0,0,0-1.16.18,3,3,0,0,0-1,.49l-.76-1.46a4.77,4.77,0,0,1,1.44-.65,6.68,6.68,0,0,1,1.73-.23A3.9,3.9,0,0,1,205.25,18.75Zm-1.82,5A1.32,1.32,0,0,0,204,23v-.74h-1.46c-.88,0-1.32.29-1.32.85a.75.75,0,0,0,.33.64,1.51,1.51,0,0,0,.88.23A1.85,1.85,0,0,0,203.43,23.73Z"/><path class="cls-11" d="M209.63,24.92a3.67,3.67,0,0,1-1.47-5.17,3.63,3.63,0,0,1,1.47-1.32,4.55,4.55,0,0,1,2.11-.48,4.12,4.12,0,0,1,2,.48A2.84,2.84,0,0,1,215,19.79l-1.66.88a1.8,1.8,0,0,0-1.65-1,1.91,1.91,0,0,0-1.39.54,2.26,2.26,0,0,0,0,2.93,1.94,1.94,0,0,0,1.39.53,1.78,1.78,0,0,0,1.65-1l1.66.89a2.89,2.89,0,0,1-1.27,1.34,4.12,4.12,0,0,1-2,.48A4.68,4.68,0,0,1,209.63,24.92Z"/><path class="cls-11" d="M223.35,22.26h-5.57a1.68,1.68,0,0,0,.71,1.06,2.38,2.38,0,0,0,1.4.39,3,3,0,0,0,1-.16,2.78,2.78,0,0,0,.83-.53l1.13,1.2a3.85,3.85,0,0,1-3,1.17,5,5,0,0,1-2.2-.47,3.51,3.51,0,0,1-2-3.25,3.67,3.67,0,0,1,.51-1.91,3.61,3.61,0,0,1,1.41-1.33,4.2,4.2,0,0,1,2-.48,4.26,4.26,0,0,1,2,.46,3.39,3.39,0,0,1,1.37,1.31,3.88,3.88,0,0,1,.5,2S223.38,21.91,223.35,22.26Zm-5-2.32a1.74,1.74,0,0,0-.6,1.1h3.63a1.7,1.7,0,0,0-.6-1.09,1.85,1.85,0,0,0-1.21-.41A1.87,1.87,0,0,0,218.35,19.94Z"/><path class="cls-4" d="M144.28,24.12l0-5.64-2.82,4.64h-1l-2.8-4.52v5.52h-2.09v-9.4h1.84L141,20.56l3.53-5.84h1.82l0,9.4Z"/><path class="cls-4" d="M154.08,17.59A3,3,0,0,1,155,20v4.12h-2v-.9a2.41,2.41,0,0,1-2.25,1,3.47,3.47,0,0,1-1.47-.28,2.05,2.05,0,0,1-.95-.78A2,2,0,0,1,148,22a1.9,1.9,0,0,1,.77-1.59,4,4,0,0,1,2.39-.57h1.7a1.32,1.32,0,0,0-.43-1.06,1.91,1.91,0,0,0-1.27-.37,3.85,3.85,0,0,0-1.16.18,3.21,3.21,0,0,0-1,.49l-.77-1.46a4.59,4.59,0,0,1,1.45-.64,6.28,6.28,0,0,1,1.73-.23A3.85,3.85,0,0,1,154.08,17.59Zm-1.82,5a1.4,1.4,0,0,0,.6-.73V21.1h-1.47c-.87,0-1.31.28-1.31.84a.76.76,0,0,0,.32.64,1.46,1.46,0,0,0,.88.24A2,2,0,0,0,152.26,22.57Z"/><path class="cls-4" d="M160,17.06a3.86,3.86,0,0,1,1.5-.27v1.93l-.48,0a1.8,1.8,0,0,0-2,2v3.41h-2.13V16.89h2v1A2.3,2.3,0,0,1,160,17.06Z"/><path class="cls-4" d="M165.93,21.29l-1,1v1.84h-2.14v-10h2.14v5.63l3.12-2.9h2.54L167.51,20l3.34,4.16h-2.59Z"/><path class="cls-4" d="M178.67,21.1h-5.58a1.71,1.71,0,0,0,.72,1.06,2.35,2.35,0,0,0,1.39.39,2.87,2.87,0,0,0,1-.17,2.49,2.49,0,0,0,.83-.53l1.14,1.21a3.86,3.86,0,0,1-3,1.16,4.89,4.89,0,0,1-2.21-.47,3.59,3.59,0,0,1-1.48-1.32,3.8,3.8,0,0,1,0-3.84,3.54,3.54,0,0,1,1.41-1.33,4.28,4.28,0,0,1,2-.47,4.22,4.22,0,0,1,2,.45,3.48,3.48,0,0,1,1.38,1.31,3.88,3.88,0,0,1,.5,2S178.69,20.75,178.67,21.1Zm-5-2.33a1.7,1.7,0,0,0-.6,1.11h3.62a1.7,1.7,0,0,0-.6-1.1,1.84,1.84,0,0,0-1.2-.41A1.9,1.9,0,0,0,173.67,18.77Z"/><path class="cls-4" d="M184.88,23.77a2.37,2.37,0,0,1-.77.34,3.85,3.85,0,0,1-1,.11,2.9,2.9,0,0,1-2-.65,2.51,2.51,0,0,1-.72-1.94v-3h-1.14V17.06h1.14V15.3h2.14v1.76h1.83v1.61h-1.83v2.94a1,1,0,0,0,.24.7.87.87,0,0,0,.67.25,1.41,1.41,0,0,0,.87-.27Z"/><path class="cls-4" d="M192.31,17.25a3.37,3.37,0,0,1,1.32,1.3,4.22,4.22,0,0,1,0,3.91,3.37,3.37,0,0,1-1.32,1.3,3.81,3.81,0,0,1-1.87.46,2.88,2.88,0,0,1-2.22-.87v3.37h-2.13V16.89h2v.84a2.83,2.83,0,0,1,2.31-.94A3.81,3.81,0,0,1,192.31,17.25ZM191.42,22a2.26,2.26,0,0,0,0-2.91,2,2,0,0,0-2.7,0,2.26,2.26,0,0,0,0,2.91,1.93,1.93,0,0,0,2.7,0Z"/><path class="cls-4" d="M195.53,14.16h2.14v10h-2.14Z"/><path class="cls-4" d="M205.25,17.59a3,3,0,0,1,.92,2.41v4.12h-2v-.9a2.39,2.39,0,0,1-2.24,1,3.55,3.55,0,0,1-1.48-.28,2.11,2.11,0,0,1-.95-.78,2,2,0,0,1-.33-1.12,1.88,1.88,0,0,1,.78-1.59,4,4,0,0,1,2.39-.57H204a1.34,1.34,0,0,0-.42-1.06,1.92,1.92,0,0,0-1.27-.37,3.8,3.8,0,0,0-1.16.18,3.27,3.27,0,0,0-1,.49l-.76-1.46a4.53,4.53,0,0,1,1.44-.64,6.28,6.28,0,0,1,1.73-.23A3.85,3.85,0,0,1,205.25,17.59Zm-1.82,5a1.36,1.36,0,0,0,.6-.73V21.1h-1.46q-1.32,0-1.32.84a.75.75,0,0,0,.33.64,1.44,1.44,0,0,0,.88.24A1.94,1.94,0,0,0,203.43,22.57Z"/><path class="cls-4" d="M209.63,23.75a3.53,3.53,0,0,1-2-3.24,3.56,3.56,0,0,1,2-3.25,4.68,4.68,0,0,1,2.11-.47,4.23,4.23,0,0,1,2,.47A2.86,2.86,0,0,1,215,18.63l-1.66.87a1.8,1.8,0,0,0-1.65-1,1.9,1.9,0,0,0-1.39.53,2.26,2.26,0,0,0,0,2.93,1.91,1.91,0,0,0,1.39.54,1.78,1.78,0,0,0,1.65-1l1.66.89a2.89,2.89,0,0,1-1.27,1.34,4.12,4.12,0,0,1-2,.48A4.55,4.55,0,0,1,209.63,23.75Z"/><path class="cls-4" d="M223.35,21.1h-5.57a1.73,1.73,0,0,0,.71,1.06,2.38,2.38,0,0,0,1.4.39,3,3,0,0,0,1-.17,2.59,2.59,0,0,0,.83-.53l1.13,1.21a3.85,3.85,0,0,1-3,1.16,4.84,4.84,0,0,1-2.2-.47,3.48,3.48,0,0,1-2-3.24,3.68,3.68,0,0,1,.51-1.92,3.61,3.61,0,0,1,1.41-1.33,4.32,4.32,0,0,1,2-.47,4.25,4.25,0,0,1,2,.45,3.39,3.39,0,0,1,1.37,1.31,3.88,3.88,0,0,1,.5,2S223.38,20.75,223.35,21.1Zm-5-2.33a1.74,1.74,0,0,0-.6,1.11h3.63a1.7,1.7,0,0,0-.6-1.1,1.85,1.85,0,0,0-1.21-.41A1.92,1.92,0,0,0,218.35,18.77Z"/><rect class="cls-6" x="232.33" y="155.02" width="40.74" height="27.46"/><polygon class="cls-6" points="232.33 149.28 245.04 153.49 251.26 153.49 263.16 149.28 232.33 149.28"/><rect class="cls-6" x="243.77" y="153.49" width="8.51" height="1.53"/><rect class="cls-6" x="260.59" y="132.1" width="18.8" height="9.56" rx="2.55" ry="2.55"/><rect class="cls-5" x="262.8" y="133.89" width="14.47" height="5.88" rx="1.15" ry="1.15"/><rect class="cls-6" x="268.39" y="141.66" width="2.67" height="13.36"/><ellipse class="cls-8" cx="269.73" cy="159.13" rx="0.92" ry="0.91"/><path class="cls-8" d="M236.72,159.07a.93.93,0,1,1-.92-.9A.92.92,0,0,1,236.72,159.07Z"/><path class="cls-5" d="M273.12,162.37c0,.1-9.13.19-20.38.19s-20.39-.09-20.39-.19,9.13-.19,20.39-.19S273.12,162.26,273.12,162.37Z"/><path class="cls-5" d="M273.12,155c0,.11-9.13.19-20.38.19s-20.39-.08-20.39-.19,9.13-.19,20.39-.19S273.12,154.92,273.12,155Z"/><rect class="cls-6" x="230.85" y="147.57" width="33.16" height="1.72"/><path class="cls-5" d="M270,179.69a1.46,1.46,0,0,1,0-.26c0-.18,0-.41,0-.71q0-1,0-2.73c0-2.37,0-5.77-.07-10l.13.13-34.24.06L236,166h0v13.66l-.18-.18,24.5.08,7.14,0,1.92,0h0l-1.88,0-7.1.05-24.62.09h-.19V166h0c-.05,0,.36-.36.19-.19l34.24.06h.13V166c0,4.24-.05,7.66-.07,10q0,1.74,0,2.7l0,.69A1.85,1.85,0,0,1,270,179.69Z"/><g class="cls-9"><path d="M230.85,149.29h33c-.14,0-10.88,1.44-17.19,1C241.81,150,230.85,149.29,230.85,149.29Z"/></g><polygon class="cls-2" points="30.84 213.16 30.84 186.37 34.63 181.68 34.63 178.94 45.82 178.94 45.82 182.01 49.52 185.64 49.52 213.16 30.84 213.16"/><rect class="cls-4" x="32.31" y="192.08" width="9.34" height="13.13"/><path class="cls-5" d="M43.64,213.16s0-.11,0-.32l0-.92c0-.86,0-2,0-3.4,0-2.86-.05-6.81-.05-11.18,0-4.21,0-8,0-10.89v0l0,0c.67-1.33,1.23-2.42,1.64-3.23.19-.35.34-.64.47-.87s.17-.3.18-.29a1.46,1.46,0,0,1-.12.32l-.4.9c-.39.82-.92,1.93-1.55,3.27v-.05c0,2.86,0,6.68.05,10.89,0,4.37,0,8.32-.05,11.18,0,1.4,0,2.54-.06,3.4l0,.92A1.34,1.34,0,0,1,43.64,213.16Z"/><path class="cls-5" d="M43.48,186.45a62,62,0,0,1-6.42.17,62.26,62.26,0,0,1-6.43-.17,64.17,64.17,0,0,1,6.43-.16A63.88,63.88,0,0,1,43.48,186.45Z"/><path class="cls-5" d="M45.82,181.57a47.42,47.42,0,0,1-5.76.17,47.42,47.42,0,0,1-5.76-.17,51.52,51.52,0,0,1,5.76-.16A51.52,51.52,0,0,1,45.82,181.57Z"/><polygon class="cls-6" points="10.13 213.16 10.13 186.37 13.91 181.68 13.91 178.94 25.1 178.94 25.1 182.01 28.81 185.64 28.81 213.16 10.13 213.16"/><rect class="cls-4" x="11.59" y="192.08" width="9.34" height="13.13"/><path class="cls-5" d="M22.92,213.16a1,1,0,0,1,0-.32c0-.25,0-.56,0-.92,0-.86,0-2-.05-3.4,0-2.86-.05-6.81-.05-11.18,0-4.21,0-8,0-10.89v0l0,0c.67-1.33,1.23-2.42,1.65-3.23l.46-.87c.11-.2.17-.3.18-.29a1.46,1.46,0,0,1-.12.32l-.4.9c-.39.82-.91,1.93-1.55,3.27v-.05c0,2.86,0,6.68.05,10.89,0,4.37,0,8.32-.05,11.18,0,1.4,0,2.54-.06,3.4l0,.92A1.34,1.34,0,0,1,22.92,213.16Z"/><path class="cls-5" d="M22.76,186.45a62,62,0,0,1-6.42.17,62.26,62.26,0,0,1-6.43-.17,64.17,64.17,0,0,1,6.43-.16A63.88,63.88,0,0,1,22.76,186.45Z"/><path class="cls-5" d="M25.1,181.57a47.42,47.42,0,0,1-5.76.17,47.42,47.42,0,0,1-5.76-.17,51.52,51.52,0,0,1,5.76-.16A51.52,51.52,0,0,1,25.1,181.57Z"/><path class="cls-10" d="M106.53,147.41c-.75-1-2.28-.89-3.37-.35a9.3,9.3,0,0,0-3.26,3.19,49.36,49.36,0,0,0-7,14.44l9.3,1.94a144.86,144.86,0,0,0,4.6-16.32A3.47,3.47,0,0,0,106.53,147.41Z"/><path class="cls-7" d="M94.7,168.45s8.23-10,17-14.52,10.7-3.9,11.07-3.2,0,2.81-3.15,5.59l-13.9,12.34Z"/><path class="cls-7" d="M98.6,176.6s7.27-10.7,15.56-16,10.3-4.83,10.73-4.17.22,2.81-2.62,5.85l-12.71,13.52Z"/><path class="cls-10" d="M104.52,158.62c.11,0-.32,1.22-.43,2.75s.09,2.76,0,2.78a5.2,5.2,0,0,1-.36-2.81A5.12,5.12,0,0,1,104.52,158.62Z"/><path class="cls-10" d="M111.93,159.09a7,7,0,0,1,.57-5.62c.11,0-.35,1.24-.5,2.79S112,159.07,111.93,159.09Z"/><path class="cls-10" d="M108,161.29a5.34,5.34,0,0,1-.3-2.87,5.46,5.46,0,0,1,.87-2.76c.11.05-.35,1.25-.5,2.79S108.1,161.27,108,161.29Z"/><path class="cls-10" d="M121.25,154.78c.07.08-3.08,3-7,6.46s-7.2,6.26-7.27,6.18,3.07-3,7-6.46S121.18,154.7,121.25,154.78Z"/><path class="cls-7" d="M82.46,161.63s10.47-7.36,16.19-9.35,6.78-1.09,6.78.25-1.58,3.83-5,6.39-11.63,8.24-11.63,8.24L77,167.78Z"/><path class="cls-7" d="M67.43,166s8.24-10,17-14.53,10.71-3.89,11.08-3.19,0,2.81-3.16,5.58-13.9,12.35-13.9,12.35Z"/><path class="cls-10" d="M77.25,156.17c.11,0-.31,1.23-.43,2.76s.1,2.76,0,2.78a5.17,5.17,0,0,1-.37-2.82A5.43,5.43,0,0,1,77.25,156.17Z"/><path class="cls-10" d="M84.66,156.65a5.46,5.46,0,0,1-.3-2.87,5.57,5.57,0,0,1,.87-2.76c.11,0-.34,1.25-.49,2.79S84.78,156.63,84.66,156.65Z"/><path class="cls-10" d="M80.72,158.85a5.51,5.51,0,0,1-.3-2.88,5.3,5.3,0,0,1,.88-2.75c.1,0-.35,1.24-.5,2.79S80.84,158.82,80.72,158.85Z"/><path class="cls-10" d="M94,152.33c.07.08-3.07,3-7,6.47s-7.2,6.26-7.27,6.18,3.07-3,7-6.47S93.91,152.25,94,152.33Z"/><path class="cls-10" d="M91,163.5a8.11,8.11,0,0,1-1-5,20.82,20.82,0,0,1,.47,2.52A21.46,21.46,0,0,1,91,163.5Z"/><path class="cls-10" d="M86.67,166.71a5.52,5.52,0,0,1-.91-2.44,5.75,5.75,0,0,1-.09-2.6,21.76,21.76,0,0,1,.47,2.53A21.54,21.54,0,0,1,86.67,166.71Z"/><path class="cls-10" d="M95.27,160.67a5.82,5.82,0,0,1-.85-2.18,6,6,0,0,1-.3-2.33,9.37,9.37,0,0,1,.67,2.23A10,10,0,0,1,95.27,160.67Z"/><path class="cls-10" d="M98.81,158.08a5.63,5.63,0,0,1-.32-2.05,5.91,5.91,0,0,1,.06-2.07,5.57,5.57,0,0,1,.32,2A6,6,0,0,1,98.81,158.08Z"/><rect class="cls-10" x="62.63" y="163.07" width="71.57" height="18.14"/><path class="cls-5" d="M134.2,181.22s0-.12,0-.32,0-.53,0-.93c0-.82,0-2,0-3.55,0-3.11,0-7.63-.06-13.35l.11.12-71.56.07h0l.19-.19v18.15l-.19-.19,51.05.08,15,.06,4.06,0h1.06l.36,0h-1.37l-4,0-15,.06-51.18.08h-.18v-.18c0-5.86,0-11.93,0-18.15v-.19h.2l71.56.08h.12v.11c0,5.75,0,10.29-.06,13.41q0,2.31,0,3.54v.9C134.21,181.12,134.2,181.22,134.2,181.22Z"/><path class="cls-5" d="M134.2,171.85c0,.1-16,.19-35.81.19s-35.83-.09-35.83-.19,16-.19,35.83-.19S134.2,171.74,134.2,171.85Z"/><path class="cls-5" d="M99.07,171.85a22.31,22.31,0,0,1-.19-4.15,22.31,22.31,0,0,1,.19-4.15,23.39,23.39,0,0,1,.19,4.15A23.39,23.39,0,0,1,99.07,171.85Z"/><path class="cls-5" d="M80.65,181.12a29,29,0,0,1-.19-4.63,29.1,29.1,0,0,1,.19-4.64,27.75,27.75,0,0,1,.19,4.64A27.68,27.68,0,0,1,80.65,181.12Z"/><path class="cls-5" d="M120.81,181.29a27.85,27.85,0,0,1-.19-4.64,27.85,27.85,0,0,1,.19-4.64,29.2,29.2,0,0,1,.19,4.64A29.2,29.2,0,0,1,120.81,181.29Z"/><path class="cls-6" d="M31.25,251.91a5.45,5.45,0,0,0-.82-4.12,5.61,5.61,0,0,0-3.56-2.33.43.43,0,0,0-.58.54,6.63,6.63,0,0,0,1.47,3.82,6.76,6.76,0,0,0,3.48,2.24"/><path class="cls-2" d="M23,261.61c1.26,2.9,3.19,4.91,5.68,5.12.5,0,.89-.27,1.37-.27a3.42,3.42,0,0,1,.79.33,1.09,1.09,0,0,0,.41.11c2.59,0,4.87-1.69,6.5-4.6,2.27-4.07,1.85-8.58-.93-10.08a7,7,0,0,0-1.14-.5,5.07,5.07,0,0,0-1.41-.23,10.76,10.76,0,0,0-3.27.57l-.14,0a6.79,6.79,0,0,0-5.95-.44C22,252.89,21.1,257.34,23,261.61Z"/><path class="cls-13" d="M23.22,257.38a2,2,0,0,1-.2-.84,4.45,4.45,0,0,1,.36-2.08,4.53,4.53,0,0,1,1.27-1.69,2.37,2.37,0,0,1,.76-.45s-.27.19-.66.55a4.92,4.92,0,0,0-1.19,1.67,4.84,4.84,0,0,0-.4,2C23.17,257.05,23.25,257.38,23.22,257.38Z"/><path class="cls-13" d="M23.64,259.39c-.05,0-.13-.19-.18-.45s0-.47,0-.48.14.19.18.45S23.7,259.38,23.64,259.39Z"/><path class="cls-5" d="M37.47,245.36s-.54.21-1.37.65a10.12,10.12,0,0,0-1.38.87,11.17,11.17,0,0,0-1.48,1.33,11.4,11.4,0,0,0-1.19,1.57,10.61,10.61,0,0,0-.75,1.44c-.35.85-.47,1.41-.51,1.4a1.73,1.73,0,0,1,.07-.4,4.11,4.11,0,0,1,.11-.45c.06-.18.11-.39.2-.6a9.56,9.56,0,0,1,1.93-3.09,10.87,10.87,0,0,1,1.51-1.35,10.45,10.45,0,0,1,1.43-.85,5.34,5.34,0,0,1,.58-.25,2.48,2.48,0,0,1,.45-.16A2.43,2.43,0,0,1,37.47,245.36Z"/><path class="cls-6" d="M18.57,235.45a5.42,5.42,0,0,0-.82-4.12A5.62,5.62,0,0,0,14.19,229a.55.55,0,0,0-.4,0,.55.55,0,0,0-.17.52,6.55,6.55,0,0,0,1.46,3.82,6.84,6.84,0,0,0,3.48,2.25"/><path class="cls-2" d="M10.28,245.15c1.27,2.9,3.19,4.91,5.68,5.12.5,0,.9-.26,1.37-.27a3.25,3.25,0,0,1,.79.33,1.35,1.35,0,0,0,.41.12c2.59,0,4.88-1.7,6.51-4.6,2.26-4.08,1.85-8.59-.93-10.08a7.53,7.53,0,0,0-1.15-.51,5,5,0,0,0-1.41-.23,11.13,11.13,0,0,0-3.27.57l-.14,0a6.79,6.79,0,0,0-6-.44C9.28,236.43,8.42,240.88,10.28,245.15Z"/><path class="cls-13" d="M10.54,240.93a2.06,2.06,0,0,1-.19-.85A4.42,4.42,0,0,1,10.7,238,4.62,4.62,0,0,1,12,236.31a2.16,2.16,0,0,1,.76-.45s-.28.2-.67.55a5.2,5.2,0,0,0-1.19,1.67,5.08,5.08,0,0,0-.4,2C10.49,240.6,10.58,240.92,10.54,240.93Z"/><path class="cls-13" d="M11,242.93c-.06,0-.14-.19-.19-.45s0-.47,0-.48.14.19.19.45S11,242.92,11,242.93Z"/><path class="cls-5" d="M24.79,228.9s-.54.21-1.37.65a11.2,11.2,0,0,0-1.38.87,11.78,11.78,0,0,0-1.47,1.33,10.31,10.31,0,0,0-1.2,1.58,9.87,9.87,0,0,0-.74,1.43c-.36.85-.48,1.41-.51,1.4a1.27,1.27,0,0,1,.06-.39,2.62,2.62,0,0,1,.12-.46,5.26,5.26,0,0,1,.2-.6,9.73,9.73,0,0,1,.71-1.48,11.88,11.88,0,0,1,1.21-1.61,10.87,10.87,0,0,1,1.51-1.35,9.38,9.38,0,0,1,1.43-.84c.21-.11.41-.19.58-.26a3.67,3.67,0,0,1,.46-.16A2.22,2.22,0,0,1,24.79,228.9Z"/><path class="cls-6" d="M47.58,235.45a5.42,5.42,0,0,0-.83-4.12A5.62,5.62,0,0,0,43.19,229a.55.55,0,0,0-.4,0,.57.57,0,0,0-.17.52,6.55,6.55,0,0,0,1.46,3.82,6.88,6.88,0,0,0,3.48,2.25"/><path class="cls-2" d="M39.29,245.15c1.26,2.9,3.18,4.91,5.68,5.12.5,0,.89-.26,1.37-.27a3.19,3.19,0,0,1,.78.33,1.44,1.44,0,0,0,.41.12c2.59,0,4.88-1.7,6.51-4.6,2.27-4.08,1.85-8.59-.93-10.08a7.12,7.12,0,0,0-1.15-.51,4.94,4.94,0,0,0-1.4-.23,11.14,11.14,0,0,0-3.28.57l-.14,0a6.79,6.79,0,0,0-6-.44C38.28,236.43,37.42,240.88,39.29,245.15Z"/><path class="cls-13" d="M39.54,240.93a2.28,2.28,0,0,1-.19-.85,4.32,4.32,0,0,1,.36-2.08A4.5,4.5,0,0,1,41,236.31a2.16,2.16,0,0,1,.76-.45s-.27.2-.67.55a5,5,0,0,0-1.18,1.67,4.74,4.74,0,0,0-.4,2C39.5,240.6,39.58,240.92,39.54,240.93Z"/><path class="cls-13" d="M40,242.93s-.14-.19-.18-.45,0-.47,0-.48.13.19.18.45S40,242.92,40,242.93Z"/><path class="cls-5" d="M53.8,228.9s-.55.21-1.37.65a9.88,9.88,0,0,0-1.38.87,11.17,11.17,0,0,0-1.48,1.33,10.46,10.46,0,0,0-1.94,3c-.35.85-.47,1.41-.51,1.4a1.87,1.87,0,0,1,.06-.39,4,4,0,0,1,.12-.46c.06-.18.11-.38.2-.6a9,9,0,0,1,.72-1.48,11,11,0,0,1,1.2-1.61,10.38,10.38,0,0,1,1.52-1.35,9.33,9.33,0,0,1,1.42-.84,5.64,5.64,0,0,1,.59-.26,3.11,3.11,0,0,1,.45-.16A2,2,0,0,1,53.8,228.9Z"/><path class="cls-6" d="M33,235.62a5.45,5.45,0,0,0-.82-4.12,5.61,5.61,0,0,0-3.56-2.33.43.43,0,0,0-.58.54,6.63,6.63,0,0,0,1.47,3.82A6.76,6.76,0,0,0,33,235.77"/><path class="cls-2" d="M24.71,245.32c1.26,2.9,3.19,4.91,5.68,5.12.5,0,.89-.27,1.37-.27a3.42,3.42,0,0,1,.79.33,1.09,1.09,0,0,0,.41.11c2.59,0,4.87-1.69,6.5-4.59,2.27-4.08,1.85-8.59-.93-10.09a7.92,7.92,0,0,0-1.14-.5A5.07,5.07,0,0,0,36,235.2a10.76,10.76,0,0,0-3.27.57l-.14,0a6.79,6.79,0,0,0-5.95-.44C23.7,236.6,22.85,241.05,24.71,245.32Z"/><g class="cls-9"><path d="M24.71,245.32c1.26,2.9,3.19,4.91,5.68,5.12.5,0,.89-.27,1.37-.27a3.42,3.42,0,0,1,.79.33,1.09,1.09,0,0,0,.41.11c2.59,0,4.87-1.69,6.5-4.59,2.27-4.08,1.85-8.59-.93-10.09a7.92,7.92,0,0,0-1.14-.5A5.07,5.07,0,0,0,36,235.2a10.76,10.76,0,0,0-3.27.57l-.14,0a6.79,6.79,0,0,0-5.95-.44C23.7,236.6,22.85,241.05,24.71,245.32Z"/></g><path class="cls-13" d="M25,241.1a2.15,2.15,0,0,1-.2-.85,4.45,4.45,0,0,1,.36-2.08,4.61,4.61,0,0,1,1.27-1.69,2.26,2.26,0,0,1,.76-.45s-.27.2-.66.55a4.88,4.88,0,0,0-1.59,3.66C24.92,240.77,25,241.09,25,241.1Z"/><path class="cls-13" d="M25.39,243.1c-.05,0-.13-.19-.18-.45s0-.47,0-.48.14.19.18.45S25.45,243.09,25.39,243.1Z"/><path class="cls-5" d="M39.22,229.07s-.54.21-1.37.65a10.69,10.69,0,0,0-2.86,2.2,10.12,10.12,0,0,0-1.94,3c-.35.85-.47,1.41-.51,1.4a1.62,1.62,0,0,1,.07-.39,3.74,3.74,0,0,1,.11-.46c.06-.18.11-.38.2-.6a9.56,9.56,0,0,1,1.93-3.09,10.87,10.87,0,0,1,1.51-1.35,9.38,9.38,0,0,1,1.43-.84,4,4,0,0,1,.58-.26,2.48,2.48,0,0,1,.45-.16Z"/><path class="cls-6" d="M45.69,251.91a5.41,5.41,0,0,0-.82-4.12,5.58,5.58,0,0,0-3.56-2.33.55.55,0,0,0-.4,0c-.17.1-.18.33-.17.52a6.55,6.55,0,0,0,1.46,3.82,6.76,6.76,0,0,0,3.48,2.24"/><path class="cls-2" d="M37.4,261.61c1.27,2.9,3.19,4.91,5.68,5.12.5,0,.9-.27,1.37-.27a3.25,3.25,0,0,1,.79.33,1.09,1.09,0,0,0,.41.11c2.59,0,4.88-1.69,6.5-4.6,2.27-4.07,1.86-8.58-.93-10.08a7,7,0,0,0-1.14-.5,5,5,0,0,0-1.41-.23,10.76,10.76,0,0,0-3.27.57l-.14,0a6.79,6.79,0,0,0-5.95-.44C36.39,252.89,35.54,257.34,37.4,261.61Z"/><g class="cls-9"><path d="M37.4,261.61c1.27,2.9,3.19,4.91,5.68,5.12.5,0,.9-.27,1.37-.27a3.25,3.25,0,0,1,.79.33,1.09,1.09,0,0,0,.41.11c2.59,0,4.88-1.69,6.5-4.6,2.27-4.07,1.86-8.58-.93-10.08a7,7,0,0,0-1.14-.5,5,5,0,0,0-1.41-.23,10.76,10.76,0,0,0-3.27.57l-.14,0a6.79,6.79,0,0,0-5.95-.44C36.39,252.89,35.54,257.34,37.4,261.61Z"/></g><path class="cls-13" d="M37.66,257.38a2,2,0,0,1-.2-.84,4.48,4.48,0,0,1,1.64-3.77,2.16,2.16,0,0,1,.76-.45s-.28.19-.67.55A5.2,5.2,0,0,0,38,254.54a5,5,0,0,0-.4,2C37.61,257.05,37.69,257.38,37.66,257.38Z"/><path class="cls-13" d="M38.09,259.39c-.06,0-.14-.19-.19-.45s0-.47,0-.48.14.19.19.45S38.14,259.38,38.09,259.39Z"/><path class="cls-5" d="M51.91,245.36s-.54.21-1.37.65a10.12,10.12,0,0,0-1.38.87,11.12,11.12,0,0,0-1.47,1.33,10.76,10.76,0,0,0-1.2,1.57,9.44,9.44,0,0,0-.74,1.44c-.36.85-.48,1.41-.51,1.4a1.35,1.35,0,0,1,.06-.4,2.79,2.79,0,0,1,.12-.45,4.68,4.68,0,0,1,.2-.6,9.73,9.73,0,0,1,.71-1.48,10.58,10.58,0,0,1,1.21-1.61,10.87,10.87,0,0,1,1.51-1.35,10.45,10.45,0,0,1,1.43-.85c.21-.11.41-.18.58-.25a2.55,2.55,0,0,1,.46-.16A2.22,2.22,0,0,1,51.91,245.36Z"/><path class="cls-6" d="M16.82,252.34a5.41,5.41,0,0,0-.82-4.12,5.62,5.62,0,0,0-3.56-2.33.55.55,0,0,0-.4,0,.57.57,0,0,0-.17.52,6.55,6.55,0,0,0,1.46,3.82,6.84,6.84,0,0,0,3.48,2.25"/><path class="cls-2" d="M8.53,262c1.27,2.9,3.19,4.91,5.68,5.12.5,0,.9-.27,1.37-.27a3.25,3.25,0,0,1,.79.33,1.09,1.09,0,0,0,.41.11c2.59,0,4.88-1.69,6.51-4.59,2.27-4.08,1.85-8.59-.93-10.08a7.53,7.53,0,0,0-1.15-.51,5,5,0,0,0-1.41-.23,11.13,11.13,0,0,0-3.27.57l-.14,0a6.79,6.79,0,0,0-6-.44C7.53,253.32,6.67,257.77,8.53,262Z"/><g class="cls-9"><path d="M8.53,262c1.27,2.9,3.19,4.91,5.68,5.12.5,0,.9-.27,1.37-.27a3.25,3.25,0,0,1,.79.33,1.09,1.09,0,0,0,.41.11c2.59,0,4.88-1.69,6.51-4.59,2.27-4.08,1.85-8.59-.93-10.08a7.53,7.53,0,0,0-1.15-.51,5,5,0,0,0-1.41-.23,11.13,11.13,0,0,0-3.27.57l-.14,0a6.79,6.79,0,0,0-6-.44C7.53,253.32,6.67,257.77,8.53,262Z"/></g><path class="cls-13" d="M8.79,257.82A2.06,2.06,0,0,1,8.6,257,4.42,4.42,0,0,1,9,254.89a4.62,4.62,0,0,1,1.28-1.69,2.16,2.16,0,0,1,.76-.45s-.28.2-.67.55A5.2,5.2,0,0,0,9.13,255a5.08,5.08,0,0,0-.4,2C8.74,257.49,8.83,257.81,8.79,257.82Z"/><path class="cls-13" d="M9.22,259.82c-.06,0-.14-.19-.19-.45s0-.47,0-.48.14.19.19.45S9.27,259.81,9.22,259.82Z"/><path class="cls-5" d="M23,245.79s-.54.21-1.37.65a11.2,11.2,0,0,0-1.38.87,11.78,11.78,0,0,0-1.47,1.33,10.31,10.31,0,0,0-1.2,1.58,9.38,9.38,0,0,0-.74,1.43c-.36.85-.48,1.41-.51,1.4a1.27,1.27,0,0,1,.06-.39,2.62,2.62,0,0,1,.12-.46,5.26,5.26,0,0,1,.2-.6,9.73,9.73,0,0,1,.71-1.48,11.88,11.88,0,0,1,1.21-1.61,10.38,10.38,0,0,1,1.52-1.35,9.33,9.33,0,0,1,1.42-.84c.21-.11.41-.19.58-.26a3.67,3.67,0,0,1,.46-.16Z"/><rect class="cls-14" y="243.77" width="64.31" height="9.31"/><rect class="cls-14" y="260.84" width="64.31" height="9.31"/><rect class="cls-14" x="3.04" y="239.1" width="7.91" height="30.82"/><rect class="cls-14" x="52.98" y="239.1" width="7.91" height="30.82"/><path class="cls-5" d="M64.18,253.18c0,.11-14.34.2-32,.2s-32-.09-32-.2,14.34-.19,32-.19S64.18,253.08,64.18,253.18Z"/><path class="cls-5" d="M64.18,260.84c0,.11-14.34.19-32,.19s-32-.08-32-.19,14.34-.19,32-.19S64.18,260.73,64.18,260.84Z"/><path class="cls-5" d="M64.18,243.68c0,.1-14.34.19-32,.19s-32-.09-32-.19,14.34-.19,32-.19S64.18,243.57,64.18,243.68Z"/><path class="cls-6" d="M309.66,281.37a5.43,5.43,0,0,0-.83-4.12,5.66,5.66,0,0,0-3.56-2.33.61.61,0,0,0-.4,0,.56.56,0,0,0-.17.52,6.55,6.55,0,0,0,1.46,3.82,6.8,6.8,0,0,0,3.48,2.24"/><path class="cls-2" d="M301.37,291.07c1.26,2.91,3.18,4.91,5.68,5.12.49,0,.89-.26,1.37-.26a2.84,2.84,0,0,1,.78.33,1.14,1.14,0,0,0,.41.11c2.59,0,4.88-1.69,6.51-4.6,2.27-4.07,1.85-8.58-.93-10.08a7,7,0,0,0-1.15-.5,4.94,4.94,0,0,0-1.4-.23,10.75,10.75,0,0,0-3.28.56l-.14.05a6.75,6.75,0,0,0-6-.44C300.36,282.36,299.5,286.81,301.37,291.07Z"/><path class="cls-13" d="M301.62,286.85a2,2,0,0,1-.19-.85,4.29,4.29,0,0,1,.36-2.07,4.42,4.42,0,0,1,1.27-1.69,2.32,2.32,0,0,1,.76-.46s-.27.2-.67.56A5,5,0,0,0,302,284a4.75,4.75,0,0,0-.4,2C301.58,286.52,301.66,286.84,301.62,286.85Z"/><path class="cls-13" d="M302.05,288.86c-.06,0-.14-.19-.18-.45s-.05-.47,0-.48.13.19.18.45S302.1,288.85,302.05,288.86Z"/><path class="cls-5" d="M315.88,274.83s-.55.21-1.37.64a10.91,10.91,0,0,0-1.38.87,11.92,11.92,0,0,0-1.48,1.33,11.58,11.58,0,0,0-1.2,1.58,9.44,9.44,0,0,0-.74,1.44c-.35.85-.47,1.41-.51,1.4a2,2,0,0,1,.06-.4,4.56,4.56,0,0,1,.12-.46c.06-.17.11-.38.2-.59a9.3,9.3,0,0,1,.71-1.48,11.94,11.94,0,0,1,1.21-1.62A10.9,10.9,0,0,1,313,276.2a9.46,9.46,0,0,1,1.42-.85,5.44,5.44,0,0,1,.59-.25,3.3,3.3,0,0,1,.45-.17A1.54,1.54,0,0,1,315.88,274.83Z"/><path class="cls-6" d="M297,264.92a5.45,5.45,0,0,0-.82-4.12,5.63,5.63,0,0,0-3.56-2.33.43.43,0,0,0-.58.54,6.63,6.63,0,0,0,1.47,3.82,6.73,6.73,0,0,0,3.47,2.24"/><path class="cls-2" d="M288.69,274.62c1.26,2.9,3.19,4.91,5.68,5.12.5,0,.89-.27,1.37-.27a3.42,3.42,0,0,1,.79.33,1.09,1.09,0,0,0,.41.11c2.59,0,4.87-1.69,6.5-4.6,2.27-4.07,1.85-8.58-.93-10.08a7.34,7.34,0,0,0-1.14-.5,5.07,5.07,0,0,0-1.41-.23,10.71,10.71,0,0,0-3.27.57l-.14,0a6.79,6.79,0,0,0-5.95-.44C287.68,265.9,286.83,270.35,288.69,274.62Z"/><path class="cls-13" d="M289,270.39a2,2,0,0,1-.2-.85,4.5,4.5,0,0,1,1.63-3.76,2.26,2.26,0,0,1,.76-.45s-.27.19-.66.55a4.92,4.92,0,0,0-1.19,1.67,4.84,4.84,0,0,0-.4,2C288.9,270.06,289,270.39,289,270.39Z"/><path class="cls-13" d="M289.37,272.4c-.05,0-.13-.19-.18-.45s0-.47,0-.48.14.19.18.45S289.43,272.39,289.37,272.4Z"/><path class="cls-5" d="M303.2,258.37s-.55.21-1.37.65a9.74,9.74,0,0,0-1.38.86,12.77,12.77,0,0,0-1.48,1.33,13.2,13.2,0,0,0-1.2,1.58,11.69,11.69,0,0,0-.74,1.44c-.35.85-.47,1.41-.51,1.4a1.73,1.73,0,0,1,.07-.4c0-.12.06-.28.11-.46s.11-.38.2-.59a9,9,0,0,1,.72-1.48,10.49,10.49,0,0,1,1.2-1.61,10.92,10.92,0,0,1,1.52-1.35,10,10,0,0,1,1.42-.85c.21-.11.42-.18.59-.25a3.87,3.87,0,0,1,.45-.17Z"/><path class="cls-6" d="M326,264.92a5.45,5.45,0,0,0-.82-4.12,5.58,5.58,0,0,0-3.56-2.33.55.55,0,0,0-.4,0c-.17.1-.18.33-.18.52a6.63,6.63,0,0,0,1.47,3.82,6.76,6.76,0,0,0,3.48,2.24"/><path class="cls-2" d="M317.69,274.62c1.27,2.9,3.19,4.91,5.68,5.12.5,0,.89-.27,1.37-.27a3.25,3.25,0,0,1,.79.33,1.09,1.09,0,0,0,.41.11c2.59,0,4.88-1.69,6.5-4.6,2.27-4.07,1.86-8.58-.93-10.08a7,7,0,0,0-1.14-.5,5.07,5.07,0,0,0-1.41-.23,10.76,10.76,0,0,0-3.27.57l-.14,0a6.79,6.79,0,0,0-5.95-.44C316.68,265.9,315.83,270.35,317.69,274.62Z"/><path class="cls-13" d="M318,270.39a2,2,0,0,1-.2-.85,4.43,4.43,0,0,1,.36-2.07,4.54,4.54,0,0,1,1.28-1.69,2.16,2.16,0,0,1,.76-.45s-.28.19-.67.55a4.92,4.92,0,0,0-1.19,1.67,5,5,0,0,0-.4,2C317.9,270.06,318,270.39,318,270.39Z"/><path class="cls-13" d="M318.37,272.4c-.05,0-.13-.19-.18-.45s0-.47,0-.48.14.19.19.45S318.43,272.39,318.37,272.4Z"/><path class="cls-5" d="M332.2,258.37s-.54.21-1.37.65a11,11,0,0,0-1.38.86,12.77,12.77,0,0,0-1.48,1.33,12.1,12.1,0,0,0-1.19,1.58,9.44,9.44,0,0,0-.74,1.44c-.36.85-.48,1.41-.52,1.4a1.73,1.73,0,0,1,.07-.4,3.17,3.17,0,0,1,.12-.46,5.15,5.15,0,0,1,.2-.59,9.73,9.73,0,0,1,.71-1.48,10,10,0,0,1,1.21-1.61,10.87,10.87,0,0,1,1.51-1.35,9.52,9.52,0,0,1,1.43-.85c.21-.11.41-.18.58-.25a3.87,3.87,0,0,1,.45-.17Z"/><path class="cls-6" d="M311.41,265.09a5.42,5.42,0,0,0-.83-4.12,5.64,5.64,0,0,0-3.56-2.34.61.61,0,0,0-.4,0,.56.56,0,0,0-.17.52,6.55,6.55,0,0,0,1.46,3.82,6.76,6.76,0,0,0,3.48,2.24"/><path class="cls-2" d="M303.11,274.79c1.27,2.9,3.19,4.9,5.69,5.11.49.05.89-.26,1.37-.26a2.84,2.84,0,0,1,.78.33,1.14,1.14,0,0,0,.41.11c2.59,0,4.88-1.69,6.51-4.6,2.27-4.07,1.85-8.58-.93-10.08a7,7,0,0,0-1.15-.5,4.94,4.94,0,0,0-1.4-.23,10.82,10.82,0,0,0-3.28.57l-.14,0a6.75,6.75,0,0,0-6-.44C302.11,266.07,301.25,270.52,303.11,274.79Z"/><g class="cls-9"><path d="M303.11,274.79c1.27,2.9,3.19,4.9,5.69,5.11.49.05.89-.26,1.37-.26a2.84,2.84,0,0,1,.78.33,1.14,1.14,0,0,0,.41.11c2.59,0,4.88-1.69,6.51-4.6,2.27-4.07,1.85-8.58-.93-10.08a7,7,0,0,0-1.15-.5,4.94,4.94,0,0,0-1.4-.23,10.82,10.82,0,0,0-3.28.57l-.14,0a6.75,6.75,0,0,0-6-.44C302.11,266.07,301.25,270.52,303.11,274.79Z"/></g><path class="cls-13" d="M303.37,270.56a2,2,0,0,1-.19-.85,4.29,4.29,0,0,1,.36-2.07,4.42,4.42,0,0,1,1.27-1.69,2,2,0,0,1,.76-.45s-.28.19-.67.55a5,5,0,0,0-1.18,1.66,4.75,4.75,0,0,0-.4,2C303.33,270.23,303.41,270.55,303.37,270.56Z"/><path class="cls-13" d="M303.8,272.57c-.06,0-.14-.19-.18-.45s-.05-.47,0-.48.13.19.18.45S303.85,272.56,303.8,272.57Z"/><path class="cls-5" d="M317.63,258.54s-.55.21-1.37.64a10.91,10.91,0,0,0-1.38.87,11.92,11.92,0,0,0-1.48,1.33,12.22,12.22,0,0,0-1.2,1.58,9.44,9.44,0,0,0-.74,1.44c-.35.85-.47,1.41-.51,1.4a1.35,1.35,0,0,1,.06-.4,4.56,4.56,0,0,1,.12-.46c.06-.17.11-.38.2-.59a9.73,9.73,0,0,1,.71-1.48,11.94,11.94,0,0,1,1.21-1.62,10.9,10.9,0,0,1,1.52-1.34,9.46,9.46,0,0,1,1.42-.85,5.44,5.44,0,0,1,.59-.25,3.3,3.3,0,0,1,.45-.17A2.31,2.31,0,0,1,317.63,258.54Z"/><path class="cls-6" d="M324.1,281.37a5.47,5.47,0,0,0-.82-4.12,5.71,5.71,0,0,0-3.56-2.33.6.6,0,0,0-.4,0,.54.54,0,0,0-.18.52,6.56,6.56,0,0,0,1.47,3.82,6.73,6.73,0,0,0,3.47,2.24"/><path class="cls-2" d="M315.81,291.07c1.26,2.91,3.18,4.91,5.68,5.12.5,0,.89-.26,1.37-.26a2.84,2.84,0,0,1,.78.33,1.19,1.19,0,0,0,.42.11c2.58,0,4.87-1.69,6.5-4.6,2.27-4.07,1.85-8.58-.93-10.08a7.34,7.34,0,0,0-1.14-.5,5.07,5.07,0,0,0-1.41-.23,10.65,10.65,0,0,0-3.27.56l-.15.05a6.73,6.73,0,0,0-5.94-.44C314.8,282.36,314,286.81,315.81,291.07Z"/><g class="cls-9"><path d="M315.81,291.07c1.26,2.91,3.18,4.91,5.68,5.12.5,0,.89-.26,1.37-.26a2.84,2.84,0,0,1,.78.33,1.19,1.19,0,0,0,.42.11c2.58,0,4.87-1.69,6.5-4.6,2.27-4.07,1.85-8.58-.93-10.08a7.34,7.34,0,0,0-1.14-.5,5.07,5.07,0,0,0-1.41-.23,10.65,10.65,0,0,0-3.27.56l-.15.05a6.73,6.73,0,0,0-5.94-.44C314.8,282.36,314,286.81,315.81,291.07Z"/></g><path class="cls-13" d="M316.07,286.85a2.08,2.08,0,0,1-.2-.85,4.5,4.5,0,0,1,1.63-3.76,2.32,2.32,0,0,1,.76-.46s-.27.2-.67.56a5,5,0,0,0-1.18,1.66,4.92,4.92,0,0,0-.4,2C316,286.52,316.1,286.84,316.07,286.85Z"/><path class="cls-13" d="M316.49,288.86c-.05,0-.13-.19-.18-.45s0-.47,0-.48.13.19.18.45S316.54,288.85,316.49,288.86Z"/><path class="cls-5" d="M330.32,274.83s-.55.21-1.37.64a10.91,10.91,0,0,0-1.38.87,11.92,11.92,0,0,0-1.48,1.33,12.45,12.45,0,0,0-1.2,1.58,11.69,11.69,0,0,0-.74,1.44c-.35.85-.47,1.41-.51,1.4a2,2,0,0,1,.06-.4c0-.13.07-.28.12-.46s.11-.38.2-.59a8.62,8.62,0,0,1,.72-1.48,11.06,11.06,0,0,1,1.2-1.62,11.5,11.5,0,0,1,1.52-1.34,10,10,0,0,1,1.42-.85c.21-.11.42-.18.59-.25a3.3,3.3,0,0,1,.45-.17A1.64,1.64,0,0,1,330.32,274.83Z"/><path class="cls-6" d="M295.23,281.81a5.45,5.45,0,0,0-.82-4.12,5.69,5.69,0,0,0-3.56-2.34.6.6,0,0,0-.4,0,.54.54,0,0,0-.18.52,6.63,6.63,0,0,0,1.47,3.82,6.73,6.73,0,0,0,3.47,2.24"/><path class="cls-2" d="M286.94,291.51c1.26,2.9,3.19,4.9,5.68,5.12.5,0,.89-.27,1.37-.27a3,3,0,0,1,.79.33,1.09,1.09,0,0,0,.41.11c2.59,0,4.87-1.69,6.5-4.6,2.27-4.07,1.85-8.58-.93-10.08a7,7,0,0,0-1.14-.5,5.07,5.07,0,0,0-1.41-.23,10.71,10.71,0,0,0-3.27.57l-.14,0a6.76,6.76,0,0,0-5.95-.44C285.93,282.79,285.08,287.24,286.94,291.51Z"/><g class="cls-9"><path d="M286.94,291.51c1.26,2.9,3.19,4.9,5.68,5.12.5,0,.89-.27,1.37-.27a3,3,0,0,1,.79.33,1.09,1.09,0,0,0,.41.11c2.59,0,4.87-1.69,6.5-4.6,2.27-4.07,1.85-8.58-.93-10.08a7,7,0,0,0-1.14-.5,5.07,5.07,0,0,0-1.41-.23,10.71,10.71,0,0,0-3.27.57l-.14,0a6.76,6.76,0,0,0-5.95-.44C285.93,282.79,285.08,287.24,286.94,291.51Z"/></g><path class="cls-13" d="M287.2,287.28a2,2,0,0,1-.2-.85,4.5,4.5,0,0,1,1.63-3.76,2.06,2.06,0,0,1,.76-.45s-.27.19-.66.55a4.92,4.92,0,0,0-1.19,1.67,4.84,4.84,0,0,0-.4,2C287.15,287,287.23,287.28,287.2,287.28Z"/><path class="cls-13" d="M287.62,289.29c-.05,0-.13-.19-.18-.45s0-.47,0-.48.14.19.18.45S287.68,289.28,287.62,289.29Z"/><path class="cls-5" d="M301.45,275.26s-.55.21-1.37.64a10.91,10.91,0,0,0-1.38.87,11.92,11.92,0,0,0-1.48,1.33,13.2,13.2,0,0,0-1.2,1.58,11.69,11.69,0,0,0-.74,1.44c-.35.85-.47,1.41-.51,1.4a1.73,1.73,0,0,1,.07-.4c0-.12.06-.28.11-.46s.11-.38.2-.59a9,9,0,0,1,.72-1.48,10.47,10.47,0,0,1,1.21-1.62,10.84,10.84,0,0,1,1.51-1.34,9.52,9.52,0,0,1,1.43-.85,5.34,5.34,0,0,1,.58-.25,3.87,3.87,0,0,1,.45-.17Z"/><rect class="cls-14" x="278.41" y="273.24" width="64.31" height="9.31"/><rect class="cls-14" x="278.41" y="290.31" width="64.31" height="9.31"/><rect class="cls-14" x="281.45" y="268.57" width="7.91" height="30.82"/><rect class="cls-14" x="331.39" y="268.57" width="7.91" height="30.82"/><path class="cls-5" d="M342.58,282.65c0,.11-14.34.19-32,.19s-32-.08-32-.19,14.33-.19,32-.19S342.58,282.55,342.58,282.65Z"/><path class="cls-5" d="M342.58,290.31c0,.1-14.34.19-32,.19s-32-.09-32-.19,14.33-.19,32-.19S342.58,290.2,342.58,290.31Z"/><path class="cls-5" d="M342.58,273.14c0,.11-14.34.2-32,.2s-32-.09-32-.2,14.33-.19,32-.19S342.58,273,342.58,273.14Z"/><path class="cls-6" d="M229.53,264.75s4.37,3.47,5.08,8.11a19.5,19.5,0,0,1,0,7.29,8.46,8.46,0,0,0,4.49,1,9.19,9.19,0,0,0,4.72-1.16,27,27,0,0,1-.59-6.83c0-4.86,5-8.45,5-8.45L246,263a32.89,32.89,0,0,0-4.9,5.69V262.2h-4.37V269a16.34,16.34,0,0,0-4.6-5.79Z"/><g class="cls-9"><path d="M229.53,264.75s4.37,3.47,5.08,8.11a19.5,19.5,0,0,1,0,7.29,8.46,8.46,0,0,0,4.49,1,9.19,9.19,0,0,0,4.72-1.16,27,27,0,0,1-.59-6.83c0-4.86,5-8.45,5-8.45L246,263a32.89,32.89,0,0,0-4.9,5.69V262.2h-4.37V269a16.34,16.34,0,0,0-4.6-5.79Z"/></g><path class="cls-6" d="M227.64,268.09c-4.17.45-6.83-2.62-6.32-6a5.65,5.65,0,0,1-3.87-6.6c.77-3.28,4.46-4.53,7.19-4a6.53,6.53,0,0,1,3.57-6.53,6.8,6.8,0,0,1,7.47,1.18,8.3,8.3,0,0,1,8.51-3.62,8.12,8.12,0,0,1,6.29,6.67,5.37,5.37,0,0,1,7.26,1.08,5.11,5.11,0,0,1-1.39,7.06,5.45,5.45,0,0,1,2.74,5.66,5.54,5.54,0,0,1-4.64,4.31,4.9,4.9,0,0,1-5.35-2.51c-1.17,1-3.2.7-4.56,0a3.94,3.94,0,0,1-2.13-3.69c-.84,1.74-2.81,2.59-4.77,2.82s-3-.56-4.66-2.28C232.66,265.67,231.21,267.7,227.64,268.09Z"/><g class="cls-9"><path d="M247.87,255.17a4.66,4.66,0,0,1-.22-.7,4.16,4.16,0,0,0-1.08-1.64,3.82,3.82,0,0,0-5.73.37A3.72,3.72,0,0,0,240,255l-.09.62-.26-.57a3.07,3.07,0,0,0-2.1-1.66,3,3,0,0,0-2.16.38,3.79,3.79,0,0,0-1.34,1.52,1.12,1.12,0,0,1,.17-.54,3.17,3.17,0,0,1,3.39-1.66,3.32,3.32,0,0,1,2.38,1.82l-.35,0a4,4,0,0,1,.89-2,4.37,4.37,0,0,1,3.41-1.6,4.24,4.24,0,0,1,2.81,1.28,3.89,3.89,0,0,1,1,1.78A1.82,1.82,0,0,1,247.87,255.17Z"/></g><g class="cls-9"><path d="M221.9,260.48s-.09-.29.07-.74a2.69,2.69,0,0,1,1.2-1.38A2.86,2.86,0,0,1,225,258c.47.09.72.27.7.31s-.3,0-.73-.05a3.16,3.16,0,0,0-2.75,1.59C222,260.22,222,260.49,221.9,260.48Z"/></g><path class="cls-6" d="M267.72,256.58s1.33,4.54-.49,8.13a17.14,17.14,0,0,1-3.65,5.12,7.07,7.07,0,0,0,2.63,2.89,7.87,7.87,0,0,0,3.89,1.46,23.68,23.68,0,0,1,3-5.08c2.44-3.41,7.71-3.54,7.71-3.54l-.63-2.31a28.84,28.84,0,0,0-6.29,1.64l3.23-4.53-3.07-2.1L270.66,263a13.69,13.69,0,0,0-.33-6.27Z"/><g class="cls-9"><path d="M267.72,256.58s1.33,4.54-.49,8.13a17.14,17.14,0,0,1-3.65,5.12,7.07,7.07,0,0,0,2.63,2.89,7.87,7.87,0,0,0,3.89,1.46,23.68,23.68,0,0,1,3-5.08c2.44-3.41,7.71-3.54,7.71-3.54l-.63-2.31a28.84,28.84,0,0,0-6.29,1.64l3.23-4.53-3.07-2.1L270.66,263a13.69,13.69,0,0,0-.33-6.27Z"/></g><path class="cls-6" d="M264.73,258c-3.16-1.69-3.49-5.12-1.44-7.25a4.76,4.76,0,0,1,.59-6.49c2.18-1.93,5.4-1,7,.69a5.76,5.76,0,0,1,5.78-2.87,5.7,5.7,0,0,1,4.65,4.43,7.14,7.14,0,0,1,7.78,1.55,6.79,6.79,0,0,1,1.08,7.71,4.28,4.28,0,1,1,0,8.54,4.62,4.62,0,0,1-.91,5.29,4.86,4.86,0,0,1-5.41.79,4.09,4.09,0,0,1-2.5-4.34c-1.3.12-2.59-1.05-3.21-2.18a3.3,3.3,0,0,1,.36-3.61,5.08,5.08,0,0,1-4.76-.32c-1.45-.76-1.8-1.82-2.13-3.84C269.46,258.73,267.43,259.46,264.73,258Z"/><g class="cls-9"><path d="M285.38,258.68a4.62,4.62,0,0,1,.2-.6,3.66,3.66,0,0,0,.05-1.66,3.32,3.32,0,0,0-1.29-2,3.45,3.45,0,0,0-2.89-.45,3.37,3.37,0,0,0-1.48.87l-.44.46.12-.61a2.48,2.48,0,0,0-2.33-2.93,3.42,3.42,0,0,0-1.69.41s.1-.15.38-.31a2.75,2.75,0,0,1,1.32-.33,2.67,2.67,0,0,1,1.91.79,2.77,2.77,0,0,1,.77,2.44l-.32-.16a3.63,3.63,0,0,1,1.65-1,3.75,3.75,0,0,1,3.21.52,3.58,3.58,0,0,1,1.34,2.27,3.5,3.5,0,0,1-.17,1.75C285.55,258.52,285.4,258.69,285.38,258.68Z"/></g><g class="cls-9"><path d="M264.5,249.92s.08-.27.42-.51a2.34,2.34,0,0,1,1.54-.4,2.36,2.36,0,0,1,1.47.63c.29.29.36.54.32.56s-.2-.16-.5-.36a2.63,2.63,0,0,0-1.32-.46,2.73,2.73,0,0,0-1.37.25C264.73,249.79,264.55,250,264.5,249.92Z"/></g><path class="cls-6" d="M253,281.66s3.7,3,4.25,7a16.71,16.71,0,0,1-.09,6.24,7.27,7.27,0,0,0,3.83,1,7.93,7.93,0,0,0,4.06-.94,23.22,23.22,0,0,1-.42-5.86c.05-4.16,4.34-7.17,4.34-7.17l-1.84-1.57a28.66,28.66,0,0,0-4.27,4.82l.08-5.52-3.74-.05-.08,5.8a14.15,14.15,0,0,0-3.87-5Z"/><g class="cls-9"><path d="M253,281.66s3.7,3,4.25,7a16.71,16.71,0,0,1-.09,6.24,7.27,7.27,0,0,0,3.83,1,7.93,7.93,0,0,0,4.06-.94,23.22,23.22,0,0,1-.42-5.86c.05-4.16,4.34-7.17,4.34-7.17l-1.84-1.57a28.66,28.66,0,0,0-4.27,4.82l.08-5.52-3.74-.05-.08,5.8a14.15,14.15,0,0,0-3.87-5Z"/></g><path class="cls-6" d="M251.3,284.49c-3.58.34-5.81-2.32-5.34-5.21a4.84,4.84,0,0,1-3.23-5.7c.7-2.8,3.88-3.82,6.2-3.29a5.6,5.6,0,0,1,3.15-5.55,5.8,5.8,0,0,1,6.38,1.1,7.11,7.11,0,0,1,7.32-3,7,7,0,0,1,5.31,5.79,4.61,4.61,0,0,1,6.21,1,4.4,4.4,0,0,1-1.29,6,4.66,4.66,0,0,1,2.28,4.87,4.74,4.74,0,0,1-4,3.64,4.21,4.21,0,0,1-4.55-2.21c-1,.81-2.75.55-3.91-.05a3.34,3.34,0,0,1-1.77-3.18,5,5,0,0,1-4.12,2.36c-1.64.17-2.53-.51-4-2C255.63,282.48,254.36,284.2,251.3,284.49Z"/><g class="cls-9"><path d="M268.78,273.67s-.06-.22-.19-.6a3.53,3.53,0,0,0-.91-1.4,3.4,3.4,0,0,0-2.22-1,3.46,3.46,0,0,0-2.66,1.23,3.18,3.18,0,0,0-.72,1.53l-.1.62-.25-.57a2.59,2.59,0,0,0-1.76-1.44,2.52,2.52,0,0,0-1.84.3,3.22,3.22,0,0,0-1.17,1.27s0-.18.14-.47a2.64,2.64,0,0,1,.9-1,2.74,2.74,0,0,1,2-.4,2.88,2.88,0,0,1,2,1.6l-.35,0a3.36,3.36,0,0,1,.8-1.72,3.71,3.71,0,0,1,3-1.33,3.63,3.63,0,0,1,2.4,1.13,3.43,3.43,0,0,1,.87,1.55A1.43,1.43,0,0,1,268.78,273.67Z"/></g><g class="cls-9"><path d="M246.48,277.91s-.09-.25.05-.64a2.32,2.32,0,0,1,1.05-1.19,2.36,2.36,0,0,1,1.57-.28c.42.08.62.25.6.28s-.26,0-.62,0a2.75,2.75,0,0,0-2.36,1.31C246.59,277.69,246.54,277.92,246.48,277.91Z"/></g><path class="cls-14" d="M219.84,265.22v34.19h73.4V265.22Zm48,16.92H245.18a4.44,4.44,0,1,1,0-8.83h22.71a4.44,4.44,0,1,1,0,8.83Z"/><path class="cls-5" d="M292.85,273.31c0,.1-16.17.18-36.11.18s-36.11-.08-36.11-.18,16.17-.19,36.11-.19S292.85,273.21,292.85,273.31Z"/><path class="cls-5" d="M292.85,282.29c0,.11-16.17.19-36.11.19s-36.11-.08-36.11-.19,16.17-.18,36.11-.18S292.85,282.19,292.85,282.29Z"/><path class="cls-5" d="M292.85,291.28c0,.1-16.17.18-36.11.18s-36.11-.08-36.11-.18,16.17-.19,36.11-.19S292.85,291.18,292.85,291.28Z"/><path class="cls-5" d="M240.05,291.39a54.81,54.81,0,0,1,0-9.12,54.82,54.82,0,0,1,0,9.12Z"/><path class="cls-5" d="M275.28,291.39a57.85,57.85,0,0,1,0-9.12,54.82,54.82,0,0,1,0,9.12Z"/><path class="cls-5" d="M256.41,299.34a42.1,42.1,0,0,1,0-8,42.1,42.1,0,0,1,0,8Z"/><path class="cls-5" d="M256.74,273.22a42.2,42.2,0,0,1,0-8,42.2,42.2,0,0,1,0,8Z"/></g></g></svg>