<svg xmlns="http://www.w3.org/2000/svg" viewBox="0 0 328.21 300"><defs><style>.cls-1{fill:#fba990;}.cls-2{fill:#24adb2;}.cls-3{fill:#fb8877;}.cls-4{fill:#3679a5;}.cls-11,.cls-28,.cls-5,.cls-8{fill:none;}.cls-5{stroke:#024470;stroke-width:0.52px;}.cls-11,.cls-28,.cls-5{stroke-miterlimit:10;}.cls-6{fill:#6a9cbc;}.cls-7{fill:#024470;}.cls-11,.cls-8{stroke:#e86d5e;}.cls-8{stroke-linecap:round;stroke-linejoin:round;stroke-width:0.44px;}.cls-9{fill:#fb8e74;}.cls-10{fill:#984e57;}.cls-11{stroke-width:0.36px;}.cls-12{fill:#fbf7ea;}.cls-13{fill:#007ab5;}.cls-14{fill:#fbbb90;}.cls-15{fill:#fbd9c0;}.cls-16{fill:#ff8d68;}.cls-17{fill:#e86d5e;}.cls-18{fill:#fba584;}.cls-19,.cls-22{fill:#464f6a;}.cls-20{fill:#faae7f;}.cls-21{fill:#d49375;}.cls-22{opacity:0.33;}.cls-23{fill:#f7bd63;}.cls-24{fill:#6e8d51;}.cls-25{fill:#ed914a;}.cls-26{fill:#ffdb9b;}.cls-27{fill:#fff;}.cls-28{stroke:#6e8d51;stroke-width:4.63px;}</style></defs><title>konten_1</title><g id="Layer_2" data-name="Layer 2"><g id="OBJECTS"><path class="cls-1" d="M107.49,172.3c-.57-.14-2.69,15.14-3.4,23.77s3.25,29.43,3.25,29.43a20.53,20.53,0,0,0,.57,4.81c.57,1.84,4,4.67,4,4.24s2.41-8.2,2.41-8.2l-1.42-3.26.57-29.42,3.39-15.42Z"/><path class="cls-2" d="M118.52,152.57s-4.88,5.09-7.64,8.27-6.79,18.68-6.79,18.68l12.31,1.91,4.46-17.4Z"/><path class="cls-1" d="M156.15,173.72s8.21,5.37,11.89,3.68,3.11-7.08-.85-11a44.36,44.36,0,0,0-8.49-6.51Z"/><path class="cls-1" d="M113.24,246.22s1.43,30.33,1.43,37.78c0,0,2.87,1.44,8.88,0,0,0,4.3-27.17,4-39.21C123.27,241.93,114.38,238.77,113.24,246.22Z"/><path class="cls-3" d="M113.57,256c3,.77,8.69,1.85,13.57.48.31-4.76.49-8.92.43-11.69l-.38-.24-13.94,2C113.28,247.54,113.41,251.15,113.57,256Z"/><path class="cls-4" d="M111.52,213.55s-.57,30.95.28,36.11c.29,1.44,16.63.86,17.49,0s2.29-23.21,2.29-23.21,0-.57,2.29-1.15V212.12Z"/><path class="cls-5" d="M117,220.15s-.28,5.15-5,6.73"/><polyline class="cls-5" points="131.15 218.57 131.44 223.87 133.01 225.02"/><path class="cls-5" d="M131.86,225.3a49,49,0,0,0-6.87-4.15"/><path class="cls-5" d="M129.43,227.17s-.57,17.91-2.29,22.64"/><path class="cls-6" d="M110.66,248.23s11.17,1.93,19.56,0a19.71,19.71,0,0,1,0,3.65c-.43,1.51-11.18,2.37-19.56.86Z"/><path class="cls-7" d="M110.84,298.62h11.62a2,2,0,0,0,1.93-2.26c-.2-1.2-.37-2-.08-2.33.53-.53.64-2.36.1-4.29s-.21-6.34-.64-6.56-1.29.54-2.26.22-1.5-4-5.16-3.12-2.79,3.44-2.79,3.44-.21,1.5-.86,4.62c-.35,1.71-2.39,5-3.53,7.79A1.81,1.81,0,0,0,110.84,298.62Z"/><path class="cls-8" d="M116,263.06s3.23-1.29,5.37,1.29"/><path class="cls-1" d="M153.31,246.22s-1.44,30.33-1.44,37.78c0,0-2.86,1.44-8.88,0,0,0-4.3-27.17-4-39.21C143.28,241.93,152.16,238.77,153.31,246.22Z"/><path class="cls-3" d="M139.47,257.51a26,26,0,0,0,13.49-.95c.16-5,.29-8.8.33-10l-14.28,2C139.08,251.18,139.24,254.22,139.47,257.51Z"/><path class="cls-4" d="M155,213.55s.58,30.95-.28,36.11c-.29,1.44-16.62.86-17.48,0s-2.3-23.21-2.3-23.21,0-.57-2.29-1.15V212.12Z"/><path class="cls-5" d="M149.58,220.15s.29,5.15,5,6.73"/><polyline class="cls-5" points="135.4 218.57 135.11 223.87 133.53 225.02"/><path class="cls-5" d="M134.68,225.3a48.79,48.79,0,0,1,6.88-4.15"/><path class="cls-5" d="M137.11,227.17s.58,17.91,2.3,22.64"/><path class="cls-6" d="M155.88,248.23s-11.17,1.93-19.55,0a18.81,18.81,0,0,0,0,3.65c.43,1.51,11.17,2.37,19.55.86Z"/><path class="cls-7" d="M143.82,298.62h11.89a1.79,1.79,0,0,0,1.66-2.48c-1.14-2.83-3.17-6.09-3.53-7.8-.64-3.12-.86-4.62-.86-4.62s.86-2.58-2.79-3.44S146,283.07,145,283.4s-1.83-.43-2.26-.22-.1,4.62-.64,6.56-.43,3.76.11,4.29c.31.32.08,1.25-.13,2.59A1.74,1.74,0,0,0,143.82,298.62Z"/><path class="cls-8" d="M150.51,263.06a4.87,4.87,0,0,0-5.37,1.29"/><path class="cls-2" d="M137.6,145.92s12.32,5.45,15.18,12.33c3.16,6.59,3.73,51.87,3.73,55-.86,2-9.46,5.16-21.49,4.58h-3.16c-12,.58-20.63-2.58-21.49-4.58,0-3.15.58-48.43,3.73-55,2.86-6.88,15.19-12.33,15.19-12.33Z"/><path class="cls-9" d="M127.78,134.29s-1.11-2-2.59-.86,1.23,6.16,2.22,4.8S127.78,134.29,127.78,134.29Z"/><path class="cls-9" d="M139.68,135.28s1.28-1.86,2.66-.63-1.78,6-2.64,4.59S139.68,135.28,139.68,135.28Z"/><path class="cls-3" d="M128.39,140.42l-.06,8.56s.8,3,5.36,2.9,5-3.21,5-3.21l-.55-9.11Z"/><path class="cls-1" d="M127.46,132.69s-2.26,10.93,5.42,12.46c6.7.77,7.78-7.34,8.08-11.52s-1-8.71-6.31-9.06S127.66,130.21,127.46,132.69Z"/><path class="cls-10" d="M129.89,133.06a11.64,11.64,0,0,1,2.85.24c.43-.15-.42-1.05-1.29-1.17S129.19,132.54,129.89,133.06Z"/><path class="cls-10" d="M139,134a11.57,11.57,0,0,0-2.85-.24c-.4-.22.59-1,1.47-.94S139.73,133.59,139,134Z"/><path class="cls-11" d="M133.77,134.68s.3.26.19,1-.68,3.1-.45,3.4.86-.3.86-.3"/><path class="cls-7" d="M137.57,135.42a.49.49,0,1,1-1,0,.49.49,0,0,1,1,0Z"/><path class="cls-7" d="M131.29,134.82a.49.49,0,1,1-1,0,.49.49,0,0,1,1,0Z"/><path class="cls-12" d="M132.44,140.67a5.21,5.21,0,0,0,3.65-.24s-.13,1.47-1.29,1.68a2.23,2.23,0,0,1-2.1-.42A1.74,1.74,0,0,1,132.44,140.67Z"/><path class="cls-10" d="M130.78,128.3s-.56,4.14-3.43,5.4l-.14,1.12-.42-1.4s-1.76-1.33-1-4.28a5.69,5.69,0,0,1,3.65-3.78s.35-2.25,4.49-2.46,8.49,3.44,9.12,7.44c0,.56-1.33.7-1.33.7s-.07,3.22-.92,4.56a7.58,7.58,0,0,1-1.12-4.42S133.87,130.9,130.78,128.3Z"/><path class="cls-7" d="M157.43,215.83c.28-4.49-1.12-33.1-1.12-33.1-7.44-2.95-10.94-12.77-10.94-12.77L145,150c-.42-1.68-2.74-1.89-2.74-1.89L142,159.93a18.17,18.17,0,0,1-7.63,3.14c-1-.14-6.16-.88-9-3.14l-.21-11.78s-2.31.21-2.73,1.89L122,170s-3.51,9.82-10.94,12.77c0,0-1.41,28.61-1.13,33.1,0,0-.56,24-1,28.62-.38,4.22,21.89,2.9,25.79,2.63,3.57.27,24,1.59,23.65-2.63C158,239.82,157.43,215.83,157.43,215.83Z"/><path class="cls-13" d="M124.12,176.91H144a0,0,0,0,1,0,0v5a7.09,7.09,0,0,1-7.09,7.09h-5.73a7.09,7.09,0,0,1-7.09-7.09v-5A0,0,0,0,1,124.12,176.91Z"/><path class="cls-2" d="M145.79,150.66l17.86,11.42s-2.83,10.47-5.66,13.3c0,0-10-3.92-10-4.35S145.37,158.4,145.79,150.66Z"/><path class="cls-1" d="M164.64,177.4s5.1,1.69,8.77-2.27,7.79-27.58,7.79-27.58l-5.1-2-12,22.78S160.4,174,164.64,177.4Z"/><path class="cls-1" d="M176.1,145.56l-.85-3.25.15-6.22s1,.28,1.55.42.57,3.25.57,3.25l2-7.07,3.68,1.13v4.39l.56,1.27a34,34,0,0,1-.85,4.81,28.74,28.74,0,0,1-1.69,3.26S177.09,147.26,176.1,145.56Z"/><path class="cls-11" d="M177,136.51a1.67,1.67,0,0,1,.43,1.06,14,14,0,0,0,.14,2.19l1.06,1.84.14,1.56"/><path class="cls-11" d="M177.52,139.76l2-7.07a1.17,1.17,0,0,1,1,1c0,.85-.85,5.45-.85,5.45"/><path class="cls-11" d="M180.13,132.9l1.42.43a2.2,2.2,0,0,1,.35,1.41c-.07.85-.56,4.6-.56,4.6"/><polyline class="cls-11" points="181.55 133.33 183.18 133.82 183.18 138.21 182.96 139.62"/><path class="cls-11" d="M183.18,138.21a1.71,1.71,0,0,1,.56,1.27c-.07.71-.42,3-.42,3"/><path class="cls-11" d="M165.77,165.23a6.66,6.66,0,0,1,3,5.8"/><rect class="cls-14" x="165.55" y="161.58" width="38.26" height="35.56"/><path class="cls-15" d="M164.4,191.43H205a4.7,4.7,0,0,1,4.7,4.7v7.16a0,0,0,0,1,0,0h-50a0,0,0,0,1,0,0v-7.16A4.7,4.7,0,0,1,164.4,191.43Z"/><path class="cls-15" d="M166.83,161.58h35.7a4.88,4.88,0,0,1,4.88,4.88v6.37a0,0,0,0,1,0,0H162a0,0,0,0,1,0,0v-6.37A4.88,4.88,0,0,1,166.83,161.58Z"/><rect class="cls-15" x="234.46" y="96.74" width="28.83" height="77.85"/><rect class="cls-14" x="225.81" y="158.08" width="10.09" height="3.36"/><rect class="cls-14" x="225.81" y="121.8" width="10.09" height="3.36"/><rect class="cls-16" x="253.76" y="294.23" width="4.16" height="5.77"/><rect class="cls-16" x="266.25" y="294.23" width="4.16" height="5.77"/><rect class="cls-16" x="221.4" y="294.23" width="4.16" height="5.77"/><rect class="cls-16" x="233.9" y="294.23" width="4.16" height="5.77"/><rect class="cls-16" x="253.76" y="284.62" width="4.16" height="5.77"/><rect class="cls-16" x="266.25" y="284.62" width="4.16" height="5.77"/><rect class="cls-16" x="221.4" y="284.62" width="4.16" height="5.77"/><rect class="cls-16" x="233.9" y="284.62" width="4.16" height="5.77"/><rect class="cls-14" x="218.04" y="289.75" width="55.74" height="6.25"/><rect class="cls-14" x="218.04" y="280.14" width="55.74" height="6.25"/><rect class="cls-16" x="37.44" y="259.48" width="59.59" height="40.36"/><rect class="cls-14" x="50.42" y="259.48" width="11.53" height="14.9"/><rect class="cls-17" x="72.29" y="259.48" width="24.73" height="40.36"/><rect class="cls-14" x="57.14" y="287.83" width="11.05" height="3.36"/><rect class="cls-18" x="105.1" y="108.05" width="4.76" height="38.33" transform="translate(121.43 -38.74) rotate(45)"/><rect class="cls-19" x="86.49" y="99.86" width="10.39" height="117.35"/><rect class="cls-18" x="84.75" y="99.86" width="14.28" height="29.57"/><rect class="cls-18" x="204.81" y="108.05" width="4.76" height="38.33" transform="translate(443.65 70.66) rotate(135)"/><rect class="cls-19" x="217.8" y="99.86" width="10.39" height="117.35" transform="translate(445.99 317.06) rotate(180)"/><rect class="cls-18" x="215.64" y="99.86" width="14.28" height="29.57" transform="translate(445.56 229.29) rotate(180)"/><path class="cls-14" d="M88.14,108.2l-19.72-1.08,5.64-27.25a7.11,7.11,0,0,1,7.12-7.11h7Z"/><path class="cls-14" d="M246.3,108.2H226.53V72.76h7a7.11,7.11,0,0,1,7.11,7.11Z"/><rect class="cls-16" x="88.14" y="72.76" width="19.77" height="35.44"/><rect class="cls-14" x="107.91" y="72.76" width="19.77" height="35.44"/><rect class="cls-16" x="127.68" y="72.76" width="19.77" height="35.44"/><rect class="cls-14" x="147.45" y="72.76" width="19.77" height="35.44"/><rect class="cls-16" x="167.22" y="72.76" width="19.77" height="35.44"/><rect class="cls-14" x="186.99" y="72.76" width="19.77" height="35.44"/><rect class="cls-16" x="206.76" y="72.76" width="19.77" height="35.44"/><path class="cls-16" d="M78.26,120.21h0a9.89,9.89,0,0,1-9.89-9.89v-3.23H88.14v3.23A9.89,9.89,0,0,1,78.26,120.21Z"/><path class="cls-16" d="M226.53,107.09H246.3a0,0,0,0,1,0,0v4.08a9,9,0,0,1-9,9h-1.7a9,9,0,0,1-9-9v-4.08A0,0,0,0,1,226.53,107.09Z"/><path class="cls-17" d="M98,120.21h0a9.89,9.89,0,0,1-9.89-9.89v-3.23h19.77v3.23A9.88,9.88,0,0,1,98,120.21Z"/><path class="cls-16" d="M117.8,120.21h0a9.89,9.89,0,0,1-9.89-9.89v-3.23h19.77v3.23A9.88,9.88,0,0,1,117.8,120.21Z"/><path class="cls-17" d="M127.68,107.09h19.77a0,0,0,0,1,0,0v4.08a9,9,0,0,1-9,9h-1.7a9,9,0,0,1-9-9v-4.08a0,0,0,0,1,0,0Z"/><path class="cls-16" d="M147.45,107.09h19.77a0,0,0,0,1,0,0v4.08a9,9,0,0,1-9,9h-1.7a9,9,0,0,1-9-9v-4.08A0,0,0,0,1,147.45,107.09Z"/><path class="cls-17" d="M177.11,120.21h0a9.89,9.89,0,0,1-9.89-9.89v-3.23H187v3.23A9.88,9.88,0,0,1,177.11,120.21Z"/><path class="cls-16" d="M196.88,120.21h0a9.89,9.89,0,0,1-9.89-9.89v-3.23h19.77v3.23A9.88,9.88,0,0,1,196.88,120.21Z"/><path class="cls-17" d="M216.65,120.21h0a9.89,9.89,0,0,1-9.89-9.89v-3.23h19.77v3.23A9.88,9.88,0,0,1,216.65,120.21Z"/><rect class="cls-14" x="83.97" y="207.6" width="146.73" height="15.4"/><rect class="cls-15" x="83.97" y="222.99" width="146.73" height="15.4"/><rect class="cls-15" x="83.97" y="269.21" width="146.73" height="15.4"/><rect class="cls-20" x="83.97" y="284.6" width="146.73" height="15.4"/><rect class="cls-14" x="83.97" y="253.66" width="146.73" height="15.4"/><rect class="cls-20" x="83.97" y="238.41" width="146.73" height="15.4"/><rect class="cls-21" x="83.75" y="222.04" width="146.73" height="0.95"/><rect class="cls-21" x="83.75" y="237.91" width="146.73" height="0.95"/><rect class="cls-21" x="83.75" y="237.93" width="146.73" height="0.95"/><rect class="cls-21" x="83.75" y="252.7" width="146.73" height="0.95"/><rect class="cls-21" x="83.75" y="268.58" width="146.73" height="0.95"/><rect class="cls-21" x="83.75" y="284.13" width="146.73" height="0.95"/><rect class="cls-15" x="73.15" y="202.57" width="168.37" height="8.05"/><rect class="cls-12" x="176.72" y="219.43" width="80.41" height="62.15" transform="translate(467.42 33.59) rotate(90)"/><rect class="cls-19" x="189.69" y="214.15" width="54.46" height="72.72"/><text></text><rect class="cls-12" x="192.33" y="288.95" width="4.97" height="11.05"/><rect class="cls-12" x="236.54" y="288.95" width="4.97" height="11.05"/><polygon class="cls-12" points="133.79 241.36 139.07 299.98 141.96 299.98 139.55 241.36 133.79 241.36"/><polygon class="cls-12" points="112.16 241.36 106.88 299.98 104 299.98 106.4 241.36 112.16 241.36"/><path class="cls-17" d="M143.4,243.76H102.55a4.8,4.8,0,0,1-4.8-4.81h0a4.8,4.8,0,0,1,4.8-4.8H143.4a4.8,4.8,0,0,1,4.8,4.8h0A4.8,4.8,0,0,1,143.4,243.76Z"/><circle class="cls-17" cx="287.07" cy="219.33" r="27.9"/><circle class="cls-12" cx="287.07" cy="219.33" r="20.7"/><circle class="cls-17" cx="287.07" cy="219.33" r="12.9"/><path class="cls-12" d="M292.17,219.33a5.1,5.1,0,1,1-5.1-5.1A5.1,5.1,0,0,1,292.17,219.33Z"/><path class="cls-22" d="M304.17,241.38l-16.68-22.29a.9.9,0,0,0-1.44,1.08l16.66,22.27C303.21,242.1,303.69,241.75,304.17,241.38Z"/><path class="cls-19" d="M321.35,220.61H286.92a.9.9,0,1,1,0-1.8h34.43a.9.9,0,0,1,0,1.8Z"/><polygon class="cls-17" points="328.21 217.12 319.21 217.12 316.7 219.63 316.62 219.63 316.66 219.67 316.62 219.71 316.7 219.71 319.21 222.22 328.21 222.22 325.66 219.67 328.21 217.12"/><rect class="cls-17" x="0.66" y="195.49" width="13.05" height="14.46"/><rect class="cls-23" x="20.86" y="179.44" width="13.05" height="30.5"/><rect class="cls-24" x="41.07" y="173.9" width="13.05" height="36.05"/><rect class="cls-14" y="213.34" width="54.53" height="1.99"/><rect class="cls-23" x="6.38" y="108.19" width="31.87" height="8.29"/><rect class="cls-25" x="6.38" y="114.16" width="31.87" height="2.31"/><rect class="cls-23" x="6.38" y="100.54" width="31.87" height="8.29"/><rect class="cls-25" x="6.38" y="106.51" width="31.87" height="2.31"/><rect class="cls-23" x="6.38" y="116.31" width="31.87" height="8.29"/><polyline class="cls-25" points="38.24 122.29 38.24 124.6 6.38 124.6 6.38 122.29"/><rect class="cls-23" x="6.38" y="124.44" width="31.87" height="8.29"/><rect class="cls-25" x="6.38" y="130.41" width="31.87" height="2.31"/><rect class="cls-23" x="6.38" y="132.56" width="31.87" height="8.29"/><rect class="cls-25" x="6.38" y="138.54" width="31.87" height="2.31"/><path class="cls-23" d="M39.8,115.12A12.79,12.79,0,1,1,27,127.9"/><circle class="cls-26" cx="39.8" cy="127.9" r="8.48" transform="translate(-93.71 138.78) rotate(-77.37)"/><path class="cls-23" d="M40.9,129.68a1,1,0,0,0-.26-.74,2.31,2.31,0,0,0-.89-.53,5.44,5.44,0,0,1-1.84-1,2,2,0,0,1-.61-1.57,2,2,0,0,1,.61-1.54,2.53,2.53,0,0,1,1.62-.71v-1.21h.89v1.22a2.39,2.39,0,0,1,1.55.82,2.63,2.63,0,0,1,.55,1.76l0,0H40.9a1.67,1.67,0,0,0-.27-1,1,1,0,0,0-1.46-.08,1.12,1.12,0,0,0-.23.73,1,1,0,0,0,.25.71,2.56,2.56,0,0,0,.91.54,5.8,5.8,0,0,1,1.84,1,2,2,0,0,1,.59,1.55,2.11,2.11,0,0,1-.59,1.56,2.65,2.65,0,0,1-1.63.69V133h-.9v-1.11a2.94,2.94,0,0,1-1.73-.74,2.4,2.4,0,0,1-.66-1.87v0h1.6a1.49,1.49,0,0,0,.34,1.08,1.23,1.23,0,0,0,.88.32,1.06,1.06,0,0,0,.78-.27A1,1,0,0,0,40.9,129.68Z"/><polygon class="cls-17" points="203.09 27.99 198.44 49.21 189.43 49.21 194.37 26.83 203.09 27.99"/><polygon class="cls-27" points="230.98 25.67 221.98 27.99 221.98 14.92 230.98 17.24 230.98 25.67"/><polygon class="cls-23" points="222.59 21.5 222.75 18.35 222.43 18.35 221.75 5.07 185.89 17.68 180.91 17.68 180.91 18.35 180.91 24.66 180.91 25.32 185.89 25.32 221.75 37.94 222.43 24.66 222.75 24.66 222.59 21.5"/><path class="cls-17" d="M222.85,42.62h0a3,3,0,0,1-3-3V3a3,3,0,0,1,3-3h0a3,3,0,0,1,3,3V39.62A3,3,0,0,1,222.85,42.62Z"/><polygon class="cls-15" points="120.54 203.88 107.49 203.88 105.69 184.98 122.34 184.98 120.54 203.88"/><polygon class="cls-15" points="142.15 203.88 129.09 203.88 127.3 184.98 143.95 184.98 142.15 203.88"/><path class="cls-19" d="M303.33,89.12H282.46a3.55,3.55,0,0,0-3.55,3.55v46.6a3.56,3.56,0,0,0,3.33,3.54h21.09a3.55,3.55,0,0,0,3.54-3.54V92.67A3.55,3.55,0,0,0,303.33,89.12Z"/><path class="cls-16" d="M303.33,89.91h-3.4L299.32,91a1.84,1.84,0,0,1-1.6.93h-9.66a1.81,1.81,0,0,1-1.59-.93l-.62-1.09h-3.39a2.75,2.75,0,0,0-2.76,2.76v46.6a2.76,2.76,0,0,0,2.76,2.76h20.87a2.76,2.76,0,0,0,2.75-2.76V92.67A2.75,2.75,0,0,0,303.33,89.91Z"/><path class="cls-15" d="M296.18,90.89h-6.5a.26.26,0,0,1-.26-.26h0a.26.26,0,0,1,.26-.26h6.5a.26.26,0,0,1,.26.26h0A.26.26,0,0,1,296.18,90.89Z"/><rect class="cls-12" x="282.42" y="102.52" width="20.87" height="22.79" rx="1.54" ry="1.54"/><rect class="cls-12" x="282.8" y="127.11" width="9.6" height="1.28"/><rect class="cls-12" x="282.8" y="129.89" width="19.91" height="1.28"/><polyline class="cls-28" points="286.9 112.38 291.51 116.99 300.09 108.41"/></g></g></svg>