<svg xmlns="http://www.w3.org/2000/svg" viewBox="0 0 285.57 247.65"><defs><style>.cls-1{fill:#fbdeca;}.cls-2{fill:#024470;}.cls-3{fill:#fbbb90;}.cls-16,.cls-4{fill:#e86d5e;}.cls-5{fill:#ff8d68;}.cls-6{fill:#c55245;}.cls-7{fill:#d0e4ff;}.cls-8{fill:#e4f3ff;}.cls-12,.cls-21,.cls-22,.cls-24,.cls-26,.cls-27,.cls-9{fill:none;}.cls-9{stroke:#e4f3ff;stroke-width:1.34px;}.cls-22,.cls-24,.cls-26,.cls-27,.cls-9{stroke-miterlimit:10;}.cls-10,.cls-15{fill:#f0c27a;}.cls-11{fill:#cae5ff;}.cls-12{stroke:#fff;stroke-width:4.01px;}.cls-12,.cls-21{stroke-linecap:round;stroke-linejoin:round;}.cls-13{fill:#c2503d;}.cls-14,.cls-15{font-size:7px;}.cls-14{fill:#fff;font-family:Poppins-SemiBold, Poppins;}.cls-14,.cls-16{font-weight:700;}.cls-15{font-family:Poppins-Medium, Poppins;}.cls-16{font-family:Poppins-Bold, Poppins;}.cls-17{fill:#fb8e74;}.cls-18{fill:#3679a5;}.cls-19{fill:#fb8877;}.cls-20{fill:#fba990;}.cls-21,.cls-27{stroke:#e86d5e;}.cls-21,.cls-22,.cls-24,.cls-26{stroke-width:0.33px;}.cls-22{stroke:#c3905c;}.cls-23{fill:#9ab4c3;}.cls-24{stroke:#024470;}.cls-25{fill:#dc6457;}.cls-26{stroke:#b14052;}.cls-27{stroke-width:0.27px;}</style></defs><title>Lading_page</title><g id="Layer_2" data-name="Layer 2"><g id="OBJECTS"><path class="cls-1" d="M14.12,165.11c-15-21.18-16-72.21-2-105,15.66-36.62,55.2-61.6,95-60S184.32,29.7,197,67.45c4.73,14,7,30.35,18.64,39.57s28.3,7.84,42,13.62c18.83,8,29.62,29.85,27.76,50.22s-14.72,38.68-31.4,50.53-36.84,17.88-57.05,21.07c-32.29,5.1-65.77,2.38-96.5-8.76C25.16,206.44,22.07,176.31,14.12,165.11Z"/><rect class="cls-2" x="17.2" y="95.5" width="4.9" height="54.38"/><rect class="cls-2" x="153.15" y="95.5" width="4.9" height="54.38"/><path class="cls-3" d="M19.49,95.29.05,94.23,5.61,67.36a7,7,0,0,1,7-7h6.86Z"/><path class="cls-3" d="M175.43,95.29H155.94V60.35h6.87a7,7,0,0,1,7,7Z"/><rect class="cls-4" x="19.49" y="60.35" width="19.49" height="34.94"/><rect class="cls-3" x="38.99" y="60.35" width="19.49" height="34.94"/><rect class="cls-4" x="58.48" y="60.35" width="19.49" height="34.94"/><rect class="cls-3" x="77.97" y="60.35" width="19.49" height="34.94"/><rect class="cls-4" x="97.46" y="60.35" width="19.49" height="34.94"/><rect class="cls-3" x="116.96" y="60.35" width="19.49" height="34.94"/><rect class="cls-4" x="136.45" y="60.35" width="19.49" height="34.94"/><path class="cls-5" d="M9.75,107.13h0A9.74,9.74,0,0,1,0,97.38V94.2H19.49v3.18A9.74,9.74,0,0,1,9.75,107.13Z"/><path class="cls-5" d="M155.94,94.2h19.49a0,0,0,0,1,0,0v3.19a9.75,9.75,0,0,1-9.75,9.75h0a9.75,9.75,0,0,1-9.75-9.75V94.2A0,0,0,0,1,155.94,94.2Z"/><path class="cls-6" d="M29.24,107.13h0a9.75,9.75,0,0,1-9.75-9.75V94.2H39v3.18A9.75,9.75,0,0,1,29.24,107.13Z"/><path class="cls-5" d="M48.73,107.13h0A9.74,9.74,0,0,1,39,97.38V94.2H58.48v3.18A9.75,9.75,0,0,1,48.73,107.13Z"/><path class="cls-6" d="M58.48,94.2H78a0,0,0,0,1,0,0v3.19a9.75,9.75,0,0,1-9.75,9.75h0a9.75,9.75,0,0,1-9.75-9.75V94.2a0,0,0,0,1,0,0Z"/><path class="cls-5" d="M78,94.2H97.46a0,0,0,0,1,0,0v3.19a9.75,9.75,0,0,1-9.75,9.75h0A9.75,9.75,0,0,1,78,97.38V94.2A0,0,0,0,1,78,94.2Z"/><path class="cls-6" d="M107.21,107.13h0a9.75,9.75,0,0,1-9.75-9.75V94.2H117v3.18A9.75,9.75,0,0,1,107.21,107.13Z"/><path class="cls-5" d="M126.7,107.13h0A9.74,9.74,0,0,1,117,97.38V94.2h19.49v3.18A9.75,9.75,0,0,1,126.7,107.13Z"/><path class="cls-6" d="M146.19,107.13h0a9.74,9.74,0,0,1-9.74-9.75V94.2h19.49v3.18A9.74,9.74,0,0,1,146.19,107.13Z"/><rect class="cls-7" x="27.01" y="143.92" width="50.81" height="5.07"/><path class="cls-8" d="M30.1,140.08h44.8a2.76,2.76,0,0,1,2.76,2.76v.59a0,0,0,0,1,0,0H27.34a0,0,0,0,1,0,0v-.58A2.76,2.76,0,0,1,30.1,140.08Z"/><rect class="cls-8" x="25.95" y="142.53" width="52.93" height="1.39"/><path class="cls-9" d="M44.72,141v-1.12a2,2,0,0,1,2-2h10a2,2,0,0,1,2,2v1"/><polygon class="cls-4" points="89.67 131.59 88.59 128.86 87.7 128.86 87.7 127.21 86.36 127.21 86.36 128.86 85.47 128.86 84.39 131.59 83.22 131.59 83.22 147.6 90.84 147.6 90.84 131.59 89.67 131.59"/><polygon class="cls-10" points="98.69 131.59 97.61 128.86 96.72 128.86 96.72 127.21 95.39 127.21 95.39 128.86 94.5 128.86 93.42 131.59 92.25 131.59 92.25 147.6 99.87 147.6 99.87 131.59 98.69 131.59"/><path class="cls-8" d="M103.94,135.17a12.56,12.56,0,0,0,23.75,0Z"/><path class="cls-7" d="M103.94,140.75a12.56,12.56,0,0,0,23.75,0Z"/><path class="cls-8" d="M134.87,142s-.67-3.68,4.35-5.68c0,0,3.79,2.67,7.13,2.23l.11,2.56Z"/><path class="cls-10" d="M134,139.85h13.37a2.67,2.67,0,0,1,2.67,2.67v7.13a0,0,0,0,1,0,0H131.31a0,0,0,0,1,0,0v-7.13A2.67,2.67,0,0,1,134,139.85Z"/><circle class="cls-2" cx="157.72" cy="238.03" r="9.03" transform="translate(-102.55 355.46) rotate(-80.76)"/><path class="cls-11" d="M162.28,238a4.57,4.57,0,1,1-4.56-4.57A4.56,4.56,0,0,1,162.28,238Z"/><polyline class="cls-12" points="147.57 215.18 147.57 228.33 157.66 238.41"/><rect class="cls-4" x="7.39" y="150.33" width="159.57" height="67.31"/><rect class="cls-13" x="7.39" y="150.33" width="159.57" height="12.93"/><rect class="cls-10" x="1.38" y="146.76" width="171.61" height="4.9"/><polygon class="cls-11" points="83.5 211.5 58.81 211.5 76.27 194.05 73.43 191.21 55.98 208.67 55.98 183.98 51.97 183.98 51.97 208.67 34.51 191.21 31.67 194.05 49.13 211.5 24.44 211.5 24.44 215.52 49.13 215.52 31.67 232.97 34.51 235.81 51.97 218.35 51.97 243.04 55.98 243.04 55.98 218.35 73.43 235.81 76.27 232.97 58.81 215.52 83.5 215.52 83.5 211.5"/><path class="cls-2" d="M54.08,179.52a33.77,33.77,0,1,0,33.77,33.77A33.77,33.77,0,0,0,54.08,179.52Zm0,60.18a26.41,26.41,0,1,1,26.41-26.41A26.42,26.42,0,0,1,54.08,239.7Z"/><circle class="cls-2" cx="53.86" cy="213.51" r="9.03"/><circle class="cls-11" cx="53.86" cy="213.51" r="4.57"/><rect class="cls-10" x="7.39" y="162.81" width="159.57" height="3.01"/><rect class="cls-10" x="99.63" y="237.02" width="4.51" height="10.03"/><rect class="cls-10" x="128.55" y="237.02" width="4.51" height="10.03"/><rect class="cls-2" x="96.29" y="179.36" width="40.12" height="58.84"/><text class="cls-14" transform="translate(98.11 222.54)">INDONESIA</text><text class="cls-15" transform="translate(100.8 198.45)">BANGGA<tspan class="cls-16"><tspan x="3.69" y="11.58">UMKM</tspan></tspan></text><path class="cls-17" d="M193.15,94.28s-1-1.78-2.34-.78,1.12,5.57,2,4.34S193.15,94.28,193.15,94.28Z"/><path class="cls-17" d="M203.92,95.17s1.16-1.68,2.4-.57-1.6,5.45-2.38,4.15S203.92,95.17,203.92,95.17Z"/><path class="cls-2" d="M193.9,105.89s-7.77,3.43-9.94,5.77-4.07,2.76-5.24,13h7.69s-.95,24.48-.95,25.82c0,1,1.34,1.17,1.34,1.17h25.53a1.42,1.42,0,0,0,1.41-1.54l-2.26-25.32,6.74-.11s.34-4.18-2.84-12c-1.5-3.51-12.62-6.68-12.62-6.68l-8.77-.09"/><path class="cls-18" d="M215,195.57s.67,9.81.67,13.37.89,21.17.89,22.51c-.67.89-7.58.89-9.14.45-.66-2-1.11-23.18-1.78-25a50,50,0,0,1-1.34-10.48C204.52,195.79,215,195.57,215,195.57Z"/><path class="cls-18" d="M182.45,195.12s-.67,7.36-1.11,9.59-2.23,25.85-1.78,28.08c1.11,1.11,7.8,1.11,8.91.44.45-.89,3.34-27.19,3.79-29s3.12-10.25,2.9-12S184.68,190.89,182.45,195.12Z"/><path class="cls-19" d="M193.71,99.82l-.06,7.75s.73,2.73,4.85,2.62,4.51-2.9,4.51-2.9l-.5-8.25Z"/><path class="cls-10" d="M217,197.8c-.23-12-2.79-43.85-2.79-43.85l-.44-1.34a2.68,2.68,0,0,0,.55-1c.23-1.23-2-25-2-25-2.12-1.11-5.13-5.79-5.24-7.57s.36-11.48.36-11.48a1.86,1.86,0,0,0-1.34-.56s-1,10-1.36,12.82l-6.09.62-6.45-.62c-.33-2.79-1.45-12.54-1.45-12.54a1.85,1.85,0,0,0-1.33.56s.55,9.41.44,11.2-3.12,6.46-5.23,7.57c0,0-1.45,23.74-1.23,25a2.71,2.71,0,0,0,.56,1l-.45,1.33s-3.34,31.87-3.56,43.91c0,0,9.32.71,16.27.48C203.52,198.52,217,197.8,217,197.8Z"/><path class="cls-20" d="M210.78,125.62l-24.4,3.09,0-4.07-7.19,0c-.27.59-1,8,1.38,13.27,2.2,2,21.61-2.22,30.82-9Z"/><path class="cls-20" d="M186.38,124.78l24.49,3.68-.14-3.82,7.19,0c.27.59,1,8-1.39,13.27-2.19,2-21.28-2.3-30.48-9.1Z"/><path class="cls-21" d="M186.41,125.26l.56,3.53a68.81,68.81,0,0,0,10.69,5.77"/><path class="cls-21" d="M210.62,125.28a32.35,32.35,0,0,1,.42,3.85l-2-.42"/><line class="cls-21" x1="199.75" y1="126.7" x2="206.02" y2="128.21"/><path class="cls-17" d="M180.5,134.28a2.9,2.9,0,0,0-1.06.21,17.12,17.12,0,0,0,1.11,3.4,4.51,4.51,0,0,0,2.68.48,3,3,0,0,0,.23-1.13A3,3,0,0,0,180.5,134.28Z"/><path class="cls-17" d="M213.14,138.34c1.71.1,2.93,0,3.39-.45a15.53,15.53,0,0,0,.92-2.61A4.21,4.21,0,0,0,213.14,138.34Z"/><path class="cls-22" d="M184.46,151.78s19.47,3.34,28,.75"/><path class="cls-22" d="M185,153s16.05,2.92,26,.33"/><path class="cls-22" d="M211.87,158.8s-12,6.85-26.07,4.68"/><path class="cls-22" d="M192,120.69s4.6,1.67,13.12,0"/><path class="cls-2" d="M181,235.69l-.5,4.51a6.72,6.72,0,0,1-2.68,3.51c-2.17,1.5-5.35,3.51-3.84,3.84a18.45,18.45,0,0,0,9.53-1.84,9,9,0,0,1,2.17,0c.67-.33.33-6.51.33-6.51l.34-4.18Z"/><path class="cls-2" d="M214.66,235.69l.5,4.51a6.73,6.73,0,0,0,2.67,3.51c2.18,1.5,5.35,3.51,3.85,3.84a18.43,18.43,0,0,1-9.53-1.84,9,9,0,0,0-2.17,0c-.67-.33-.34-6.51-.34-6.51l-.33-4.18Z"/><path class="cls-23" d="M179.22,232.12s5.82,1.25,9.53.53a.43.43,0,0,1,.52.36c.15,1.05,0,3.32-.58,3.79-.89.45-9.36-.22-10.25-1.23S178.66,232.12,179.22,232.12Z"/><path class="cls-23" d="M216.82,231.4s-5.76,1-9.44.19a.54.54,0,0,0-.65.42c-.17,1.08-.08,3.24.45,3.71.88.48,9.36.13,10.29-.84S217.38,231.42,216.82,231.4Z"/><path class="cls-24" d="M191.93,201.59a8.76,8.76,0,0,1-7.92,4.9"/><path class="cls-24" d="M185.68,204.37a2.8,2.8,0,0,0,1.9-.33"/><path class="cls-24" d="M181.45,232.57a23.77,23.77,0,0,0,5.68.22"/><path class="cls-24" d="M208.08,204.82a10.89,10.89,0,0,0,6,.67"/><path class="cls-24" d="M211.76,207.94s.67-.11,1.89-.22"/><path class="cls-24" d="M209.75,211.17s.56,19.17,1,20.5"/><path class="cls-25" d="M192.71,95.78a7.3,7.3,0,0,1-.62-2.5c-.07-1.36-.78-1.59-.19-2.26a2,2,0,0,0,.51-2,2.72,2.72,0,0,1,.26-2.42c.59-.75,1.35-.5,2-1.17s.42-2.51,2.63-3.26,3.06.33,4-.25a3.87,3.87,0,0,1,4.76-.08c2.12,1.5,2.71,4.76,1.35,6.43s-.93,2.09-1,3.09-.85,1.26-.77,1.84a4.81,4.81,0,0,1-.34,2.68,3.17,3.17,0,0,1-.68.75S197.38,98.79,192.71,95.78Z"/><path class="cls-20" d="M192.87,92.83s-2.05,9.88,4.9,11.27c6.06.7,7-6.64,7.3-10.42s-.89-7.88-5.7-8.19S193,90.59,192.87,92.83Z"/><path class="cls-25" d="M193.93,88.6s.22-1.18,1.62-.28,1.78,2.45,4.06,3.12,3.18-.34,4.07.55,1.51.73,2,.23-.06-4.8-.23-4.85a21.21,21.21,0,0,1-1.39-2.12l-1.95-1.11-1.84-.28-2.56-.17-1.62.73S193.65,86,193.93,88.6Z"/><path class="cls-26" d="M197.75,88.09s5.51,3.6,8.69-1.08"/><path class="cls-26" d="M203.26,89.35a1.83,1.83,0,0,0,1.84.21"/><path class="cls-26" d="M196,83.52s-1.39,1.84-.11,3.35"/><path class="cls-26" d="M193.93,86.42s-.11.67,1.17.89"/><path class="cls-26" d="M199.5,83.36s-2.39,2.34.23,4.29,4.84-.67,4.4-1.9-1.62-1.84-2.73-.72"/><path class="cls-25" d="M195.06,93.17a10.22,10.22,0,0,1,2.58.22c.39-.14-.38-1-1.17-1.07S194.43,92.69,195.06,93.17Z"/><path class="cls-25" d="M203.26,94a10.21,10.21,0,0,0-2.58-.22c-.36-.2.53-.88,1.33-.85S204,93.65,203.26,94Z"/><path class="cls-27" d="M198.57,94.63s.27.24.17.88-.61,2.8-.4,3.07.77-.27.77-.27"/><path class="cls-2" d="M202,95.3a.44.44,0,1,1-.44-.44A.44.44,0,0,1,202,95.3Z"/><path class="cls-2" d="M196.33,94.76a.44.44,0,1,1-.44-.44A.44.44,0,0,1,196.33,94.76Z"/><path class="cls-27" d="M197.37,100a4.69,4.69,0,0,0,3.3-.2"/></g></g></svg>