<svg xmlns="http://www.w3.org/2000/svg" xmlns:xlink="http://www.w3.org/1999/xlink" width="1080" zoomAndPan="magnify" viewBox="0 0 810 809.999993" height="1080" preserveAspectRatio="xMidYMid meet" version="1.0"><path fill="#f5f5f5" d="M 647.875 182.925781 L 673.609375 158.347656 L 748.5625 158.347656 L 748.5625 110.78125 L 634.398438 110.78125 L 634.398438 158.347656 L 647.875 158.347656 Z M 714.050781 127.921875 C 717.230469 127.921875 719.8125 130.5 719.8125 133.683594 C 719.8125 136.863281 717.234375 139.441406 714.050781 139.441406 C 710.871094 139.441406 708.289062 136.863281 708.289062 133.683594 C 708.289062 130.5 710.867188 127.921875 714.050781 127.921875 Z M 692.90625 127.921875 C 696.085938 127.921875 698.664062 130.5 698.664062 133.683594 C 698.664062 136.863281 696.085938 139.441406 692.90625 139.441406 C 689.722656 139.441406 687.144531 136.863281 687.144531 133.683594 C 687.144531 130.5 689.722656 127.921875 692.90625 127.921875 Z M 671.757812 127.921875 C 674.941406 127.921875 677.519531 130.5 677.519531 133.683594 C 677.519531 136.863281 674.941406 139.441406 671.757812 139.441406 C 668.578125 139.441406 666 136.863281 666 133.683594 C 666 130.5 668.578125 127.921875 671.757812 127.921875 Z M 671.757812 127.921875 " fill-opacity="1" fill-rule="nonzero"/><path fill="#f5f5f5" d="M 752.960938 453.066406 C 750.894531 451.117188 748.816406 449.160156 747.109375 447.550781 C 746.886719 448.378906 746.484375 449.171875 745.855469 449.839844 C 738.824219 457.304688 723.5625 473.503906 716.53125 480.96875 C 716.023438 481.507812 715.433594 481.917969 714.796875 482.199219 C 716.472656 483.777344 718.480469 485.664062 720.480469 487.546875 C 725.648438 492.417969 733.785156 492.171875 738.652344 487.003906 C 743.265625 482.109375 748.894531 476.132812 753.507812 471.238281 C 758.371094 466.070312 758.128906 457.933594 752.960938 453.066406 Z M 752.960938 453.066406 " fill-opacity="1" fill-rule="nonzero"/><path fill="#f5f5f5" d="M 708.933594 481.195312 C 705.796875 478.242188 701.421875 474.121094 698.285156 471.167969 C 696.125 469.132812 696.023438 465.730469 698.058594 463.570312 C 705.09375 456.105469 720.351562 439.90625 727.382812 432.4375 C 727.65625 432.148438 727.957031 431.902344 728.269531 431.6875 C 728.332031 431.648438 728.398438 431.621094 728.460938 431.582031 C 728.730469 431.414062 729.007812 431.265625 729.296875 431.148438 C 729.335938 431.132812 729.378906 431.125 729.417969 431.109375 C 729.746094 430.988281 730.078125 430.898438 730.421875 430.839844 C 730.429688 430.839844 730.4375 430.839844 730.445312 430.839844 C 730.816406 430.78125 731.191406 430.761719 731.566406 430.78125 L 721.746094 421.53125 C 721.585938 413.003906 720.433594 397.585938 719.90625 384.859375 C 719.195312 385.15625 718.476562 385.449219 717.695312 385.753906 C 725.375 382.769531 729.609375 380.222656 731.671875 377.839844 C 745.992188 365.675781 740.453125 340.289062 740.097656 338.726562 L 744.59375 338.546875 C 744.222656 332.488281 743.785156 326.4375 743.328125 320.386719 C 742.710938 313.246094 742.113281 306.105469 741.222656 298.980469 C 740.382812 292.269531 736.101562 286.847656 730.378906 284.210938 C 730.386719 284.160156 730.390625 284.125 730.390625 284.125 C 716.761719 278.242188 703.445312 274.402344 690.25 272.617188 L 690.402344 273.5625 L 685.492188 243.382812 C 687.167969 242.097656 688.324219 240.335938 688.679688 238.253906 C 689.003906 236.339844 688.835938 234.492188 688.296875 232.898438 C 689.890625 228.640625 690.382812 224.121094 689.839844 219.742188 C 696.363281 218.585938 701.320312 212.902344 701.320312 206.050781 C 701.320312 198.363281 695.089844 192.132812 687.402344 192.132812 C 682.359375 192.132812 677.957031 194.824219 675.515625 198.839844 C 662.929688 192.375 644.546875 196.832031 638.535156 213.136719 C 638.851562 213.296875 639.160156 213.40625 639.472656 213.53125 C 639.472656 213.53125 639.46875 213.53125 639.46875 213.53125 C 638.792969 215.882812 638.457031 218.378906 638.550781 220.960938 L 639.460938 245.722656 C 639.773438 253.792969 645.097656 261.183594 653.257812 263.6875 C 653.699219 263.824219 654.144531 263.921875 654.589844 264.023438 L 655.265625 272.761719 C 643.757812 274.429688 632.203125 277.699219 620.464844 282.597656 C 620.445312 282.605469 620.425781 282.617188 620.40625 282.628906 C 618.921875 283.140625 617.519531 283.863281 616.210938 284.746094 L 616.210938 161.597656 C 616.210938 148.582031 605.65625 138.027344 592.640625 138.027344 L 512.738281 138.027344 C 512.738281 137.035156 512.738281 135.695312 512.738281 133.691406 C 512.738281 129.375 511.023438 125.238281 507.972656 122.191406 C 504.921875 119.140625 500.785156 117.425781 496.46875 117.425781 L 440.203125 117.425781 C 440.203125 117.425781 435.320312 90.980469 411.007812 90.445312 L 410.945312 90.386719 C 410.542969 90.386719 410.148438 90.429688 409.746094 90.445312 C 409.542969 90.449219 409.347656 90.4375 409.144531 90.445312 L 409.175781 90.472656 C 394.570312 91.347656 382.820312 102.890625 381.6875 117.425781 L 325.421875 117.425781 C 321.105469 117.425781 316.972656 119.136719 313.917969 122.191406 C 310.867188 125.242188 309.15625 129.378906 309.15625 133.691406 C 309.15625 135.695312 309.15625 137.035156 309.15625 138.027344 L 225.644531 138.027344 C 212.625 138.027344 202.074219 148.582031 202.074219 161.597656 L 202.074219 332.273438 L 88.289062 332.273438 L 88.289062 389.910156 L 179.109375 389.910156 L 210.289062 419.6875 L 202.074219 411.84375 L 202.074219 489.386719 L 176.1875 483.429688 C 184.703125 483.359375 192.253906 482.839844 196.609375 481.496094 C 196.382812 469.761719 194.011719 458.09375 190.0625 447.054688 C 188.101562 441.566406 185.742188 436.21875 183.007812 431.074219 C 181.671875 428.5625 180.40625 426.148438 178.855469 423.964844 C 177.984375 422.445312 176.957031 421.042969 175.765625 419.804688 C 171.097656 414.90625 164.246094 412.328125 157.179688 413.273438 C 155.957031 413.4375 154.761719 413.695312 153.609375 414.050781 C 153.609375 414.050781 125.324219 419.460938 110.136719 478.820312 L 125.191406 480.996094 L 129.191406 470.292969 L 128.042969 480.996094 C 128.042969 480.996094 135.347656 481.699219 145.3125 482.355469 L 144.328125 462.347656 L 145.367188 483.375 L 145.464844 483.351562 L 107.078125 492.449219 C 105.28125 492.746094 103.507812 493.226562 101.796875 493.941406 C 95.664062 496.496094 90.886719 501.488281 88.597656 507.730469 C 80.726562 529.160156 70.46875 557.097656 70.46875 557.097656 L 73.34375 558.042969 C 72.785156 559.882812 72.226562 561.71875 71.664062 563.578125 C 67.78125 576.410156 63.835938 589.582031 60.1875 601.65625 C 59.589844 603.59375 59.285156 605.582031 59.199219 607.570312 C 58.671875 610.902344 58.902344 614.347656 59.976562 617.621094 C 62.007812 623.804688 66.277344 628.226562 71.566406 630.695312 C 71.566406 630.695312 71.5625 630.695312 71.5625 630.695312 C 67.507812 635.242188 64.820312 640.894531 63.949219 647.019531 C 61.695312 662.785156 71.664062 677.519531 86.773438 681.535156 C 86.769531 681.625 86.761719 681.714844 86.757812 681.800781 C 86.75 681.921875 86.746094 682.035156 86.742188 682.148438 C 86.738281 682.21875 86.734375 682.296875 86.730469 682.359375 C 86.730469 682.382812 86.730469 682.398438 86.730469 682.417969 C 86.722656 682.617188 86.714844 682.789062 86.710938 682.949219 C 86.710938 682.964844 86.710938 682.984375 86.710938 682.996094 C 86.707031 683.035156 86.707031 683.066406 86.707031 683.101562 C 86.695312 683.492188 86.691406 683.726562 86.691406 683.726562 C 86.691406 683.726562 84.09375 686.046875 80.867188 688.53125 C 78.214844 690.578125 75.140625 692.738281 72.734375 693.816406 C 61.15625 699.03125 51.433594 706.679688 54.054688 712.613281 C 57.269531 719.90625 69.0625 720.15625 83.007812 714.820312 C 84.003906 714.441406 85.011719 714.03125 86.027344 713.59375 C 87.042969 713.15625 88.066406 712.691406 89.097656 712.199219 C 94.796875 709.472656 102.121094 708.078125 107.644531 707.195312 C 109.011719 706.976562 110.269531 706.792969 111.363281 706.625 C 111.585938 706.589844 111.789062 706.554688 112 706.523438 C 112.148438 706.5 112.308594 706.476562 112.445312 706.453125 C 112.449219 706.453125 112.453125 706.453125 112.453125 706.453125 C 114.859375 706.078125 122.726562 705.78125 130.59375 705.566406 L 129.792969 701.972656 L 131.3125 708.785156 C 131.3125 708.785156 156.746094 704.386719 187.453125 699.082031 C 207.378906 702.523438 221.523438 704.96875 221.523438 704.96875 L 222.445312 700.84375 C 221.832031 700.789062 221.214844 700.734375 220.597656 700.679688 C 228.417969 701.367188 236.210938 702.140625 238.570312 702.660156 C 238.710938 702.691406 238.863281 702.722656 239.011719 702.753906 C 239.21875 702.800781 239.417969 702.84375 239.640625 702.894531 C 245.101562 704.074219 254.636719 705.984375 261.527344 709.808594 C 277.507812 718.675781 292.304688 720.445312 296.480469 712.351562 C 299.457031 706.585938 290.21875 698.363281 278.976562 692.453125 C 274.019531 689.859375 266.363281 682.242188 265.71875 681.597656 C 265.992188 681.871094 267.152344 683.023438 268.746094 684.5 C 277.050781 681.464844 283.503906 675.085938 286.792969 667.207031 L 592.644531 667.207031 C 603.976562 667.207031 613.433594 659.207031 615.695312 648.550781 L 615.566406 651.519531 L 616.304688 651.519531 C 615.761719 658.335938 614.757812 662.914062 613.230469 666.742188 C 613.238281 666.734375 613.25 666.726562 613.257812 666.714844 C 608.410156 672.769531 595.722656 680.476562 585.886719 685.253906 L 590.15625 691.925781 L 585.886719 685.253906 C 584.390625 685.980469 582.960938 686.640625 581.632812 687.214844 C 575.804688 689.742188 574.332031 692.65625 573.957031 695.460938 C 573.757812 696.9375 574.921875 698.253906 576.414062 698.253906 L 638.761719 698.253906 C 640.058594 698.253906 641.132812 697.257812 641.226562 695.96875 C 641.304688 694.914062 641.382812 693.527344 641.421875 691.925781 C 641.542969 686.65625 641.238281 678.960938 639.054688 672.234375 C 639.023438 665.882812 639.910156 657.367188 640.632812 651.519531 L 643.433594 651.519531 C 649.5 631.390625 663.582031 581.753906 656.707031 546.097656 L 671.765625 444.066406 L 675.625 447.707031 L 681.851562 651.519531 L 683.410156 651.519531 C 683.398438 651.957031 683.378906 652.375 683.378906 652.824219 C 683.378906 660.765625 682.914062 666.839844 682.527344 675.296875 C 682.496094 675.929688 682.46875 676.582031 682.441406 677.246094 C 682.433594 677.492188 682.421875 677.75 682.410156 678 C 682.398438 678.375 682.382812 678.75 682.367188 679.136719 C 682.351562 679.542969 682.335938 679.964844 682.320312 680.382812 C 682.3125 680.628906 682.304688 680.871094 682.296875 681.117188 C 682.28125 681.617188 682.265625 682.128906 682.246094 682.652344 C 682.242188 682.800781 682.238281 682.953125 682.234375 683.101562 C 682.125 686.785156 682.046875 690.925781 682.027344 695.765625 C 682.019531 697.136719 683.128906 698.257812 684.5 698.257812 L 727.917969 698.257812 C 729.425781 698.257812 730.609375 696.90625 730.367188 695.414062 C 729.449219 689.792969 725.835938 685.839844 721.714844 682.082031 C 721.71875 682.082031 721.71875 682.082031 721.722656 682.085938 C 721.574219 681.949219 721.421875 681.816406 721.273438 681.683594 C 720.03125 680.566406 718.757812 679.453125 717.496094 678.320312 C 717.203125 678.058594 716.910156 677.792969 716.617188 677.523438 C 716.308594 677.238281 716 676.949219 715.695312 676.660156 C 715.382812 676.363281 715.078125 676.066406 714.777344 675.765625 C 714.5 675.488281 714.222656 675.214844 713.953125 674.933594 C 713.644531 674.609375 713.34375 674.277344 713.046875 673.945312 C 712.800781 673.671875 712.554688 673.398438 712.316406 673.113281 C 712.011719 672.753906 711.726562 672.375 711.441406 672 C 711.234375 671.726562 711.019531 671.460938 710.824219 671.183594 C 710.519531 670.753906 710.246094 670.300781 709.96875 669.847656 C 709.820312 669.597656 709.65625 669.363281 709.511719 669.109375 C 709.117188 668.402344 708.753906 667.671875 708.4375 666.90625 C 708.433594 666.894531 708.425781 666.886719 708.421875 666.875 C 708.292969 666.554688 708.1875 666.238281 708.070312 665.917969 C 706.316406 661.15625 706.03125 656.347656 706.203125 651.523438 L 709.660156 651.523438 C 711.988281 637.660156 716.378906 611.066406 718.484375 595.277344 C 721.425781 573.207031 717.070312 540.773438 717.070312 540.773438 L 718.15625 485.359375 C 716.96875 484.242188 715.820312 483.160156 714.800781 482.199219 C 712.878906 483.046875 710.554688 482.726562 708.933594 481.195312 Z M 684.414062 675.6875 C 684.546875 675.695312 684.683594 675.699219 684.816406 675.695312 C 684.679688 675.699219 684.546875 675.695312 684.414062 675.6875 Z M 689.011719 673.835938 C 689.332031 673.5625 689.648438 673.265625 689.972656 672.917969 C 690.382812 672.480469 690.796875 672.0625 691.210938 671.660156 C 690.796875 672.066406 690.382812 672.480469 689.972656 672.917969 C 689.648438 673.265625 689.332031 673.5625 689.011719 673.835938 Z M 685.203125 675.664062 C 685.355469 675.644531 685.515625 675.621094 685.671875 675.589844 C 685.515625 675.621094 685.355469 675.644531 685.203125 675.664062 Z M 686.023438 675.515625 C 686.292969 675.441406 686.566406 675.355469 686.84375 675.234375 C 686.566406 675.351562 686.292969 675.441406 686.023438 675.515625 Z M 687.054688 675.128906 C 687.285156 675.023438 687.515625 674.902344 687.75 674.757812 C 687.515625 674.902344 687.285156 675.023438 687.054688 675.128906 Z M 688.0625 674.558594 C 688.28125 674.414062 688.5 674.25 688.722656 674.074219 C 688.5 674.25 688.28125 674.414062 688.0625 674.558594 Z M 707.226562 665.679688 C 705.972656 665.351562 704.71875 665.21875 703.464844 665.285156 C 702.691406 665.324219 701.921875 665.433594 701.152344 665.613281 C 700.710938 665.714844 700.277344 665.847656 699.839844 665.992188 C 702.285156 665.175781 704.753906 665.035156 707.226562 665.679688 Z M 691.597656 671.292969 C 691.890625 671.015625 692.183594 670.746094 692.476562 670.488281 C 692.183594 670.746094 691.890625 671.015625 691.597656 671.292969 Z M 692.917969 670.105469 C 693.210938 669.855469 693.507812 669.617188 693.800781 669.386719 C 693.503906 669.617188 693.210938 669.855469 692.917969 670.105469 Z M 694.199219 669.074219 C 694.621094 668.753906 695.042969 668.449219 695.464844 668.167969 C 695.042969 668.449219 694.621094 668.753906 694.199219 669.074219 Z M 695.488281 668.160156 C 695.910156 667.878906 696.335938 667.625 696.761719 667.382812 C 696.335938 667.621094 695.910156 667.878906 695.488281 668.160156 Z M 697.160156 667.167969 C 697.464844 667.003906 697.769531 666.847656 698.074219 666.707031 C 697.769531 666.847656 697.464844 667.003906 697.160156 667.167969 Z M 698.519531 666.503906 C 698.828125 666.371094 699.136719 666.25 699.441406 666.136719 C 699.132812 666.25 698.828125 666.371094 698.519531 666.503906 Z M 377.496094 515.589844 L 377.496094 514.566406 C 377.496094 513.832031 377.71875 513.152344 378.101562 512.589844 C 377.71875 513.152344 377.496094 513.832031 377.496094 514.566406 L 377.496094 515.589844 C 377.496094 516.324219 377.71875 517.003906 378.101562 517.566406 C 377.71875 517.003906 377.496094 516.324219 377.496094 515.589844 Z M 377.496094 260.589844 C 377.496094 259.855469 377.71875 259.175781 378.101562 258.609375 C 377.71875 259.171875 377.496094 259.855469 377.496094 260.589844 L 377.496094 261.613281 C 377.496094 262.347656 377.71875 263.027344 378.101562 263.589844 C 377.71875 263.027344 377.496094 262.34375 377.496094 261.613281 Z M 378.53125 264.113281 C 379.171875 264.753906 380.058594 265.152344 381.035156 265.152344 L 513.074219 265.152344 C 513.847656 265.152344 514.558594 264.894531 515.144531 264.472656 C 514.558594 264.894531 513.847656 265.152344 513.074219 265.152344 L 381.035156 265.152344 C 380.058594 265.148438 379.171875 264.753906 378.53125 264.113281 Z M 513.074219 257.050781 C 513.316406 257.050781 513.554688 257.074219 513.785156 257.121094 C 513.554688 257.074219 513.316406 257.050781 513.074219 257.050781 Z M 378.101562 413.890625 C 377.71875 413.324219 377.496094 412.644531 377.496094 411.914062 L 377.496094 410.886719 C 377.496094 410.242188 377.683594 409.644531 377.984375 409.121094 C 377.683594 409.644531 377.496094 410.242188 377.496094 410.886719 L 377.496094 411.914062 C 377.496094 412.644531 377.71875 413.324219 378.101562 413.890625 Z M 378.945312 397.386719 C 379.511719 397.765625 380.191406 397.988281 380.921875 397.988281 L 519.53125 397.988281 C 520.265625 397.988281 520.945312 397.765625 521.507812 397.386719 C 520.945312 397.765625 520.265625 397.988281 519.53125 397.988281 L 380.921875 397.988281 C 380.191406 397.988281 379.511719 397.769531 378.945312 397.386719 Z M 519.53125 389.890625 C 520.265625 389.890625 520.945312 390.113281 521.507812 390.492188 C 520.945312 390.113281 520.265625 389.890625 519.53125 389.890625 Z M 380.210938 389.960938 C 380.441406 389.914062 380.679688 389.890625 380.921875 389.890625 C 380.679688 389.890625 380.441406 389.914062 380.210938 389.960938 Z M 378.101562 328.675781 C 377.71875 328.109375 377.496094 327.429688 377.496094 326.695312 L 377.496094 325.671875 C 377.496094 324.9375 377.71875 324.257812 378.101562 323.691406 C 377.71875 324.257812 377.496094 324.9375 377.496094 325.671875 L 377.496094 326.695312 C 377.496094 327.429688 377.71875 328.109375 378.101562 328.675781 Z M 378.101562 341.152344 C 377.71875 341.71875 377.496094 342.398438 377.496094 343.132812 L 377.496094 344.15625 C 377.496094 344.886719 377.71875 345.566406 378.101562 346.132812 C 377.71875 345.566406 377.496094 344.886719 377.496094 344.15625 L 377.496094 343.132812 C 377.496094 342.398438 377.71875 341.71875 378.101562 341.152344 Z M 377.496094 428.347656 C 377.496094 427.613281 377.71875 426.933594 378.101562 426.371094 C 377.71875 426.933594 377.496094 427.613281 377.496094 428.347656 L 377.496094 429.371094 C 377.496094 430.019531 377.683594 430.617188 377.984375 431.140625 C 377.683594 430.617188 377.496094 430.019531 377.496094 429.371094 Z M 544.6875 426.371094 C 545.070312 426.933594 545.292969 427.613281 545.292969 428.347656 C 545.292969 427.613281 545.070312 426.933594 544.6875 426.371094 Z M 545.222656 430.085938 C 545.144531 430.464844 544.992188 430.8125 544.804688 431.140625 C 544.992188 430.8125 545.144531 430.464844 545.222656 430.085938 Z M 378.53125 329.199219 C 379.171875 329.839844 380.058594 330.234375 381.035156 330.234375 L 513.074219 330.234375 C 513.847656 330.234375 514.558594 329.980469 515.144531 329.554688 C 514.558594 329.980469 513.847656 330.234375 513.074219 330.234375 L 381.035156 330.234375 C 380.058594 330.234375 379.171875 329.839844 378.53125 329.199219 Z M 535.789062 312.382812 C 535.65625 312.449219 535.515625 312.507812 535.375 312.558594 C 535.515625 312.507812 535.65625 312.449219 535.789062 312.382812 Z M 537.527344 310.40625 C 537.476562 310.550781 537.414062 310.6875 537.347656 310.824219 C 537.414062 310.6875 537.476562 310.550781 537.527344 310.40625 Z M 542.71875 241.148438 C 543.097656 241.714844 543.324219 242.394531 543.324219 243.125 L 543.324219 244.152344 C 543.324219 245.128906 542.925781 246.011719 542.285156 246.652344 C 542.023438 246.917969 541.710938 247.125 541.371094 247.296875 C 541.710938 247.125 542.023438 246.917969 542.285156 246.652344 C 542.925781 246.011719 543.324219 245.128906 543.324219 244.152344 L 543.324219 243.125 C 543.324219 242.394531 543.097656 241.714844 542.71875 241.148438 Z M 378.53125 246.652344 C 378.796875 246.917969 379.109375 247.125 379.445312 247.296875 C 379.109375 247.125 378.796875 246.917969 378.53125 246.652344 C 377.890625 246.015625 377.496094 245.128906 377.496094 244.152344 L 377.496094 243.128906 C 377.496094 242.394531 377.71875 241.714844 378.097656 241.152344 C 377.71875 241.714844 377.496094 242.394531 377.496094 243.128906 L 377.496094 244.152344 C 377.496094 245.128906 377.890625 246.015625 378.53125 246.652344 Z M 377.777344 310.824219 C 377.535156 310.34375 377.386719 309.808594 377.386719 309.234375 C 377.386719 309.808594 377.535156 310.34375 377.777344 310.824219 Z M 377.664062 392.050781 C 377.484375 392.472656 377.386719 392.9375 377.386719 393.425781 C 377.386719 392.9375 377.484375 392.476562 377.664062 392.050781 Z M 378.945312 483.605469 C 378.671875 483.417969 378.4375 483.1875 378.226562 482.9375 C 378.4375 483.1875 378.671875 483.417969 378.945312 483.605469 Z M 381.035156 519.128906 L 513.074219 519.128906 C 513.675781 519.128906 514.230469 518.964844 514.726562 518.703125 C 514.230469 518.964844 513.675781 519.128906 513.074219 519.128906 L 381.035156 519.128906 C 380.300781 519.128906 379.621094 518.90625 379.054688 518.523438 C 379.621094 518.90625 380.300781 519.128906 381.035156 519.128906 Z M 539.785156 493.566406 L 381.035156 493.566406 C 379.082031 493.566406 377.496094 495.152344 377.496094 497.105469 L 377.496094 498.128906 C 377.496094 498.777344 377.683594 499.375 377.984375 499.898438 C 377.683594 499.375 377.496094 498.777344 377.496094 498.128906 L 377.496094 497.105469 C 377.496094 495.152344 379.082031 493.566406 381.035156 493.566406 L 539.785156 493.566406 C 541.738281 493.566406 543.324219 495.152344 543.324219 497.105469 L 543.324219 498.128906 C 543.324219 498.777344 543.136719 499.375 542.832031 499.898438 C 543.136719 499.375 543.324219 498.777344 543.324219 498.128906 L 543.324219 497.105469 C 543.324219 495.152344 541.738281 493.566406 539.785156 493.566406 Z M 380.925781 484.207031 C 380.679688 484.207031 380.441406 484.183594 380.210938 484.136719 C 380.441406 484.183594 380.679688 484.207031 380.925781 484.207031 Z M 559.601562 483.246094 C 559.628906 483.21875 559.664062 483.199219 559.691406 483.171875 C 559.664062 483.199219 559.628906 483.21875 559.601562 483.246094 Z M 557.191406 476.105469 L 380.925781 476.105469 C 380.191406 476.105469 379.511719 476.332031 378.945312 476.710938 C 379.511719 476.332031 380.191406 476.105469 380.925781 476.105469 L 557.191406 476.105469 C 557.835938 476.105469 558.4375 476.292969 558.957031 476.597656 C 558.433594 476.292969 557.835938 476.105469 557.191406 476.105469 Z M 380.925781 230.230469 C 380.679688 230.230469 380.441406 230.203125 380.210938 230.15625 C 380.441406 230.203125 380.679688 230.230469 380.925781 230.230469 Z M 380.925781 561.65625 L 534.203125 561.65625 C 535.289062 561.65625 536.25 562.160156 536.898438 562.929688 C 536.25 562.160156 535.289062 561.65625 534.203125 561.65625 L 380.925781 561.65625 C 379.835938 561.65625 378.875 562.160156 378.226562 562.929688 C 378.875 562.160156 379.835938 561.65625 380.925781 561.65625 Z M 537.527344 567.390625 C 537.476562 567.535156 537.414062 567.671875 537.347656 567.808594 C 537.414062 567.671875 537.476562 567.535156 537.527344 567.390625 Z M 535.789062 569.367188 C 535.65625 569.433594 535.515625 569.492188 535.375 569.542969 C 535.515625 569.492188 535.65625 569.433594 535.789062 569.367188 Z M 377.984375 585.445312 C 377.683594 584.925781 377.496094 584.324219 377.496094 583.679688 L 377.496094 582.65625 C 377.496094 581.921875 377.71875 581.242188 378.101562 580.675781 C 377.71875 581.242188 377.496094 581.921875 377.496094 582.65625 L 377.496094 583.679688 C 377.496094 584.328125 377.683594 584.925781 377.984375 585.445312 Z M 616.210938 391.742188 L 622.015625 397.207031 L 636 389.929688 L 617.359375 399.628906 C 616.917969 399.886719 616.53125 400.210938 616.210938 400.589844 Z M 635.699219 430.035156 C 635.148438 429.964844 634.59375 429.894531 634.046875 429.820312 C 634.59375 429.894531 635.148438 429.964844 635.699219 430.035156 Z M 650.921875 431.558594 C 650.878906 431.554688 650.835938 431.550781 650.792969 431.550781 C 650.835938 431.550781 650.878906 431.554688 650.921875 431.558594 Z M 642.828125 430.855469 C 642.734375 430.847656 642.636719 430.835938 642.539062 430.824219 C 642.636719 430.835938 642.734375 430.847656 642.828125 430.855469 Z M 723.671875 339.445312 L 723.679688 339.394531 L 723.753906 339.390625 L 724.511719 338.882812 Z M 722.660156 340.128906 L 721 341.246094 Z M 684.75 228.566406 C 685.109375 228.742188 685.453125 228.949219 685.773438 229.195312 C 685.453125 228.949219 685.109375 228.742188 684.75 228.566406 Z M 687.59375 231.34375 C 687.398438 230.996094 687.183594 230.660156 686.945312 230.359375 C 687.183594 230.660156 687.398438 230.996094 687.59375 231.34375 Z M 688.300781 232.898438 C 688.167969 232.515625 688.011719 232.148438 687.839844 231.796875 C 688.011719 232.148438 688.167969 232.511719 688.300781 232.898438 Z M 686.734375 230.117188 C 686.507812 229.855469 686.265625 229.617188 686.007812 229.398438 C 686.265625 229.617188 686.507812 229.855469 686.734375 230.117188 Z M 684.5 228.457031 C 684.109375 228.292969 683.707031 228.15625 683.28125 228.082031 C 683.707031 228.15625 684.109375 228.292969 684.5 228.457031 Z M 677.207031 234.125 C 677.132812 234.121094 677.054688 234.121094 676.980469 234.117188 C 677.054688 234.121094 677.128906 234.121094 677.207031 234.125 Z M 676.445312 234.109375 C 676.28125 234.105469 676.125 234.105469 675.976562 234.101562 C 676.128906 234.105469 676.277344 234.105469 676.445312 234.109375 Z M 675.761719 234.101562 C 675.644531 234.101562 675.539062 234.101562 675.445312 234.101562 C 675.542969 234.101562 675.640625 234.101562 675.761719 234.101562 Z M 675.285156 234.105469 C 675.230469 234.105469 675.167969 234.105469 675.125 234.105469 C 675.128906 234.105469 675.132812 234.105469 675.136719 234.105469 C 675.171875 234.105469 675.238281 234.105469 675.285156 234.105469 Z M 667.648438 211.660156 C 667.597656 211.65625 667.554688 211.65625 667.503906 211.65625 C 667.550781 211.65625 667.597656 211.65625 667.648438 211.660156 Z M 664.5625 211.542969 C 664.332031 211.542969 664.121094 211.554688 663.894531 211.558594 C 663.898438 211.558594 663.902344 211.558594 663.90625 211.558594 C 664.128906 211.554688 664.335938 211.542969 664.5625 211.542969 Z M 661.6875 211.617188 C 661.6875 211.617188 661.691406 211.617188 661.691406 211.617188 C 661.558594 211.621094 661.4375 211.636719 661.308594 211.644531 C 661.3125 211.644531 661.316406 211.644531 661.320312 211.644531 C 661.445312 211.636719 661.5625 211.625 661.6875 211.617188 Z M 645.878906 214.257812 C 645.800781 214.269531 645.71875 214.277344 645.640625 214.285156 C 645.71875 214.277344 645.800781 214.269531 645.878906 214.257812 Z M 640.878906 213.992188 C 641.015625 214.027344 641.148438 214.054688 641.285156 214.082031 C 641.148438 214.054688 641.011719 214.023438 640.878906 213.992188 Z M 642.359375 214.273438 C 642.476562 214.289062 642.59375 214.308594 642.710938 214.316406 C 642.59375 214.304688 642.476562 214.285156 642.359375 214.273438 Z M 644.132812 214.378906 C 644.164062 214.378906 644.195312 214.375 644.226562 214.375 C 644.195312 214.375 644.164062 214.378906 644.132812 214.378906 Z M 619.792969 325.492188 L 616.210938 322.121094 Z M 557.191406 222.128906 C 557.835938 222.128906 558.4375 222.316406 558.957031 222.617188 C 558.433594 222.316406 557.835938 222.128906 557.191406 222.128906 L 380.925781 222.128906 C 380.191406 222.128906 379.511719 222.351562 378.945312 222.734375 C 379.511719 222.351562 380.191406 222.128906 380.925781 222.128906 Z M 507.972656 159.28125 C 509.878906 157.375 511.265625 155.042969 512.035156 152.507812 C 512.496094 150.988281 512.738281 149.394531 512.738281 147.777344 C 512.738281 149.394531 512.496094 150.988281 512.035156 152.507812 C 511.265625 155.042969 509.878906 157.375 507.972656 159.28125 C 504.921875 162.332031 500.785156 164.042969 496.472656 164.042969 C 500.785156 164.042969 504.921875 162.332031 507.972656 159.28125 Z M 320.691406 163.339844 C 318.15625 162.570312 315.828125 161.1875 313.917969 159.28125 C 312.652344 158.015625 311.632812 156.554688 310.855469 154.976562 C 311.632812 156.550781 312.652344 158.011719 313.917969 159.28125 C 315.828125 161.1875 318.15625 162.570312 320.691406 163.339844 Z M 271.1875 303.550781 L 271.1875 352.671875 Z M 271.1875 473.589844 L 271.1875 522.710938 Z M 126.808594 690.066406 C 126.785156 689.972656 126.777344 689.878906 126.789062 689.777344 C 126.777344 689.875 126.785156 689.972656 126.808594 690.066406 Z M 126.910156 690.308594 C 126.886719 690.269531 126.871094 690.230469 126.851562 690.1875 C 126.871094 690.230469 126.886719 690.269531 126.910156 690.308594 Z M 146.980469 691.828125 L 146.949219 691.660156 L 176.960938 695.945312 C 177.132812 695.972656 177.277344 696.058594 177.394531 696.171875 Z M 96.320312 635.191406 L 96.160156 629.855469 L 95.070312 593.707031 Z M 180.355469 589.886719 C 180.355469 590.550781 180.296875 591.199219 180.210938 591.839844 C 180.296875 591.199219 180.355469 590.550781 180.355469 589.886719 Z M 180.136719 592.328125 C 180.039062 592.90625 179.917969 593.472656 179.757812 594.023438 C 179.917969 593.472656 180.039062 592.90625 180.136719 592.328125 Z M 179.714844 594.191406 C 179.527344 594.808594 179.292969 595.40625 179.027344 595.988281 C 179.292969 595.40625 179.527344 594.808594 179.714844 594.191406 Z M 178.878906 596.300781 C 178.617188 596.839844 178.332031 597.363281 178.007812 597.863281 C 178.332031 597.363281 178.617188 596.839844 178.878906 596.300781 Z M 177.945312 597.964844 C 177.582031 598.523438 177.175781 599.058594 176.738281 599.5625 C 177.175781 599.058594 177.582031 598.523438 177.945312 597.964844 Z M 176.683594 599.625 C 176.242188 600.128906 175.765625 600.601562 175.261719 601.042969 C 175.765625 600.605469 176.242188 600.128906 176.683594 599.625 Z M 175.257812 601.046875 C 172.65625 603.3125 169.265625 604.695312 165.542969 604.695312 C 161.800781 604.695312 158.390625 603.292969 155.78125 601.003906 C 156.8125 601.902344 157.964844 602.664062 159.214844 603.261719 L 171.789062 603.300781 C 173.054688 602.710938 174.21875 601.949219 175.257812 601.046875 Z M 155.769531 600.988281 C 155.261719 600.542969 154.785156 600.0625 154.34375 599.554688 C 154.785156 600.0625 155.261719 600.546875 155.769531 600.988281 Z M 150.875 591.828125 C 150.792969 591.191406 150.734375 590.546875 150.734375 589.886719 C 150.734375 590.546875 150.792969 591.191406 150.875 591.828125 Z M 154.328125 599.539062 C 153.890625 599.03125 153.488281 598.496094 153.121094 597.933594 C 153.488281 598.496094 153.890625 599.03125 154.328125 599.539062 Z M 153.046875 597.8125 C 152.734375 597.316406 152.449219 596.796875 152.195312 596.265625 C 152.449219 596.796875 152.734375 597.316406 153.046875 597.8125 Z M 152.050781 595.96875 C 151.792969 595.386719 151.558594 594.792969 151.371094 594.179688 C 151.558594 594.792969 151.789062 595.386719 152.050781 595.96875 Z M 151.320312 593.980469 C 151.164062 593.441406 151.046875 592.886719 150.949219 592.320312 C 151.046875 592.886719 151.164062 593.441406 151.320312 593.980469 Z M 224.140625 669.335938 C 224.109375 669.332031 224.078125 669.324219 224.046875 669.320312 C 224.078125 669.324219 224.109375 669.332031 224.140625 669.335938 Z M 220.246094 668.457031 C 220.234375 668.453125 220.21875 668.449219 220.203125 668.445312 C 220.21875 668.449219 220.234375 668.453125 220.246094 668.457031 Z M 218.441406 667.972656 C 218.410156 667.964844 218.378906 667.953125 218.347656 667.945312 C 218.378906 667.953125 218.410156 667.964844 218.441406 667.972656 Z M 215.144531 666.976562 C 215.140625 666.976562 215.136719 666.976562 215.132812 666.972656 C 215.136719 666.976562 215.140625 666.976562 215.144531 666.976562 Z M 213.796875 666.53125 C 213.757812 666.519531 213.722656 666.503906 213.683594 666.492188 C 213.722656 666.503906 213.761719 666.519531 213.796875 666.53125 Z M 212.558594 666.101562 C 212.542969 666.09375 212.53125 666.089844 212.515625 666.085938 C 212.53125 666.089844 212.542969 666.09375 212.558594 666.101562 Z M 210.867188 665.476562 C 210.847656 665.46875 210.828125 665.460938 210.804688 665.453125 C 210.824219 665.460938 210.847656 665.46875 210.867188 665.476562 Z M 210.394531 665.292969 C 210.363281 665.28125 210.359375 665.28125 210.332031 665.269531 C 210.355469 665.277344 210.371094 665.285156 210.394531 665.292969 Z M 242.90625 667.203125 C 242.765625 667.273438 242.625 667.339844 242.484375 667.40625 C 242.625 667.339844 242.765625 667.273438 242.90625 667.203125 Z M 174.675781 483.085938 L 174.542969 478.269531 Z M 82.753906 632.960938 C 82.851562 632.957031 82.949219 632.964844 83.050781 632.960938 C 82.949219 632.964844 82.851562 632.957031 82.753906 632.960938 Z M 78.234375 632.691406 C 78.238281 632.691406 78.242188 632.695312 78.25 632.695312 C 78.242188 632.695312 78.238281 632.691406 78.234375 632.691406 Z M 80.484375 632.925781 C 80.535156 632.929688 80.582031 632.9375 80.632812 632.9375 C 80.582031 632.9375 80.535156 632.929688 80.484375 632.925781 Z M 87.914062 632.335938 C 87.738281 632.375 87.558594 632.394531 87.382812 632.433594 C 87.558594 632.394531 87.738281 632.375 87.914062 632.335938 Z M 85.484375 632.757812 C 85.332031 632.777344 85.179688 632.785156 85.023438 632.800781 C 85.179688 632.78125 85.332031 632.777344 85.484375 632.757812 Z M 89.472656 682.144531 C 100.351562 684.027344 113.316406 686.265625 126.804688 688.597656 C 124.160156 688.140625 121.546875 687.691406 118.957031 687.242188 C 108.324219 685.40625 98.21875 683.65625 89.472656 682.144531 Z M 127.023438 690.453125 C 127.039062 690.46875 127.054688 690.480469 127.070312 690.496094 C 127.054688 690.480469 127.039062 690.46875 127.023438 690.453125 Z M 127.253906 690.621094 Z M 129.660156 638.9375 L 204.28125 653.546875 Z M 202.746094 699.214844 C 205.484375 699.425781 212.996094 700.007812 220.515625 700.671875 C 213.007812 700.011719 205.496094 699.425781 202.746094 699.214844 Z M 201.929688 699.152344 C 201.96875 699.15625 202.007812 699.160156 202.058594 699.164062 C 202.007812 699.160156 201.96875 699.15625 201.929688 699.152344 Z M 202.304688 699.179688 C 202.394531 699.1875 202.496094 699.195312 202.609375 699.203125 C 202.492188 699.195312 202.394531 699.1875 202.304688 699.179688 Z M 226.074219 669.679688 C 226.105469 669.6875 226.136719 669.691406 226.171875 669.699219 C 226.136719 669.691406 226.105469 669.6875 226.074219 669.679688 Z M 230.09375 670.144531 C 230.117188 670.148438 230.144531 670.148438 230.167969 670.152344 C 230.144531 670.148438 230.121094 670.144531 230.09375 670.144531 Z M 232.03125 670.214844 C 232.085938 670.214844 232.136719 670.214844 232.191406 670.214844 C 232.140625 670.214844 232.085938 670.214844 232.03125 670.214844 Z M 234.007812 670.152344 Z M 235.203125 670.03125 C 235.292969 670.019531 235.382812 670.003906 235.472656 669.988281 C 235.382812 670.003906 235.296875 670.019531 235.203125 670.03125 Z M 236.375 669.832031 C 236.484375 669.808594 236.59375 669.785156 236.703125 669.761719 C 236.59375 669.785156 236.484375 669.808594 236.375 669.832031 Z M 237.515625 669.546875 C 237.617188 669.519531 237.722656 669.492188 237.824219 669.460938 C 237.722656 669.492188 237.617188 669.519531 237.515625 669.546875 Z M 265.699219 680.15625 C 265.703125 679.863281 265.707031 679.523438 265.707031 679.164062 C 265.707031 679.527344 265.703125 679.863281 265.699219 680.15625 Z M 264.128906 669.203125 C 263.855469 668.726562 263.570312 668.292969 263.285156 667.882812 C 263.570312 668.292969 263.855469 668.726562 264.128906 669.203125 C 264.300781 669.5 264.449219 669.84375 264.585938 670.207031 C 264.445312 669.84375 264.300781 669.5 264.128906 669.203125 Z M 264.679688 670.476562 C 264.808594 670.847656 264.925781 671.234375 265.019531 671.652344 C 264.925781 671.234375 264.808594 670.847656 264.679688 670.476562 Z M 265.035156 671.71875 C 265.128906 672.125 265.207031 672.546875 265.277344 672.980469 C 265.207031 672.546875 265.128906 672.125 265.035156 671.71875 Z M 265.332031 673.320312 C 265.398438 673.765625 265.453125 674.214844 265.5 674.667969 C 265.453125 674.214844 265.394531 673.765625 265.332031 673.320312 Z M 265.511719 674.8125 C 265.554688 675.234375 265.585938 675.65625 265.609375 676.070312 C 265.585938 675.65625 265.554688 675.234375 265.511719 674.8125 Z M 265.632812 676.410156 C 265.65625 676.847656 265.675781 677.28125 265.6875 677.691406 C 265.675781 677.28125 265.65625 676.847656 265.632812 676.410156 Z M 265.660156 681.371094 C 265.65625 681.46875 265.652344 681.535156 265.652344 681.535156 C 265.652344 681.535156 265.65625 681.472656 265.660156 681.371094 Z M 265.6875 677.839844 C 265.699219 678.222656 265.703125 678.582031 265.703125 678.925781 C 265.703125 678.582031 265.699219 678.21875 265.6875 677.839844 Z M 265.695312 680.25 C 265.691406 680.453125 265.6875 680.632812 265.683594 680.792969 C 265.6875 680.632812 265.691406 680.449219 265.695312 680.25 Z M 265.675781 680.960938 C 265.671875 681.097656 265.667969 681.207031 265.664062 681.292969 C 265.667969 681.207031 265.671875 681.09375 265.675781 680.960938 Z M 263.078125 667.585938 C 262.980469 667.449219 262.875 667.335938 262.777344 667.203125 L 262.796875 667.203125 C 262.890625 667.328125 262.984375 667.457031 263.078125 667.585938 Z M 327.273438 558.609375 L 271.1875 558.609375 L 271.1875 607.730469 L 271.1875 558.609375 Z M 327.273438 389.117188 L 271.1875 389.117188 L 271.1875 438.238281 L 327.273438 438.238281 L 271.1875 438.238281 L 271.1875 389.117188 Z M 327.273438 268.199219 L 271.1875 268.199219 L 271.1875 219.082031 L 326.152344 219.082031 L 271.1875 219.082031 L 271.1875 268.199219 Z M 377.386719 566.21875 C 377.386719 566.796875 377.535156 567.332031 377.777344 567.808594 C 377.535156 567.328125 377.386719 566.796875 377.386719 566.21875 Z M 377.496094 601.140625 L 377.496094 600.117188 C 377.496094 599.382812 377.71875 598.703125 378.101562 598.140625 C 377.71875 598.703125 377.496094 599.382812 377.496094 600.117188 L 377.496094 601.140625 C 377.496094 601.875 377.71875 602.554688 378.101562 603.117188 C 377.71875 602.554688 377.496094 601.871094 377.496094 601.140625 Z M 557.296875 604.679688 L 381.035156 604.679688 C 380.300781 604.679688 379.621094 604.457031 379.054688 604.074219 C 379.621094 604.457031 380.300781 604.679688 381.035156 604.679688 L 557.296875 604.679688 C 558.03125 604.679688 558.710938 604.457031 559.277344 604.074219 C 558.714844 604.457031 558.03125 604.679688 557.296875 604.679688 Z M 560.835938 601.140625 C 560.835938 601.875 560.613281 602.554688 560.234375 603.117188 C 560.617188 602.554688 560.835938 601.871094 560.835938 601.140625 L 560.835938 600.117188 C 560.835938 599.382812 560.613281 598.703125 560.234375 598.140625 C 560.613281 598.703125 560.835938 599.382812 560.835938 600.117188 Z M 560.835938 411.914062 C 560.835938 412.644531 560.613281 413.324219 560.234375 413.890625 C 560.617188 413.324219 560.835938 412.644531 560.835938 411.914062 L 560.835938 410.886719 C 560.835938 410.242188 560.648438 409.644531 560.347656 409.121094 C 560.652344 409.644531 560.835938 410.242188 560.835938 410.886719 Z M 560.835938 344.15625 C 560.835938 344.890625 560.613281 345.570312 560.234375 346.132812 C 560.617188 345.570312 560.835938 344.890625 560.835938 344.15625 L 560.835938 343.132812 C 560.835938 342.398438 560.613281 341.71875 560.234375 341.15625 C 560.613281 341.71875 560.835938 342.402344 560.835938 343.132812 Z M 616.210938 636.320312 L 616.210938 405.910156 C 616.769531 406.492188 617.578125 406.949219 618.726562 407.113281 C 618.714844 407.230469 618.726562 407.351562 618.769531 407.472656 C 618.839844 407.660156 618.976562 407.789062 619.136719 407.878906 C 618.183594 410.101562 620.015625 412.933594 621.929688 413.546875 C 621.90625 413.683594 621.90625 413.824219 621.960938 413.960938 C 622.0625 414.234375 622.304688 414.386719 622.566406 414.441406 C 622.398438 417.929688 622.289062 421.003906 622.289062 423.3125 C 622.289062 425.078125 623.128906 426.660156 624.445312 427.679688 L 620.332031 539.699219 Z M 625.730469 428.414062 C 625.652344 428.382812 625.582031 428.351562 625.507812 428.3125 C 625.582031 428.347656 625.652344 428.382812 625.730469 428.414062 Z M 625.730469 428.414062 " fill-opacity="1" fill-rule="nonzero"/><path fill="#e0e0e0" d="M 327.273438 219.082031 L 327.273438 268.199219 L 271.1875 268.199219 L 271.1875 219.082031 Z M 327.273438 303.550781 L 271.1875 303.550781 L 271.1875 352.671875 L 327.273438 352.671875 Z M 327.273438 473.589844 L 271.1875 473.589844 L 271.1875 522.710938 L 327.273438 522.710938 Z M 327.273438 558.609375 L 271.1875 558.609375 L 271.1875 607.730469 L 327.273438 607.730469 Z M 327.273438 389.117188 L 271.1875 389.117188 L 271.1875 438.238281 L 327.273438 438.238281 Z M 560.730469 226.691406 L 560.730469 225.667969 C 560.730469 223.710938 559.144531 222.128906 557.191406 222.128906 L 380.925781 222.128906 C 378.96875 222.128906 377.386719 223.710938 377.386719 225.667969 L 377.386719 226.691406 C 377.386719 228.644531 378.96875 230.230469 380.925781 230.230469 L 557.191406 230.230469 C 559.144531 230.230469 560.730469 228.644531 560.730469 226.691406 Z M 543.324219 244.152344 L 543.324219 243.125 C 543.324219 241.171875 541.738281 239.589844 539.785156 239.589844 L 381.035156 239.589844 C 379.078125 239.589844 377.496094 241.171875 377.496094 243.125 L 377.496094 244.152344 C 377.496094 246.105469 379.078125 247.691406 381.035156 247.691406 L 539.785156 247.691406 C 541.738281 247.691406 543.324219 246.105469 543.324219 244.152344 Z M 516.613281 261.609375 L 516.613281 260.585938 C 516.613281 258.632812 515.027344 257.046875 513.074219 257.046875 L 381.035156 257.046875 C 379.078125 257.046875 377.496094 258.632812 377.496094 260.585938 L 377.496094 261.609375 C 377.496094 263.566406 379.078125 265.148438 381.035156 265.148438 L 513.074219 265.148438 C 515.027344 265.148438 516.613281 263.566406 516.613281 261.609375 Z M 560.730469 480.667969 L 560.730469 479.644531 C 560.730469 477.691406 559.144531 476.105469 557.191406 476.105469 L 380.925781 476.105469 C 378.96875 476.105469 377.386719 477.691406 377.386719 479.644531 L 377.386719 480.667969 C 377.386719 482.625 378.96875 484.207031 380.925781 484.207031 L 557.191406 484.207031 C 559.144531 484.207031 560.730469 482.625 560.730469 480.667969 Z M 543.324219 498.128906 L 543.324219 497.105469 C 543.324219 495.152344 541.738281 493.566406 539.785156 493.566406 L 381.035156 493.566406 C 379.078125 493.566406 377.496094 495.152344 377.496094 497.105469 L 377.496094 498.128906 C 377.496094 500.085938 379.078125 501.667969 381.035156 501.667969 L 539.785156 501.667969 C 541.738281 501.667969 543.324219 500.085938 543.324219 498.128906 Z M 516.613281 515.589844 L 516.613281 514.566406 C 516.613281 512.609375 515.027344 511.027344 513.074219 511.027344 L 381.035156 511.027344 C 379.078125 511.027344 377.496094 512.609375 377.496094 514.566406 L 377.496094 515.589844 C 377.496094 517.542969 379.078125 519.128906 381.035156 519.128906 L 513.074219 519.128906 C 515.027344 519.128906 516.613281 517.542969 516.613281 515.589844 Z M 537.738281 309.234375 L 537.738281 308.210938 C 537.738281 306.257812 536.15625 304.671875 534.199219 304.671875 L 380.921875 304.671875 C 378.96875 304.671875 377.382812 306.253906 377.382812 308.210938 L 377.382812 309.234375 C 377.382812 311.191406 378.96875 312.773438 380.921875 312.773438 L 534.199219 312.773438 C 536.15625 312.773438 537.738281 311.191406 537.738281 309.234375 Z M 516.613281 326.695312 L 516.613281 325.671875 C 516.613281 323.714844 515.027344 322.132812 513.074219 322.132812 L 381.035156 322.132812 C 379.078125 322.132812 377.496094 323.714844 377.496094 325.671875 L 377.496094 326.695312 C 377.496094 328.648438 379.078125 330.234375 381.035156 330.234375 L 513.074219 330.234375 C 515.027344 330.234375 516.613281 328.648438 516.613281 326.695312 Z M 560.835938 344.15625 L 560.835938 343.132812 C 560.835938 341.175781 559.253906 339.59375 557.296875 339.59375 L 381.035156 339.59375 C 379.078125 339.59375 377.496094 341.175781 377.496094 343.132812 L 377.496094 344.15625 C 377.496094 346.109375 379.078125 347.695312 381.035156 347.695312 L 557.296875 347.695312 C 559.253906 347.695312 560.835938 346.109375 560.835938 344.15625 Z M 537.738281 566.21875 L 537.738281 565.195312 C 537.738281 563.242188 536.15625 561.65625 534.199219 561.65625 L 380.921875 561.65625 C 378.96875 561.65625 377.382812 563.242188 377.382812 565.195312 L 377.382812 566.21875 C 377.382812 568.175781 378.96875 569.757812 380.921875 569.757812 L 534.199219 569.757812 C 536.15625 569.757812 537.738281 568.175781 537.738281 566.21875 Z M 516.613281 583.679688 L 516.613281 582.65625 C 516.613281 580.703125 515.027344 579.117188 513.074219 579.117188 L 381.035156 579.117188 C 379.078125 579.117188 377.496094 580.703125 377.496094 582.65625 L 377.496094 583.679688 C 377.496094 585.636719 379.078125 587.21875 381.035156 587.21875 L 513.074219 587.21875 C 515.027344 587.21875 516.613281 585.632812 516.613281 583.679688 Z M 560.835938 601.140625 L 560.835938 600.117188 C 560.835938 598.160156 559.253906 596.578125 557.296875 596.578125 L 381.035156 596.578125 C 379.078125 596.578125 377.496094 598.160156 377.496094 600.117188 L 377.496094 601.140625 C 377.496094 603.09375 379.078125 604.679688 381.035156 604.679688 L 557.296875 604.679688 C 559.253906 604.679688 560.835938 603.09375 560.835938 601.140625 Z M 523.070312 394.449219 L 523.070312 393.425781 C 523.070312 391.472656 521.488281 389.886719 519.53125 389.886719 L 380.921875 389.886719 C 378.96875 389.886719 377.382812 391.472656 377.382812 393.425781 L 377.382812 394.449219 C 377.382812 396.40625 378.96875 397.988281 380.921875 397.988281 L 519.53125 397.988281 C 521.488281 397.988281 523.070312 396.40625 523.070312 394.449219 Z M 560.835938 411.910156 L 560.835938 410.886719 C 560.835938 408.933594 559.253906 407.347656 557.296875 407.347656 L 381.035156 407.347656 C 379.078125 407.347656 377.496094 408.933594 377.496094 410.886719 L 377.496094 411.910156 C 377.496094 413.867188 379.078125 415.449219 381.035156 415.449219 L 557.296875 415.449219 C 559.253906 415.449219 560.835938 413.867188 560.835938 411.910156 Z M 545.292969 429.371094 L 545.292969 428.347656 C 545.292969 426.390625 543.707031 424.808594 541.753906 424.808594 L 381.035156 424.808594 C 379.078125 424.808594 377.496094 426.390625 377.496094 428.347656 L 377.496094 429.371094 C 377.496094 431.324219 379.078125 432.910156 381.035156 432.910156 L 541.753906 432.910156 C 543.707031 432.910156 545.292969 431.324219 545.292969 429.371094 Z M 410.945312 90.386719 C 395.527344 90.386719 382.867188 102.308594 381.6875 117.425781 L 325.421875 117.425781 C 321.109375 117.425781 316.972656 119.140625 313.921875 122.191406 C 310.871094 125.242188 309.15625 129.378906 309.15625 133.691406 C 309.15625 143.148438 309.15625 138.324219 309.15625 147.777344 C 309.15625 152.09375 310.871094 156.230469 313.921875 159.28125 C 316.972656 162.332031 321.109375 164.042969 325.421875 164.042969 C 363.554688 164.042969 458.34375 164.042969 496.472656 164.042969 C 500.789062 164.042969 504.925781 162.332031 507.976562 159.28125 C 511.027344 156.230469 512.738281 152.09375 512.738281 147.777344 C 512.738281 138.320312 512.738281 143.148438 512.738281 133.691406 C 512.738281 129.378906 511.027344 125.242188 507.976562 122.191406 C 504.925781 119.140625 500.789062 117.425781 496.472656 117.425781 L 440.207031 117.425781 M 440.203125 117.425781 C 440.203125 117.425781 435.082031 89.613281 409.144531 90.445312 M 226.617188 332.273438 L 226.617188 389.910156 L 210.285156 389.910156 L 210.285156 419.6875 L 179.105469 389.910156 L 88.289062 389.910156 L 88.289062 332.273438 Z M 109.230469 355.53125 L 163.78125 355.53125 L 163.78125 351.875 L 109.230469 351.875 Z M 205.671875 366.488281 L 109.230469 366.488281 L 109.230469 370.144531 L 205.671875 370.144531 Z M 748.5625 110.78125 L 748.5625 158.347656 L 673.609375 158.347656 L 647.875 182.925781 L 647.875 158.347656 L 634.398438 158.347656 L 634.398438 110.78125 Z M 677.519531 133.683594 C 677.519531 130.5 674.941406 127.921875 671.757812 127.921875 C 668.578125 127.921875 666 130.5 666 133.683594 C 666 136.863281 668.578125 139.441406 671.757812 139.441406 C 674.941406 139.441406 677.519531 136.863281 677.519531 133.683594 Z M 698.664062 133.683594 C 698.664062 130.5 696.085938 127.921875 692.90625 127.921875 C 689.722656 127.921875 687.144531 130.5 687.144531 133.683594 C 687.144531 136.863281 689.722656 139.441406 692.90625 139.441406 C 696.085938 139.441406 698.664062 136.863281 698.664062 133.683594 Z M 719.808594 133.683594 C 719.808594 130.5 717.230469 127.921875 714.046875 127.921875 C 710.867188 127.921875 708.289062 130.5 708.289062 133.683594 C 708.289062 136.863281 710.867188 139.441406 714.046875 139.441406 C 717.230469 139.441406 719.808594 136.863281 719.808594 133.683594 Z M 719.808594 133.683594 " fill-opacity="1" fill-rule="nonzero"/><path fill="#f5f5f5" d="M 202.074219 370.140625 L 109.230469 370.140625 L 109.230469 366.488281 L 205.671875 366.488281 L 205.671875 370.140625 Z M 616.210938 161.601562 L 616.210938 643.632812 C 616.210938 656.652344 605.660156 667.203125 592.640625 667.203125 L 225.644531 667.203125 C 216.171875 667.203125 208.027344 661.605469 204.28125 653.546875 L 129.660156 638.9375 C 129.527344 638.910156 129.414062 638.847656 129.316406 638.769531 L 96.429688 638.769531 L 96.324219 635.191406 L 93.480469 541 L 202.074219 541 L 202.074219 411.847656 L 210.289062 419.691406 L 210.289062 389.914062 L 226.617188 389.914062 L 226.617188 332.277344 L 202.074219 332.277344 L 202.074219 161.601562 C 202.074219 148.582031 212.625 138.03125 225.644531 138.03125 L 309.15625 138.03125 C 309.15625 141.722656 309.15625 140.328125 309.15625 147.777344 C 309.15625 152.09375 310.867188 156.230469 313.917969 159.28125 C 316.972656 162.332031 321.105469 164.042969 325.421875 164.042969 C 363.550781 164.042969 458.339844 164.042969 496.472656 164.042969 C 500.785156 164.042969 504.921875 162.332031 507.972656 159.28125 C 511.023438 156.230469 512.738281 152.09375 512.738281 147.777344 C 512.738281 140.324219 512.738281 141.722656 512.738281 138.03125 L 592.640625 138.03125 C 605.660156 138.03125 616.210938 148.582031 616.210938 161.601562 Z M 150.734375 589.886719 C 150.734375 598.0625 157.363281 604.695312 165.542969 604.695312 C 173.722656 604.695312 180.351562 598.0625 180.351562 589.886719 C 180.351562 581.707031 173.722656 575.074219 165.542969 575.074219 C 157.363281 575.074219 150.734375 581.707031 150.734375 589.886719 Z M 203.53125 651.730469 C 202.605469 649.203125 202.074219 646.484375 202.074219 643.632812 L 202.074219 638.769531 L 137.347656 638.769531 Z M 377.386719 226.691406 C 377.386719 228.644531 378.96875 230.230469 380.925781 230.230469 L 557.191406 230.230469 C 559.144531 230.230469 560.730469 228.644531 560.730469 226.691406 L 560.730469 225.667969 C 560.730469 223.710938 559.144531 222.128906 557.191406 222.128906 L 380.925781 222.128906 C 378.972656 222.128906 377.386719 223.710938 377.386719 225.667969 Z M 539.785156 247.691406 C 541.738281 247.691406 543.324219 246.105469 543.324219 244.152344 L 543.324219 243.125 C 543.324219 241.171875 541.738281 239.589844 539.785156 239.589844 L 381.035156 239.589844 C 379.082031 239.589844 377.496094 241.171875 377.496094 243.125 L 377.496094 244.152344 C 377.496094 246.105469 379.082031 247.691406 381.035156 247.691406 Z M 513.074219 257.050781 L 381.035156 257.050781 C 379.078125 257.050781 377.496094 258.632812 377.496094 260.589844 L 377.496094 261.613281 C 377.496094 263.566406 379.078125 265.152344 381.035156 265.152344 L 513.074219 265.152344 C 515.027344 265.152344 516.613281 263.566406 516.613281 261.613281 L 516.613281 260.589844 C 516.613281 258.632812 515.027344 257.050781 513.074219 257.050781 Z M 377.386719 309.234375 C 377.386719 311.191406 378.96875 312.773438 380.925781 312.773438 L 534.203125 312.773438 C 536.15625 312.773438 537.742188 311.191406 537.742188 309.234375 L 537.742188 308.210938 C 537.742188 306.257812 536.15625 304.671875 534.203125 304.671875 L 380.925781 304.671875 C 378.972656 304.671875 377.386719 306.253906 377.386719 308.210938 Z M 513.074219 322.132812 L 381.035156 322.132812 C 379.078125 322.132812 377.496094 323.71875 377.496094 325.671875 L 377.496094 326.695312 C 377.496094 328.652344 379.078125 330.234375 381.035156 330.234375 L 513.074219 330.234375 C 515.027344 330.234375 516.613281 328.652344 516.613281 326.695312 L 516.613281 325.671875 C 516.613281 323.71875 515.027344 322.132812 513.074219 322.132812 Z M 377.386719 394.449219 C 377.386719 396.40625 378.96875 397.988281 380.925781 397.988281 L 519.535156 397.988281 C 521.488281 397.988281 523.070312 396.40625 523.070312 394.449219 L 523.070312 393.425781 C 523.070312 391.472656 521.488281 389.886719 519.535156 389.886719 L 380.925781 389.886719 C 378.972656 389.886719 377.386719 391.472656 377.386719 393.425781 Z M 377.496094 429.371094 C 377.496094 431.324219 379.082031 432.910156 381.035156 432.910156 L 541.753906 432.910156 C 543.710938 432.910156 545.292969 431.324219 545.292969 429.371094 L 545.292969 428.347656 C 545.292969 426.390625 543.710938 424.808594 541.753906 424.808594 L 381.035156 424.808594 C 379.082031 424.808594 377.496094 426.390625 377.496094 428.347656 Z M 377.386719 480.667969 C 377.386719 482.625 378.96875 484.207031 380.925781 484.207031 L 557.191406 484.207031 C 559.144531 484.207031 560.730469 482.625 560.730469 480.667969 L 560.730469 479.644531 C 560.730469 477.691406 559.144531 476.105469 557.191406 476.105469 L 380.925781 476.105469 C 378.972656 476.105469 377.386719 477.691406 377.386719 479.644531 Z M 539.785156 501.667969 C 541.738281 501.667969 543.324219 500.085938 543.324219 498.128906 L 543.324219 497.105469 C 543.324219 495.152344 541.738281 493.566406 539.785156 493.566406 L 381.035156 493.566406 C 379.082031 493.566406 377.496094 495.152344 377.496094 497.105469 L 377.496094 498.128906 C 377.496094 500.085938 379.082031 501.667969 381.035156 501.667969 Z M 513.074219 511.027344 L 381.035156 511.027344 C 379.078125 511.027344 377.496094 512.609375 377.496094 514.566406 L 377.496094 515.589844 C 377.496094 517.542969 379.078125 519.128906 381.035156 519.128906 L 513.074219 519.128906 C 515.027344 519.128906 516.613281 517.542969 516.613281 515.589844 L 516.613281 514.566406 C 516.613281 512.613281 515.027344 511.027344 513.074219 511.027344 Z M 327.273438 558.609375 L 271.1875 558.609375 L 271.1875 607.730469 L 327.273438 607.730469 Z M 327.273438 473.589844 L 271.1875 473.589844 L 271.1875 522.710938 L 327.273438 522.710938 Z M 327.273438 389.117188 L 271.1875 389.117188 L 271.1875 438.238281 L 327.273438 438.238281 Z M 327.273438 303.550781 L 271.1875 303.550781 L 271.1875 352.671875 L 327.273438 352.671875 Z M 327.273438 219.082031 L 271.1875 219.082031 L 271.1875 268.199219 L 327.273438 268.199219 Z M 377.386719 566.21875 C 377.386719 568.175781 378.96875 569.757812 380.925781 569.757812 L 534.203125 569.757812 C 536.15625 569.757812 537.742188 568.175781 537.742188 566.21875 L 537.742188 565.195312 C 537.742188 563.242188 536.15625 561.65625 534.203125 561.65625 L 380.925781 561.65625 C 378.972656 561.65625 377.386719 563.242188 377.386719 565.195312 Z M 513.074219 579.117188 L 381.035156 579.117188 C 379.078125 579.117188 377.496094 580.703125 377.496094 582.65625 L 377.496094 583.679688 C 377.496094 585.636719 379.078125 587.21875 381.035156 587.21875 L 513.074219 587.21875 C 515.027344 587.21875 516.613281 585.636719 516.613281 583.679688 L 516.613281 582.65625 C 516.613281 580.703125 515.027344 579.117188 513.074219 579.117188 Z M 560.835938 600.117188 C 560.835938 598.164062 559.253906 596.578125 557.296875 596.578125 L 381.035156 596.578125 C 379.082031 596.578125 377.496094 598.160156 377.496094 600.117188 L 377.496094 601.140625 C 377.496094 603.09375 379.082031 604.679688 381.035156 604.679688 L 557.300781 604.679688 C 559.253906 604.679688 560.839844 603.09375 560.839844 601.140625 L 560.839844 600.117188 Z M 560.835938 410.886719 C 560.835938 408.933594 559.253906 407.351562 557.296875 407.351562 L 381.035156 407.351562 C 379.082031 407.351562 377.496094 408.933594 377.496094 410.886719 L 377.496094 411.914062 C 377.496094 413.867188 379.082031 415.453125 381.035156 415.453125 L 557.300781 415.453125 C 559.253906 415.453125 560.839844 413.867188 560.839844 411.914062 L 560.839844 410.886719 Z M 560.835938 343.132812 C 560.835938 341.175781 559.253906 339.59375 557.296875 339.59375 L 381.035156 339.59375 C 379.082031 339.59375 377.496094 341.175781 377.496094 343.132812 L 377.496094 344.15625 C 377.496094 346.109375 379.082031 347.695312 381.035156 347.695312 L 557.300781 347.695312 C 559.253906 347.695312 560.839844 346.113281 560.839844 344.15625 L 560.839844 343.132812 Z M 179.019531 696.40625 L 127.71875 689.078125 C 127.273438 689.011719 126.855469 689.324219 126.789062 689.773438 C 126.726562 690.222656 127.039062 690.636719 127.488281 690.703125 L 178.789062 698.03125 C 178.828125 698.035156 178.867188 698.039062 178.90625 698.039062 C 179.304688 698.039062 179.65625 697.746094 179.714844 697.332031 C 179.78125 696.882812 179.46875 696.46875 179.019531 696.40625 Z M 163.785156 351.875 L 109.230469 351.875 L 109.230469 355.53125 L 163.78125 355.53125 L 163.78125 351.875 Z M 179.019531 696.40625 L 127.71875 689.078125 C 127.273438 689.011719 126.855469 689.324219 126.789062 689.773438 C 126.726562 690.222656 127.039062 690.636719 127.488281 690.703125 L 178.789062 698.03125 C 178.828125 698.035156 178.867188 698.039062 178.90625 698.039062 C 179.304688 698.039062 179.65625 697.746094 179.714844 697.332031 C 179.78125 696.882812 179.46875 696.46875 179.019531 696.40625 Z M 179.019531 696.40625 " fill-opacity="1" fill-rule="nonzero"/><path fill="#ff5757" d="M 538.957031 273.820312 C 536.757812 277.996094 532.425781 283.175781 528.015625 284.449219 L 522.085938 268.710938 Z M 300.96875 257.882812 C 301.890625 257.839844 302.753906 257.414062 303.339844 256.703125 L 349.144531 201.738281 C 350.304688 200.347656 350.117188 198.277344 348.726562 197.117188 C 347.332031 195.957031 345.261719 196.144531 344.105469 197.539062 L 300.597656 249.742188 L 288.480469 237.625 C 287.199219 236.34375 285.121094 236.34375 283.839844 237.625 C 282.558594 238.910156 282.558594 240.988281 283.839844 242.269531 L 298.5 256.925781 C 299.117188 257.542969 299.953125 257.886719 300.820312 257.886719 C 300.871094 257.886719 300.921875 257.882812 300.96875 257.882812 Z M 744.597656 338.546875 L 740.101562 338.730469 C 740.089844 338.679688 740.082031 338.652344 740.082031 338.652344 L 724.507812 338.882812 L 723.753906 339.390625 L 722.847656 339.429688 C 722.820312 339.636719 722.796875 339.84375 722.769531 340.050781 L 720.996094 341.246094 L 720.996094 353.84375 L 708.945312 359.488281 C 703.035156 361.132812 696.957031 363.652344 692.597656 365.449219 L 672.324219 374.980469 L 621.617188 327.214844 L 620.015625 311.644531 C 619.96875 311.191406 619.535156 310.863281 619.117188 310.914062 C 618.664062 310.957031 618.335938 311.359375 618.382812 311.8125 L 619.789062 325.496094 L 601.6875 308.445312 L 609.914062 292.148438 C 612.054688 287.480469 615.921875 284.1875 620.40625 282.632812 C 620.425781 282.625 620.445312 282.613281 620.464844 282.601562 C 632.203125 277.703125 643.757812 274.4375 655.265625 272.765625 L 655.542969 276.332031 C 656.308594 285.589844 664.136719 292.679688 673.976562 291.839844 C 683.820312 291.003906 691.175781 282.820312 690.40625 273.566406 L 690.253906 272.621094 C 703.449219 274.40625 716.761719 278.246094 730.394531 284.132812 C 730.394531 284.132812 730.390625 284.164062 730.382812 284.214844 C 736.105469 286.847656 740.386719 292.273438 741.226562 298.988281 C 742.117188 306.109375 742.714844 313.25 743.332031 320.390625 C 743.789062 326.4375 744.226562 332.492188 744.597656 338.546875 Z M 717.699219 385.753906 L 657.976562 408.621094 L 656.507812 409.800781 L 640.652344 417.132812 C 640.652344 417.132812 634.992188 419.496094 631.65625 419.8125 C 629.421875 420.027344 628.5625 418.359375 628.242188 417.300781 C 628.046875 417.355469 627.875 417.390625 627.765625 417.398438 C 624.5625 417.644531 622.332031 414.859375 622.726562 413.667969 C 622.6875 413.667969 622.644531 413.660156 622.605469 413.660156 C 622.414062 417.480469 622.289062 420.824219 622.289062 423.3125 C 622.289062 426.039062 624.28125 428.351562 626.972656 428.785156 C 655.980469 433.484375 688.878906 433.621094 717.125 428.824219 C 719.800781 428.371094 721.769531 426.070312 721.769531 423.355469 C 721.769531 415.363281 720.476562 398.546875 719.90625 384.863281 C 719.199219 385.15625 718.476562 385.453125 717.699219 385.753906 Z M 752.960938 453.066406 C 750.894531 451.117188 748.816406 449.160156 747.109375 447.550781 C 746.886719 448.378906 746.484375 449.171875 745.855469 449.839844 C 738.824219 457.304688 723.5625 473.503906 716.53125 480.96875 C 716.023438 481.507812 715.433594 481.917969 714.796875 482.199219 C 716.472656 483.777344 718.480469 485.664062 720.480469 487.546875 C 725.648438 492.417969 733.785156 492.171875 738.652344 487.003906 C 743.265625 482.109375 748.894531 476.132812 753.507812 471.238281 C 758.371094 466.070312 758.128906 457.933594 752.960938 453.066406 Z M 89.472656 682.144531 C 88.550781 681.984375 87.65625 681.773438 86.769531 681.535156 C 86.761719 681.625 86.757812 681.714844 86.753906 681.800781 C 86.746094 681.921875 86.742188 682.035156 86.738281 682.148438 C 86.734375 682.21875 86.730469 682.296875 86.726562 682.359375 C 86.726562 682.382812 86.726562 682.398438 86.726562 682.417969 C 86.71875 682.617188 86.710938 682.789062 86.707031 682.949219 C 86.707031 682.960938 86.703125 682.984375 86.703125 682.996094 C 86.703125 683.035156 86.703125 683.066406 86.699219 683.101562 C 86.691406 683.492188 86.6875 683.726562 86.6875 683.726562 C 86.6875 683.726562 84.089844 686.046875 80.863281 688.53125 C 78.210938 690.578125 75.132812 692.738281 72.726562 693.816406 C 61.152344 699.03125 51.429688 706.679688 54.046875 712.613281 C 57.265625 719.90625 69.058594 720.15625 83.003906 714.820312 C 84 714.441406 85.003906 714.027344 86.023438 713.59375 C 87.039062 713.15625 88.0625 712.691406 89.09375 712.199219 C 94.792969 709.472656 102.113281 708.078125 107.640625 707.195312 C 109.007812 706.976562 110.265625 706.792969 111.359375 706.625 C 111.582031 706.589844 111.785156 706.554688 111.996094 706.523438 C 112.144531 706.5 112.300781 706.476562 112.441406 706.453125 C 112.445312 706.453125 112.449219 706.453125 112.449219 706.453125 C 113.550781 706.28125 115.90625 705.984375 118.933594 705.621094 L 118.957031 687.242188 C 108.324219 685.40625 98.21875 683.65625 89.472656 682.144531 Z M 278.972656 692.449219 C 273.796875 689.746094 265.652344 681.53125 265.652344 681.53125 C 265.652344 681.53125 265.667969 681.257812 265.679688 680.804688 C 265.6875 680.617188 265.691406 680.410156 265.695312 680.167969 C 265.742188 677.550781 265.652344 671.839844 264.128906 669.203125 C 259.183594 660.625 252.496094 662.730469 245.460938 665.992188 C 245.261719 666.082031 245.066406 666.175781 244.871094 666.265625 C 243.140625 667.078125 241.394531 667.945312 239.652344 668.726562 C 239.445312 668.816406 239.238281 668.910156 239.035156 669 C 238.972656 669.023438 238.910156 669.050781 238.847656 669.082031 C 237.429688 669.691406 235.773438 670.023438 233.992188 670.152344 L 232.136719 701.429688 C 235.140625 701.976562 237.476562 702.417969 238.5625 702.65625 C 238.703125 702.6875 238.859375 702.71875 239.003906 702.753906 C 239.210938 702.800781 239.414062 702.84375 239.632812 702.890625 C 245.09375 704.070312 254.628906 705.980469 261.519531 709.804688 C 277.5 718.675781 292.300781 720.441406 296.476562 712.351562 C 299.453125 706.582031 290.214844 698.363281 278.972656 692.449219 Z M 93.480469 541 L 237.609375 541 L 236.726562 559.582031 L 251.894531 553.332031 C 251.894531 553.332031 239.613281 526.222656 230.195312 505.425781 C 227.453125 499.371094 222.320312 494.742188 216.019531 492.644531 C 214.875 492.261719 213.707031 492 212.53125 491.800781 L 173.988281 482.925781 C 166.507812 488.589844 156.417969 489.324219 148.203125 484.875 C 146.566406 483.898438 145.464844 483.355469 145.464844 483.355469 L 107.078125 492.449219 C 105.28125 492.746094 103.503906 493.230469 101.792969 493.945312 C 95.664062 496.5 90.886719 501.492188 88.59375 507.734375 C 80.726562 529.164062 70.464844 557.101562 70.464844 557.101562 L 94.203125 564.898438 Z M 180.355469 589.886719 C 180.355469 581.707031 173.722656 575.074219 165.546875 575.074219 C 157.367188 575.074219 150.734375 581.707031 150.734375 589.886719 C 150.734375 595.796875 154.207031 600.886719 159.21875 603.261719 L 171.789062 603.300781 C 176.84375 600.941406 180.355469 595.828125 180.355469 589.886719 Z M 180.355469 589.886719 " fill-opacity="1" fill-rule="evenodd"/><path fill="#f5c0a2" d="M 177.8125 429.660156 C 177.765625 429.558594 177.667969 429.359375 177.539062 429.105469 C 176.523438 429.976562 175.519531 430.929688 174.554688 431.90625 C 168.019531 438.542969 160.492188 444.117188 152.171875 448.304688 C 151.792969 448.496094 151.578125 448.601562 151.574219 448.601562 C 149.910156 448.9375 148.472656 449.015625 147.210938 448.917969 C 145.226562 447.945312 139.890625 445.683594 137.722656 448.324219 C 136.3125 450.042969 136.746094 452.695312 137.382812 453.820312 C 138.433594 455.679688 140.335938 460.359375 143.671875 460.941406 C 143.863281 461.417969 144.085938 461.886719 144.328125 462.351562 L 145.363281 483.378906 L 145.464844 483.355469 C 145.464844 483.355469 146.566406 483.898438 148.203125 484.875 C 156.417969 489.324219 166.507812 488.589844 173.988281 482.925781 L 174.675781 483.085938 L 174.542969 478.269531 L 174.5 477.03125 L 174.386719 474.183594 C 176.636719 472.820312 178.472656 470.78125 179.710938 468.453125 C 183.492188 461.339844 181.828125 452.625 181.265625 444.976562 C 180.882812 439.75 180.113281 434.425781 177.8125 429.660156 Z M 233.996094 670.152344 C 234 670.152344 234.003906 670.152344 234.011719 670.152344 C 224.109375 670.875 210.21875 665.222656 210.21875 665.222656 L 201.648438 699.132812 C 201.648438 699.132812 233.355469 701.515625 238.566406 702.660156 C 237.480469 702.421875 235.144531 701.980469 232.140625 701.429688 Z M 73.339844 558.042969 C 72.78125 559.882812 72.222656 561.71875 71.660156 563.578125 C 67.78125 576.414062 63.832031 589.582031 60.183594 601.65625 C 59.589844 603.59375 59.28125 605.582031 59.199219 607.570312 C 58.667969 610.902344 58.898438 614.347656 59.972656 617.621094 C 64.144531 630.332031 77.746094 635.671875 90.320312 631.695312 C 92.28125 631.074219 94.226562 630.464844 96.160156 629.859375 L 94.199219 564.902344 Z M 249.097656 554.484375 L 236.726562 559.582031 L 233.300781 631.929688 C 239.757812 632.808594 246.148438 631.363281 251.089844 627.777344 C 251.097656 627.789062 251.097656 627.789062 251.097656 627.789062 C 257.15625 625.714844 262.121094 621.269531 264.820312 615.453125 C 267.527344 609.652344 267.742188 602.992188 265.410156 597.015625 C 260.238281 583.542969 254.5625 568.667969 249.097656 554.484375 Z M 653.261719 263.6875 C 653.703125 263.824219 654.148438 263.921875 654.59375 264.023438 L 655.546875 276.332031 C 656.3125 285.585938 664.140625 292.675781 673.980469 291.835938 C 683.824219 291 691.179688 282.816406 690.410156 273.5625 L 685.5 243.382812 C 687.171875 242.097656 688.332031 240.335938 688.683594 238.253906 C 689.527344 233.289062 687.109375 228.734375 683.285156 228.082031 C 679.457031 227.429688 678.578125 231.046875 678.152344 233.535156 L 678.046875 234.152344 C 676.324219 234.078125 674.875 234.109375 674.875 234.109375 C 672.953125 228.433594 675.585938 219.410156 674.578125 212.601562 C 655.011719 208.726562 647.855469 216.9375 639.472656 213.53125 C 638.796875 215.882812 638.460938 218.378906 638.554688 220.960938 L 639.464844 245.722656 C 639.773438 253.792969 645.101562 261.183594 653.261719 263.6875 Z M 740.082031 338.652344 L 724.507812 338.882812 L 720.996094 341.246094 L 720.996094 353.84375 L 708.945312 359.488281 C 703.039062 361.132812 696.957031 363.652344 692.601562 365.449219 L 645.203125 387.734375 L 644.046875 388.273438 L 636.003906 389.933594 L 617.363281 399.628906 C 615.574219 400.664062 614.6875 402.859375 615.460938 404.773438 C 615.957031 406 617.175781 407.125 619.535156 407.179688 C 617.554688 409.746094 620.382812 413.757812 622.726562 413.667969 C 622.332031 414.859375 624.5625 417.644531 627.765625 417.402344 C 627.875 417.394531 628.046875 417.351562 628.242188 417.304688 C 628.5625 418.359375 629.421875 420.027344 631.65625 419.816406 C 634.992188 419.5 640.652344 417.136719 640.652344 417.136719 L 656.507812 409.800781 L 657.976562 408.621094 L 717.699219 385.753906 C 725.378906 382.769531 729.613281 380.222656 731.675781 377.84375 C 746.453125 365.289062 740.082031 338.652344 740.082031 338.652344 Z M 706.199219 651.515625 L 683.40625 651.515625 C 683.394531 651.953125 683.371094 652.371094 683.371094 652.820312 C 683.371094 660.761719 682.90625 666.835938 682.523438 675.292969 C 684.511719 676.082031 687.113281 675.972656 689.972656 672.917969 C 695.722656 666.78125 701.910156 663.867188 708.066406 665.914062 C 706.3125 661.148438 706.027344 656.34375 706.199219 651.515625 Z M 613.230469 666.742188 C 613.238281 666.730469 613.246094 666.722656 613.253906 666.714844 C 621.5625 677.679688 632.753906 675.429688 639.046875 672.214844 C 639.050781 672.21875 639.050781 672.226562 639.054688 672.230469 C 639.019531 665.882812 639.90625 657.367188 640.628906 651.515625 L 616.304688 651.515625 C 615.757812 658.332031 614.753906 662.914062 613.230469 666.742188 Z M 577.757812 356.332031 L 584.457031 353.007812 C 587.976562 351.515625 586.339844 346.5 581.839844 347.878906 C 581.839844 347.878906 576.679688 349.152344 575.148438 349.6875 C 573.234375 350.359375 572.128906 352.347656 572.777344 354.265625 C 573.472656 356.316406 575.816406 357.289062 577.757812 356.332031 Z M 590.078125 365.394531 L 591.546875 363.597656 C 593.988281 360.96875 590.953125 357.363281 587.640625 359.628906 L 588.695312 358.726562 C 591.691406 356.355469 588.785156 351.953125 584.8125 354.476562 C 584.8125 354.476562 578.949219 357.921875 577.613281 358.84375 C 575.949219 359.996094 575.410156 362.207031 576.542969 363.886719 C 577.632812 365.492188 579.761719 365.902344 581.359375 364.933594 C 580.289062 366.3125 580.25 368.246094 581.472656 369.566406 C 582.546875 370.726562 584.195312 370.984375 585.53125 370.378906 C 585.085938 371.554688 585.296875 372.902344 586.257812 373.832031 C 587.652344 375.183594 589.921875 374.996094 591.070312 373.433594 L 594.113281 368.542969 C 596.265625 365.953125 593.054688 362.710938 590.078125 365.394531 Z M 126.789062 689.773438 C 126.855469 689.324219 127.277344 689.011719 127.71875 689.074219 L 146.980469 691.828125 L 146.949219 691.660156 L 126.847656 688.785156 L 126.804688 688.597656 C 124.164062 688.140625 121.550781 687.6875 118.957031 687.238281 L 118.933594 705.617188 C 115.90625 705.980469 113.550781 706.28125 112.453125 706.453125 C 114.855469 706.078125 122.722656 705.78125 130.589844 705.566406 L 127.257812 690.617188 C 126.941406 690.46875 126.738281 690.136719 126.789062 689.773438 Z M 126.789062 689.773438 " fill-opacity="1" fill-rule="evenodd"/><path fill="#293237" d="M 128.042969 481 L 129.191406 470.296875 L 125.191406 481 L 110.132812 478.820312 C 125.324219 419.460938 153.609375 414.054688 153.609375 414.054688 C 154.761719 413.695312 155.953125 413.441406 157.175781 413.277344 C 164.246094 412.328125 171.09375 414.910156 175.761719 419.808594 C 176.957031 421.046875 177.980469 422.449219 178.851562 423.96875 C 180.402344 426.152344 181.671875 428.566406 183.003906 431.078125 C 185.742188 436.222656 188.101562 441.570312 190.0625 447.054688 C 194.007812 458.09375 196.382812 469.761719 196.609375 481.5 C 191.996094 482.921875 183.816406 483.425781 174.6875 483.445312 L 174.542969 478.269531 L 174.5 477.03125 L 174.386719 474.183594 C 176.636719 472.820312 178.472656 470.78125 179.710938 468.453125 C 183.492188 461.339844 181.828125 452.625 181.265625 444.976562 C 180.882812 439.75 180.113281 434.425781 177.8125 429.660156 C 177.765625 429.558594 177.667969 429.359375 177.539062 429.105469 C 176.523438 429.976562 175.519531 430.929688 174.554688 431.910156 C 168.019531 438.542969 160.492188 444.121094 152.171875 448.308594 C 151.792969 448.496094 151.578125 448.605469 151.574219 448.605469 C 149.910156 448.9375 148.472656 449.015625 147.210938 448.917969 C 145.226562 447.945312 139.890625 445.683594 137.722656 448.324219 C 136.3125 450.042969 136.746094 452.695312 137.382812 453.824219 C 138.433594 455.683594 140.339844 460.359375 143.671875 460.945312 C 143.863281 461.421875 144.085938 461.886719 144.328125 462.351562 L 145.3125 482.355469 C 135.347656 481.703125 128.042969 481 128.042969 481 Z M 120.757812 541 L 122.539062 525.855469 C 122.59375 525.40625 122.273438 524.996094 121.820312 524.945312 C 121.378906 524.875 120.960938 525.210938 120.910156 525.664062 L 119.105469 541 Z M 201.738281 541 L 199.949219 523.84375 C 199.90625 523.390625 199.496094 523.058594 199.050781 523.113281 C 198.601562 523.15625 198.269531 523.5625 198.320312 524.011719 L 200.089844 541 Z M 722.746094 340.160156 C 722.78125 340.164062 722.820312 340.167969 722.859375 340.167969 C 723.261719 340.167969 723.613281 339.867188 723.667969 339.457031 L 727.535156 311.25 C 727.597656 310.800781 727.285156 310.386719 726.835938 310.328125 C 726.390625 310.265625 725.972656 310.578125 725.910156 311.027344 L 722.042969 339.234375 C 721.984375 339.683594 722.296875 340.097656 722.746094 340.160156 Z M 577.058594 285.242188 L 542.8125 322.601562 L 542.003906 321.839844 L 542.066406 321.777344 L 528.015625 284.453125 C 532.425781 283.175781 536.753906 277.996094 538.957031 273.820312 L 576.519531 285.203125 L 576.753906 284.953125 Z M 639.476562 213.53125 C 639.167969 213.40625 638.855469 213.300781 638.539062 213.140625 C 644.554688 196.832031 662.933594 192.378906 675.519531 198.839844 C 677.960938 194.824219 682.367188 192.132812 687.40625 192.132812 C 695.09375 192.132812 701.328125 198.367188 701.328125 206.050781 C 701.328125 212.90625 696.367188 218.589844 689.84375 219.742188 C 690.386719 224.125 689.894531 228.644531 688.300781 232.902344 C 687.441406 230.363281 685.632812 228.484375 683.28125 228.085938 C 679.453125 227.433594 678.574219 231.046875 678.148438 233.535156 L 678.042969 234.152344 C 678.042969 234.152344 678.042969 234.152344 678.039062 234.152344 C 676.734375 234.097656 675.613281 234.097656 675.132812 234.105469 C 675.125 234.105469 675.121094 234.105469 675.113281 234.105469 C 674.972656 234.109375 674.871094 234.109375 674.871094 234.109375 C 672.953125 228.433594 675.585938 219.410156 674.578125 212.601562 C 673.328125 212.355469 672.128906 212.160156 670.980469 212.003906 C 670.660156 211.960938 670.371094 211.945312 670.0625 211.90625 C 669.242188 211.8125 668.421875 211.71875 667.648438 211.664062 C 667.351562 211.640625 667.082031 211.640625 666.789062 211.628906 C 666.03125 211.585938 665.277344 211.550781 664.5625 211.542969 C 664.335938 211.542969 664.128906 211.554688 663.90625 211.554688 C 663.148438 211.5625 662.402344 211.574219 661.6875 211.617188 C 661.5625 211.621094 661.445312 211.636719 661.320312 211.644531 C 651.125 212.296875 645.621094 216.027344 639.476562 213.53125 Z M 639.046875 672.214844 C 641.234375 678.945312 641.542969 686.652344 641.417969 691.925781 C 641.378906 693.523438 641.304688 694.910156 641.222656 695.96875 C 641.132812 697.257812 640.054688 698.25 638.757812 698.25 L 576.410156 698.25 C 574.917969 698.25 573.757812 696.9375 573.953125 695.457031 C 574.328125 692.652344 575.800781 689.738281 581.628906 687.214844 C 582.953125 686.640625 584.386719 685.980469 585.882812 685.253906 L 590.15625 691.925781 L 585.882812 685.253906 C 595.71875 680.476562 608.40625 672.765625 613.253906 666.714844 C 621.5625 677.679688 632.753906 675.429688 639.046875 672.214844 Z M 730.363281 695.410156 C 730.609375 696.902344 729.425781 698.25 727.914062 698.25 L 684.5 698.25 C 683.128906 698.25 682.019531 697.128906 682.023438 695.761719 C 682.042969 690.921875 682.125 686.78125 682.230469 683.09375 C 682.234375 682.945312 682.238281 682.796875 682.246094 682.648438 C 682.261719 682.128906 682.277344 681.617188 682.292969 681.113281 C 682.300781 680.863281 682.308594 680.621094 682.320312 680.378906 C 682.332031 679.957031 682.347656 679.539062 682.363281 679.128906 C 682.378906 678.746094 682.394531 678.371094 682.410156 677.996094 C 682.417969 677.742188 682.429688 677.484375 682.4375 677.238281 C 682.464844 676.578125 682.492188 675.925781 682.523438 675.292969 C 682.996094 675.480469 683.503906 675.613281 684.039062 675.667969 C 685.761719 675.859375 687.789062 675.25 689.972656 672.917969 C 693.566406 669.082031 697.328125 666.503906 701.152344 665.613281 C 701.921875 665.433594 702.691406 665.320312 703.464844 665.28125 C 704.996094 665.203125 706.53125 665.402344 708.066406 665.914062 C 708.183594 666.234375 708.289062 666.550781 708.421875 666.867188 C 708.425781 666.878906 708.429688 666.886719 708.433594 666.898438 C 708.753906 667.664062 709.113281 668.398438 709.507812 669.105469 C 709.648438 669.359375 709.816406 669.597656 709.964844 669.84375 C 710.242188 670.292969 710.515625 670.746094 710.820312 671.179688 C 711.015625 671.457031 711.230469 671.726562 711.4375 671.996094 C 711.722656 672.371094 712.007812 672.746094 712.3125 673.109375 C 712.550781 673.390625 712.796875 673.664062 713.042969 673.941406 C 713.34375 674.273438 713.640625 674.605469 713.949219 674.929688 C 714.21875 675.210938 714.496094 675.484375 714.773438 675.757812 C 715.074219 676.0625 715.382812 676.363281 715.691406 676.65625 C 715.996094 676.945312 716.304688 677.234375 716.617188 677.519531 C 716.90625 677.785156 717.199219 678.050781 717.492188 678.316406 C 718.753906 679.449219 720.027344 680.558594 721.269531 681.679688 C 721.417969 681.8125 721.570312 681.945312 721.71875 682.078125 C 721.714844 682.078125 721.714844 682.078125 721.710938 682.078125 C 725.832031 685.832031 729.445312 689.785156 730.363281 695.410156 Z M 731.566406 430.78125 C 731.191406 430.761719 730.820312 430.78125 730.449219 430.839844 C 730.441406 430.839844 730.433594 430.839844 730.425781 430.84375 C 730.082031 430.898438 729.75 430.988281 729.421875 431.109375 C 729.382812 431.125 729.339844 431.136719 729.300781 431.152344 C 729.007812 431.269531 728.734375 431.417969 728.460938 431.582031 C 728.398438 431.621094 728.335938 431.648438 728.273438 431.691406 C 727.957031 431.90625 727.660156 432.152344 727.386719 432.441406 C 720.355469 439.90625 705.09375 456.105469 698.0625 463.574219 C 696.027344 465.730469 696.128906 469.132812 698.289062 471.167969 C 701.425781 474.121094 705.800781 478.242188 708.9375 481.195312 C 710.558594 482.726562 712.882812 483.046875 714.800781 482.199219 C 715.820312 483.15625 716.964844 484.238281 718.15625 485.359375 L 717.066406 540.769531 C 717.066406 540.769531 721.425781 573.207031 718.480469 595.273438 C 716.375 611.0625 711.984375 637.65625 709.65625 651.519531 L 681.847656 651.519531 L 675.625 447.707031 L 671.761719 444.066406 L 656.707031 546.097656 C 663.578125 581.753906 649.496094 631.390625 643.433594 651.519531 L 615.566406 651.519531 L 620.332031 539.699219 L 624.449219 427.679688 C 625.167969 428.238281 626.023438 428.636719 626.976562 428.789062 C 637.285156 430.460938 648.085938 431.539062 658.996094 432.039062 L 642.34375 416.355469 L 656.511719 409.800781 L 657.976562 408.621094 L 693.574219 394.992188 Z M 633.195312 402.855469 L 619.828125 407.945312 C 619.730469 407.980469 619.632812 408 619.535156 408 C 619.207031 408 618.894531 407.800781 618.769531 407.472656 C 618.605469 407.046875 618.820312 406.574219 619.242188 406.414062 L 632.609375 401.324219 C 633.03125 401.160156 633.507812 401.371094 633.667969 401.796875 C 633.832031 402.222656 633.617188 402.695312 633.195312 402.855469 Z M 637.773438 408.8125 L 623.019531 414.433594 C 622.921875 414.472656 622.828125 414.488281 622.726562 414.488281 C 622.398438 414.488281 622.085938 414.289062 621.960938 413.960938 C 621.800781 413.539062 622.011719 413.0625 622.4375 412.902344 L 637.191406 407.277344 C 637.613281 407.117188 638.085938 407.324219 638.25 407.753906 C 638.410156 408.175781 638.199219 408.648438 637.773438 408.8125 Z M 637.550781 413.222656 C 637.726562 413.636719 637.53125 414.121094 637.117188 414.296875 L 628.085938 418.15625 C 627.980469 418.199219 627.871094 418.222656 627.765625 418.222656 C 627.445312 418.222656 627.140625 418.035156 627.007812 417.722656 C 626.832031 417.304688 627.027344 416.824219 627.441406 416.644531 L 636.472656 412.789062 C 636.886719 412.609375 637.375 412.804688 637.550781 413.222656 Z M 288.882812 650.835938 C 287.679688 642.394531 283.066406 634.816406 276.113281 629.851562 C 270.75 626.03125 264.339844 624.09375 257.84375 624.140625 C 255.820312 625.695312 253.554688 626.945312 251.097656 627.789062 C 251.097656 627.789062 251.097656 627.789062 251.09375 627.777344 C 246.152344 631.363281 239.757812 632.804688 233.300781 631.929688 L 233.148438 635.1875 L 232.976562 638.769531 L 137.347656 638.769531 L 231.355469 657.171875 C 231.800781 657.261719 232.089844 657.691406 232.003906 658.136719 C 231.925781 658.527344 231.582031 658.796875 231.199219 658.796875 C 231.148438 658.796875 231.09375 658.792969 231.039062 658.78125 L 129.660156 638.933594 C 129.527344 638.90625 129.417969 638.84375 129.316406 638.765625 L 96.429688 638.765625 L 96.324219 635.1875 L 96.160156 629.855469 C 94.226562 630.460938 92.285156 631.070312 90.320312 631.6875 C 83.863281 633.730469 77.144531 633.300781 71.5625 630.691406 C 67.507812 635.238281 64.820312 640.894531 63.949219 647.015625 C 61.5625 663.707031 72.867188 679.257812 89.476562 682.140625 C 100.355469 684.023438 113.320312 686.261719 126.808594 688.59375 L 126.847656 688.785156 L 176.960938 695.945312 C 177.410156 696.007812 177.722656 696.421875 177.660156 696.871094 C 177.597656 697.28125 177.246094 697.578125 176.847656 697.578125 C 176.808594 697.578125 176.769531 697.574219 176.730469 697.570312 L 127.234375 690.496094 L 131.3125 708.78125 C 131.3125 708.78125 156.746094 704.382812 187.453125 699.078125 C 207.378906 702.519531 221.523438 704.964844 221.523438 704.964844 L 222.445312 700.839844 C 212.425781 699.9375 201.652344 699.128906 201.652344 699.128906 L 210.222656 665.21875 C 210.222656 665.21875 229.542969 673.089844 238.855469 669.078125 C 248.179688 665.0625 257.652344 657.957031 264.132812 669.199219 C 266.148438 672.683594 265.65625 681.53125 265.65625 681.53125 C 265.65625 681.53125 266.917969 682.796875 268.75 684.496094 C 282.324219 679.535156 291 665.644531 288.882812 650.835938 Z M 621.617188 327.214844 L 620.019531 311.644531 C 619.972656 311.191406 619.539062 310.863281 619.117188 310.910156 C 618.667969 310.957031 618.339844 311.359375 618.386719 311.808594 L 619.792969 325.496094 L 578.253906 286.367188 L 544.003906 323.726562 L 573.195312 351.222656 C 573.644531 350.535156 574.3125 349.980469 575.148438 349.6875 C 576.679688 349.152344 581.839844 347.878906 581.839844 347.878906 C 586.339844 346.5 587.976562 351.515625 584.457031 353.007812 L 578.320312 356.050781 L 579.816406 357.457031 C 581.992188 356.136719 584.8125 354.476562 584.8125 354.476562 C 588.785156 351.953125 591.695312 356.355469 588.695312 358.726562 L 587.640625 359.628906 C 590.953125 357.363281 593.988281 360.96875 591.546875 363.597656 L 590.078125 365.394531 C 593.054688 362.710938 596.265625 365.953125 594.113281 368.542969 L 593.179688 370.042969 L 622.015625 397.207031 L 636.003906 389.929688 L 644.046875 388.273438 L 645.203125 387.730469 L 672.328125 374.980469 Z M 621.617188 327.214844 " fill-opacity="1" fill-rule="nonzero"/></svg>