<svg xmlns="http://www.w3.org/2000/svg" xmlns:xlink="http://www.w3.org/1999/xlink" width="1080" zoomAndPan="magnify" viewBox="0 0 810 809.999993" height="1080" preserveAspectRatio="xMidYMid meet" version="1.0"><path fill="#f5f5f5" d="M 451.121094 130.042969 L 457.628906 132.683594 C 461.113281 134.09375 462.609375 138.207031 460.851562 141.527344 L 457.558594 147.738281 C 454.765625 153.007812 460.140625 158.871094 465.632812 156.542969 L 472.089844 153.808594 C 475.550781 152.339844 479.519531 154.191406 480.625 157.78125 L 482.691406 164.492188 C 484.445312 170.191406 492.382812 170.535156 494.625 165.011719 L 497.265625 158.507812 C 498.675781 155.027344 502.785156 153.53125 506.105469 155.289062 L 512.3125 158.578125 C 517.582031 161.367188 523.441406 156 521.117188 150.507812 L 518.382812 144.039062 C 516.921875 140.582031 518.769531 136.617188 522.359375 135.511719 L 529.070312 133.445312 C 534.769531 131.691406 535.117188 123.757812 529.589844 121.511719 L 523.085938 118.871094 C 519.605469 117.460938 518.109375 113.347656 519.867188 110.03125 L 523.15625 103.824219 C 525.949219 98.550781 520.582031 92.695312 515.085938 95.015625 L 508.617188 97.753906 C 505.15625 99.214844 501.191406 97.367188 500.089844 93.777344 L 498.023438 87.054688 C 496.273438 81.355469 488.332031 81.007812 486.09375 86.535156 L 483.453125 93.046875 C 482.042969 96.527344 477.933594 98.027344 474.617188 96.269531 L 468.394531 92.972656 C 463.125 90.183594 457.269531 95.554688 459.59375 101.046875 L 462.335938 107.515625 C 463.800781 110.976562 461.949219 114.941406 458.359375 116.046875 L 451.636719 118.109375 C 445.9375 119.863281 445.589844 127.804688 451.121094 130.042969 Z M 476.417969 118.542969 C 477.773438 115.589844 480.171875 113.191406 483.121094 111.839844 C 497.140625 105.417969 510.722656 119 504.300781 133.015625 C 502.949219 135.96875 500.546875 138.367188 497.597656 139.71875 C 483.582031 146.144531 469.996094 132.558594 476.417969 118.542969 Z M 476.417969 118.542969 " fill-opacity="1" fill-rule="nonzero"/><path fill="#f5f5f5" d="M 723.308594 341.269531 C 722.527344 340.429688 721.667969 339.699219 720.757812 339.078125 L 719.570312 338.285156 L 661.890625 297.730469 C 660.5625 296.066406 658.648438 294.699219 656.519531 293.894531 C 648.046875 290.683594 640.421875 288.136719 632.613281 286.472656 L 629.808594 269.265625 C 629.804688 269.214844 629.8125 269.167969 629.808594 269.117188 L 627.109375 252.691406 C 627.558594 252.847656 628.046875 252.925781 628.558594 252.871094 C 633.394531 252.371094 637.078125 249.394531 637.867188 245.238281 C 638.207031 243.425781 638.136719 241.660156 637.746094 240.085938 C 639.394531 235.40625 639.835938 230.460938 639.121094 225.683594 C 648.28125 230.042969 659.429688 226.824219 664.777344 217.957031 C 670.472656 208.511719 667.433594 196.242188 657.992188 190.546875 C 651.382812 186.5625 643.394531 186.867188 637.242188 190.640625 L 636.601562 188.609375 C 634.914062 183.257812 638.226562 177.621094 643.71875 176.488281 L 653.992188 174.363281 C 662.714844 172.5625 664.351562 160.804688 656.449219 156.691406 L 647.148438 151.84375 C 642.171875 149.253906 640.53125 142.929688 643.613281 138.242188 L 649.382812 129.472656 C 654.277344 122.03125 647.121094 112.558594 638.621094 115.238281 L 628.613281 118.394531 C 623.261719 120.082031 617.625 116.769531 616.492188 111.273438 L 614.375 100.988281 C 612.574219 92.261719 600.816406 90.625 596.703125 98.53125 L 591.855469 107.84375 C 589.265625 112.820312 582.945312 114.464844 578.257812 111.382812 L 569.46875 105.605469 C 562.027344 100.710938 552.558594 107.871094 555.242188 116.367188 L 558.402344 126.375 C 560.089844 131.726562 556.78125 137.367188 551.285156 138.5 L 540.996094 140.617188 C 532.269531 142.417969 530.632812 154.175781 538.539062 158.289062 L 547.847656 163.132812 C 551.988281 165.289062 553.8125 170.023438 552.539062 174.257812 C 552.042969 174.234375 551.546875 174.21875 551.042969 174.21875 L 357.007812 174.21875 L 357.101562 151.785156 L 357.167969 151.785156 L 357.167969 136.363281 C 357.167969 129.359375 351.488281 123.683594 344.488281 123.683594 L 232.042969 123.683594 C 227.230469 123.683594 223.042969 126.367188 220.894531 130.320312 C 220.777344 130.535156 220.683594 130.757812 220.578125 130.976562 C 220.507812 131.128906 220.425781 131.273438 220.359375 131.429688 C 219.71875 132.945312 219.363281 134.613281 219.363281 136.363281 L 219.34375 141.277344 C 206.835938 144.515625 197.660156 155.203125 197.660156 169.777344 C 197.660156 173.011719 197.914062 176.121094 198.335938 179.121094 C 198.335938 179.121094 198.335938 179.121094 198.339844 179.121094 C 196.476562 180.777344 195.175781 183.460938 194.996094 186.566406 C 194.964844 187.070312 194.984375 187.566406 195.042969 188.054688 C 195.070312 188.292969 195.136719 188.515625 195.183594 188.746094 C 195.234375 188.992188 195.269531 189.238281 195.34375 189.476562 C 195.4375 189.792969 195.574219 190.09375 195.707031 190.398438 C 195.765625 190.535156 195.808594 190.675781 195.875 190.808594 C 196.054688 191.171875 196.273438 191.515625 196.5 191.859375 C 196.542969 191.917969 196.574219 191.984375 196.617188 192.042969 C 196.886719 192.425781 197.191406 192.78125 197.519531 193.128906 C 197.535156 193.140625 197.546875 193.15625 197.558594 193.171875 C 198.601562 194.257812 199.9375 195.148438 201.496094 195.789062 L 197.582031 229.59375 C 184.355469 230.921875 176.113281 232.542969 176.113281 232.542969 C 161.484375 236.832031 151.132812 242.191406 144.125 245.105469 C 143.433594 245.394531 142.851562 245.84375 142.386719 246.382812 C 137.015625 250.121094 133.25 256.09375 132.5625 263.113281 L 129.421875 324.085938 L 129.355469 324.085938 C 129.351562 324.085938 129.351562 324.085938 129.347656 324.085938 C 128.914062 324.085938 128.5625 324.433594 128.554688 324.867188 C 128.554688 325.054688 128.625 325.21875 128.734375 325.355469 C 128.125 325.742188 127.707031 326.402344 127.667969 327.167969 L 125.878906 353.515625 L 141.859375 325.792969 L 125.394531 354.351562 C 121.953125 365.644531 128.320312 377.585938 139.609375 381.027344 C 144.414062 382.492188 149.328125 382.164062 153.664062 380.453125 C 153.621094 380.894531 153.59375 381.355469 153.546875 381.792969 C 153.199219 385.117188 154.664062 388.277344 157.222656 390.175781 C 155.96875 408.929688 155.757812 429.488281 156.601562 446.925781 L 160.003906 511.113281 L 93.761719 511.113281 C 88.507812 511.113281 84 514.304688 82.078125 518.855469 C 82.003906 519.03125 81.945312 519.21875 81.878906 519.398438 C 81.800781 519.605469 81.714844 519.808594 81.652344 520.023438 C 81.277344 521.210938 81.078125 522.476562 81.078125 523.792969 L 81.078125 618.796875 C 81.078125 625.800781 86.757812 632.746094 93.757812 632.746094 L 162.308594 632.117188 C 164.964844 649.675781 168.398438 670.429688 170.46875 682.746094 L 175.984375 682.746094 L 175.984375 688.761719 C 175.984375 688.761719 175.988281 688.761719 175.988281 688.761719 C 174.511719 689.65625 173.339844 690.847656 172.671875 692.40625 C 169.863281 698.933594 166.796875 703.472656 162.582031 710.074219 C 158.742188 716.09375 157.445312 721.011719 157.46875 725.027344 C 157.480469 727.007812 159.128906 728.589844 161.109375 728.589844 L 209.691406 728.589844 C 211.667969 728.589844 213.324219 727.007812 213.332031 725.027344 C 213.351562 714.023438 209.054688 703.632812 207.480469 696.753906 C 206.804688 693.816406 206.667969 691.289062 205.515625 690.503906 C 205.421875 690.4375 205.347656 690.417969 205.257812 690.371094 C 204.996094 687.472656 204.835938 684.949219 204.746094 682.746094 L 209.144531 682.746094 L 210.230469 631.675781 L 231.964844 631.476562 C 232.375 631.476562 232.78125 631.453125 233.183594 631.414062 C 237.121094 653.097656 242.152344 672.1875 245.332031 682.746094 L 249.871094 682.746094 C 250.085938 685.644531 250.277344 688.011719 250.4375 689.964844 C 249.953125 689.75 249.421875 689.679688 248.742188 689.878906 C 244.277344 691.152344 244.136719 709.578125 244.140625 725.238281 C 244.140625 727.300781 245.8125 728.960938 247.871094 728.960938 L 317.5 728.960938 C 319.726562 728.960938 321.46875 727.027344 321.207031 724.816406 C 320.660156 720.148438 318.570312 712.78125 311.027344 709.421875 C 299.53125 704.300781 291.890625 699.050781 288.488281 691.855469 C 286.777344 688.230469 282.9375 686.648438 279.121094 686.582031 C 278.894531 685.144531 278.710938 683.882812 278.5625 682.746094 L 282.5625 682.746094 L 279.707031 538.800781 L 268.5625 404.984375 C 272.242188 404.34375 272.976562 400.542969 273.574219 396.449219 L 282.230469 296.957031 C 282.394531 296.910156 282.535156 296.8125 282.636719 296.675781 L 296.601562 310.300781 C 296.144531 311.167969 296.273438 312.269531 297.027344 313 L 315.921875 331.289062 C 316.507812 331.855469 317.3125 332.003906 318.046875 331.828125 L 318.046875 691.753906 C 318.046875 711.609375 334.148438 727.710938 354.003906 727.710938 L 448.269531 727.710938 C 448.296875 728.257812 448.363281 728.589844 448.363281 728.589844 L 515.9375 728.589844 C 515.992188 728.285156 516.03125 728.007812 516.082031 727.710938 L 551.046875 727.710938 C 570.90625 727.710938 587.003906 711.609375 587.003906 691.753906 L 587.003906 688.695312 L 625.253906 689.710938 L 596.75 688.957031 C 596.308594 690.277344 596.023438 691.671875 595.945312 693.128906 L 595.8125 695.667969 C 594.652344 709.117188 594.886719 718.855469 594.886719 728.589844 L 650.296875 728.589844 C 650.527344 717.695312 627.574219 710.65625 627.574219 700.035156 L 627.574219 693.964844 C 627.574219 692.507812 627.359375 691.101562 626.992188 689.757812 L 653.203125 690.457031 C 653.226562 690.457031 655.882812 675.949219 656.785156 671.097656 L 657.007812 671.097656 C 657.445312 671.097656 657.800781 670.742188 657.800781 670.304688 C 657.800781 669.894531 657.484375 669.566406 657.085938 669.53125 C 663.167969 605.972656 676.597656 463.917969 676.597656 448.480469 C 676.597656 434.664062 675.902344 421.1875 672.003906 408.195312 C 674.726562 406.910156 677.9375 405.359375 678.972656 404.238281 C 679.691406 403.460938 680.109375 402.617188 680.320312 401.734375 L 722.585938 362.609375 C 728.675781 356.914062 729 347.359375 723.308594 341.269531 Z M 186.105469 686.597656 C 185.902344 686.59375 185.703125 686.601562 185.503906 686.601562 C 185.703125 686.601562 185.902344 686.59375 186.105469 686.597656 Z M 178.535156 687.605469 C 178.425781 687.640625 178.320312 687.6875 178.210938 687.726562 C 178.320312 687.6875 178.425781 687.644531 178.535156 687.605469 Z M 182.964844 686.714844 C 182.921875 686.71875 182.875 686.71875 182.832031 686.722656 C 182.875 686.71875 182.921875 686.71875 182.964844 686.714844 Z M 181.671875 686.875 C 181.503906 686.902344 181.335938 686.925781 181.167969 686.953125 C 181.332031 686.925781 181.5 686.902344 181.671875 686.875 Z M 180.078125 687.175781 C 179.914062 687.214844 179.753906 687.257812 179.59375 687.300781 C 179.753906 687.257812 179.914062 687.214844 180.078125 687.175781 Z M 197.519531 688.925781 C 197.964844 689.121094 198.390625 689.324219 198.777344 689.539062 C 198.390625 689.324219 197.964844 689.121094 197.519531 688.925781 Z M 187.144531 686.640625 C 187.40625 686.652344 187.667969 686.667969 187.929688 686.6875 C 187.667969 686.667969 187.40625 686.652344 187.144531 686.640625 Z M 188.886719 686.773438 C 189.1875 686.804688 189.488281 686.84375 189.785156 686.878906 C 189.488281 686.84375 189.1875 686.804688 188.886719 686.773438 Z M 190.632812 686.996094 C 191.089844 687.066406 191.539062 687.148438 191.984375 687.238281 C 191.539062 687.152344 191.089844 687.066406 190.632812 686.996094 Z M 192.679688 687.386719 C 193.109375 687.480469 193.535156 687.582031 193.949219 687.691406 C 193.535156 687.582031 193.109375 687.480469 192.679688 687.386719 Z M 194.535156 687.859375 C 194.882812 687.957031 195.222656 688.0625 195.554688 688.171875 C 195.222656 688.0625 194.882812 687.960938 194.535156 687.859375 Z M 196.105469 688.367188 C 196.445312 688.488281 196.765625 688.613281 197.082031 688.746094 C 196.769531 688.613281 196.445312 688.484375 196.105469 688.367188 Z M 204.820312 690.1875 C 204.671875 690.152344 204.527344 690.132812 204.386719 690.15625 C 204.527344 690.132812 204.671875 690.148438 204.820312 690.1875 Z M 271.203125 689.035156 C 271.113281 689.109375 271.011719 689.175781 270.925781 689.25 C 271.011719 689.175781 271.113281 689.109375 271.203125 689.035156 Z M 256.007812 692.871094 C 256.398438 692.921875 256.816406 692.960938 257.28125 692.960938 C 256.816406 692.960938 256.398438 692.921875 256.007812 692.871094 Z M 252.390625 691.351562 C 252.476562 691.421875 252.570312 691.488281 252.667969 691.554688 C 252.570312 691.488281 252.476562 691.421875 252.390625 691.351562 Z M 252.953125 691.753906 C 253.152344 691.886719 253.367188 692.011719 253.597656 692.128906 C 253.367188 692.011719 253.152344 691.886719 252.953125 691.753906 Z M 253.835938 692.246094 C 254.066406 692.355469 254.3125 692.457031 254.578125 692.546875 C 254.3125 692.457031 254.066406 692.355469 253.835938 692.246094 Z M 254.707031 692.597656 C 255.015625 692.691406 255.359375 692.769531 255.722656 692.828125 C 255.359375 692.765625 255.015625 692.691406 254.707031 692.597656 Z M 270.308594 689.917969 C 270.234375 690.003906 270.144531 690.082031 270.078125 690.171875 C 270.144531 690.082031 270.234375 690.003906 270.308594 689.917969 Z M 274.570312 687.242188 C 274.597656 687.234375 274.625 687.226562 274.648438 687.21875 C 274.625 687.226562 274.597656 687.234375 274.570312 687.242188 Z M 271.976562 688.449219 C 272.054688 688.398438 272.140625 688.359375 272.222656 688.308594 C 272.140625 688.359375 272.054688 688.398438 271.976562 688.449219 Z M 273.199219 687.777344 C 273.257812 687.75 273.316406 687.730469 273.375 687.703125 C 273.316406 687.726562 273.257812 687.75 273.199219 687.777344 Z M 600.3125 545.863281 C 600.28125 545.777344 600.265625 545.683594 600.265625 545.585938 C 600.265625 545.683594 600.28125 545.777344 600.3125 545.863281 Z M 600.613281 546.246094 C 600.601562 546.238281 600.589844 546.226562 600.578125 546.21875 C 600.589844 546.230469 600.601562 546.238281 600.613281 546.246094 Z M 600.4375 546.085938 C 600.414062 546.054688 600.394531 546.019531 600.375 545.984375 C 600.394531 546.019531 600.414062 546.054688 600.4375 546.085938 Z M 221.539062 219.742188 C 221.882812 219.9375 222.226562 220.136719 222.582031 220.316406 C 222.226562 220.136719 221.886719 219.9375 221.539062 219.742188 C 221.542969 219.742188 221.542969 219.742188 221.539062 219.742188 Z M 235.015625 222.574219 C 234.507812 222.628906 233.996094 222.667969 233.480469 222.683594 C 234 222.667969 234.507812 222.625 235.015625 222.574219 Z M 205.25 195.414062 C 205.265625 195.398438 205.28125 195.386719 205.296875 195.375 C 205.332031 195.347656 205.363281 195.324219 205.398438 195.292969 C 205.347656 195.339844 205.292969 195.378906 205.238281 195.421875 C 205.242188 195.421875 205.246094 195.417969 205.25 195.414062 Z M 206.027344 194.464844 C 206.0625 194.394531 206.09375 194.320312 206.125 194.25 C 206.148438 194.191406 206.179688 194.132812 206.203125 194.074219 C 206.148438 194.214844 206.089844 194.351562 206.019531 194.480469 C 206.023438 194.476562 206.023438 194.472656 206.027344 194.464844 Z M 206.402344 193.226562 C 206.40625 193.1875 206.417969 193.15625 206.421875 193.117188 C 206.417969 193.15625 206.40625 193.1875 206.402344 193.226562 Z M 206.359375 193.457031 C 206.371094 193.378906 206.394531 193.308594 206.402344 193.226562 C 206.382812 193.441406 206.347656 193.644531 206.289062 193.839844 C 206.324219 193.71875 206.339844 193.585938 206.359375 193.457031 Z M 205.859375 194.746094 C 205.792969 194.839844 205.722656 194.929688 205.648438 195.015625 C 205.722656 194.929688 205.792969 194.839844 205.859375 194.746094 Z M 163.15625 373.078125 C 163.007812 373.28125 162.859375 373.480469 162.703125 373.679688 C 162.859375 373.480469 163.011719 373.28125 163.15625 373.078125 Z M 165.464844 369.03125 C 165.367188 369.25 165.253906 369.460938 165.152344 369.675781 C 165.253906 369.460938 165.367188 369.25 165.464844 369.03125 Z M 164.421875 371.121094 C 164.289062 371.351562 164.148438 371.570312 164.007812 371.796875 C 164.144531 371.570312 164.289062 371.351562 164.421875 371.121094 Z M 161.238281 375.378906 C 161.386719 375.222656 161.527344 375.066406 161.671875 374.90625 C 161.527344 375.066406 161.386719 375.222656 161.238281 375.378906 Z M 235.835938 222.46875 C 236.042969 222.4375 236.25 222.410156 236.457031 222.375 C 236.253906 222.410156 236.042969 222.4375 235.835938 222.46875 Z M 237.535156 222.164062 C 237.625 222.144531 237.710938 222.125 237.800781 222.101562 C 237.710938 222.125 237.625 222.140625 237.535156 222.164062 Z M 635.777344 236.230469 C 635.75 236.199219 635.726562 236.164062 635.695312 236.136719 C 635.726562 236.164062 635.75 236.199219 635.777344 236.230469 Z M 330.195312 208.007812 C 330.21875 207.78125 330.246094 207.554688 330.269531 207.332031 C 330.246094 207.558594 330.21875 207.78125 330.195312 208.007812 Z M 330.496094 205.847656 C 330.542969 205.609375 330.578125 205.367188 330.628906 205.128906 C 330.578125 205.367188 330.542969 205.609375 330.496094 205.847656 Z M 331.101562 203.296875 C 331.203125 202.96875 331.320312 202.648438 331.433594 202.324219 C 331.320312 202.648438 331.203125 202.96875 331.101562 203.296875 Z M 331.753906 201.449219 C 331.902344 201.074219 332.058594 200.703125 332.222656 200.335938 C 332.054688 200.703125 331.902344 201.078125 331.753906 201.449219 Z M 574.753906 207.203125 C 574.785156 207.457031 574.820312 207.710938 574.84375 207.964844 C 574.824219 207.710938 574.785156 207.457031 574.753906 207.203125 Z M 621.253906 230.726562 C 621.253906 230.84375 621.257812 230.964844 621.261719 231.085938 C 621.257812 230.964844 621.253906 230.84375 621.253906 230.726562 Z M 619.09375 229.464844 C 619.152344 229.46875 619.210938 229.46875 619.269531 229.46875 C 619.964844 229.476562 620.640625 229.484375 621.285156 229.484375 C 620.585938 229.484375 619.851562 229.476562 619.09375 229.464844 Z M 610.226562 228.945312 C 610.738281 229.003906 611.25 229.0625 611.757812 229.105469 C 611.859375 229.113281 611.960938 229.121094 612.066406 229.132812 C 612.816406 229.195312 613.558594 229.246094 614.289062 229.292969 C 614.394531 229.296875 614.496094 229.304688 614.597656 229.308594 C 615.015625 229.332031 615.421875 229.347656 615.832031 229.363281 C 614.03125 229.285156 612.148438 229.15625 610.226562 228.945312 Z M 609.191406 228.835938 C 609.28125 228.84375 609.367188 228.855469 609.457031 228.867188 C 609.371094 228.855469 609.28125 228.84375 609.191406 228.835938 Z M 606.617188 228.464844 C 606.683594 228.476562 606.746094 228.488281 606.8125 228.496094 C 607.078125 228.539062 607.339844 228.570312 607.605469 228.609375 C 607.277344 228.5625 606.949219 228.519531 606.617188 228.464844 Z M 599.0625 226.585938 C 599.097656 226.597656 599.136719 226.609375 599.171875 226.621094 C 600.769531 227.179688 602.425781 227.628906 604.105469 227.988281 C 604.125 227.992188 604.144531 227.996094 604.160156 228.003906 C 604.496094 228.074219 604.832031 228.128906 605.167969 228.191406 C 603.085938 227.789062 601.027344 227.273438 599.0625 226.585938 Z M 602.539062 280.902344 C 602.515625 280.871094 602.492188 280.835938 602.464844 280.800781 C 602.488281 280.835938 602.515625 280.871094 602.539062 280.902344 Z M 601 278.03125 C 600.972656 277.964844 600.945312 277.894531 600.921875 277.828125 C 600.945312 277.894531 600.972656 277.964844 601 278.03125 Z M 600.457031 276.28125 C 600.433594 276.1875 600.410156 276.085938 600.386719 275.988281 C 600.410156 276.085938 600.433594 276.183594 600.457031 276.28125 Z M 606.472656 283.800781 C 606.453125 283.792969 606.433594 283.789062 606.417969 283.78125 C 606.433594 283.789062 606.453125 283.796875 606.472656 283.800781 Z M 603.609375 282.074219 C 603.59375 282.058594 603.582031 282.050781 603.570312 282.035156 C 603.582031 282.050781 603.597656 282.0625 603.609375 282.074219 Z M 616.210938 283.957031 C 615.816406 284.082031 615.425781 284.183594 615.042969 284.277344 C 615.425781 284.183594 615.816406 284.082031 616.210938 283.957031 Z M 619.082031 282.816406 C 618.835938 282.933594 618.59375 283.039062 618.347656 283.144531 C 618.589844 283.039062 618.835938 282.933594 619.082031 282.816406 Z M 617.640625 283.445312 C 617.375 283.550781 617.109375 283.640625 616.84375 283.734375 C 617.113281 283.640625 617.375 283.550781 617.640625 283.445312 Z M 616.753906 229.40625 C 616.839844 229.410156 616.925781 229.410156 617.011719 229.414062 C 617.617188 229.433594 618.203125 229.449219 618.78125 229.460938 C 618.121094 229.445312 617.449219 229.429688 616.753906 229.40625 Z M 621.878906 281.246094 C 621.667969 281.386719 621.453125 281.523438 621.234375 281.652344 C 621.453125 281.523438 621.664062 281.386719 621.878906 281.246094 Z M 620.5 282.078125 C 620.269531 282.207031 620.039062 282.332031 619.804688 282.453125 C 620.039062 282.332031 620.269531 282.207031 620.5 282.078125 Z M 621.332031 232.308594 C 621.339844 232.40625 621.34375 232.503906 621.355469 232.609375 C 621.460938 233.699219 621.660156 234.898438 621.96875 236.128906 C 621.628906 234.78125 621.429688 233.476562 621.332031 232.308594 Z M 622.019531 236.347656 C 622.1875 237.003906 622.390625 237.671875 622.628906 238.332031 C 622.378906 237.632812 622.167969 236.933594 621.988281 236.242188 C 622 236.277344 622.007812 236.3125 622.019531 236.347656 Z M 596.824219 225.699219 C 595.847656 225.273438 594.917969 224.789062 594.019531 224.257812 C 594.128906 224.324219 594.226562 224.398438 594.339844 224.464844 C 594.410156 224.503906 594.484375 224.542969 594.558594 224.582031 C 595.226562 224.957031 595.917969 225.300781 596.632812 225.617188 C 596.691406 225.648438 596.757812 225.671875 596.824219 225.699219 Z M 590.316406 221.546875 C 590.371094 221.597656 590.421875 221.648438 590.472656 221.695312 C 591.027344 222.199219 591.613281 222.667969 592.222656 223.109375 C 592.292969 223.15625 592.359375 223.207031 592.425781 223.253906 C 591.671875 222.726562 590.960938 222.144531 590.292969 221.519531 C 590.300781 221.527344 590.308594 221.539062 590.316406 221.546875 Z M 587 266.828125 C 589.179688 269.492188 592.03125 271.667969 595.453125 273.03125 C 596.921875 273.617188 598.421875 274.007812 599.921875 274.25 L 600.765625 284.765625 C 596.484375 285.132812 591.921875 285.722656 587 286.542969 Z M 597.148438 398.964844 C 596.789062 398.773438 596.433594 398.574219 596.082031 398.367188 C 596.433594 398.578125 596.792969 398.773438 597.148438 398.964844 Z M 602.554688 401.078125 C 601.988281 400.929688 601.425781 400.769531 600.875 400.582031 C 601.425781 400.769531 601.988281 400.929688 602.554688 401.078125 Z M 599.757812 400.167969 C 599.367188 400.015625 598.984375 399.851562 598.605469 399.679688 C 598.984375 399.851562 599.367188 400.015625 599.757812 400.167969 Z M 603.878906 401.386719 C 603.8125 401.371094 603.746094 401.351562 603.679688 401.339844 C 603.746094 401.351562 603.8125 401.359375 603.875 401.371094 C 603.875 401.378906 603.875 401.382812 603.878906 401.386719 Z M 593.640625 396.738281 C 594.035156 397.03125 594.4375 397.316406 594.84375 397.585938 C 594.4375 397.316406 594.035156 397.035156 593.640625 396.738281 Z M 605.46875 401.644531 C 605.5 401.648438 605.527344 401.65625 605.554688 401.660156 C 605.527344 401.65625 605.5 401.65625 605.46875 401.652344 C 605.472656 401.652344 605.46875 401.648438 605.46875 401.644531 Z M 608.957031 401.898438 C 608.132812 401.898438 607.332031 401.84375 606.542969 401.765625 C 607.332031 401.835938 608.132812 401.898438 608.957031 401.898438 Z M 612.800781 401.664062 C 612.503906 401.699219 612.210938 401.738281 611.910156 401.765625 C 612.210938 401.738281 612.503906 401.699219 612.800781 401.664062 Z M 624.109375 398.144531 C 623.882812 398.269531 623.660156 398.398438 623.429688 398.515625 C 623.660156 398.398438 623.882812 398.265625 624.109375 398.144531 Z M 618.425781 400.53125 C 618.164062 400.609375 617.894531 400.675781 617.628906 400.746094 C 617.894531 400.675781 618.164062 400.609375 618.425781 400.53125 Z M 615.726562 401.207031 C 615.414062 401.269531 615.09375 401.332031 614.777344 401.386719 C 615.097656 401.332031 615.414062 401.269531 615.726562 401.207031 Z M 622.617188 280.761719 C 622.8125 280.625 622.996094 280.480469 623.1875 280.339844 C 622.996094 280.480469 622.808594 280.625 622.617188 280.761719 Z M 623.933594 279.773438 C 624 279.71875 624.0625 279.660156 624.128906 279.609375 C 624.0625 279.660156 624 279.71875 623.933594 279.773438 Z M 625.816406 278.054688 C 625.9375 277.933594 626.0625 277.816406 626.175781 277.695312 C 626.0625 277.816406 625.9375 277.933594 625.816406 278.054688 Z M 626.519531 396.707031 C 626.28125 396.863281 626.039062 397.015625 625.796875 397.167969 C 626.039062 397.015625 626.28125 396.863281 626.519531 396.707031 Z M 622.683594 238.453125 C 622.910156 239.074219 623.164062 239.6875 623.457031 240.289062 C 623.164062 239.6875 622.910156 239.074219 622.683594 238.453125 Z M 623.789062 240.867188 C 624.023438 241.304688 624.25 241.742188 624.527344 242.15625 C 624.25 241.742188 624.023438 241.300781 623.789062 240.867188 Z M 571.378906 197.640625 C 571.082031 197.164062 570.773438 196.691406 570.445312 196.238281 C 570.773438 196.691406 571.082031 197.160156 571.378906 197.640625 Z M 574.542969 205.832031 C 574.488281 205.523438 574.425781 205.214844 574.355469 204.90625 C 574.425781 205.214844 574.488281 205.523438 574.542969 205.832031 Z M 574.074219 203.8125 C 573.976562 203.464844 573.890625 203.117188 573.777344 202.78125 C 573.886719 203.117188 573.976562 203.464844 574.074219 203.8125 Z M 573.570312 202.214844 C 573.238281 201.285156 572.863281 200.382812 572.425781 199.511719 C 572.863281 200.386719 573.242188 201.285156 573.570312 202.214844 Z M 572.324219 199.300781 C 572.074219 198.820312 571.808594 198.347656 571.527344 197.886719 C 571.808594 198.347656 572.078125 198.820312 572.324219 199.300781 Z M 333.894531 197.261719 C 333.375 198.070312 332.90625 198.921875 332.484375 199.796875 C 332.90625 198.917969 333.375 198.070312 333.894531 197.261719 Z M 561.351562 671.09375 L 560.953125 671.09375 C 561.335938 670.140625 561.578125 669.554688 561.589844 669.558594 C 561.90625 669.660156 562.144531 669.949219 562.144531 670.300781 C 562.144531 670.738281 561.789062 671.09375 561.351562 671.09375 Z M 592.746094 396.050781 C 592.257812 395.65625 591.78125 395.25 591.316406 394.820312 C 591.785156 395.25 592.261719 395.65625 592.746094 396.050781 Z M 590.5 394.050781 C 590.074219 393.628906 589.648438 393.203125 589.234375 392.753906 C 589.648438 393.199219 590.074219 393.628906 590.5 394.050781 Z M 588.417969 391.832031 C 588.074219 391.441406 587.742188 391.035156 587.410156 390.625 C 587.742188 391.035156 588.074219 391.441406 588.417969 391.832031 Z M 628.167969 395.542969 C 628.355469 395.402344 628.546875 395.265625 628.730469 395.125 C 628.546875 395.265625 628.355469 395.402344 628.167969 395.542969 Z M 632.867188 391.371094 C 633.027344 391.207031 633.179688 391.035156 633.335938 390.863281 C 633.179688 391.035156 633.027344 391.207031 632.867188 391.371094 Z M 655.980469 407.824219 C 655.960938 407.796875 655.949219 407.765625 655.933594 407.738281 C 655.949219 407.769531 655.960938 407.796875 655.980469 407.824219 Z M 655.753906 404.914062 C 655.753906 404.910156 655.753906 404.910156 655.757812 404.910156 C 655.753906 404.910156 655.753906 404.910156 655.753906 404.914062 Z M 651.988281 398.527344 C 652.046875 398.464844 652.097656 398.410156 652.15625 398.347656 C 652.097656 398.410156 652.046875 398.464844 651.988281 398.527344 Z M 652.539062 397.949219 C 652.59375 397.890625 652.640625 397.835938 652.691406 397.78125 C 652.640625 397.835938 652.597656 397.890625 652.539062 397.949219 Z M 653.011719 397.429688 C 653.054688 397.382812 653.097656 397.335938 653.136719 397.289062 C 653.097656 397.335938 653.054688 397.382812 653.011719 397.429688 Z M 653.773438 396.535156 C 653.785156 396.519531 653.796875 396.503906 653.808594 396.492188 C 653.796875 396.503906 653.785156 396.519531 653.773438 396.535156 Z M 653.414062 396.96875 C 653.445312 396.933594 653.476562 396.898438 653.503906 396.859375 C 653.476562 396.898438 653.445312 396.929688 653.414062 396.96875 Z M 650.269531 394.890625 C 650.34375 394.855469 650.414062 394.824219 650.484375 394.789062 C 650.414062 394.824219 650.34375 394.855469 650.269531 394.890625 Z M 651.253906 394.425781 C 651.273438 394.417969 651.289062 394.414062 651.304688 394.40625 C 651.289062 394.414062 651.273438 394.421875 651.253906 394.425781 Z M 656.183594 408.089844 C 656.214844 408.128906 656.246094 408.167969 656.28125 408.207031 C 656.246094 408.167969 656.214844 408.128906 656.183594 408.089844 Z M 656.640625 408.53125 C 656.589844 408.492188 656.542969 408.453125 656.496094 408.410156 C 656.542969 408.453125 656.589844 408.492188 656.640625 408.53125 Z M 664.503906 409.222656 C 664.425781 409.089844 664.355469 408.953125 664.300781 408.8125 C 664.355469 408.957031 664.425781 409.089844 664.503906 409.222656 Z M 671.8125 386.839844 C 671.867188 386.882812 671.925781 386.925781 671.980469 386.96875 C 671.925781 386.925781 671.867188 386.882812 671.8125 386.839844 Z M 667.792969 384.242188 C 667.824219 384.261719 667.855469 384.277344 667.886719 384.296875 C 667.855469 384.277344 667.824219 384.261719 667.792969 384.242188 Z M 670.5625 385.941406 C 670.625 385.984375 670.6875 386.027344 670.75 386.074219 C 670.691406 386.027344 670.625 385.984375 670.5625 385.941406 Z M 643.707031 375.066406 C 643.769531 374.933594 643.835938 374.804688 643.898438 374.671875 C 643.835938 374.804688 643.769531 374.933594 643.707031 375.066406 Z M 634.808594 389.203125 C 634.976562 389.003906 635.144531 388.804688 635.3125 388.597656 C 635.144531 388.804688 634.976562 389.003906 634.808594 389.203125 Z M 636.769531 386.730469 C 636.882812 386.574219 637 386.425781 637.117188 386.269531 C 637 386.425781 636.882812 386.574219 636.769531 386.730469 Z M 640.523438 381.054688 C 640.621094 380.886719 640.714844 380.710938 640.8125 380.542969 C 640.714844 380.710938 640.621094 380.886719 640.523438 381.054688 Z M 642.101562 378.226562 C 642.214844 378.019531 642.324219 377.808594 642.433594 377.601562 C 642.320312 377.808594 642.214844 378.019531 642.101562 378.226562 Z M 627.183594 276.515625 C 627.066406 276.664062 626.9375 276.8125 626.8125 276.960938 C 626.9375 276.8125 627.0625 276.664062 627.183594 276.515625 Z M 629.632812 271.519531 C 629.605469 271.632812 629.597656 271.746094 629.566406 271.859375 C 629.597656 271.746094 629.605469 271.632812 629.632812 271.519531 Z M 629.292969 272.734375 C 629.242188 272.890625 629.191406 273.042969 629.132812 273.195312 C 629.191406 273.042969 629.242188 272.890625 629.292969 272.734375 Z M 628.757812 274.019531 C 628.679688 274.183594 628.601562 274.339844 628.515625 274.5 C 628.601562 274.339844 628.679688 274.179688 628.757812 274.019531 Z M 628.046875 275.289062 C 627.945312 275.445312 627.839844 275.601562 627.734375 275.757812 C 627.839844 275.601562 627.945312 275.445312 628.046875 275.289062 Z M 634.222656 234.921875 C 634.152344 234.882812 634.082031 234.84375 634.007812 234.804688 C 634.082031 234.84375 634.152344 234.882812 634.222656 234.921875 Z M 633.382812 234.503906 C 633.300781 234.472656 633.21875 234.4375 633.136719 234.40625 C 633.21875 234.4375 633.300781 234.472656 633.382812 234.503906 Z M 636.347656 236.953125 C 636.367188 236.980469 636.386719 237.007812 636.40625 237.035156 C 636.386719 237.007812 636.367188 236.980469 636.347656 236.953125 Z M 577.792969 144.761719 C 580.222656 140.566406 584.128906 137.335938 588.707031 135.742188 C 610.460938 128.167969 628.742188 150.292969 617.210938 170.226562 C 614.785156 174.425781 610.875 177.65625 606.296875 179.25 C 584.542969 186.824219 566.257812 164.699219 577.792969 144.761719 Z M 407.167969 192.960938 C 407.253906 193.378906 407.414062 193.765625 407.597656 194.136719 C 407.414062 193.765625 407.253906 193.378906 407.167969 192.960938 Z M 408.203125 195.046875 C 408.398438 195.277344 408.613281 195.488281 408.847656 195.679688 C 408.613281 195.488281 408.398438 195.277344 408.203125 195.046875 Z M 409.449219 196.097656 C 410.152344 196.503906 410.953125 196.753906 411.820312 196.753906 C 412.691406 196.753906 413.492188 196.503906 414.191406 196.097656 C 413.492188 196.503906 412.691406 196.753906 411.820312 196.753906 C 410.953125 196.753906 410.152344 196.503906 409.449219 196.097656 Z M 426.152344 189.917969 L 495.972656 189.917969 C 496.726562 189.917969 497.375 190.378906 497.652344 191.035156 C 497.375 190.378906 496.726562 189.917969 495.972656 189.917969 L 426.152344 189.917969 C 425.398438 189.917969 424.75 190.378906 424.472656 191.035156 C 424.75 190.378906 425.394531 189.917969 426.152344 189.917969 Z M 416.574219 192.003906 C 416.574219 192.332031 416.539062 192.652344 416.476562 192.960938 C 416.351562 193.582031 416.105469 194.15625 415.761719 194.660156 C 415.5 195.050781 415.164062 195.386719 414.796875 195.679688 C 415.164062 195.386719 415.5 195.050781 415.761719 194.660156 C 416.105469 194.15625 416.351562 193.582031 416.476562 192.960938 C 416.539062 192.652344 416.574219 192.332031 416.574219 192.003906 C 416.574219 191.675781 416.539062 191.355469 416.476562 191.046875 C 416.375 190.539062 416.171875 190.070312 415.917969 189.632812 C 416.171875 190.070312 416.375 190.539062 416.476562 191.046875 C 416.539062 191.355469 416.574219 191.675781 416.574219 192.003906 Z M 200.546875 177.769531 C 200.515625 177.78125 200.484375 177.796875 200.449219 177.808594 C 200.484375 177.796875 200.515625 177.78125 200.546875 177.769531 Z M 201.816406 177.449219 C 201.753906 177.457031 201.691406 177.460938 201.632812 177.472656 C 201.695312 177.460938 201.753906 177.457031 201.816406 177.449219 Z M 149.09375 299.484375 C 149.058594 299.546875 149.019531 299.609375 148.984375 299.675781 C 149.019531 299.609375 149.058594 299.546875 149.09375 299.484375 Z M 148.605469 300.515625 Z M 148.386719 301.410156 C 148.371094 301.484375 148.359375 301.558594 148.351562 301.636719 C 148.359375 301.558594 148.371094 301.484375 148.386719 301.410156 Z M 142.007812 325.527344 L 142.074219 325.410156 L 144.699219 320.863281 Z M 159.917969 376.632812 C 159.816406 376.722656 159.722656 376.816406 159.617188 376.898438 C 159.722656 376.8125 159.820312 376.71875 159.917969 376.632812 Z M 160.101562 391.609375 C 159.570312 391.453125 159.0625 391.25 158.582031 391.011719 C 159.0625 391.25 159.570312 391.453125 160.101562 391.609375 Z M 213.960938 455.949219 C 213.964844 455.949219 213.964844 455.949219 213.96875 455.949219 C 214.402344 455.949219 214.757812 455.601562 214.761719 455.167969 L 215.113281 423.421875 L 214.898438 442.746094 L 224.371094 511.113281 L 212.792969 511.113281 Z M 280.757812 234.300781 C 273.925781 231.816406 266.046875 230.105469 254.671875 228.773438 C 249.269531 228.347656 243.972656 228.09375 238.835938 227.972656 L 239.027344 221.785156 C 239.378906 221.679688 239.730469 221.582031 240.078125 221.464844 C 243.550781 220.261719 246.65625 218.234375 249.144531 215.601562 C 249.53125 215.191406 249.894531 214.761719 250.246094 214.320312 C 250.808594 213.632812 251.34375 212.917969 251.820312 212.164062 C 253.773438 209.082031 255.007812 205.480469 255.273438 201.585938 C 255.269531 201.609375 255.265625 201.636719 255.265625 201.664062 C 255.265625 201.636719 255.273438 201.613281 255.273438 201.585938 L 255.566406 197.257812 L 320.449219 197.257812 C 318.902344 201.269531 318.046875 205.621094 318.046875 210.175781 L 318.046875 269.566406 L 290.851562 240.042969 C 287.925781 237.195312 284.4375 235.292969 280.757812 234.300781 Z M 587 589.757812 L 600.820312 546.351562 C 600.882812 546.367188 600.945312 546.390625 601.011719 546.394531 L 587 685.546875 Z M 656.863281 408.683594 C 656.925781 408.722656 656.984375 408.761719 657.050781 408.792969 C 656.984375 408.757812 656.921875 408.722656 656.863281 408.683594 Z M 657.277344 408.898438 C 657.351562 408.929688 657.429688 408.957031 657.507812 408.984375 C 657.425781 408.957031 657.351562 408.929688 657.277344 408.898438 Z M 657.734375 409.046875 C 657.820312 409.070312 657.910156 409.082031 658 409.09375 C 657.910156 409.082031 657.820312 409.066406 657.734375 409.046875 Z M 658.226562 409.117188 C 658.324219 409.121094 658.421875 409.121094 658.523438 409.113281 C 658.421875 409.121094 658.324219 409.121094 658.226562 409.117188 Z M 659.832031 408.777344 C 660.019531 408.6875 660.203125 408.582031 660.386719 408.453125 C 660.203125 408.582031 660.019531 408.6875 659.832031 408.777344 Z M 658.746094 409.101562 C 658.851562 409.089844 658.960938 409.0625 659.070312 409.039062 C 658.960938 409.0625 658.851562 409.089844 658.746094 409.101562 Z M 659.285156 408.988281 C 659.40625 408.953125 659.527344 408.902344 659.652344 408.847656 C 659.527344 408.902344 659.40625 408.953125 659.285156 408.988281 Z M 664.355469 406.710938 C 664.28125 406.875 664.230469 407.042969 664.195312 407.210938 C 664.230469 407.042969 664.28125 406.878906 664.355469 406.710938 Z M 664.164062 407.371094 C 664.144531 407.484375 664.128906 407.597656 664.125 407.710938 C 664.128906 407.597656 664.144531 407.484375 664.164062 407.371094 Z M 664.125 407.886719 C 664.125 407.992188 664.136719 408.101562 664.148438 408.207031 C 664.132812 408.101562 664.125 407.996094 664.125 407.886719 Z M 664.273438 408.726562 C 664.230469 408.609375 664.195312 408.488281 664.171875 408.363281 C 664.195312 408.488281 664.230469 408.609375 664.273438 408.726562 Z M 664.570312 409.320312 C 664.632812 409.414062 664.699219 409.503906 664.773438 409.589844 C 664.699219 409.503906 664.632812 409.414062 664.570312 409.320312 Z M 664.878906 409.703125 C 664.953125 409.777344 665.027344 409.847656 665.105469 409.914062 C 665.027344 409.847656 664.953125 409.777344 664.878906 409.703125 Z M 665.230469 410.007812 C 665.320312 410.074219 665.417969 410.132812 665.515625 410.183594 C 665.417969 410.128906 665.320312 410.074219 665.230469 410.007812 Z M 665.621094 410.246094 C 665.757812 410.3125 665.902344 410.363281 666.050781 410.40625 C 665.902344 410.363281 665.757812 410.308594 665.621094 410.246094 Z M 666.136719 410.421875 C 666.257812 410.449219 666.386719 410.472656 666.515625 410.480469 C 666.386719 410.46875 666.257812 410.449219 666.136719 410.421875 Z M 666.675781 410.484375 C 666.785156 410.488281 666.898438 410.480469 667.011719 410.46875 C 666.898438 410.480469 666.785156 410.488281 666.675781 410.484375 Z M 667.707031 410.300781 C 667.878906 410.234375 668.050781 410.152344 668.226562 410.050781 C 668.386719 409.953125 668.597656 409.839844 668.824219 409.722656 C 668.597656 409.839844 668.386719 409.953125 668.226562 410.050781 C 668.050781 410.152344 667.878906 410.234375 667.707031 410.300781 Z M 667.191406 410.441406 C 667.308594 410.421875 667.425781 410.386719 667.542969 410.351562 C 667.425781 410.390625 667.308594 410.421875 667.191406 410.441406 Z M 671.230469 408.554688 C 671.273438 408.535156 671.316406 408.515625 671.359375 408.496094 C 671.316406 408.515625 671.273438 408.535156 671.230469 408.554688 Z M 669.007812 409.628906 C 669.230469 409.511719 669.472656 409.394531 669.746094 409.261719 C 669.472656 409.394531 669.230469 409.515625 669.007812 409.628906 Z M 669.789062 409.238281 C 670.082031 409.097656 670.40625 408.945312 670.738281 408.789062 C 670.40625 408.945312 670.082031 409.097656 669.789062 409.238281 Z M 673.054688 387.84375 C 673.117188 387.898438 673.175781 387.949219 673.234375 388.003906 C 673.175781 387.949219 673.121094 387.898438 673.054688 387.84375 Z M 674.003906 388.714844 C 674.085938 388.792969 674.164062 388.871094 674.238281 388.945312 C 674.160156 388.871094 674.082031 388.792969 674.003906 388.714844 Z M 680.464844 400.234375 C 680.464844 400.171875 680.460938 400.113281 680.460938 400.050781 C 680.460938 400.113281 680.464844 400.171875 680.464844 400.234375 Z M 675.011719 389.789062 C 675.175781 389.984375 675.347656 390.191406 675.523438 390.40625 C 675.347656 390.191406 675.175781 389.984375 675.011719 389.789062 Z M 675.726562 390.65625 C 675.835938 390.792969 675.945312 390.929688 676.058594 391.070312 C 675.945312 390.929688 675.835938 390.792969 675.726562 390.65625 Z M 676.332031 391.421875 C 676.421875 391.539062 676.515625 391.660156 676.609375 391.78125 C 676.515625 391.660156 676.421875 391.539062 676.332031 391.421875 Z M 676.925781 392.203125 C 676.996094 392.300781 677.066406 392.398438 677.140625 392.5 C 677.066406 392.398438 676.996094 392.300781 676.925781 392.203125 Z M 678.429688 394.425781 C 678.449219 394.457031 678.46875 394.492188 678.492188 394.523438 C 678.46875 394.492188 678.449219 394.457031 678.429688 394.425781 Z M 678.863281 395.175781 C 678.898438 395.234375 678.933594 395.296875 678.964844 395.359375 C 678.933594 395.300781 678.898438 395.238281 678.863281 395.175781 Z M 680.449219 400.890625 C 680.441406 400.949219 680.433594 401.007812 680.425781 401.070312 C 680.433594 401.011719 680.441406 400.949219 680.449219 400.890625 Z M 679.304688 396.019531 C 679.332031 396.074219 679.359375 396.132812 679.386719 396.191406 C 679.355469 396.132812 679.332031 396.078125 679.304688 396.019531 Z M 679.699219 396.898438 C 679.703125 396.90625 679.703125 396.910156 679.707031 396.917969 C 679.703125 396.910156 679.703125 396.90625 679.699219 396.898438 Z M 680.382812 399.28125 C 680.390625 399.3125 680.394531 399.339844 680.398438 399.367188 C 680.394531 399.339844 680.390625 399.3125 680.382812 399.28125 Z M 664.957031 382.902344 C 663.359375 382.261719 661.832031 381.871094 660.578125 381.875 C 659.746094 381.878906 659.015625 381.980469 658.335938 382.125 C 654.628906 377.917969 650.246094 374.324219 645.335938 371.535156 C 649.890625 361.132812 653.300781 349.003906 656.246094 336.71875 C 656.453125 336.679688 656.652344 336.582031 656.777344 336.390625 L 686.953125 355.746094 Z M 664.957031 382.902344 " fill-opacity="1" fill-rule="nonzero"/><path fill="#e0e0e0" d="M 341.1875 235.003906 L 561.121094 235.003906 L 561.121094 622.0625 L 341.1875 622.0625 Z M 341.1875 235.003906 " fill-opacity="1" fill-rule="evenodd"/><path fill="#f5f5f5" d="M 656.453125 156.695312 L 647.152344 151.851562 C 642.175781 149.257812 640.53125 142.933594 643.613281 138.246094 L 649.382812 129.476562 C 654.277344 122.035156 647.121094 112.5625 638.625 115.242188 L 628.617188 118.398438 C 623.265625 120.085938 617.628906 116.777344 616.496094 111.28125 L 614.375 100.992188 C 612.578125 92.265625 600.816406 90.632812 596.703125 98.535156 L 591.855469 107.847656 C 589.269531 112.824219 582.945312 114.46875 578.257812 111.390625 L 569.472656 105.613281 C 562.027344 100.71875 552.5625 107.878906 555.242188 116.371094 L 558.402344 126.378906 C 560.09375 131.730469 556.785156 137.371094 551.285156 138.503906 L 540.996094 140.625 C 532.269531 142.421875 530.636719 154.179688 538.539062 158.292969 L 547.847656 163.140625 C 552.828125 165.730469 554.476562 172.058594 551.390625 176.746094 L 545.617188 185.519531 C 545.457031 185.765625 545.34375 186.015625 545.210938 186.261719 L 522.253906 186.261719 C 521.09375 186.261719 520.152344 187.203125 520.152344 188.363281 L 520.152344 191.550781 C 520.152344 199.757812 513.496094 206.410156 505.292969 206.410156 L 399.757812 206.410156 C 391.550781 206.410156 384.898438 199.757812 384.898438 191.550781 L 384.898438 188.363281 C 384.898438 187.203125 383.957031 186.261719 382.792969 186.261719 L 356.839844 186.261719 C 356.914062 185.710938 356.964844 185.152344 356.964844 184.582031 L 357.167969 136.371094 C 357.167969 129.367188 351.488281 123.691406 344.488281 123.691406 L 232.042969 123.691406 C 225.039062 123.691406 219.363281 129.367188 219.363281 136.371094 L 219.164062 184.582031 C 219.164062 191.585938 224.839844 197.261719 231.84375 197.261719 L 333.894531 197.261719 C 331.496094 200.988281 330.085938 205.414062 330.085938 210.175781 L 330.085938 691.753906 C 330.085938 704.960938 340.792969 715.667969 354 715.667969 L 551.042969 715.667969 C 564.253906 715.667969 574.957031 704.960938 574.957031 691.753906 L 574.957031 210.175781 C 574.957031 204.96875 573.273438 200.164062 570.445312 196.238281 C 574.3125 196.742188 577.65625 199.617188 578.503906 203.714844 L 580.628906 213.988281 C 582.433594 222.707031 594.1875 224.34375 598.300781 216.445312 L 603.144531 207.144531 C 605.738281 202.167969 612.0625 200.523438 616.75 203.609375 L 625.515625 209.375 C 632.957031 214.269531 642.429688 207.113281 639.753906 198.617188 L 636.601562 188.613281 C 634.914062 183.261719 638.222656 177.625 643.71875 176.492188 L 653.992188 174.367188 C 662.714844 172.566406 664.351562 160.808594 656.453125 156.695312 Z M 552.058594 248.429688 L 552.097656 352.289062 L 349.890625 352.363281 L 349.851562 248.503906 Z M 407.957031 669.851562 C 403.078125 669.851562 399.125 665.894531 399.125 661.019531 C 399.125 656.144531 403.078125 652.1875 407.957031 652.1875 C 412.835938 652.1875 416.789062 656.144531 416.789062 661.019531 C 416.789062 665.898438 412.835938 669.851562 407.957031 669.851562 Z M 457.179688 674.378906 C 449.800781 674.378906 443.820312 668.398438 443.820312 661.019531 C 443.820312 653.644531 449.800781 647.664062 457.179688 647.664062 C 464.554688 647.664062 470.535156 653.644531 470.535156 661.019531 C 470.535156 668.398438 464.554688 674.378906 457.179688 674.378906 Z M 488.339844 579.136719 L 348.328125 579.136719 L 348.328125 432.25 L 488.339844 432.25 Z M 506.398438 669.851562 C 501.519531 669.851562 497.570312 665.894531 497.570312 661.019531 C 497.570312 656.144531 501.523438 652.1875 506.398438 652.1875 C 511.277344 652.1875 515.230469 656.144531 515.230469 661.019531 C 515.230469 665.898438 511.277344 669.851562 506.398438 669.851562 Z M 540.957031 579.136719 L 505.019531 579.136719 L 505.019531 432.25 L 540.957031 432.25 Z M 349.890625 413.925781 L 349.886719 401.078125 L 552.09375 401.003906 L 552.097656 413.851562 Z M 349.890625 383.144531 L 349.886719 370.300781 L 552.09375 370.222656 L 552.097656 383.070312 Z M 617.210938 170.230469 C 614.785156 174.425781 610.875 177.65625 606.296875 179.25 C 584.542969 186.824219 566.257812 164.699219 577.792969 144.761719 C 580.21875 140.566406 584.128906 137.335938 588.707031 135.742188 C 610.460938 128.171875 628.742188 150.292969 617.210938 170.230469 Z M 451.121094 130.042969 L 457.628906 132.683594 C 461.113281 134.09375 462.609375 138.207031 460.851562 141.527344 L 457.558594 147.738281 C 454.765625 153.007812 460.140625 158.871094 465.632812 156.542969 L 472.089844 153.808594 C 475.550781 152.339844 479.519531 154.191406 480.625 157.78125 L 482.691406 164.492188 C 484.445312 170.191406 492.382812 170.535156 494.625 165.011719 L 497.265625 158.507812 C 498.675781 155.027344 502.785156 153.53125 506.105469 155.289062 L 512.3125 158.578125 C 517.582031 161.367188 523.441406 156 521.117188 150.507812 L 518.382812 144.039062 C 516.921875 140.582031 518.769531 136.617188 522.359375 135.511719 L 529.070312 133.445312 C 534.769531 131.691406 535.117188 123.757812 529.589844 121.511719 L 523.085938 118.871094 C 519.605469 117.460938 518.109375 113.347656 519.867188 110.03125 L 523.15625 103.824219 C 525.949219 98.550781 520.582031 92.695312 515.085938 95.015625 L 508.617188 97.753906 C 505.15625 99.214844 501.191406 97.367188 500.089844 93.777344 L 498.023438 87.054688 C 496.273438 81.355469 488.332031 81.007812 486.09375 86.535156 L 483.453125 93.046875 C 482.042969 96.527344 477.933594 98.027344 474.617188 96.269531 L 468.394531 92.972656 C 463.125 90.183594 457.269531 95.554688 459.59375 101.046875 L 462.335938 107.515625 C 463.800781 110.976562 461.949219 114.941406 458.359375 116.046875 L 451.636719 118.109375 C 445.9375 119.863281 445.589844 127.804688 451.121094 130.042969 Z M 476.417969 118.542969 C 477.773438 115.589844 480.171875 113.191406 483.121094 111.839844 C 497.140625 105.417969 510.722656 119 504.300781 133.015625 C 502.949219 135.96875 500.546875 138.367188 497.597656 139.71875 C 483.582031 146.144531 469.996094 132.558594 476.417969 118.542969 Z M 244.648438 523.792969 L 244.648438 618.796875 C 244.648438 625.800781 238.96875 631.476562 231.96875 631.476562 L 93.761719 632.746094 C 86.757812 632.746094 81.082031 625.800781 81.082031 618.796875 L 81.082031 523.792969 C 81.082031 516.789062 86.757812 511.113281 93.761719 511.113281 L 231.96875 511.113281 C 238.96875 511.113281 244.648438 516.789062 244.648438 523.792969 Z M 601.058594 546.398438 C 601.050781 546.398438 601.042969 546.398438 601.03125 546.398438 C 600.597656 546.382812 600.253906 546.019531 600.265625 545.582031 L 603.660156 436.195312 L 591.640625 422.171875 C 591.355469 421.839844 591.394531 421.339844 591.726562 421.054688 C 592.054688 420.773438 592.554688 420.8125 592.84375 421.144531 L 605.0625 435.398438 C 605.191406 435.550781 605.261719 435.742188 605.253906 435.941406 L 601.851562 545.632812 C 601.835938 546.058594 601.484375 546.398438 601.058594 546.398438 Z M 657.796875 670.300781 C 657.796875 669.867188 657.441406 669.511719 657.007812 669.511719 L 593.734375 669.511719 C 593.300781 669.511719 592.945312 669.867188 592.945312 670.300781 C 592.945312 670.738281 593.300781 671.09375 593.734375 671.09375 L 657.007812 671.09375 C 657.441406 671.09375 657.796875 670.738281 657.796875 670.300781 Z M 562.144531 670.300781 C 562.144531 669.867188 561.789062 669.511719 561.351562 669.511719 L 489.664062 669.511719 C 489.230469 669.511719 488.875 669.867188 488.875 670.300781 C 488.875 670.738281 489.230469 671.09375 489.664062 671.09375 L 561.351562 671.09375 C 561.789062 671.09375 562.144531 670.738281 562.144531 670.300781 Z M 214.761719 455.167969 L 215.113281 423.421875 L 228.015625 419.980469 C 228.4375 419.871094 228.6875 419.433594 228.574219 419.011719 C 228.460938 418.59375 228.035156 418.34375 227.605469 418.453125 L 214.125 422.050781 C 213.78125 422.144531 213.542969 422.449219 213.539062 422.804688 L 213.179688 455.148438 C 213.175781 455.585938 213.523438 455.945312 213.960938 455.949219 C 213.964844 455.949219 213.964844 455.949219 213.96875 455.949219 C 214.402344 455.949219 214.757812 455.601562 214.761719 455.167969 Z M 214.761719 455.167969 " fill-opacity="1" fill-rule="evenodd"/><path fill="#f5f5f5" d="M 445.460938 553.058594 L 366.15625 553.058594 C 364.847656 553.058594 363.785156 554.121094 363.785156 555.433594 C 363.785156 556.742188 364.847656 557.804688 366.15625 557.804688 L 445.460938 557.804688 C 446.769531 557.804688 447.832031 556.742188 447.832031 555.433594 C 447.832031 554.121094 446.769531 553.058594 445.460938 553.058594 Z M 445.460938 553.058594 " fill-opacity="1" fill-rule="evenodd"/><path fill="#f5f5f5" d="M 416.574219 192.003906 C 416.574219 192.316406 416.542969 192.625 416.484375 192.933594 C 416.421875 193.238281 416.332031 193.535156 416.210938 193.824219 C 416.09375 194.109375 415.945312 194.386719 415.773438 194.644531 C 415.601562 194.902344 415.402344 195.144531 415.183594 195.363281 C 414.960938 195.585938 414.722656 195.78125 414.460938 195.953125 C 414.203125 196.128906 413.929688 196.273438 413.640625 196.394531 C 413.351562 196.511719 413.054688 196.601562 412.75 196.664062 C 412.445312 196.726562 412.136719 196.753906 411.824219 196.753906 C 411.511719 196.753906 411.203125 196.726562 410.894531 196.664062 C 410.589844 196.601562 410.292969 196.511719 410.003906 196.394531 C 409.71875 196.273438 409.441406 196.128906 409.183594 195.953125 C 408.925781 195.78125 408.683594 195.585938 408.464844 195.363281 C 408.242188 195.144531 408.046875 194.902344 407.875 194.644531 C 407.699219 194.386719 407.554688 194.109375 407.433594 193.824219 C 407.316406 193.535156 407.222656 193.238281 407.164062 192.933594 C 407.101562 192.625 407.074219 192.316406 407.074219 192.003906 C 407.074219 191.691406 407.101562 191.382812 407.164062 191.078125 C 407.222656 190.773438 407.316406 190.476562 407.433594 190.1875 C 407.554688 189.898438 407.699219 189.625 407.875 189.367188 C 408.046875 189.105469 408.242188 188.867188 408.464844 188.644531 C 408.683594 188.425781 408.925781 188.226562 409.183594 188.054688 C 409.441406 187.882812 409.71875 187.734375 410.003906 187.617188 C 410.292969 187.496094 410.589844 187.40625 410.894531 187.34375 C 411.203125 187.285156 411.511719 187.253906 411.824219 187.253906 C 412.136719 187.253906 412.445312 187.285156 412.75 187.34375 C 413.054688 187.40625 413.351562 187.496094 413.640625 187.617188 C 413.929688 187.734375 414.203125 187.882812 414.460938 188.054688 C 414.722656 188.226562 414.960938 188.425781 415.183594 188.644531 C 415.402344 188.867188 415.601562 189.105469 415.773438 189.367188 C 415.945312 189.625 416.09375 189.898438 416.210938 190.1875 C 416.332031 190.476562 416.421875 190.773438 416.484375 191.078125 C 416.542969 191.382812 416.574219 191.691406 416.574219 192.003906 Z M 416.574219 192.003906 " fill-opacity="1" fill-rule="nonzero"/><path fill="#f5f5f5" d="M 495.972656 193.566406 L 426.152344 193.566406 C 425.144531 193.566406 424.328125 192.75 424.328125 191.742188 C 424.328125 190.734375 425.144531 189.917969 426.152344 189.917969 L 495.972656 189.917969 C 496.980469 189.917969 497.796875 190.734375 497.796875 191.742188 C 497.796875 192.75 496.980469 193.566406 495.972656 193.566406 Z M 495.972656 193.566406 " fill-opacity="1" fill-rule="nonzero"/><path fill="#e0e0e0" d="M 551.042969 174.222656 L 354 174.222656 C 334.144531 174.222656 318.046875 190.320312 318.046875 210.179688 L 318.046875 691.753906 C 318.046875 711.613281 334.144531 727.710938 354 727.710938 L 551.042969 727.710938 C 570.902344 727.710938 587 711.613281 587 691.753906 L 587 210.175781 C 587 190.320312 570.902344 174.222656 551.042969 174.222656 Z M 426.152344 189.917969 L 495.972656 189.917969 C 496.980469 189.917969 497.796875 190.734375 497.796875 191.742188 C 497.796875 192.75 496.980469 193.566406 495.972656 193.566406 L 426.152344 193.566406 C 425.144531 193.566406 424.328125 192.75 424.328125 191.742188 C 424.328125 190.734375 425.144531 189.917969 426.152344 189.917969 Z M 411.824219 187.253906 C 414.445312 187.253906 416.574219 189.378906 416.574219 192.003906 C 416.574219 194.628906 414.449219 196.753906 411.824219 196.753906 C 409.199219 196.753906 407.074219 194.628906 407.074219 192.003906 C 407.074219 189.378906 409.199219 187.253906 411.824219 187.253906 Z M 574.957031 691.753906 C 574.957031 704.960938 564.253906 715.667969 551.042969 715.667969 L 354 715.667969 C 340.792969 715.667969 330.085938 704.960938 330.085938 691.753906 L 330.085938 210.175781 C 330.085938 196.96875 340.792969 186.261719 354 186.261719 L 382.792969 186.261719 C 383.953125 186.261719 384.898438 187.203125 384.898438 188.363281 L 384.898438 191.550781 C 384.898438 199.757812 391.550781 206.410156 399.757812 206.410156 L 505.292969 206.410156 C 513.5 206.410156 520.152344 199.757812 520.152344 191.550781 L 520.152344 188.363281 C 520.152344 187.203125 521.09375 186.261719 522.253906 186.261719 L 551.042969 186.261719 C 564.253906 186.261719 574.960938 196.96875 574.960938 210.175781 L 574.960938 691.753906 Z M 344.484375 123.6875 L 232.042969 123.6875 C 225.039062 123.6875 219.363281 129.363281 219.363281 136.367188 L 219.363281 151.789062 L 357.167969 151.789062 L 357.167969 136.367188 C 357.164062 129.363281 351.488281 123.6875 344.484375 123.6875 Z M 341.351562 141.980469 C 339.011719 141.980469 337.113281 140.082031 337.113281 137.738281 C 337.113281 135.398438 339.011719 133.5 341.351562 133.5 C 343.695312 133.5 345.59375 135.398438 345.59375 137.738281 C 345.59375 140.082031 343.695312 141.980469 341.351562 141.980469 Z M 318.660156 173.335938 L 256.355469 173.335938 C 254.957031 173.335938 253.820312 172.199219 253.820312 170.796875 C 253.820312 169.394531 254.957031 168.261719 256.355469 168.261719 L 318.660156 168.261719 C 320.0625 168.261719 321.199219 169.394531 321.199219 170.796875 C 321.199219 172.199219 320.0625 173.335938 318.660156 173.335938 Z M 416.789062 661.019531 C 416.789062 665.898438 412.835938 669.851562 407.957031 669.851562 C 403.078125 669.851562 399.125 665.898438 399.125 661.019531 C 399.125 656.144531 403.078125 652.1875 407.957031 652.1875 C 412.835938 652.1875 416.789062 656.144531 416.789062 661.019531 Z M 470.535156 661.019531 C 470.535156 668.398438 464.554688 674.378906 457.179688 674.378906 C 449.800781 674.378906 443.820312 668.398438 443.820312 661.019531 C 443.820312 653.644531 449.800781 647.660156 457.179688 647.660156 C 464.554688 647.664062 470.535156 653.644531 470.535156 661.019531 Z M 515.230469 661.019531 C 515.230469 665.898438 511.277344 669.851562 506.398438 669.851562 C 501.519531 669.851562 497.570312 665.898438 497.570312 661.019531 C 497.570312 656.144531 501.523438 652.1875 506.398438 652.1875 C 511.277344 652.1875 515.230469 656.144531 515.230469 661.019531 Z M 225.316406 589.234375 L 100.410156 589.234375 C 99.007812 589.234375 97.871094 588.097656 97.871094 586.699219 C 97.871094 585.296875 99.007812 584.160156 100.410156 584.160156 L 225.316406 584.160156 C 226.714844 584.160156 227.851562 585.296875 227.851562 586.699219 C 227.851562 588.097656 226.714844 589.234375 225.316406 589.234375 Z M 225.316406 564.179688 L 100.410156 564.179688 C 99.007812 564.179688 97.871094 563.046875 97.871094 561.644531 C 97.871094 560.242188 99.007812 559.105469 100.410156 559.105469 L 225.316406 559.105469 C 226.714844 559.105469 227.851562 560.242188 227.851562 561.644531 C 227.851562 563.046875 226.714844 564.179688 225.316406 564.179688 Z M 231.964844 511.109375 L 93.761719 511.109375 C 86.757812 511.109375 81.082031 516.789062 81.082031 523.789062 L 81.082031 539.210938 L 244.648438 539.210938 L 244.648438 523.789062 C 244.648438 516.789062 238.96875 511.109375 231.964844 511.109375 Z M 96.167969 529.40625 C 93.824219 529.40625 91.925781 527.503906 91.925781 525.164062 C 91.925781 522.820312 93.824219 520.921875 96.167969 520.921875 C 98.511719 520.921875 100.410156 522.820312 100.410156 525.164062 C 100.410156 527.503906 98.511719 529.40625 96.167969 529.40625 Z M 96.167969 529.40625 " fill-opacity="1" fill-rule="evenodd"/><path fill="#f5f5f5" d="M 362.117188 261.972656 L 447.054688 262.003906 L 447.027344 338.855469 L 362.089844 338.824219 Z M 535.765625 283.164062 L 463.359375 283.164062 C 462.046875 283.164062 460.984375 284.226562 460.984375 285.535156 C 460.984375 286.847656 462.046875 287.910156 463.359375 287.910156 L 535.765625 287.910156 C 537.074219 287.910156 538.136719 286.847656 538.136719 285.535156 C 538.136719 284.226562 537.074219 283.164062 535.765625 283.164062 Z M 535.765625 264.914062 L 463.359375 264.914062 C 462.046875 264.914062 460.984375 265.980469 460.984375 267.289062 C 460.984375 268.597656 462.046875 269.660156 463.359375 269.660156 L 535.765625 269.660156 C 537.074219 269.660156 538.136719 268.597656 538.136719 267.289062 C 538.136719 265.980469 537.074219 264.914062 535.765625 264.914062 Z M 520.511719 330.546875 L 463.621094 330.546875 C 462.3125 330.546875 461.246094 331.609375 461.246094 332.917969 C 461.246094 334.230469 462.3125 335.292969 463.621094 335.292969 L 520.511719 335.292969 C 521.820312 335.292969 522.886719 334.230469 522.886719 332.917969 C 522.886719 331.609375 521.820312 330.546875 520.511719 330.546875 Z M 463.359375 306.152344 L 520.25 306.152344 C 521.5625 306.152344 522.625 305.089844 522.625 303.78125 C 522.625 302.46875 521.5625 301.40625 520.25 301.40625 L 463.359375 301.40625 C 462.050781 301.40625 460.988281 302.46875 460.988281 303.78125 C 460.988281 305.089844 462.046875 306.152344 463.359375 306.152344 Z M 475.410156 501.585938 L 475.410156 444.851562 L 362.988281 444.851562 L 362.988281 501.585938 Z M 469.460938 518.945312 C 469.460938 517.632812 468.398438 516.570312 467.085938 516.570312 L 366.15625 516.570312 C 364.847656 516.570312 363.785156 517.632812 363.785156 518.945312 C 363.785156 520.253906 364.847656 521.316406 366.15625 521.316406 L 467.085938 521.316406 C 468.398438 521.316406 469.460938 520.253906 469.460938 518.945312 Z M 469.460938 537.1875 C 469.460938 535.878906 468.398438 534.816406 467.085938 534.816406 L 366.15625 534.816406 C 364.847656 534.816406 363.785156 535.878906 363.785156 537.1875 C 363.785156 538.5 364.847656 539.5625 366.15625 539.5625 L 467.085938 539.5625 C 468.398438 539.5625 469.460938 538.5 469.460938 537.1875 Z M 447.832031 555.433594 C 447.832031 554.121094 446.769531 553.058594 445.460938 553.058594 L 366.15625 553.058594 C 364.847656 553.058594 363.785156 554.121094 363.785156 555.433594 C 363.785156 556.742188 364.847656 557.804688 366.15625 557.804688 L 445.460938 557.804688 C 446.769531 557.804688 447.832031 556.742188 447.832031 555.433594 Z M 447.832031 555.433594 " fill-opacity="1" fill-rule="evenodd"/><path fill="#e0e0e0" d="M 418.230469 282.359375 C 417.019531 275.953125 422.535156 270.445312 428.9375 271.660156 C 432.519531 272.34375 435.402344 275.230469 436.078125 278.808594 C 437.289062 285.214844 431.777344 290.722656 425.371094 289.507812 C 421.792969 288.824219 418.910156 285.9375 418.230469 282.359375 Z M 447.03125 322.335938 L 421.847656 295.390625 L 411.46875 306.480469 L 392.625 280.917969 L 362.09375 322.265625 L 396.679688 322.277344 L 396.644531 322.316406 Z M 413.625 454.011719 L 400.363281 454.011719 L 397.800781 459.597656 L 397.785156 459.597656 L 397.785156 490.230469 L 442.460938 490.230469 L 442.460938 459.597656 L 416.183594 459.597656 Z M 413.625 454.011719 " fill-opacity="1" fill-rule="nonzero"/><path fill="#f5c0a2" d="M 231.164062 222.644531 C 230.546875 222.605469 229.9375 222.539062 229.335938 222.449219 C 228.738281 222.359375 228.144531 222.246094 227.5625 222.113281 C 225.8125 221.707031 224.148438 221.101562 222.582031 220.316406 C 222.226562 220.136719 221.886719 219.9375 221.542969 219.742188 C 220.691406 219.257812 219.878906 218.722656 219.101562 218.136719 C 219.734375 218.613281 220.378906 219.066406 221.058594 219.476562 C 219.550781 218.570312 218.15625 217.488281 216.90625 216.265625 C 212.1875 211.976562 206.945312 205.074219 203.117188 196.191406 C 203.914062 196.195312 204.664062 195.910156 205.25 195.414062 C 205.28125 195.386719 205.3125 195.363281 205.34375 195.335938 C 205.460938 195.230469 205.5625 195.121094 205.664062 195 C 205.707031 194.945312 205.75 194.890625 205.792969 194.832031 C 205.878906 194.714844 205.960938 194.597656 206.03125 194.464844 C 206.066406 194.398438 206.09375 194.324219 206.125 194.25 C 206.234375 194.003906 206.3125 193.738281 206.359375 193.457031 C 206.371094 193.382812 206.398438 193.308594 206.40625 193.226562 L 206.402344 193.226562 C 206.40625 193.191406 206.421875 193.15625 206.421875 193.121094 C 206.421875 193.121094 206.472656 191.808594 206.449219 189.945312 C 206.445312 189.675781 206.4375 189.394531 206.433594 189.101562 C 206.433594 189.085938 206.433594 189.070312 206.429688 189.050781 C 206.414062 188.46875 206.390625 187.84375 206.355469 187.203125 C 206.355469 187.171875 206.355469 187.144531 206.351562 187.113281 C 206.316406 186.464844 206.269531 185.804688 206.207031 185.144531 C 206.203125 185.128906 206.203125 185.113281 206.199219 185.097656 C 206.167969 184.773438 206.132812 184.449219 206.09375 184.128906 C 206.09375 184.117188 206.089844 184.105469 206.089844 184.09375 C 206.007812 183.429688 205.910156 182.777344 205.789062 182.15625 C 205.789062 182.140625 205.785156 182.128906 205.78125 182.117188 C 205.480469 180.542969 205.042969 179.175781 204.417969 178.324219 C 204.414062 178.320312 204.414062 178.320312 204.414062 178.320312 C 204.011719 177.769531 203.53125 177.429688 202.960938 177.394531 C 198.871094 177.15625 195.304688 181.265625 194.996094 186.570312 C 194.769531 190.535156 197.339844 194.078125 201.5 195.792969 L 197.113281 233.679688 C 195.902344 244.679688 203.4375 254.753906 215.140625 256.015625 C 226.839844 257.277344 237.304688 249.386719 238.511719 238.386719 L 239.03125 221.789062 C 237.253906 222.308594 235.398438 222.625 233.484375 222.691406 C 232.714844 222.710938 231.941406 222.699219 231.164062 222.644531 Z M 231.164062 222.644531 " fill-opacity="1" fill-rule="nonzero"/><path fill="#f5c0a2" d="M 175.988281 682.746094 L 175.988281 688.761719 C 182.003906 685.109375 193.332031 686.542969 198.777344 689.539062 C 200.496094 690.484375 202.457031 690.5 204.386719 690.15625 C 204.65625 690.105469 204.941406 690.199219 205.257812 690.371094 C 204.996094 687.472656 204.835938 684.949219 204.746094 682.746094 Z M 175.988281 682.746094 " fill-opacity="1" fill-rule="nonzero"/><path fill="#f5c0a2" d="M 181.382812 315.875 C 182.804688 315.0625 183.980469 314.375 184.414062 314.066406 C 185.851562 313.050781 188.105469 311.511719 187.277344 308.859375 C 186.847656 307.46875 185.714844 306.871094 184.476562 306.695312 C 186.738281 305.109375 186.820312 302.667969 186.363281 301.726562 C 185.527344 300.019531 184.527344 299.859375 182.503906 300.109375 C 180.480469 300.355469 169.46875 301.636719 169.433594 301.644531 C 169.09375 301.667969 168.753906 301.710938 168.417969 301.804688 L 167.230469 302.167969 C 166.644531 301.757812 166.015625 301.414062 165.363281 301.117188 L 167.660156 299.503906 C 170.515625 299.304688 175.230469 298.964844 177.929688 298.6875 C 181.976562 298.273438 183.214844 295.570312 183.242188 294.339844 C 183.273438 292.4375 181.808594 292.265625 179.886719 291.695312 L 167.230469 290.027344 C 165.996094 289.894531 164.785156 290.09375 163.765625 290.574219 C 163.734375 290.589844 163.707031 290.605469 163.675781 290.621094 C 163.445312 290.734375 163.226562 290.863281 163.019531 291.007812 L 150.671875 297.773438 C 149.113281 298.875 148.226562 300.667969 148.300781 302.574219 C 148.300781 302.574219 148.300781 302.574219 148.300781 302.578125 L 144.699219 320.859375 L 125.398438 354.351562 C 121.957031 365.640625 128.320312 377.585938 139.613281 381.027344 C 150.902344 384.464844 162.84375 378.101562 166.289062 366.808594 L 170.160156 330.5 C 171.652344 329.855469 173.179688 329.203125 173.183594 329.199219 C 173.445312 329.109375 173.707031 328.992188 173.957031 328.847656 L 181.972656 322.871094 C 187.15625 318.894531 183.820312 315.257812 181.382812 315.875 Z M 181.382812 315.875 " fill-opacity="1" fill-rule="nonzero"/><path fill="#f5c0a2" d="M 239.632812 202.359375 C 239.066406 202.394531 238.503906 202.425781 237.960938 202.425781 C 233.167969 202.425781 227.222656 200.46875 227.222656 204.945312 C 227.222656 206.898438 228.121094 208.6875 229.617188 210.085938 C 232.015625 212.332031 236.132812 210.621094 236.164062 207.335938 C 236.164062 207.316406 236.164062 207.296875 236.164062 207.277344 C 236.164062 207.273438 236.222656 207.269531 236.308594 207.269531 C 236.332031 207.269531 236.371094 207.269531 236.398438 207.269531 C 236.480469 207.265625 236.578125 207.265625 236.695312 207.261719 C 236.730469 207.261719 236.761719 207.261719 236.796875 207.261719 C 236.929688 207.261719 237.078125 207.257812 237.238281 207.253906 C 237.28125 207.253906 237.324219 207.253906 237.371094 207.253906 C 237.550781 207.253906 237.734375 207.25 237.921875 207.246094 C 237.941406 207.246094 237.957031 207.246094 237.972656 207.246094 C 238.867188 207.238281 239.757812 207.230469 239.757812 207.230469 C 239.757812 207.246094 239.753906 207.261719 239.753906 207.277344 L 239.753906 207.335938 C 239.785156 210.621094 243.902344 212.332031 246.300781 210.089844 C 247.796875 208.691406 248.695312 206.898438 248.695312 204.949219 C 248.695312 200.980469 244.03125 202.058594 239.632812 202.359375 Z M 239.632812 202.359375 " fill-opacity="1" fill-rule="nonzero"/><path fill="#f5c0a2" d="M 239.003906 197.484375 C 249.714844 197.484375 253.882812 195.296875 256.234375 187.238281 L 255.269531 201.585938 C 255.265625 201.609375 255.261719 201.636719 255.261719 201.664062 C 255.261719 201.636719 255.269531 201.613281 255.269531 201.585938 L 257.199219 172.949219 C 257.257812 172.027344 257.253906 171.082031 257.21875 170.132812 C 257.1875 169.300781 257.113281 168.464844 257.011719 167.628906 C 256.96875 167.28125 256.921875 166.9375 256.867188 166.589844 C 256.824219 166.324219 256.777344 166.058594 256.726562 165.792969 C 256.597656 165.140625 256.460938 164.488281 256.285156 163.847656 C 256.058594 163.027344 255.789062 162.234375 255.496094 161.453125 C 255.367188 161.105469 255.21875 160.769531 255.074219 160.429688 C 254.910156 160.035156 254.742188 159.648438 254.558594 159.265625 C 254.347656 158.828125 254.128906 158.394531 253.898438 157.972656 C 253.773438 157.746094 253.640625 157.523438 253.511719 157.296875 C 253.222656 156.804688 252.933594 156.3125 252.617188 155.84375 C 249.585938 157.8125 245.773438 158.550781 238.238281 159.320312 C 232.375 159.921875 222.566406 159.890625 217.296875 158.136719 C 211.816406 165.550781 217.378906 174.25 211.207031 178.769531 C 214.082031 194.496094 223.488281 197.484375 239.003906 197.484375 Z M 239.003906 197.484375 " fill-opacity="1" fill-rule="nonzero"/><path fill="#f5c0a2" d="M 675.011719 389.789062 C 672.101562 386.296875 664.816406 381.859375 660.578125 381.875 C 656.34375 381.890625 654.054688 384.160156 654.054688 384.160156 C 651.480469 386.027344 647.0625 389.546875 646.152344 390.183594 C 641.753906 393.25 645.429688 397.507812 649.25 395.417969 C 652.160156 393.832031 653.863281 393.542969 658.078125 391.394531 C 654.023438 395.523438 655.171875 395.382812 651.339844 399.179688 C 647.28125 403.203125 651.5625 407.875 655.175781 404.964844 C 655.460938 404.734375 655.785156 404.476562 656.113281 404.210938 C 654.105469 407.320312 657.335938 410.566406 660.390625 408.453125 C 662.222656 407.179688 664.960938 405.375 667.734375 403.546875 C 667.742188 403.550781 667.75 403.558594 667.757812 403.558594 C 667.136719 404.027344 667.539062 403.71875 665.664062 405.132812 C 662.203125 407.738281 665.207031 411.855469 668.226562 410.050781 C 670.152344 408.898438 677.324219 406.019531 678.972656 404.234375 C 683.046875 399.828125 677.921875 393.28125 675.011719 389.789062 Z M 675.011719 389.789062 " fill-opacity="1" fill-rule="nonzero"/><path fill="#f5c0a2" d="M 632.246094 234.15625 C 628.125 233.375 627.105469 237.253906 626.601562 239.933594 L 625.855469 243.859375 C 621.921875 239.578125 621.035156 232.746094 621.285156 229.484375 C 610.28125 229.453125 591.488281 228.546875 586.097656 215.511719 C 584.542969 218.617188 583.585938 222.082031 583.417969 225.773438 L 582.203125 252.488281 C 581.824219 261.195312 586.898438 269.617188 595.453125 273.03125 C 596.960938 273.632812 598.5 274.03125 600.042969 274.273438 C 601.070312 280.648438 603.933594 284.683594 611.953125 284.683594 C 619.113281 284.683594 630.488281 277.039062 629.808594 269.117188 L 627.109375 252.695312 C 627.558594 252.851562 628.046875 252.925781 628.558594 252.871094 C 633.394531 252.371094 637.078125 249.398438 637.867188 245.238281 C 638.878906 239.898438 636.359375 234.9375 632.246094 234.15625 Z M 632.246094 234.15625 " fill-opacity="1" fill-rule="nonzero"/><path fill="#f5c0a2" d="M 439.9375 250.652344 C 441.300781 248.960938 439.53125 246.363281 434.609375 245.613281 C 428.617188 244.699219 424.441406 244.28125 409.9375 244.378906 C 410.664062 244.152344 411.34375 243.945312 411.929688 243.78125 C 416.617188 242.460938 411.847656 235.945312 404.011719 237.292969 C 397.855469 238.351562 387.921875 239.988281 387.921875 239.988281 C 380.726562 239.746094 370.757812 242.265625 367.25 252.785156 L 337.777344 291.035156 C 337.679688 291.382812 337.527344 291.714844 337.261719 291.992188 L 319.78125 329.882812 C 323.925781 334.132812 327.269531 337.398438 328.347656 338.054688 C 337.933594 343.890625 350.4375 340.847656 356.269531 331.257812 L 390.632812 269.078125 C 391.199219 269.066406 391.761719 269.054688 392.316406 269.027344 L 392.367188 269.023438 C 394.785156 268.898438 410.925781 267.554688 410.925781 267.554688 C 411.769531 267.484375 412.601562 267.363281 413.433594 267.183594 C 416.519531 266.515625 424.550781 264.734375 428.746094 263.46875 C 429.699219 263.183594 430.378906 262.660156 430.824219 262.046875 C 432.660156 261.851562 434.210938 261.683594 435.242188 261.5625 C 437.625 261.292969 438.222656 259.574219 437.40625 257.9375 C 438.503906 257.832031 439.46875 257.722656 440.242188 257.609375 C 444.824219 256.925781 444.347656 252.292969 439.9375 250.652344 Z M 439.9375 250.652344 " fill-opacity="1" fill-rule="nonzero"/><path fill="#f5c0a2" d="M 249.871094 682.746094 C 250.085938 685.644531 250.277344 688.011719 250.4375 689.964844 C 252.035156 690.660156 253.113281 692.960938 257.28125 692.960938 C 262.71875 692.960938 264.917969 688.277344 269.457031 691.203125 C 270.804688 688.25 274.953125 686.511719 279.121094 686.585938 C 278.894531 685.148438 278.710938 683.886719 278.558594 682.746094 Z M 249.871094 682.746094 " fill-opacity="1" fill-rule="nonzero"/><path fill="#f5c0a2" d="M 247.332031 217.300781 C 247.964844 216.765625 248.574219 216.203125 249.144531 215.601562 C 249.855469 214.847656 250.496094 214.03125 251.101562 213.183594 C 250.011719 214.707031 248.753906 216.09375 247.332031 217.300781 Z M 247.332031 217.300781 " fill-opacity="1" fill-rule="nonzero"/><path fill="#ff5757" d="M 337.261719 291.992188 L 319.160156 331.226562 C 318.285156 332.144531 316.832031 332.171875 315.921875 331.292969 L 297.023438 313 C 296.273438 312.273438 296.140625 311.171875 296.597656 310.300781 L 282.285156 296.332031 L 273.570312 396.449219 C 272.929688 400.847656 272.132812 404.917969 267.6875 405.078125 C 231.101562 406.425781 195.238281 401.9375 160.101562 391.609375 C 155.832031 390.351562 153.082031 386.214844 153.546875 381.792969 C 153.59375 381.351562 153.621094 380.894531 153.664062 380.453125 C 159.515625 378.144531 164.304688 373.296875 166.285156 366.808594 L 170.15625 330.496094 C 171.648438 329.855469 173.175781 329.199219 173.179688 329.199219 C 173.441406 329.105469 173.707031 328.988281 173.953125 328.847656 L 181.96875 322.871094 C 187.15625 318.894531 183.820312 315.257812 181.382812 315.875 C 182.804688 315.0625 183.980469 314.375 184.414062 314.066406 C 185.847656 313.050781 188.101562 311.511719 187.277344 308.859375 C 186.84375 307.46875 185.714844 306.871094 184.476562 306.695312 C 186.738281 305.109375 186.820312 302.667969 186.359375 301.726562 C 185.527344 300.019531 184.523438 299.859375 182.5 300.109375 C 180.6875 300.328125 171.667969 301.378906 169.796875 301.601562 C 169.582031 301.625 169.4375 301.644531 169.433594 301.644531 C 169.09375 301.667969 168.753906 301.710938 168.414062 301.804688 L 167.230469 302.167969 C 166.644531 301.757812 166.015625 301.414062 165.359375 301.117188 L 167.660156 299.503906 C 167.976562 299.480469 168.324219 299.457031 168.679688 299.433594 C 168.78125 299.425781 168.886719 299.417969 168.984375 299.410156 C 169.285156 299.386719 169.59375 299.367188 169.914062 299.34375 C 169.996094 299.335938 170.078125 299.332031 170.164062 299.328125 C 170.53125 299.300781 170.910156 299.269531 171.292969 299.246094 C 171.441406 299.234375 171.59375 299.222656 171.742188 299.210938 C 172.035156 299.1875 172.332031 299.167969 172.625 299.144531 C 172.796875 299.132812 172.964844 299.117188 173.132812 299.105469 C 173.375 299.085938 173.609375 299.070312 173.84375 299.050781 C 174.03125 299.035156 174.222656 299.019531 174.40625 299.003906 C 175.722656 298.898438 176.957031 298.789062 177.925781 298.6875 C 181.972656 298.273438 183.214844 295.570312 183.238281 294.339844 C 183.273438 292.441406 181.808594 292.265625 179.886719 291.695312 L 176.25 291.21875 L 167.230469 290.027344 C 165.996094 289.894531 164.785156 290.097656 163.765625 290.578125 C 163.734375 290.589844 163.707031 290.609375 163.675781 290.621094 C 163.445312 290.734375 163.226562 290.867188 163.019531 291.007812 L 150.671875 297.773438 C 150.28125 298.050781 149.929688 298.375 149.625 298.730469 C 148.726562 299.785156 148.246094 301.152344 148.300781 302.574219 C 148.300781 302.578125 148.300781 302.578125 148.300781 302.578125 L 144.699219 320.863281 L 125.878906 353.515625 L 127.667969 327.164062 C 127.722656 326.152344 128.433594 325.320312 129.371094 325.074219 L 132.5625 263.113281 C 133.25 256.089844 137.019531 250.121094 142.386719 246.382812 C 142.851562 245.84375 143.433594 245.394531 144.125 245.105469 C 151.136719 242.1875 161.484375 236.832031 176.113281 232.539062 C 176.113281 232.539062 184.359375 230.921875 197.585938 229.59375 L 197.113281 233.675781 C 195.902344 244.675781 203.4375 254.75 215.136719 256.011719 C 226.835938 257.273438 237.300781 249.382812 238.511719 238.386719 L 238.835938 227.972656 C 243.972656 228.09375 249.269531 228.351562 254.671875 228.773438 C 266.046875 230.105469 273.925781 231.816406 280.757812 234.300781 C 284.4375 235.292969 287.925781 237.199219 290.851562 240.042969 L 329.382812 281.875 C 330.246094 281.5 331.285156 281.6875 331.960938 282.40625 L 337.277344 288.855469 C 338.105469 289.738281 338.101562 291.117188 337.261719 291.992188 Z M 627.570312 700.03125 L 627.570312 693.964844 C 627.570312 692.503906 627.359375 691.097656 626.988281 689.757812 L 596.746094 688.957031 C 596.304688 690.277344 596.019531 691.671875 595.941406 693.128906 L 595.808594 695.667969 C 594.652344 709.117188 594.882812 718.855469 594.882812 728.59375 L 650.292969 728.59375 C 650.523438 717.695312 627.570312 710.65625 627.570312 700.03125 Z M 205.515625 690.503906 C 205.078125 690.207031 204.726562 690.09375 204.386719 690.15625 C 202.457031 690.503906 200.496094 690.484375 198.777344 689.539062 C 191.996094 685.808594 176.078125 684.488281 172.671875 692.410156 C 169.867188 698.933594 166.796875 703.472656 162.585938 710.078125 C 158.742188 716.09375 157.449219 721.011719 157.46875 725.027344 C 157.480469 727.011719 159.128906 728.589844 161.109375 728.589844 L 209.691406 728.589844 C 211.671875 728.589844 213.328125 727.007812 213.332031 725.03125 C 213.355469 714.023438 209.054688 703.632812 207.480469 696.753906 C 206.804688 693.816406 206.667969 691.292969 205.515625 690.503906 Z M 311.027344 709.421875 C 299.53125 704.300781 291.890625 699.050781 288.488281 691.855469 C 284.90625 684.28125 272.042969 685.539062 269.457031 691.203125 C 264.917969 688.273438 262.71875 692.957031 257.28125 692.957031 C 251.847656 692.957031 251.667969 689.039062 248.742188 689.878906 C 244.277344 691.152344 244.140625 709.578125 244.144531 725.238281 C 244.144531 727.300781 245.8125 728.960938 247.871094 728.960938 L 317.5 728.960938 C 319.726562 728.960938 321.46875 727.027344 321.210938 724.816406 C 320.664062 720.152344 318.570312 712.78125 311.027344 709.421875 Z M 488.671875 684.628906 C 487.140625 686.617188 485.867188 688.972656 484.992188 691.726562 C 484.992188 691.726562 483.589844 695.441406 480.980469 700.03125 C 477.414062 707.28125 463.59375 712.914062 456.054688 716.558594 C 446.742188 721.058594 448.359375 728.589844 448.359375 728.589844 L 515.933594 728.589844 C 518.453125 714.636719 515.5 709.285156 517.253906 693.351562 C 517.863281 690.863281 517.953125 688.648438 517.652344 686.699219 Z M 666.835938 404.140625 C 666.863281 404.15625 666.890625 404.171875 666.921875 404.183594 C 667.371094 403.847656 667.351562 403.867188 667.753906 403.5625 C 667.75 403.558594 667.742188 403.550781 667.734375 403.550781 C 667.429688 403.746094 667.132812 403.941406 666.835938 404.140625 Z M 723.308594 341.269531 C 722.527344 340.429688 721.667969 339.699219 720.757812 339.078125 L 719.570312 338.285156 L 661.890625 297.730469 C 660.5625 296.066406 658.648438 294.699219 656.519531 293.894531 C 648.046875 290.683594 640.421875 288.136719 632.613281 286.472656 L 629.808594 269.261719 C 630.265625 276.132812 621.742188 282.757812 614.835938 284.328125 C 612.710938 284.265625 610.527344 284.261719 608.273438 284.324219 C 603.011719 283.21875 600.894531 279.554688 600.039062 274.269531 C 600 274.265625 599.960938 274.25 599.921875 274.246094 L 600.761719 284.761719 C 593.523438 285.386719 585.492188 286.625 576.253906 288.570312 C 575.730469 288.679688 575.234375 288.820312 574.753906 288.976562 C 567.308594 290.921875 561.71875 297.578125 561.496094 305.65625 C 561.328125 311.816406 561.554688 367.539062 561.796875 379.621094 C 561.796875 379.621094 557.394531 422.878906 555.308594 444.4375 C 561.15625 424.652344 569.183594 401.5 582.128906 385.292969 C 581.1875 383.503906 578.472656 377.871094 576.351562 368.941406 C 582.617188 387.539062 592.644531 401.894531 608.957031 401.894531 C 637.105469 401.894531 648.433594 369.507812 656.386719 336.136719 L 686.953125 355.742188 L 664.957031 382.898438 C 668.75 384.410156 672.964844 387.328125 675.011719 389.785156 C 677.410156 392.660156 681.296875 397.609375 680.316406 401.726562 L 722.582031 362.601562 C 728.675781 356.914062 729 347.359375 723.308594 341.269531 Z M 723.308594 341.269531 " fill-opacity="1" fill-rule="evenodd"/><path fill="#293237" d="M 664.777344 217.960938 C 659.429688 226.828125 648.28125 230.046875 639.121094 225.6875 C 639.835938 230.464844 639.394531 235.414062 637.746094 240.089844 C 636.980469 237.019531 634.964844 234.671875 632.246094 234.15625 C 628.125 233.375 627.105469 237.257812 626.601562 239.933594 L 625.855469 243.859375 C 623.902344 241.734375 622.703125 238.980469 622.019531 236.347656 C 622.007812 236.3125 622 236.277344 621.988281 236.242188 C 621.664062 234.972656 621.464844 233.734375 621.355469 232.609375 C 621.34375 232.503906 621.339844 232.40625 621.328125 232.304688 C 621.292969 231.878906 621.273438 231.472656 621.261719 231.089844 C 621.257812 230.96875 621.253906 230.84375 621.253906 230.726562 C 621.25 230.277344 621.257812 229.855469 621.285156 229.488281 C 620.640625 229.484375 619.964844 229.480469 619.269531 229.46875 C 619.210938 229.46875 619.152344 229.46875 619.09375 229.46875 C 618.421875 229.457031 617.726562 229.4375 617.015625 229.417969 C 616.925781 229.414062 616.839844 229.410156 616.75 229.410156 C 616.050781 229.386719 615.328125 229.351562 614.601562 229.3125 C 614.496094 229.304688 614.394531 229.300781 614.289062 229.292969 C 613.558594 229.25 612.816406 229.195312 612.066406 229.132812 C 611.964844 229.125 611.863281 229.117188 611.757812 229.105469 C 611 229.039062 610.230469 228.960938 609.460938 228.871094 C 609.371094 228.859375 609.277344 228.84375 609.1875 228.835938 C 608.398438 228.738281 607.605469 228.625 606.816406 228.496094 C 606.75 228.488281 606.683594 228.476562 606.621094 228.464844 C 605.800781 228.328125 604.980469 228.175781 604.164062 228.003906 C 604.144531 227.996094 604.128906 227.992188 604.109375 227.988281 C 602.429688 227.628906 600.773438 227.179688 599.175781 226.621094 C 599.140625 226.609375 599.101562 226.597656 599.066406 226.585938 C 598.300781 226.316406 597.554688 226.023438 596.824219 225.703125 C 596.761719 225.671875 596.695312 225.648438 596.632812 225.617188 C 595.921875 225.300781 595.230469 224.957031 594.558594 224.582031 C 594.484375 224.542969 594.414062 224.503906 594.34375 224.464844 C 593.679688 224.089844 593.042969 223.6875 592.429688 223.253906 C 592.363281 223.207031 592.292969 223.15625 592.226562 223.109375 C 591.613281 222.667969 591.03125 222.199219 590.476562 221.691406 C 590.421875 221.644531 590.371094 221.59375 590.320312 221.546875 C 589.761719 221.027344 589.230469 220.476562 588.738281 219.886719 C 588.710938 219.851562 588.683594 219.8125 588.65625 219.777344 C 587.628906 218.523438 586.761719 217.109375 586.101562 215.511719 C 585.726562 214.613281 585.417969 213.65625 585.179688 212.640625 C 594.582031 199.550781 612.566406 196.335938 625.914062 205.089844 L 630.585938 197.339844 C 636.28125 187.898438 648.550781 184.859375 657.996094 190.550781 C 667.433594 196.246094 670.472656 208.519531 664.777344 217.960938 Z M 163.742188 313.90625 C 163.804688 313.90625 163.863281 313.898438 163.925781 313.882812 L 171.464844 312.082031 L 181.726562 308.027344 C 182.132812 307.867188 182.332031 307.40625 182.171875 307.003906 C 182.007812 306.597656 181.550781 306.390625 181.144531 306.558594 L 170.992188 310.578125 L 163.5625 312.34375 C 163.132812 312.441406 162.871094 312.871094 162.972656 313.296875 C 163.058594 313.660156 163.382812 313.90625 163.742188 313.90625 Z M 129.355469 324.082031 L 142.765625 324.21875 L 141.859375 325.789062 L 129.34375 325.664062 C 128.90625 325.660156 128.554688 325.300781 128.558594 324.867188 C 128.5625 324.433594 128.917969 324.082031 129.351562 324.082031 C 129.351562 324.082031 129.351562 324.082031 129.355469 324.082031 Z M 162.382812 321.765625 L 169.8125 319.996094 L 179.96875 315.976562 C 180.375 315.8125 180.835938 316.015625 180.992188 316.421875 C 181.15625 316.828125 180.957031 317.289062 180.550781 317.445312 L 170.289062 321.5 L 162.75 323.304688 C 162.6875 323.320312 162.625 323.324219 162.566406 323.324219 C 162.207031 323.324219 161.882812 323.082031 161.796875 322.71875 C 161.691406 322.292969 161.957031 321.863281 162.382812 321.765625 Z M 643.484375 327.867188 C 643.71875 327.496094 644.214844 327.390625 644.578125 327.628906 L 656.539062 335.300781 C 656.90625 335.535156 657.015625 336.023438 656.777344 336.390625 C 656.625 336.625 656.371094 336.753906 656.109375 336.753906 C 655.964844 336.753906 655.816406 336.714844 655.683594 336.628906 L 643.722656 328.957031 C 643.355469 328.722656 643.25 328.234375 643.484375 327.867188 Z M 148.183594 271.710938 L 150.554688 297.867188 C 149.964844 298.304688 149.480469 298.847656 149.109375 299.457031 L 146.605469 271.855469 C 146.570312 271.421875 146.886719 271.035156 147.324219 270.996094 C 147.710938 270.960938 148.144531 271.277344 148.183594 271.710938 Z M 160.988281 266.132812 C 160.792969 264.738281 161.765625 263.59375 163.164062 263.574219 L 228.800781 262.792969 C 230.199219 262.777344 231.488281 263.894531 231.683594 265.289062 L 243.746094 351.5625 C 243.941406 352.957031 242.96875 354.101562 241.570312 354.117188 L 175.933594 354.902344 C 174.535156 354.917969 173.246094 353.800781 173.050781 352.40625 L 170.082031 331.1875 L 170.15625 330.496094 C 171.652344 329.855469 173.175781 329.199219 173.179688 329.195312 C 173.441406 329.105469 173.707031 328.988281 173.953125 328.84375 L 181.96875 322.867188 C 187.15625 318.890625 183.820312 315.257812 181.382812 315.871094 C 182.804688 315.0625 183.980469 314.371094 184.414062 314.0625 C 185.847656 313.046875 188.105469 311.511719 187.277344 308.859375 C 186.84375 307.464844 185.714844 306.871094 184.476562 306.695312 C 186.738281 305.109375 186.820312 302.664062 186.359375 301.726562 C 185.527344 300.019531 184.523438 299.859375 182.5 300.105469 C 180.476562 300.351562 169.464844 301.636719 169.433594 301.640625 C 169.09375 301.664062 168.753906 301.710938 168.414062 301.804688 L 167.230469 302.164062 C 166.8125 301.875 166.371094 301.625 165.917969 301.394531 L 165.832031 300.785156 L 167.660156 299.503906 C 170.511719 299.304688 175.226562 298.960938 177.925781 298.6875 C 181.972656 298.269531 183.214844 295.566406 183.238281 294.339844 C 183.273438 292.4375 181.808594 292.261719 179.886719 291.695312 L 167.230469 290.027344 C 166.230469 289.917969 165.25 290.039062 164.371094 290.339844 Z M 202.957031 177.390625 C 207.046875 177.628906 206.417969 193.117188 206.417969 193.117188 C 206.3125 194.921875 204.796875 196.199219 203.117188 196.191406 C 206.941406 205.074219 212.1875 211.976562 216.90625 216.265625 C 218.15625 217.488281 219.546875 218.570312 221.058594 219.476562 C 221.554688 219.777344 222.0625 220.054688 222.582031 220.316406 C 224.144531 221.101562 225.8125 221.707031 227.5625 222.113281 C 228.144531 222.246094 228.738281 222.359375 229.335938 222.449219 C 229.9375 222.539062 230.546875 222.605469 231.164062 222.644531 C 231.941406 222.699219 232.714844 222.710938 233.480469 222.683594 C 235.773438 222.609375 237.988281 222.183594 240.070312 221.464844 C 243.542969 220.261719 246.652344 218.234375 249.140625 215.601562 C 250.136719 214.546875 251.035156 213.398438 251.816406 212.164062 C 253.769531 209.082031 255.003906 205.480469 255.265625 201.585938 L 256.230469 187.238281 C 253.875 195.296875 249.710938 197.484375 239.003906 197.484375 C 223.484375 197.484375 214.082031 194.496094 211.203125 178.769531 C 217.375 174.25 211.816406 165.546875 217.296875 158.136719 C 222.5625 159.890625 232.371094 159.917969 238.238281 159.320312 C 245.773438 158.550781 249.585938 157.808594 252.617188 155.839844 C 254.214844 158.238281 255.480469 160.914062 256.285156 163.847656 C 256.851562 165.914062 257.140625 168.042969 257.21875 170.132812 C 257.226562 170.015625 257.246094 169.894531 257.253906 169.777344 C 258.539062 151.996094 243.914062 140.230469 227.457031 140.230469 C 211 140.230469 197.660156 152.195312 197.660156 169.777344 C 197.660156 173.011719 197.914062 176.121094 198.335938 179.121094 C 199.660156 177.949219 201.261719 177.292969 202.957031 177.390625 Z M 237.957031 202.425781 C 242.75 202.425781 248.695312 200.46875 248.695312 204.945312 C 248.695312 206.898438 247.796875 208.6875 246.300781 210.085938 C 243.902344 212.332031 239.785156 210.621094 239.753906 207.335938 L 239.753906 207.277344 C 239.753906 207.261719 239.757812 207.246094 239.757812 207.230469 C 239.757812 207.230469 236.164062 207.257812 236.164062 207.277344 C 236.164062 207.296875 236.164062 207.316406 236.164062 207.335938 C 236.132812 210.621094 232.015625 212.332031 229.617188 210.085938 C 228.121094 208.6875 227.222656 206.898438 227.222656 204.945312 C 227.222656 200.46875 233.167969 202.425781 237.957031 202.425781 Z M 409.9375 245.171875 L 408.691406 245.175781 C 408.203125 245.175781 407.730469 245.179688 407.273438 245.179688 C 402.828125 245.179688 399.445312 245 393.375 242.976562 C 392.960938 242.835938 392.734375 242.390625 392.875 241.976562 C 393.015625 241.558594 393.464844 241.339844 393.875 241.476562 C 400.328125 243.625 403.460938 243.613281 408.6875 243.59375 L 409.933594 243.589844 L 409.9375 243.589844 C 410.371094 243.589844 410.726562 243.941406 410.726562 244.378906 C 410.726562 244.816406 410.371094 245.171875 409.9375 245.171875 Z M 389.941406 269.230469 C 389.941406 269.667969 389.585938 270.023438 389.152344 270.023438 L 379.207031 270.023438 C 378.769531 270.023438 378.417969 269.667969 378.417969 269.230469 C 378.417969 268.796875 378.769531 268.441406 379.207031 268.441406 L 389.152344 268.441406 C 389.589844 268.441406 389.941406 268.796875 389.941406 269.230469 Z M 435.285156 249.734375 C 435.246094 250.144531 434.902344 250.449219 434.5 250.449219 C 434.472656 250.449219 434.449219 250.449219 434.421875 250.445312 C 427.324219 249.777344 414.328125 249.046875 410.917969 248.863281 C 410.988281 249.945312 411.054688 251.289062 411.082031 252.714844 L 431.492188 253.984375 C 431.929688 254.015625 432.261719 254.390625 432.234375 254.824219 C 432.207031 255.242188 431.859375 255.566406 431.445312 255.566406 C 431.429688 255.566406 431.410156 255.566406 431.394531 255.566406 L 411.097656 254.300781 C 411.09375 255.375 411.058594 256.445312 410.976562 257.460938 C 413.996094 257.789062 421.378906 257.320312 426.472656 256.472656 C 426.898438 256.398438 427.3125 256.695312 427.382812 257.125 C 427.457031 257.554688 427.164062 257.960938 426.734375 258.035156 C 422.628906 258.71875 417.226562 259.144531 413.519531 259.144531 C 412.445312 259.144531 411.527344 259.109375 410.8125 259.03125 C 410.710938 259.734375 410.582031 260.378906 410.414062 260.925781 C 410.308594 261.269531 409.996094 261.488281 409.65625 261.488281 C 409.578125 261.488281 409.5 261.476562 409.425781 261.453125 C 409.007812 261.328125 408.773438 260.882812 408.898438 260.464844 C 410.121094 256.484375 409.152344 246.601562 409.144531 246.503906 C 409.097656 246.070312 409.417969 245.679688 409.851562 245.636719 C 410.261719 245.578125 410.671875 245.910156 410.714844 246.34375 C 410.722656 246.414062 410.757812 246.757812 410.796875 247.269531 C 413.859375 247.4375 427.289062 248.183594 434.570312 248.871094 C 435.007812 248.910156 435.324219 249.296875 435.285156 249.734375 Z M 676.59375 448.480469 C 676.59375 463.914062 663.164062 605.96875 657.082031 669.527344 C 657.054688 669.523438 653.230469 690.453125 653.203125 690.453125 L 586.683594 688.6875 L 601.011719 546.394531 C 601.019531 546.394531 601.027344 546.402344 601.03125 546.402344 C 601.042969 546.402344 601.050781 546.402344 601.058594 546.402344 C 601.484375 546.402344 601.835938 546.0625 601.847656 545.632812 L 605.253906 435.941406 C 605.257812 435.742188 605.191406 435.550781 605.0625 435.402344 L 592.839844 421.144531 C 592.554688 420.8125 592.054688 420.777344 591.726562 421.058594 C 591.394531 421.34375 591.355469 421.84375 591.636719 422.171875 L 603.660156 436.199219 L 600.265625 545.585938 C 600.253906 545.945312 600.492188 546.246094 600.820312 546.351562 L 561.589844 669.558594 C 561.511719 669.535156 553.804688 689.277344 553.71875 689.277344 L 479.546875 683.980469 C 496.996094 624.210938 544.992188 480.722656 552.597656 453.824219 C 558.65625 432.410156 567.070312 404.148438 582.128906 385.296875 C 581.132812 383.402344 578.140625 377.1875 575.976562 367.300781 C 573.609375 356.476562 571.878906 339.074219 577.082031 317.644531 C 577.183594 317.21875 577.609375 316.96875 578.039062 317.0625 C 578.464844 317.164062 578.722656 317.59375 578.621094 318.015625 C 573.496094 339.121094 575.183594 356.242188 577.503906 366.890625 C 580.019531 378.429688 583.796875 385.066406 583.832031 385.128906 C 583.929688 385.296875 583.949219 385.484375 583.917969 385.664062 C 588.976562 393.878906 595.484375 399.707031 603.875 401.386719 C 603.132812 397.46875 602.398438 393.757812 601.6875 390.214844 C 597.519531 369.328125 594.511719 354.238281 598.179688 331.746094 C 600.929688 314.855469 607.96875 303.300781 609.070312 301.574219 L 608.332031 284.71875 C 608.316406 284.28125 608.652344 283.914062 609.089844 283.894531 C 609.527344 283.882812 609.898438 284.214844 609.914062 284.652344 L 610.664062 301.757812 C 610.667969 301.925781 610.625 302.09375 610.527344 302.234375 C 610.449219 302.351562 602.65625 314.109375 599.742188 332 C 596.117188 354.210938 599.109375 369.183594 603.242188 389.90625 C 603.964844 393.53125 604.71875 397.320312 605.476562 401.335938 C 605.496094 401.445312 605.492188 401.554688 605.46875 401.652344 C 606.601562 401.804688 607.757812 401.902344 608.957031 401.902344 C 626.574219 401.902344 637.597656 389.210938 645.335938 371.535156 C 650.242188 374.328125 654.628906 377.921875 658.335938 382.128906 C 655.554688 382.710938 654.054688 384.164062 654.054688 384.164062 C 651.476562 386.03125 647.058594 389.550781 646.152344 390.1875 C 641.753906 393.253906 645.429688 397.511719 649.246094 395.421875 C 651.984375 393.925781 653.679688 393.566406 657.375 391.742188 C 657.226562 391.433594 657.277344 391.054688 657.542969 390.808594 L 660.226562 388.386719 C 660.550781 388.089844 661.050781 388.117188 661.34375 388.441406 C 661.636719 388.765625 661.613281 389.265625 661.289062 389.558594 L 658.605469 391.984375 C 658.453125 392.121094 658.261719 392.1875 658.074219 392.1875 C 657.875 392.1875 657.683594 392.105469 657.53125 391.957031 C 654.128906 395.515625 654.984375 395.566406 651.335938 399.179688 C 647.277344 403.203125 651.558594 407.875 655.171875 404.96875 C 655.269531 404.886719 655.390625 404.789062 655.5 404.703125 C 655.246094 404.382812 655.265625 403.925781 655.566406 403.640625 L 665.925781 393.816406 C 666.242188 393.519531 666.742188 393.53125 667.042969 393.847656 C 667.34375 394.164062 667.328125 394.667969 667.011719 394.964844 L 656.652344 404.789062 C 656.5 404.933594 656.304688 405.007812 656.109375 405.007812 C 655.984375 405.007812 655.863281 404.96875 655.753906 404.910156 C 654.589844 407.777344 657.558594 410.414062 660.382812 408.457031 C 661.296875 407.820312 662.4375 407.050781 663.695312 406.214844 C 663.574219 405.894531 663.660156 405.523438 663.945312 405.308594 L 671.441406 399.625 C 671.789062 399.363281 672.285156 399.429688 672.550781 399.78125 C 672.8125 400.128906 672.746094 400.621094 672.398438 400.886719 L 664.902344 406.566406 C 664.757812 406.675781 664.589844 406.730469 664.421875 406.730469 C 664.398438 406.730469 664.375 406.714844 664.351562 406.714844 C 663.324219 409.082031 665.765625 411.519531 668.222656 410.054688 C 668.9375 409.625 670.382812 408.957031 672 408.195312 C 675.898438 421.1875 676.59375 434.660156 676.59375 448.480469 Z M 329.148438 283.027344 C 329.429688 283.363281 329.382812 283.863281 329.046875 284.140625 L 297.632812 310.234375 C 297.484375 310.359375 297.304688 310.417969 297.128906 310.417969 C 296.898438 310.417969 296.675781 310.320312 296.519531 310.132812 C 296.238281 309.796875 296.285156 309.296875 296.621094 309.019531 L 328.035156 282.925781 C 328.367188 282.648438 328.871094 282.691406 329.148438 283.027344 Z M 279.707031 538.800781 L 282.5625 682.746094 L 245.332031 682.746094 C 238.105469 658.765625 221.328125 590.753906 229.515625 548.273438 L 214.898438 442.742188 L 215.113281 423.421875 L 228.011719 419.980469 C 228.4375 419.867188 228.6875 419.433594 228.574219 419.011719 C 228.460938 418.589844 228.03125 418.34375 227.605469 418.453125 L 214.125 422.046875 C 213.78125 422.140625 213.539062 422.449219 213.535156 422.804688 L 213.179688 455.148438 C 213.175781 455.585938 213.523438 455.945312 213.960938 455.949219 L 209.144531 682.746094 L 170.46875 682.746094 C 167.695312 666.234375 162.464844 634.546875 159.953125 615.738281 C 156.449219 589.449219 161.640625 541.929688 161.640625 541.929688 L 156.601562 446.925781 C 155.753906 429.488281 155.96875 408.929688 157.222656 390.171875 C 158.070312 390.804688 159.035156 391.292969 160.101562 391.605469 C 195.238281 401.933594 231.101562 406.425781 267.6875 405.078125 C 267.996094 405.066406 268.285156 405.03125 268.558594 404.984375 Z M 159.445312 340.808594 C 156.335938 340.183594 153.363281 338.332031 152.214844 336.304688 C 152 335.925781 152.132812 335.441406 152.511719 335.226562 C 152.890625 335.007812 153.375 335.140625 153.589844 335.523438 C 154.386719 336.921875 156.757812 338.65625 159.757812 339.257812 C 161.691406 339.648438 164.535156 339.6875 167.140625 337.679688 C 167.484375 337.414062 167.980469 337.480469 168.25 337.828125 C 168.515625 338.171875 168.449219 338.667969 168.101562 338.9375 C 165.992188 340.5625 163.757812 341.050781 161.835938 341.050781 C 160.960938 341.050781 160.148438 340.953125 159.445312 340.808594 Z M 285.800781 268.402344 L 282.800781 296.292969 C 282.757812 296.699219 282.414062 296.996094 282.015625 296.996094 C 281.984375 296.996094 281.960938 296.996094 281.929688 296.992188 C 281.496094 296.945312 281.179688 296.554688 281.226562 296.121094 L 284.226562 268.230469 C 284.273438 267.796875 284.660156 267.496094 285.097656 267.53125 C 285.53125 267.574219 285.847656 267.964844 285.800781 268.402344 Z M 285.800781 268.402344 " fill-opacity="1" fill-rule="evenodd"/></svg>